<?xml version="1.0" encoding="utf-8"?>
<!-- Generator: Adobe Illustrator 16.0.0, SVG Export Plug-In . SVG Version: 6.00 Build 0)  -->
<!DOCTYPE svg PUBLIC "-//W3C//DTD SVG 1.1//EN" "http://www.w3.org/Graphics/SVG/1.1/DTD/svg11.dtd">
<svg version="1.1" id="Layer_1" xmlns="http://www.w3.org/2000/svg" xmlns:xlink="http://www.w3.org/1999/xlink" x="0px" y="0px"
	 width="430.383px" height="254.555px" viewBox="0 0 430.383 254.555" enable-background="new 0 0 430.383 254.555"
	 xml:space="preserve">
<g>
	<rect x="1" y="149.391" fill="#FFFFFF" width="39.801" height="83.608"/>
	<rect x="56.279" y="156.359" fill="#FFFFFF" width="39.8" height="76.641"/>
	<rect x="111.558" y="136.154" fill="#FFFFFF" width="39.801" height="96.846"/>
	<rect x="166.836" y="129.884" fill="#FFFFFF" width="39.801" height="103.116"/>
	<rect x="222.115" y="144.515" fill="#FFFFFF" width="39.803" height="88.484"/>
	<rect x="277.394" y="125.354" fill="#FFFFFF" width="39.801" height="107.646"/>
	<rect x="332.673" y="136.503" fill="#FFFFFF" width="39.801" height="96.497"/>
	<rect x="387.953" y="73.099" fill="#FFFFFF" width="39.799" height="159.9"/>
</g>
<g>
	<path fill="#1BACE3" d="M345.094,155.9h-9.385v-1.396l3.76-3.779c1.146-1.159,1.902-1.985,2.266-2.48
		c0.365-0.495,0.639-0.977,0.82-1.445c0.184-0.469,0.273-0.974,0.273-1.514c0-0.762-0.23-1.365-0.693-1.812
		c-0.461-0.446-1.104-0.669-1.924-0.669c-0.592,0-1.154,0.098-1.684,0.293c-0.531,0.195-1.121,0.55-1.773,1.064l-0.859-1.104
		c1.316-1.094,2.748-1.641,4.297-1.641c1.342,0,2.393,0.344,3.154,1.03s1.143,1.609,1.143,2.769c0,0.905-0.254,1.8-0.762,2.686
		s-1.457,2.005-2.852,3.359l-3.125,3.057v0.078h7.344V155.9z"/>
	<path fill="#1BACE3" d="M348.952,155.9l5.918-12.783h-7.783v-1.494h9.502v1.299l-5.84,12.979H348.952z"/>
	<path fill="#1BACE3" d="M360.387,155.9l5.918-12.783h-7.783v-1.494h9.502v1.299l-5.84,12.979H360.387z"/>
</g>
<g>
	<path fill="#1BACE3" d="M289.498,132.529c0,0.911-0.256,1.657-0.767,2.236s-1.235,0.967-2.173,1.162v0.078
		c1.146,0.144,1.995,0.508,2.549,1.094s0.83,1.354,0.83,2.305c0,1.36-0.472,2.407-1.416,3.14s-2.285,1.099-4.023,1.099
		c-0.755,0-1.447-0.057-2.075-0.171s-1.238-0.314-1.831-0.601v-1.543c0.618,0.306,1.277,0.539,1.978,0.698s1.362,0.239,1.987,0.239
		c2.468,0,3.701-0.967,3.701-2.9c0-1.731-1.36-2.598-4.082-2.598h-1.406v-1.396h1.426c1.113,0,1.995-0.246,2.646-0.737
		s0.977-1.174,0.977-2.046c0-0.696-0.239-1.243-0.718-1.641s-1.128-0.596-1.948-0.596c-0.625,0-1.214,0.085-1.768,0.254
		s-1.185,0.481-1.895,0.938l-0.82-1.094c0.586-0.462,1.262-0.825,2.026-1.089s1.57-0.396,2.417-0.396
		c1.387,0,2.464,0.317,3.232,0.952S289.498,131.423,289.498,132.529z"/>
	<path fill="#1BACE3" d="M301.548,136.289c0,2.468-0.389,4.31-1.167,5.527s-1.968,1.826-3.569,1.826
		c-1.536,0-2.705-0.623-3.506-1.87s-1.201-3.074-1.201-5.483c0-2.487,0.388-4.333,1.162-5.537s1.956-1.807,3.545-1.807
		c1.55,0,2.727,0.628,3.53,1.885S301.548,133.906,301.548,136.289z M293.746,136.289c0,2.077,0.244,3.589,0.732,4.536
		s1.267,1.421,2.334,1.421c1.081,0,1.863-0.48,2.349-1.44s0.728-2.466,0.728-4.517s-0.242-3.553-0.728-4.507
		s-1.268-1.431-2.349-1.431c-1.067,0-1.846,0.471-2.334,1.411S293.746,134.212,293.746,136.289z"/>
	<path fill="#1BACE3" d="M312.906,135.263c0,5.586-2.161,8.379-6.484,8.379c-0.755,0-1.354-0.065-1.797-0.195v-1.396
		c0.521,0.169,1.113,0.254,1.777,0.254c1.563,0,2.742-0.483,3.54-1.45s1.232-2.449,1.304-4.448h-0.117
		c-0.358,0.54-0.833,0.952-1.426,1.235s-1.26,0.425-2.002,0.425c-1.263,0-2.266-0.378-3.008-1.133s-1.113-1.81-1.113-3.164
		c0-1.484,0.415-2.656,1.245-3.516s1.922-1.289,3.276-1.289c0.97,0,1.818,0.249,2.544,0.747s1.284,1.224,1.675,2.178
		S312.906,133.968,312.906,135.263z M308.101,130.351c-0.931,0-1.65,0.3-2.158,0.898s-0.762,1.433-0.762,2.5
		c0,0.938,0.234,1.675,0.703,2.212s1.182,0.806,2.139,0.806c0.593,0,1.138-0.12,1.636-0.361s0.891-0.569,1.177-0.986
		s0.43-0.853,0.43-1.309c0-0.684-0.134-1.315-0.4-1.895s-0.64-1.035-1.118-1.367S308.719,130.351,308.101,130.351z"/>
</g>
<g>
	<path fill="#1BACE3" d="M234.331,163.508h-9.385v-1.396l3.76-3.779c1.146-1.159,1.901-1.985,2.266-2.48s0.638-0.977,0.82-1.445
		s0.273-0.974,0.273-1.514c0-0.762-0.231-1.365-0.693-1.812s-1.104-0.669-1.924-0.669c-0.593,0-1.154,0.098-1.685,0.293
		s-1.121,0.55-1.772,1.064l-0.859-1.104c1.315-1.094,2.747-1.641,4.297-1.641c1.341,0,2.393,0.344,3.154,1.03
		s1.143,1.609,1.143,2.769c0,0.905-0.254,1.8-0.762,2.686s-1.458,2.005-2.852,3.359l-3.125,3.057v0.078h7.344V163.508z"/>
	<path fill="#1BACE3" d="M240.844,154.787c1.504,0,2.688,0.373,3.55,1.118s1.294,1.766,1.294,3.062c0,1.478-0.471,2.637-1.411,3.477
		s-2.238,1.26-3.892,1.26c-1.608,0-2.835-0.257-3.682-0.771v-1.563c0.456,0.293,1.022,0.522,1.699,0.688s1.345,0.249,2.002,0.249
		c1.146,0,2.036-0.271,2.671-0.811s0.952-1.321,0.952-2.344c0-1.992-1.221-2.988-3.662-2.988c-0.618,0-1.445,0.095-2.48,0.283
		l-0.84-0.537l0.537-6.68h7.1v1.494h-5.713l-0.361,4.287C239.357,154.862,240.102,154.787,240.844,154.787z"/>
	<path fill="#1BACE3" d="M257.875,160.226h-2.119v3.281h-1.553v-3.281h-6.943v-1.416l6.777-9.658h1.719v9.6h2.119V160.226z
		 M254.204,158.752v-4.746c0-0.931,0.032-1.982,0.098-3.154h-0.078c-0.313,0.625-0.605,1.143-0.879,1.553l-4.463,6.348H254.204z"/>
</g>
<g>
	<path fill="#1BACE3" d="M179.326,147.748h-9.385v-1.396l3.76-3.779c1.146-1.159,1.901-1.985,2.266-2.48s0.638-0.977,0.82-1.445
		s0.273-0.974,0.273-1.514c0-0.762-0.231-1.365-0.693-1.812s-1.104-0.669-1.924-0.669c-0.593,0-1.154,0.098-1.685,0.293
		s-1.121,0.55-1.772,1.064l-0.859-1.104c1.315-1.094,2.747-1.641,4.297-1.641c1.341,0,2.393,0.344,3.154,1.03
		s1.143,1.609,1.143,2.769c0,0.905-0.254,1.8-0.762,2.686s-1.458,2.005-2.852,3.359l-3.125,3.057v0.078h7.344V147.748z"/>
	<path fill="#1BACE3" d="M190.762,139.564c0,5.586-2.161,8.379-6.484,8.379c-0.755,0-1.354-0.065-1.797-0.195v-1.396
		c0.521,0.169,1.113,0.254,1.777,0.254c1.563,0,2.742-0.483,3.54-1.45s1.232-2.449,1.304-4.448h-0.117
		c-0.358,0.54-0.833,0.952-1.426,1.235s-1.26,0.425-2.002,0.425c-1.263,0-2.266-0.378-3.008-1.133s-1.113-1.81-1.113-3.164
		c0-1.484,0.415-2.656,1.245-3.516s1.922-1.289,3.276-1.289c0.97,0,1.818,0.249,2.544,0.747s1.284,1.224,1.675,2.178
		S190.762,138.268,190.762,139.564z M185.957,134.652c-0.931,0-1.65,0.3-2.158,0.898s-0.762,1.433-0.762,2.5
		c0,0.938,0.234,1.675,0.703,2.212s1.182,0.806,2.139,0.806c0.593,0,1.138-0.12,1.636-0.361s0.891-0.569,1.177-0.986
		s0.43-0.853,0.43-1.309c0-0.684-0.134-1.315-0.4-1.895s-0.64-1.035-1.118-1.367S186.575,134.652,185.957,134.652z"/>
	<path fill="#1BACE3" d="M192.979,141.644c0-2.806,0.545-4.904,1.636-6.294s2.703-2.085,4.839-2.085
		c0.735,0,1.315,0.062,1.738,0.186v1.396c-0.501-0.163-1.074-0.244-1.719-0.244c-1.53,0-2.698,0.477-3.506,1.431
		s-1.25,2.453-1.328,4.497h0.117c0.716-1.12,1.849-1.68,3.398-1.68c1.282,0,2.293,0.388,3.032,1.162s1.108,1.826,1.108,3.154
		c0,1.484-0.405,2.651-1.216,3.501s-1.906,1.274-3.286,1.274c-1.478,0-2.649-0.555-3.516-1.665S192.979,143.624,192.979,141.644z
		 M197.773,146.566c0.925,0,1.643-0.291,2.153-0.874s0.767-1.424,0.767-2.524c0-0.944-0.237-1.687-0.713-2.227
		s-1.185-0.811-2.129-0.811c-0.586,0-1.123,0.12-1.611,0.361s-0.877,0.573-1.167,0.996s-0.435,0.862-0.435,1.318
		c0,0.671,0.13,1.296,0.391,1.875s0.63,1.038,1.108,1.377S197.161,146.566,197.773,146.566z"/>
</g>
<g>
	<path fill="#1BACE3" d="M124.152,154.794h-9.385v-1.396l3.76-3.779c1.146-1.159,1.901-1.985,2.266-2.48s0.638-0.977,0.82-1.445
		s0.273-0.974,0.273-1.514c0-0.762-0.231-1.365-0.693-1.812s-1.104-0.669-1.924-0.669c-0.593,0-1.154,0.098-1.685,0.293
		s-1.121,0.55-1.772,1.064l-0.859-1.104c1.315-1.094,2.747-1.641,4.297-1.641c1.341,0,2.393,0.344,3.154,1.03
		s1.143,1.609,1.143,2.769c0,0.905-0.254,1.8-0.762,2.686s-1.458,2.005-2.852,3.359l-3.125,3.057v0.078h7.344V154.794z"/>
	<path fill="#1BACE3" d="M128.009,154.794l5.918-12.783h-7.783v-1.494h9.502v1.299l-5.84,12.979H128.009z"/>
	<path fill="#1BACE3" d="M142.365,140.311c1.302,0,2.334,0.303,3.096,0.908s1.143,1.442,1.143,2.51c0,0.703-0.218,1.345-0.654,1.924
		s-1.133,1.106-2.09,1.582c1.159,0.554,1.982,1.135,2.471,1.743s0.732,1.313,0.732,2.114c0,1.185-0.413,2.131-1.24,2.837
		s-1.96,1.06-3.398,1.06c-1.523,0-2.695-0.334-3.516-1.001s-1.23-1.613-1.23-2.837c0-1.634,0.996-2.907,2.988-3.818
		c-0.898-0.508-1.543-1.057-1.934-1.646s-0.586-1.248-0.586-1.978c0-1.035,0.383-1.86,1.147-2.476S141.083,140.311,142.365,140.311z
		 M139.279,151.19c0,0.781,0.271,1.39,0.815,1.826s1.307,0.654,2.29,0.654c0.97,0,1.726-0.228,2.266-0.684s0.811-1.081,0.811-1.875
		c0-0.632-0.254-1.193-0.762-1.685s-1.394-0.969-2.656-1.431c-0.97,0.417-1.673,0.877-2.109,1.382S139.279,150.487,139.279,151.19z
		 M142.345,141.63c-0.813,0-1.452,0.195-1.914,0.586s-0.693,0.911-0.693,1.563c0,0.599,0.192,1.113,0.576,1.543
		s1.094,0.859,2.129,1.289c0.931-0.391,1.59-0.811,1.978-1.26s0.581-0.974,0.581-1.572c0-0.657-0.236-1.18-0.708-1.567
		S143.172,141.63,142.345,141.63z"/>
</g>
<g>
	<path fill="#1BACE3" d="M69.366,176.755h-9.385v-1.396l3.76-3.779c1.146-1.159,1.901-1.985,2.266-2.48s0.638-0.977,0.82-1.445
		s0.273-0.974,0.273-1.514c0-0.762-0.231-1.365-0.693-1.812s-1.104-0.669-1.924-0.669c-0.593,0-1.154,0.098-1.685,0.293
		s-1.121,0.55-1.772,1.064l-0.859-1.104c1.315-1.094,2.747-1.641,4.297-1.641c1.341,0,2.393,0.344,3.154,1.03
		s1.143,1.609,1.143,2.769c0,0.905-0.254,1.8-0.762,2.686s-1.458,2.005-2.852,3.359l-3.125,3.057v0.078h7.344V176.755z"/>
	<path fill="#1BACE3" d="M80.802,176.755h-9.385v-1.396l3.76-3.779c1.146-1.159,1.901-1.985,2.266-2.48s0.638-0.977,0.82-1.445
		s0.273-0.974,0.273-1.514c0-0.762-0.231-1.365-0.693-1.812s-1.104-0.669-1.924-0.669c-0.593,0-1.154,0.098-1.685,0.293
		s-1.121,0.55-1.772,1.064l-0.859-1.104c1.315-1.094,2.747-1.641,4.297-1.641c1.341,0,2.393,0.344,3.154,1.03
		s1.143,1.609,1.143,2.769c0,0.905-0.254,1.8-0.762,2.686s-1.458,2.005-2.852,3.359l-3.125,3.057v0.078h7.344V176.755z"/>
	<path fill="#1BACE3" d="M92.315,169.596c0,2.468-0.389,4.31-1.167,5.527s-1.968,1.826-3.569,1.826c-1.536,0-2.705-0.623-3.506-1.87
		s-1.201-3.074-1.201-5.483c0-2.487,0.388-4.333,1.162-5.537s1.956-1.807,3.545-1.807c1.55,0,2.727,0.628,3.53,1.885
		S92.315,167.214,92.315,169.596z M84.513,169.596c0,2.077,0.244,3.589,0.732,4.536s1.267,1.421,2.334,1.421
		c1.081,0,1.863-0.48,2.349-1.44s0.728-2.466,0.728-4.517s-0.242-3.553-0.728-4.507s-1.268-1.431-2.349-1.431
		c-1.067,0-1.846,0.471-2.334,1.411S84.513,167.519,84.513,169.596z"/>
</g>
<g>
	<path fill="#1BACE3" d="M14.035,168.059H4.65v-1.396l3.76-3.779c1.146-1.159,1.901-1.985,2.266-2.48s0.638-0.977,0.82-1.445
		s0.273-0.974,0.273-1.514c0-0.762-0.231-1.365-0.693-1.812s-1.104-0.669-1.924-0.669c-0.593,0-1.154,0.098-1.685,0.293
		s-1.121,0.55-1.772,1.064l-0.859-1.104c1.315-1.094,2.747-1.641,4.297-1.641c1.341,0,2.393,0.344,3.154,1.03
		s1.143,1.609,1.143,2.769c0,0.905-0.254,1.8-0.762,2.686s-1.458,2.005-2.852,3.359l-3.125,3.057v0.078h7.344V168.059z"/>
	<path fill="#1BACE3" d="M26.144,164.778h-2.119v3.281h-1.553v-3.281h-6.943v-1.416l6.777-9.658h1.719v9.6h2.119V164.778z
		 M22.472,163.303v-4.746c0-0.931,0.032-1.982,0.098-3.154h-0.078c-0.313,0.625-0.605,1.143-0.879,1.553l-4.463,6.348H22.472z"/>
	<path fill="#1BACE3" d="M36.984,160.901c0,2.468-0.389,4.31-1.167,5.527s-1.968,1.826-3.569,1.826c-1.536,0-2.705-0.623-3.506-1.87
		s-1.201-3.074-1.201-5.483c0-2.487,0.388-4.333,1.162-5.537s1.956-1.807,3.545-1.807c1.55,0,2.727,0.628,3.53,1.885
		S36.984,158.518,36.984,160.901z M29.181,160.901c0,2.077,0.244,3.589,0.732,4.536s1.267,1.421,2.334,1.421
		c1.081,0,1.863-0.48,2.349-1.44s0.728-2.466,0.728-4.517s-0.242-3.553-0.728-4.507s-1.268-1.431-2.349-1.431
		c-1.067,0-1.846,0.471-2.334,1.411S29.181,158.824,29.181,160.901z"/>
</g>
<g>
	<path fill="#FFFFFF" d="M396.477,63.915h-3.18v4.922h-2.328v-4.922h-10.416v-2.124l10.166-14.487h2.578v14.399h3.18V63.915z
		 M390.969,61.703v-7.119c0-1.396,0.049-2.974,0.146-4.731h-0.117c-0.469,0.938-0.908,1.714-1.318,2.329l-6.695,9.521H390.969z"/>
	<path fill="#FFFFFF" d="M398.792,59.681c0-4.209,0.816-7.355,2.453-9.44c1.635-2.085,4.055-3.128,7.258-3.128
		c1.104,0,1.973,0.093,2.607,0.278v2.095c-0.752-0.244-1.611-0.366-2.578-0.366c-2.295,0-4.047,0.716-5.258,2.146
		s-1.875,3.679-1.992,6.745h0.176c1.074-1.68,2.773-2.52,5.098-2.52c1.924,0,3.439,0.581,4.549,1.743
		c1.107,1.162,1.662,2.739,1.662,4.731c0,2.227-0.607,3.978-1.824,5.251c-1.215,1.275-2.859,1.912-4.93,1.912
		c-2.217,0-3.975-0.832-5.273-2.498C399.44,64.968,398.792,62.65,398.792,59.681z M405.983,67.064c1.387,0,2.463-0.437,3.23-1.312
		c0.766-0.873,1.15-2.136,1.15-3.786c0-1.416-0.357-2.529-1.07-3.34s-1.777-1.216-3.193-1.216c-0.879,0-1.684,0.181-2.416,0.542
		s-1.316,0.859-1.75,1.494c-0.436,0.635-0.652,1.294-0.652,1.978c0,1.006,0.195,1.943,0.586,2.813s0.945,1.558,1.662,2.065
		C404.249,66.81,405.065,67.064,405.983,67.064z"/>
	<path fill="#FFFFFF" d="M429.889,58.099c0,3.701-0.584,6.465-1.75,8.291c-1.168,1.826-2.951,2.739-5.354,2.739
		c-2.305,0-4.059-0.935-5.26-2.805s-1.801-4.612-1.801-8.226c0-3.73,0.58-6.499,1.742-8.306s2.936-2.71,5.318-2.71
		c2.324,0,4.088,0.942,5.295,2.827C429.286,51.796,429.889,54.525,429.889,58.099z M418.186,58.099c0,3.115,0.365,5.384,1.098,6.804
		c0.732,1.422,1.9,2.132,3.502,2.132c1.621,0,2.795-0.72,3.523-2.161c0.727-1.439,1.09-3.698,1.09-6.774s-0.363-5.329-1.09-6.761
		c-0.729-1.43-1.902-2.146-3.523-2.146c-1.602,0-2.77,0.706-3.502,2.116C418.551,52.721,418.186,54.984,418.186,58.099z"/>
</g>
<g>
	<g>
		<path fill="#FFFFFF" d="M397.893,249.052h-7.508v-1.117l3.008-3.023c0.918-0.927,1.521-1.589,1.813-1.984
			c0.293-0.396,0.512-0.781,0.656-1.156c0.146-0.375,0.219-0.778,0.219-1.211c0-0.609-0.184-1.093-0.555-1.449
			c-0.369-0.356-0.883-0.535-1.539-0.535c-0.473,0-0.922,0.078-1.348,0.234c-0.424,0.156-0.896,0.44-1.418,0.852l-0.688-0.883
			c1.053-0.875,2.199-1.313,3.438-1.313c1.074,0,1.914,0.274,2.523,0.824s0.914,1.288,0.914,2.215c0,0.724-0.203,1.44-0.609,2.148
			s-1.166,1.604-2.281,2.688l-2.5,2.445v0.063h5.875V249.052z"/>
		<path fill="#FFFFFF" d="M407.104,243.325c0,1.974-0.311,3.448-0.934,4.422c-0.621,0.974-1.574,1.461-2.855,1.461
			c-1.229,0-2.164-0.499-2.805-1.496s-0.961-2.46-0.961-4.387c0-1.989,0.311-3.466,0.93-4.43c0.621-0.964,1.566-1.445,2.836-1.445
			c1.24,0,2.182,0.503,2.824,1.508C406.784,239.963,407.104,241.419,407.104,243.325z M400.862,243.325
			c0,1.661,0.195,2.871,0.586,3.629s1.014,1.137,1.867,1.137c0.865,0,1.492-0.384,1.879-1.152c0.389-0.769,0.582-1.973,0.582-3.613
			s-0.193-2.843-0.582-3.605c-0.387-0.763-1.014-1.145-1.879-1.145c-0.854,0-1.477,0.376-1.867,1.129
			S400.862,241.664,400.862,243.325z"/>
		<path fill="#FFFFFF" d="M413.487,249.052h-1.266v-8.141c0-0.677,0.021-1.317,0.063-1.922c-0.109,0.109-0.23,0.224-0.367,0.344
			c-0.135,0.12-0.754,0.628-1.859,1.523l-0.688-0.891l3.023-2.336h1.094V249.052z"/>
		<path fill="#FFFFFF" d="M424.909,240.317c0,0.729-0.203,1.325-0.613,1.789c-0.408,0.464-0.988,0.773-1.738,0.93v0.063
			c0.918,0.114,1.598,0.406,2.039,0.875c0.443,0.469,0.664,1.083,0.664,1.844c0,1.089-0.377,1.926-1.133,2.512
			c-0.754,0.586-1.828,0.879-3.219,0.879c-0.604,0-1.156-0.046-1.66-0.137c-0.502-0.091-0.99-0.251-1.465-0.48v-1.234
			c0.496,0.245,1.023,0.431,1.582,0.559c0.561,0.128,1.09,0.191,1.59,0.191c1.975,0,2.961-0.773,2.961-2.32
			c0-1.386-1.088-2.078-3.266-2.078h-1.125v-1.117h1.141c0.891,0,1.598-0.196,2.117-0.59c0.521-0.394,0.781-0.938,0.781-1.637
			c0-0.558-0.191-0.995-0.574-1.313s-0.902-0.477-1.559-0.477c-0.5,0-0.971,0.067-1.414,0.203c-0.441,0.136-0.947,0.386-1.516,0.75
			l-0.656-0.875c0.469-0.37,1.01-0.66,1.621-0.871c0.613-0.211,1.258-0.316,1.934-0.316c1.109,0,1.973,0.254,2.586,0.762
			C424.602,238.735,424.909,239.431,424.909,240.317z"/>
	</g>
	<g>
		<path fill="#FFFFFF" d="M343.616,249.052h-7.508v-1.117l3.008-3.023c0.918-0.927,1.521-1.589,1.813-1.984
			c0.293-0.396,0.512-0.781,0.656-1.156c0.146-0.375,0.219-0.778,0.219-1.211c0-0.609-0.184-1.093-0.555-1.449
			c-0.369-0.356-0.883-0.535-1.539-0.535c-0.473,0-0.922,0.078-1.348,0.234c-0.424,0.156-0.896,0.44-1.418,0.852l-0.688-0.883
			c1.053-0.875,2.199-1.313,3.438-1.313c1.074,0,1.914,0.274,2.523,0.824s0.914,1.288,0.914,2.215c0,0.724-0.203,1.44-0.609,2.148
			s-1.166,1.604-2.281,2.688l-2.5,2.445v0.063h5.875V249.052z"/>
		<path fill="#FFFFFF" d="M352.827,243.325c0,1.974-0.311,3.448-0.934,4.422c-0.621,0.974-1.574,1.461-2.855,1.461
			c-1.229,0-2.164-0.499-2.805-1.496s-0.961-2.46-0.961-4.387c0-1.989,0.311-3.466,0.93-4.43c0.621-0.964,1.566-1.445,2.836-1.445
			c1.24,0,2.182,0.503,2.824,1.508C352.506,239.963,352.827,241.419,352.827,243.325z M346.584,243.325
			c0,1.661,0.195,2.871,0.586,3.629s1.014,1.137,1.867,1.137c0.865,0,1.492-0.384,1.879-1.152c0.389-0.769,0.582-1.973,0.582-3.613
			s-0.193-2.843-0.582-3.605c-0.387-0.763-1.014-1.145-1.879-1.145c-0.854,0-1.477,0.376-1.867,1.129
			S346.584,241.664,346.584,243.325z"/>
		<path fill="#FFFFFF" d="M359.209,249.052h-1.266v-8.141c0-0.677,0.021-1.317,0.063-1.922c-0.109,0.109-0.23,0.224-0.367,0.344
			c-0.135,0.12-0.754,0.628-1.859,1.523l-0.688-0.891l3.023-2.336h1.094V249.052z"/>
		<path fill="#FFFFFF" d="M371.061,249.052h-7.508v-1.117l3.008-3.023c0.918-0.927,1.521-1.589,1.813-1.984
			c0.293-0.396,0.512-0.781,0.656-1.156c0.146-0.375,0.219-0.778,0.219-1.211c0-0.609-0.184-1.093-0.555-1.449
			c-0.369-0.356-0.883-0.535-1.539-0.535c-0.473,0-0.922,0.078-1.348,0.234c-0.424,0.156-0.896,0.44-1.418,0.852l-0.688-0.883
			c1.053-0.875,2.199-1.313,3.438-1.313c1.074,0,1.914,0.274,2.523,0.824s0.914,1.288,0.914,2.215c0,0.724-0.203,1.44-0.609,2.148
			s-1.166,1.604-2.281,2.688l-2.5,2.445v0.063h5.875V249.052z"/>
	</g>
	<g>
		<path fill="#FFFFFF" d="M288.286,249.052h-7.508v-1.117l3.008-3.023c0.918-0.927,1.521-1.589,1.813-1.984
			c0.293-0.396,0.512-0.781,0.656-1.156c0.146-0.375,0.219-0.778,0.219-1.211c0-0.609-0.184-1.093-0.555-1.449
			c-0.369-0.356-0.883-0.535-1.539-0.535c-0.473,0-0.922,0.078-1.348,0.234c-0.424,0.156-0.896,0.44-1.418,0.852l-0.688-0.883
			c1.053-0.875,2.199-1.313,3.438-1.313c1.074,0,1.914,0.274,2.523,0.824s0.914,1.288,0.914,2.215c0,0.724-0.203,1.44-0.609,2.148
			s-1.166,1.604-2.281,2.688l-2.5,2.445v0.063h5.875V249.052z"/>
		<path fill="#FFFFFF" d="M297.497,243.325c0,1.974-0.311,3.448-0.934,4.422c-0.621,0.974-1.574,1.461-2.855,1.461
			c-1.229,0-2.164-0.499-2.805-1.496s-0.961-2.46-0.961-4.387c0-1.989,0.311-3.466,0.93-4.43c0.621-0.964,1.566-1.445,2.836-1.445
			c1.24,0,2.182,0.503,2.824,1.508C297.176,239.963,297.497,241.419,297.497,243.325z M291.254,243.325
			c0,1.661,0.195,2.871,0.586,3.629s1.014,1.137,1.867,1.137c0.865,0,1.492-0.384,1.879-1.152c0.389-0.769,0.582-1.973,0.582-3.613
			s-0.193-2.843-0.582-3.605c-0.387-0.763-1.014-1.145-1.879-1.145c-0.854,0-1.477,0.376-1.867,1.129
			S291.254,241.664,291.254,243.325z"/>
		<path fill="#FFFFFF" d="M303.879,249.052h-1.266v-8.141c0-0.677,0.021-1.317,0.063-1.922c-0.109,0.109-0.23,0.224-0.367,0.344
			c-0.135,0.12-0.754,0.628-1.859,1.523l-0.688-0.891l3.023-2.336h1.094V249.052z"/>
		<path fill="#FFFFFF" d="M313.028,249.052h-1.266v-8.141c0-0.677,0.021-1.317,0.063-1.922c-0.109,0.109-0.23,0.224-0.367,0.344
			c-0.135,0.12-0.754,0.628-1.859,1.523l-0.688-0.891l3.023-2.336h1.094V249.052z"/>
	</g>
	<g>
		<path fill="#FFFFFF" d="M232.006,249.052h-7.508v-1.117l3.008-3.023c0.918-0.927,1.521-1.589,1.813-1.984
			c0.293-0.396,0.512-0.781,0.656-1.156c0.146-0.375,0.219-0.778,0.219-1.211c0-0.609-0.184-1.093-0.555-1.449
			c-0.369-0.356-0.883-0.535-1.539-0.535c-0.473,0-0.922,0.078-1.348,0.234c-0.424,0.156-0.896,0.44-1.418,0.852l-0.688-0.883
			c1.053-0.875,2.199-1.313,3.438-1.313c1.074,0,1.914,0.274,2.523,0.824s0.914,1.288,0.914,2.215c0,0.724-0.203,1.44-0.609,2.148
			s-1.166,1.604-2.281,2.688l-2.5,2.445v0.063h5.875V249.052z"/>
		<path fill="#FFFFFF" d="M241.217,243.325c0,1.974-0.311,3.448-0.934,4.422c-0.621,0.974-1.574,1.461-2.855,1.461
			c-1.229,0-2.164-0.499-2.805-1.496s-0.961-2.46-0.961-4.387c0-1.989,0.311-3.466,0.93-4.43c0.621-0.964,1.566-1.445,2.836-1.445
			c1.24,0,2.182,0.503,2.824,1.508C240.897,239.963,241.217,241.419,241.217,243.325z M234.975,243.325
			c0,1.661,0.195,2.871,0.586,3.629s1.014,1.137,1.867,1.137c0.865,0,1.492-0.384,1.879-1.152c0.389-0.769,0.582-1.973,0.582-3.613
			s-0.193-2.843-0.582-3.605c-0.387-0.763-1.014-1.145-1.879-1.145c-0.854,0-1.477,0.376-1.867,1.129
			S234.975,241.664,234.975,243.325z"/>
		<path fill="#FFFFFF" d="M247.6,249.052h-1.266v-8.141c0-0.677,0.021-1.317,0.063-1.922c-0.109,0.109-0.23,0.224-0.367,0.344
			c-0.135,0.12-0.754,0.628-1.859,1.523l-0.688-0.891l3.023-2.336h1.094V249.052z"/>
		<path fill="#FFFFFF" d="M259.514,243.325c0,1.974-0.311,3.448-0.934,4.422c-0.621,0.974-1.574,1.461-2.855,1.461
			c-1.229,0-2.164-0.499-2.805-1.496s-0.961-2.46-0.961-4.387c0-1.989,0.311-3.466,0.93-4.43c0.621-0.964,1.566-1.445,2.836-1.445
			c1.24,0,2.182,0.503,2.824,1.508C259.194,239.963,259.514,241.419,259.514,243.325z M253.272,243.325
			c0,1.661,0.195,2.871,0.586,3.629s1.014,1.137,1.867,1.137c0.865,0,1.492-0.384,1.879-1.152c0.389-0.769,0.582-1.973,0.582-3.613
			s-0.193-2.843-0.582-3.605c-0.387-0.763-1.014-1.145-1.879-1.145c-0.854,0-1.477,0.376-1.867,1.129
			S253.272,241.664,253.272,243.325z"/>
	</g>
	<g>
		<path fill="#FFFFFF" d="M176.729,249.052h-7.508v-1.117l3.008-3.023c0.917-0.927,1.521-1.589,1.813-1.984
			c0.292-0.396,0.51-0.781,0.656-1.156c0.146-0.375,0.219-0.778,0.219-1.211c0-0.609-0.185-1.093-0.555-1.449
			c-0.37-0.356-0.883-0.535-1.539-0.535c-0.474,0-0.923,0.078-1.348,0.234c-0.425,0.156-0.897,0.44-1.418,0.852l-0.688-0.883
			c1.052-0.875,2.198-1.313,3.438-1.313c1.073,0,1.914,0.274,2.523,0.824s0.914,1.288,0.914,2.215c0,0.724-0.203,1.44-0.609,2.148
			s-1.167,1.604-2.281,2.688l-2.5,2.445v0.063h5.875V249.052z"/>
		<path fill="#FFFFFF" d="M185.94,243.325c0,1.974-0.312,3.448-0.934,4.422c-0.623,0.974-1.574,1.461-2.855,1.461
			c-1.229,0-2.164-0.499-2.805-1.496s-0.961-2.46-0.961-4.387c0-1.989,0.31-3.466,0.93-4.43c0.62-0.964,1.565-1.445,2.836-1.445
			c1.239,0,2.181,0.503,2.824,1.508C185.619,239.963,185.94,241.419,185.94,243.325z M179.698,243.325
			c0,1.661,0.195,2.871,0.586,3.629s1.013,1.137,1.867,1.137c0.864,0,1.491-0.384,1.879-1.152c0.388-0.769,0.582-1.973,0.582-3.613
			s-0.194-2.843-0.582-3.605c-0.388-0.763-1.015-1.145-1.879-1.145c-0.854,0-1.477,0.376-1.867,1.129
			S179.698,241.664,179.698,243.325z"/>
		<path fill="#FFFFFF" d="M195.089,243.325c0,1.974-0.312,3.448-0.934,4.422c-0.623,0.974-1.574,1.461-2.855,1.461
			c-1.229,0-2.164-0.499-2.805-1.496s-0.961-2.46-0.961-4.387c0-1.989,0.31-3.466,0.93-4.43c0.62-0.964,1.565-1.445,2.836-1.445
			c1.239,0,2.181,0.503,2.824,1.508C194.767,239.963,195.089,241.419,195.089,243.325z M188.847,243.325
			c0,1.661,0.195,2.871,0.586,3.629s1.013,1.137,1.867,1.137c0.864,0,1.491-0.384,1.879-1.152c0.388-0.769,0.582-1.973,0.582-3.613
			s-0.194-2.843-0.582-3.605c-0.388-0.763-1.015-1.145-1.879-1.145c-0.854,0-1.477,0.376-1.867,1.129
			S188.847,241.664,188.847,243.325z"/>
		<path fill="#FFFFFF" d="M204.175,242.505c0,4.469-1.729,6.703-5.188,6.703c-0.604,0-1.083-0.052-1.438-0.156v-1.117
			c0.417,0.136,0.891,0.203,1.422,0.203c1.25,0,2.194-0.387,2.832-1.16c0.638-0.773,0.985-1.96,1.043-3.559h-0.094
			c-0.287,0.433-0.667,0.762-1.141,0.988c-0.474,0.227-1.008,0.34-1.602,0.34c-1.011,0-1.813-0.302-2.406-0.906
			s-0.891-1.448-0.891-2.531c0-1.188,0.332-2.125,0.996-2.813s1.538-1.031,2.621-1.031c0.776,0,1.454,0.199,2.035,0.598
			c0.581,0.398,1.027,0.979,1.34,1.742S204.175,241.469,204.175,242.505z M200.331,238.575c-0.745,0-1.32,0.239-1.727,0.719
			s-0.609,1.146-0.609,2c0,0.75,0.188,1.34,0.563,1.77s0.945,0.645,1.711,0.645c0.474,0,0.91-0.097,1.309-0.289
			s0.712-0.456,0.941-0.789c0.229-0.333,0.344-0.683,0.344-1.047c0-0.547-0.107-1.052-0.32-1.516
			c-0.214-0.464-0.512-0.828-0.895-1.094S200.826,238.575,200.331,238.575z"/>
	</g>
	<g>
		<path fill="#FFFFFF" d="M121.45,249.052h-7.508v-1.117l3.008-3.023c0.917-0.927,1.521-1.589,1.813-1.984
			c0.292-0.396,0.51-0.781,0.656-1.156c0.146-0.375,0.219-0.778,0.219-1.211c0-0.609-0.185-1.093-0.555-1.449
			c-0.37-0.356-0.883-0.535-1.539-0.535c-0.474,0-0.923,0.078-1.348,0.234c-0.425,0.156-0.897,0.44-1.418,0.852l-0.688-0.883
			c1.052-0.875,2.198-1.313,3.438-1.313c1.073,0,1.914,0.274,2.523,0.824s0.914,1.288,0.914,2.215c0,0.724-0.203,1.44-0.609,2.148
			s-1.167,1.604-2.281,2.688l-2.5,2.445v0.063h5.875V249.052z"/>
		<path fill="#FFFFFF" d="M130.661,243.325c0,1.974-0.312,3.448-0.934,4.422c-0.623,0.974-1.574,1.461-2.855,1.461
			c-1.229,0-2.164-0.499-2.805-1.496s-0.961-2.46-0.961-4.387c0-1.989,0.31-3.466,0.93-4.43c0.62-0.964,1.565-1.445,2.836-1.445
			c1.239,0,2.181,0.503,2.824,1.508C130.339,239.963,130.661,241.419,130.661,243.325z M124.419,243.325
			c0,1.661,0.195,2.871,0.586,3.629s1.013,1.137,1.867,1.137c0.864,0,1.491-0.384,1.879-1.152c0.388-0.769,0.582-1.973,0.582-3.613
			s-0.194-2.843-0.582-3.605c-0.388-0.763-1.015-1.145-1.879-1.145c-0.854,0-1.477,0.376-1.867,1.129
			S124.419,241.664,124.419,243.325z"/>
		<path fill="#FFFFFF" d="M139.81,243.325c0,1.974-0.312,3.448-0.934,4.422c-0.623,0.974-1.574,1.461-2.855,1.461
			c-1.229,0-2.164-0.499-2.805-1.496s-0.961-2.46-0.961-4.387c0-1.989,0.31-3.466,0.93-4.43c0.62-0.964,1.565-1.445,2.836-1.445
			c1.239,0,2.181,0.503,2.824,1.508C139.488,239.963,139.81,241.419,139.81,243.325z M133.567,243.325
			c0,1.661,0.195,2.871,0.586,3.629s1.013,1.137,1.867,1.137c0.864,0,1.491-0.384,1.879-1.152c0.388-0.769,0.582-1.973,0.582-3.613
			s-0.194-2.843-0.582-3.605c-0.388-0.763-1.015-1.145-1.879-1.145c-0.854,0-1.477,0.376-1.867,1.129
			S133.567,241.664,133.567,243.325z"/>
		<path fill="#FFFFFF" d="M145.169,237.466c1.042,0,1.867,0.242,2.477,0.727s0.914,1.153,0.914,2.008
			c0,0.563-0.175,1.075-0.523,1.539c-0.349,0.464-0.906,0.886-1.672,1.266c0.927,0.442,1.586,0.907,1.977,1.395
			s0.586,1.051,0.586,1.691c0,0.948-0.331,1.704-0.992,2.27c-0.662,0.565-1.568,0.848-2.719,0.848c-1.219,0-2.156-0.267-2.813-0.801
			s-0.984-1.29-0.984-2.27c0-1.308,0.797-2.325,2.391-3.055c-0.719-0.406-1.234-0.845-1.547-1.316s-0.469-0.999-0.469-1.582
			c0-0.828,0.306-1.488,0.918-1.98C143.324,237.712,144.143,237.466,145.169,237.466z M142.7,246.169
			c0,0.625,0.217,1.112,0.652,1.461c0.435,0.349,1.045,0.523,1.832,0.523c0.776,0,1.38-0.183,1.813-0.547
			c0.432-0.364,0.648-0.864,0.648-1.5c0-0.505-0.203-0.954-0.609-1.348s-1.115-0.774-2.125-1.145
			c-0.776,0.333-1.339,0.702-1.688,1.105C142.875,245.123,142.7,245.606,142.7,246.169z M145.153,238.52
			c-0.651,0-1.162,0.156-1.531,0.469c-0.37,0.313-0.555,0.729-0.555,1.25c0,0.479,0.153,0.891,0.461,1.234
			c0.307,0.344,0.875,0.688,1.703,1.031c0.745-0.313,1.272-0.648,1.582-1.008c0.31-0.359,0.465-0.778,0.465-1.258
			c0-0.526-0.189-0.944-0.566-1.254C146.334,238.676,145.814,238.52,145.153,238.52z"/>
	</g>
	<g>
		<path fill="#FFFFFF" d="M66.171,249.052h-7.508v-1.117l3.008-3.023c0.917-0.927,1.521-1.589,1.813-1.984
			c0.292-0.396,0.51-0.781,0.656-1.156c0.146-0.375,0.219-0.778,0.219-1.211c0-0.609-0.185-1.093-0.555-1.449
			c-0.37-0.356-0.883-0.535-1.539-0.535c-0.474,0-0.923,0.078-1.348,0.234c-0.425,0.156-0.897,0.44-1.418,0.852l-0.688-0.883
			c1.052-0.875,2.198-1.313,3.438-1.313c1.073,0,1.914,0.274,2.523,0.824s0.914,1.288,0.914,2.215c0,0.724-0.203,1.44-0.609,2.148
			s-1.167,1.604-2.281,2.688l-2.5,2.445v0.063h5.875V249.052z"/>
		<path fill="#FFFFFF" d="M75.382,243.325c0,1.974-0.312,3.448-0.934,4.422c-0.623,0.974-1.574,1.461-2.855,1.461
			c-1.229,0-2.164-0.499-2.805-1.496s-0.961-2.46-0.961-4.387c0-1.989,0.31-3.466,0.93-4.43c0.62-0.964,1.565-1.445,2.836-1.445
			c1.239,0,2.181,0.503,2.824,1.508C75.06,239.963,75.382,241.419,75.382,243.325z M69.14,243.325c0,1.661,0.195,2.871,0.586,3.629
			s1.013,1.137,1.867,1.137c0.864,0,1.491-0.384,1.879-1.152c0.388-0.769,0.582-1.973,0.582-3.613s-0.194-2.843-0.582-3.605
			c-0.388-0.763-1.015-1.145-1.879-1.145c-0.854,0-1.477,0.376-1.867,1.129S69.14,241.664,69.14,243.325z"/>
		<path fill="#FFFFFF" d="M84.53,243.325c0,1.974-0.312,3.448-0.934,4.422c-0.623,0.974-1.574,1.461-2.855,1.461
			c-1.229,0-2.164-0.499-2.805-1.496s-0.961-2.46-0.961-4.387c0-1.989,0.31-3.466,0.93-4.43c0.62-0.964,1.565-1.445,2.836-1.445
			c1.239,0,2.181,0.503,2.824,1.508C84.208,239.963,84.53,241.419,84.53,243.325z M78.288,243.325c0,1.661,0.195,2.871,0.586,3.629
			s1.013,1.137,1.867,1.137c0.864,0,1.491-0.384,1.879-1.152c0.388-0.769,0.582-1.973,0.582-3.613s-0.194-2.843-0.582-3.605
			c-0.388-0.763-1.015-1.145-1.879-1.145c-0.854,0-1.477,0.376-1.867,1.129S78.288,241.664,78.288,243.325z"/>
		<path fill="#FFFFFF" d="M87.554,249.052l4.734-10.227h-6.227v-1.195h7.602v1.039l-4.672,10.383H87.554z"/>
	</g>
	<g>
		<path fill="#FFFFFF" d="M10.893,249.052H3.385v-1.117l3.008-3.023c0.917-0.927,1.521-1.589,1.813-1.984
			c0.292-0.396,0.51-0.781,0.656-1.156c0.146-0.375,0.219-0.778,0.219-1.211c0-0.609-0.185-1.093-0.555-1.449
			c-0.37-0.356-0.883-0.535-1.539-0.535c-0.474,0-0.923,0.078-1.348,0.234c-0.425,0.156-0.897,0.44-1.418,0.852l-0.688-0.883
			c1.052-0.875,2.198-1.313,3.438-1.313c1.073,0,1.914,0.274,2.523,0.824s0.914,1.288,0.914,2.215c0,0.724-0.203,1.44-0.609,2.148
			s-1.167,1.604-2.281,2.688l-2.5,2.445v0.063h5.875V249.052z"/>
		<path fill="#FFFFFF" d="M20.104,243.325c0,1.974-0.312,3.448-0.934,4.422c-0.623,0.974-1.574,1.461-2.855,1.461
			c-1.229,0-2.164-0.499-2.805-1.496s-0.961-2.46-0.961-4.387c0-1.989,0.31-3.466,0.93-4.43c0.62-0.964,1.565-1.445,2.836-1.445
			c1.239,0,2.181,0.503,2.824,1.508C19.782,239.963,20.104,241.419,20.104,243.325z M13.861,243.325
			c0,1.661,0.195,2.871,0.586,3.629s1.013,1.137,1.867,1.137c0.864,0,1.491-0.384,1.879-1.152c0.388-0.769,0.582-1.973,0.582-3.613
			s-0.194-2.843-0.582-3.605c-0.388-0.763-1.015-1.145-1.879-1.145c-0.854,0-1.477,0.376-1.867,1.129S13.861,241.664,13.861,243.325
			z"/>
		<path fill="#FFFFFF" d="M29.252,243.325c0,1.974-0.312,3.448-0.934,4.422c-0.623,0.974-1.574,1.461-2.855,1.461
			c-1.229,0-2.164-0.499-2.805-1.496s-0.961-2.46-0.961-4.387c0-1.989,0.31-3.466,0.93-4.43c0.62-0.964,1.565-1.445,2.836-1.445
			c1.239,0,2.181,0.503,2.824,1.508C28.93,239.963,29.252,241.419,29.252,243.325z M23.01,243.325c0,1.661,0.195,2.871,0.586,3.629
			s1.013,1.137,1.867,1.137c0.864,0,1.491-0.384,1.879-1.152c0.388-0.769,0.582-1.973,0.582-3.613s-0.194-2.843-0.582-3.605
			c-0.388-0.763-1.015-1.145-1.879-1.145c-0.854,0-1.477,0.376-1.867,1.129S23.01,241.664,23.01,243.325z"/>
		<path fill="#FFFFFF" d="M30.963,244.169c0-2.245,0.436-3.923,1.309-5.035c0.872-1.112,2.163-1.668,3.871-1.668
			c0.588,0,1.052,0.05,1.391,0.148v1.117c-0.401-0.13-0.859-0.195-1.375-0.195c-1.224,0-2.159,0.382-2.805,1.145
			c-0.646,0.763-1,1.962-1.063,3.598h0.094c0.573-0.896,1.479-1.344,2.719-1.344c1.026,0,1.834,0.31,2.426,0.93
			c0.591,0.62,0.887,1.461,0.887,2.523c0,1.188-0.324,2.121-0.973,2.801s-1.525,1.02-2.629,1.02c-1.183,0-2.12-0.444-2.813-1.332
			C31.309,246.988,30.963,245.752,30.963,244.169z M34.799,248.106c0.739,0,1.313-0.233,1.723-0.699
			c0.409-0.466,0.613-1.14,0.613-2.02c0-0.755-0.19-1.349-0.57-1.781c-0.38-0.433-0.948-0.648-1.703-0.648
			c-0.469,0-0.898,0.097-1.289,0.289s-0.702,0.458-0.934,0.797c-0.232,0.339-0.348,0.69-0.348,1.055c0,0.536,0.104,1.036,0.313,1.5
			c0.208,0.464,0.504,0.831,0.887,1.102S34.309,248.106,34.799,248.106z"/>
	</g>
</g>
</svg>
