<?xml version="1.0" encoding="utf-8"?>
<!-- Generator: Adobe Illustrator 16.0.0, SVG Export Plug-In . SVG Version: 6.00 Build 0)  -->
<!DOCTYPE svg PUBLIC "-//W3C//DTD SVG 1.1//EN" "http://www.w3.org/Graphics/SVG/1.1/DTD/svg11.dtd">
<svg version="1.1" id="map" xmlns="http://www.w3.org/2000/svg" xmlns:xlink="http://www.w3.org/1999/xlink" x="0px" y="0px"
	 width="980px" height="556.818px" viewBox="0 0 980 556.818" enable-background="new 0 0 980 556.818" xml:space="preserve">
<g id="graph">
	<path opacity="0.6" fill="#026CB6" stroke="#FFFFFF" stroke-width="0.5" stroke-miterlimit="10" enable-background="new    " d="
		M534.095,262.588c12.745,0,23.078,10.333,23.078,23.079c0,12.745-10.333,23.078-23.078,23.078
		c-12.746,0-23.078-10.333-23.078-23.078C511.017,272.921,521.349,262.588,534.095,262.588L534.095,262.588L534.095,262.588z"/>
	<path opacity="0.6" fill="#026CB6" stroke="#FFFFFF" stroke-width="0.5" stroke-miterlimit="10" enable-background="new    " d="
		M578.93,295.338c12.745,0,23.078,10.333,23.078,23.078c0,12.746-10.333,23.079-23.078,23.079
		c-12.746,0-23.079-10.333-23.079-23.079C555.851,305.671,566.184,295.338,578.93,295.338L578.93,295.338L578.93,295.338z"/>
	<path opacity="0.6" fill="#026CB6" stroke="#FFFFFF" stroke-width="0.5" stroke-miterlimit="10" enable-background="new    " d="
		M581.333,267.35c10.664-0.001,19.31,8.645,19.31,19.309s-8.646,19.309-19.31,19.308c-10.663,0-19.309-8.644-19.309-19.308
		C562.025,275.994,570.67,267.349,581.333,267.35L581.333,267.35L581.333,267.35z"/>
	<path opacity="0.6" fill="#026CB6" stroke="#FFFFFF" stroke-width="0.5" stroke-miterlimit="10" enable-background="new    " d="
		M488.8,304.667c6.374,0,11.54,5.166,11.54,11.54c0,6.373-5.166,11.539-11.54,11.539c-6.373,0-11.539-5.166-11.539-11.539
		C477.261,309.833,482.427,304.667,488.8,304.667L488.8,304.667L488.8,304.667z"/>
	<path opacity="0.6" fill="#026CB6" stroke="#FFFFFF" stroke-width="0.5" stroke-miterlimit="10" enable-background="new    " d="
		M504.898,273.37c9.013,0,16.318,7.306,16.318,16.318c0,9.012-7.307,16.317-16.318,16.317c-9.013,0-16.317-7.306-16.317-16.317
		C488.581,280.676,495.886,273.37,504.898,273.37L504.898,273.37L504.898,273.37z"/>
	<path opacity="0.6" fill="#026CB6" stroke="#FFFFFF" stroke-width="0.5" stroke-miterlimit="10" enable-background="new    " d="
		M261.643,309.794c6.373,0,11.54,5.165,11.54,11.539c0,6.373-5.167,11.539-11.54,11.539s-11.539-5.166-11.539-11.539
		C250.104,314.959,255.271,309.794,261.643,309.794L261.643,309.794L261.643,309.794z"/>
	<path opacity="0.6" fill="#026CB6" stroke="#FFFFFF" stroke-width="0.5" stroke-miterlimit="10" enable-background="new    " d="
		M557.306,279.492c4.03,0,7.298,3.268,7.298,7.298c0,4.029-3.268,7.299-7.298,7.299s-7.299-3.27-7.299-7.299
		C550.007,282.76,553.274,279.492,557.306,279.492L557.306,279.492L557.306,279.492z"/>
	<path opacity="0.6" fill="#026CB6" stroke="#FFFFFF" stroke-width="0.5" stroke-miterlimit="10" enable-background="new    " d="
		M560.88,291.74c9.872,0,17.875,8.003,17.875,17.876s-8.003,17.876-17.875,17.876c-9.873,0-17.877-8.003-17.877-17.876
		S551.007,291.74,560.88,291.74L560.88,291.74L560.88,291.74z"/>
	<path opacity="0.6" fill="#026CB6" stroke="#FFFFFF" stroke-width="0.5" stroke-miterlimit="10" enable-background="new    " d="
		M258.274,263.578c6.981,0,12.64,5.659,12.64,12.641c0,6.982-5.659,12.642-12.64,12.642s-12.64-5.659-12.64-12.642
		C245.634,269.237,251.292,263.578,258.274,263.578L258.274,263.578L258.274,263.578z"/>
	<path opacity="0.6" fill="#026CB6" stroke="#FFFFFF" stroke-width="0.5" stroke-miterlimit="10" enable-background="new    " d="
		M557.43,315.298c9.014,0,16.318,7.307,16.318,16.318s-7.306,16.318-16.318,16.318c-9.012,0-16.317-7.307-16.317-16.318
		S548.417,315.298,557.43,315.298L557.43,315.298L557.43,315.298z"/>
	<path opacity="0.6" fill="#026CB6" stroke="#FFFFFF" stroke-width="0.5" stroke-miterlimit="10" enable-background="new    " d="
		M796.134,204.452c6.981,0,12.642,5.659,12.642,12.641c0,6.982-5.659,12.641-12.642,12.641c-6.979,0-12.64-5.659-12.64-12.641
		C783.494,210.111,789.153,204.452,796.134,204.452L796.134,204.452L796.134,204.452z"/>
	<path opacity="0.6" fill="#026CB6" stroke="#FFFFFF" stroke-width="0.5" stroke-miterlimit="10" enable-background="new    " d="
		M445.383,265.668c9.452,0,17.115,7.663,17.115,17.115s-7.663,17.114-17.115,17.114s-17.116-7.662-17.116-17.114
		S435.931,265.668,445.383,265.668L445.383,265.668L445.383,265.668z"/>
	<path opacity="0.6" fill="#026CB6" stroke="#FFFFFF" stroke-width="0.5" stroke-miterlimit="10" enable-background="new    " d="
		M426.38,258.878c4.937,0,8.938,4.002,8.938,8.938s-4.003,8.938-8.938,8.938c-4.937,0-8.938-4.003-8.938-8.938
		C417.441,262.88,421.443,258.878,426.38,258.878L426.38,258.878L426.38,258.878z"/>
	<path opacity="0.6" fill="#026CB6" stroke="#FFFFFF" stroke-width="0.5" stroke-miterlimit="10" enable-background="new    " d="
		M715.102,259.575c6.981,0,12.642,5.658,12.642,12.64c0,6.982-5.659,12.642-12.642,12.642c-6.981,0-12.641-5.659-12.641-12.642
		C702.461,265.233,708.12,259.575,715.102,259.575L715.102,259.575L715.102,259.575z"/>
	<path opacity="0.6" fill="#026CB6" stroke="#FFFFFF" stroke-width="0.5" stroke-miterlimit="10" enable-background="new    " d="
		M474.68,262.021c8.062,0,14.597,6.535,14.597,14.596c0,8.061-6.535,14.596-14.597,14.596c-8.061,0-14.596-6.535-14.596-14.596
		C460.084,268.556,466.619,262.021,474.68,262.021L474.68,262.021L474.68,262.021z"/>
	<path opacity="0.6" fill="#026CB6" stroke="#FFFFFF" stroke-width="0.5" stroke-miterlimit="10" enable-background="new    " d="
		M474.63,292.694c5.7,0,10.321,4.621,10.321,10.322c0,5.698-4.621,10.319-10.321,10.319c-5.699,0-10.32-4.621-10.32-10.319
		C464.31,297.315,468.931,292.694,474.63,292.694L474.63,292.694L474.63,292.694z"/>
	<path opacity="0.6" fill="#026CB6" stroke="#FFFFFF" stroke-width="0.5" stroke-miterlimit="10" enable-background="new    " d="
		M641.779,228.135c8.55,0,15.481,6.932,15.481,15.481c0,8.549-6.933,15.481-15.481,15.481s-15.481-6.932-15.481-15.481
		C626.298,235.067,633.23,228.135,641.779,228.135L641.779,228.135L641.779,228.135z"/>
	<path opacity="0.6" fill="#026CB6" stroke="#FFFFFF" stroke-width="0.5" stroke-miterlimit="10" enable-background="new    " d="
		M416.023,277.859c6.373,0,11.539,5.166,11.539,11.539s-5.166,11.539-11.539,11.539c-6.374,0-11.54-5.166-11.54-11.539
		S409.649,277.859,416.023,277.859L416.023,277.859L416.023,277.859z"/>
	<path opacity="0.6" fill="#026CB6" stroke="#FFFFFF" stroke-width="0.5" stroke-miterlimit="10" enable-background="new    " d="
		M450.781,284.928c5.7,0,10.32,4.621,10.32,10.321c0,5.699-4.62,10.32-10.32,10.32c-5.699,0-10.321-4.621-10.321-10.32
		C440.46,289.549,445.082,284.928,450.781,284.928L450.781,284.928L450.781,284.928z"/>
	<path opacity="0.6" fill="#026CB6" stroke="#FFFFFF" stroke-width="0.5" stroke-miterlimit="10" enable-background="new    " d="
		M412.303,289.668c4.03,0,7.298,3.269,7.298,7.298c0,4.031-3.268,7.299-7.298,7.299c-4.029,0-7.298-3.268-7.298-7.299
		C405.005,292.937,408.271,289.668,412.303,289.668L412.303,289.668L412.303,289.668z"/>
	<path opacity="0.6" fill="#026CB6" stroke="#FFFFFF" stroke-width="0.5" stroke-miterlimit="10" enable-background="new    " d="
		M541.449,313.608c5.699,0,10.319,4.621,10.319,10.319c0,5.7-4.62,10.321-10.319,10.321c-5.7,0-10.321-4.621-10.321-10.321
		C531.128,318.229,535.749,313.608,541.449,313.608L541.449,313.608L541.449,313.608z"/>
	<path opacity="0.6" fill="#026CB6" stroke="#FFFFFF" stroke-width="0.5" stroke-miterlimit="10" enable-background="new    " d="
		M569.493,286.669c5.7,0,10.321,4.621,10.321,10.321c0,5.698-4.621,10.319-10.321,10.319c-5.699,0-10.321-4.621-10.321-10.319
		C559.172,291.29,563.794,286.669,569.493,286.669L569.493,286.669L569.493,286.669z"/>
	<g>
		<path opacity="0.6" fill="#026CB6" stroke="#FFFFFF" stroke-width="0.5" stroke-miterlimit="10" enable-background="new    " d="
			M886.546,265.715c12.745,0,23.078,10.333,23.078,23.079c0,12.745-10.333,23.078-23.078,23.078
			c-12.746,0-23.078-10.333-23.078-23.078C863.468,276.048,873.8,265.715,886.546,265.715L886.546,265.715L886.546,265.715z"/>
		<path opacity="0.6" fill="#026CB6" stroke="#FFFFFF" stroke-width="0.5" stroke-miterlimit="10" enable-background="new    " d="
			M886.545,279.235c9.013,0,16.319,7.306,16.319,16.317c0,9.013-7.308,16.318-16.319,16.318s-16.316-7.306-16.316-16.318
			C870.229,286.541,877.532,279.235,886.545,279.235L886.545,279.235L886.545,279.235z"/>
		<path opacity="0.6" fill="#026CB6" stroke="#FFFFFF" stroke-width="0.5" stroke-miterlimit="10" enable-background="new    " d="
			M886.546,288.794c6.373,0,11.539,5.165,11.539,11.539c0,6.373-5.166,11.539-11.539,11.539s-11.539-5.166-11.539-11.539
			C875.007,293.959,880.173,288.794,886.546,288.794L886.546,288.794L886.546,288.794z"/>
		<g>
			<path fill="#FFFFFF" d="M863.85,256l-1.065-2.725h-3.435L858.295,256h-1.008l3.387-8.602h0.838l3.369,8.602H863.85z
				 M862.473,252.379l-0.996-2.654c-0.129-0.336-0.262-0.748-0.397-1.236c-0.086,0.375-0.209,0.787-0.369,1.236l-1.008,2.654
				H862.473z"/>
			<path fill="#FFFFFF" d="M866.885,256h-0.973v-9.117h0.973V256z"/>
			<path fill="#FFFFFF" d="M869.92,256h-0.973v-9.117h0.973V256z"/>
			<path fill="#FFFFFF" d="M877.525,252.783c0,1.047-0.265,1.864-0.791,2.452c-0.527,0.588-1.256,0.882-2.187,0.882
				c-0.573,0-1.084-0.135-1.528-0.404c-0.445-0.269-0.789-0.656-1.031-1.16c-0.242-0.504-0.363-1.094-0.363-1.77
				c0-1.047,0.262-1.862,0.785-2.446c0.522-0.584,1.25-0.876,2.18-0.876c0.898,0,1.612,0.299,2.143,0.896
				C877.262,250.954,877.525,251.764,877.525,252.783z M872.633,252.783c0,0.82,0.164,1.445,0.492,1.875
				c0.328,0.43,0.811,0.645,1.447,0.645c0.636,0,1.12-0.214,1.449-0.642c0.33-0.428,0.496-1.054,0.496-1.878
				c0-0.816-0.166-1.437-0.496-1.86c-0.329-0.423-0.816-0.636-1.461-0.636c-0.638,0-1.117,0.209-1.441,0.627
				S872.633,251.955,872.633,252.783z"/>
			<path fill="#FFFFFF" d="M881.797,256.117c-0.93,0-1.648-0.286-2.159-0.858c-0.51-0.572-0.765-1.382-0.765-2.429
				c0-1.074,0.259-1.904,0.775-2.49c0.518-0.586,1.256-0.879,2.213-0.879c0.309,0,0.617,0.033,0.926,0.1s0.551,0.145,0.727,0.234
				l-0.299,0.826c-0.215-0.086-0.449-0.157-0.703-0.214c-0.254-0.057-0.479-0.085-0.674-0.085c-1.305,0-1.957,0.832-1.957,2.496
				c0,0.789,0.159,1.395,0.479,1.816c0.318,0.421,0.789,0.633,1.414,0.633c0.535,0,1.084-0.115,1.646-0.346v0.861
				C882.99,256.006,882.449,256.117,881.797,256.117z"/>
			<path fill="#FFFFFF" d="M888.893,256l-0.192-0.914h-0.047c-0.32,0.402-0.641,0.675-0.958,0.817
				c-0.318,0.142-0.717,0.214-1.192,0.214c-0.637,0-1.136-0.164-1.497-0.492s-0.542-0.795-0.542-1.4
				c0-1.297,1.037-1.977,3.111-2.039l1.09-0.035v-0.398c0-0.504-0.108-0.876-0.325-1.116c-0.217-0.24-0.563-0.36-1.04-0.36
				c-0.534,0-1.141,0.164-1.815,0.492l-0.299-0.744c0.315-0.172,0.662-0.307,1.039-0.404c0.377-0.097,0.756-0.146,1.135-0.146
				c0.766,0,1.333,0.17,1.701,0.51c0.369,0.34,0.555,0.885,0.555,1.635V256H888.893z M886.695,255.314
				c0.604,0,1.081-0.166,1.427-0.498s0.519-0.797,0.519-1.395v-0.58l-0.973,0.041c-0.773,0.027-1.331,0.147-1.673,0.36
				c-0.342,0.213-0.513,0.544-0.513,0.993c0,0.352,0.105,0.619,0.318,0.803S886.313,255.314,886.695,255.314z"/>
			<path fill="#FFFFFF" d="M893.691,255.314c0.172,0,0.338-0.013,0.498-0.038c0.159-0.025,0.286-0.052,0.381-0.079v0.744
				c-0.105,0.051-0.262,0.093-0.467,0.126c-0.205,0.033-0.39,0.05-0.554,0.05c-1.242,0-1.862-0.654-1.862-1.963v-3.82h-0.921v-0.469
				l0.921-0.404l0.409-1.371h0.563v1.488h1.863v0.756h-1.863v3.779c0,0.387,0.092,0.684,0.274,0.891
				C893.118,255.211,893.371,255.314,893.691,255.314z"/>
			<path fill="#FFFFFF" d="M895.771,247.838c0-0.223,0.055-0.386,0.164-0.489c0.108-0.103,0.245-0.155,0.409-0.155
				c0.156,0,0.291,0.053,0.404,0.158s0.17,0.268,0.17,0.486c0,0.218-0.057,0.382-0.17,0.489c-0.113,0.107-0.248,0.161-0.404,0.161
				c-0.164,0-0.301-0.054-0.409-0.161C895.826,248.22,895.771,248.057,895.771,247.838z M896.826,256h-0.973v-6.422h0.973V256z"/>
			<path fill="#FFFFFF" d="M904.432,252.783c0,1.047-0.264,1.864-0.791,2.452c-0.526,0.588-1.256,0.882-2.186,0.882
				c-0.574,0-1.084-0.135-1.529-0.404s-0.789-0.656-1.031-1.16c-0.241-0.504-0.362-1.094-0.362-1.77
				c0-1.047,0.262-1.862,0.785-2.446c0.522-0.584,1.25-0.876,2.18-0.876c0.897,0,1.612,0.299,2.142,0.896
				C904.169,250.954,904.432,251.764,904.432,252.783z M899.539,252.783c0,0.82,0.164,1.445,0.492,1.875
				c0.328,0.43,0.811,0.645,1.447,0.645c0.636,0,1.119-0.214,1.449-0.642c0.33-0.428,0.495-1.054,0.495-1.878
				c0-0.816-0.165-1.437-0.495-1.86c-0.33-0.423-0.816-0.636-1.462-0.636c-0.637,0-1.116,0.209-1.44,0.627
				S899.539,251.955,899.539,252.783z"/>
			<path fill="#FFFFFF" d="M910.531,256v-4.154c0-0.523-0.119-0.914-0.357-1.172c-0.238-0.258-0.611-0.387-1.119-0.387
				c-0.672,0-1.164,0.182-1.477,0.545c-0.313,0.363-0.469,0.963-0.469,1.799V256h-0.974v-6.422h0.791l0.158,0.879h0.047
				c0.199-0.316,0.479-0.562,0.838-0.735c0.359-0.173,0.761-0.261,1.201-0.261c0.773,0,1.355,0.187,1.746,0.56
				s0.586,0.97,0.586,1.79V256H910.531z"/>
			<path fill="#FFFFFF" d="M917.645,254.248c0,0.598-0.223,1.059-0.668,1.383c-0.444,0.324-1.069,0.486-1.875,0.486
				c-0.852,0-1.516-0.135-1.991-0.404v-0.902c0.309,0.156,0.64,0.279,0.993,0.369c0.353,0.09,0.693,0.135,1.021,0.135
				c0.508,0,0.898-0.081,1.172-0.243c0.274-0.162,0.41-0.409,0.41-0.741c0-0.25-0.108-0.464-0.325-0.642s-0.64-0.388-1.269-0.63
				c-0.599-0.223-1.022-0.417-1.274-0.583s-0.438-0.354-0.563-0.565c-0.123-0.211-0.185-0.463-0.185-0.756
				c0-0.523,0.213-0.938,0.64-1.239c0.426-0.302,1.01-0.454,1.752-0.454c0.69,0,1.366,0.141,2.026,0.422l-0.346,0.791
				c-0.646-0.266-1.229-0.398-1.752-0.398c-0.461,0-0.81,0.072-1.043,0.217c-0.234,0.145-0.353,0.344-0.353,0.598
				c0,0.172,0.044,0.318,0.133,0.439c0.088,0.121,0.229,0.236,0.425,0.346c0.195,0.11,0.569,0.268,1.125,0.475
				c0.762,0.277,1.275,0.557,1.544,0.838C917.51,253.471,917.645,253.822,917.645,254.248z"/>
			<path fill="#FFFFFF" d="M921.793,252.713c0-1.035,0.151-2.004,0.454-2.906c0.303-0.902,0.739-1.693,1.31-2.373h0.949
				c-0.563,0.754-0.984,1.582-1.269,2.484s-0.425,1.83-0.425,2.783c0,0.938,0.145,1.854,0.434,2.748
				c0.289,0.894,0.705,1.711,1.248,2.449h-0.938c-0.573-0.664-1.012-1.439-1.313-2.326
				C921.942,254.685,921.793,253.732,921.793,252.713z"/>
			<path fill="#FFFFFF" d="M932.51,247.434v5.543c0,0.977-0.295,1.744-0.885,2.303c-0.59,0.559-1.4,0.838-2.432,0.838
				c-1.032,0-1.829-0.281-2.395-0.844c-0.564-0.563-0.847-1.336-0.847-2.32v-5.52h0.996v5.59c0,0.715,0.194,1.264,0.586,1.646
				c0.391,0.382,0.965,0.574,1.723,0.574c0.724,0,1.279-0.192,1.67-0.577c0.392-0.385,0.586-0.937,0.586-1.655v-5.578H932.51z"/>
			<path fill="#FFFFFF" d="M939.611,253.721c0,0.754-0.273,1.342-0.82,1.764c-0.547,0.422-1.289,0.633-2.227,0.633
				c-1.017,0-1.797-0.131-2.345-0.393v-0.961c0.353,0.148,0.734,0.266,1.148,0.352s0.824,0.129,1.229,0.129
				c0.664,0,1.164-0.126,1.5-0.378s0.504-0.603,0.504-1.052c0-0.297-0.06-0.54-0.179-0.729s-0.317-0.364-0.598-0.524
				s-0.704-0.342-1.274-0.545c-0.797-0.285-1.365-0.623-1.708-1.014c-0.342-0.391-0.513-0.9-0.513-1.529
				c0-0.66,0.248-1.186,0.744-1.576s1.152-0.586,1.969-0.586c0.852,0,1.635,0.156,2.35,0.469l-0.311,0.867
				c-0.707-0.297-1.395-0.445-2.063-0.445c-0.527,0-0.939,0.113-1.236,0.34s-0.445,0.541-0.445,0.943
				c0,0.297,0.055,0.54,0.164,0.729s0.294,0.363,0.554,0.521c0.261,0.158,0.657,0.333,1.192,0.524
				c0.898,0.32,1.518,0.664,1.854,1.031C939.439,252.658,939.611,253.135,939.611,253.721z"/>
			<path fill="#FFFFFF" d="M946.256,253.369c0,0.531-0.199,0.97-0.598,1.315c-0.399,0.345-0.955,0.563-1.67,0.653v1.359h-0.756
				v-1.307c-0.438,0-0.861-0.034-1.271-0.103c-0.41-0.069-0.746-0.163-1.008-0.284v-0.914c0.324,0.145,0.698,0.263,1.122,0.354
				c0.424,0.091,0.81,0.138,1.157,0.138v-2.578c-0.802-0.254-1.362-0.549-1.686-0.885s-0.482-0.77-0.482-1.301
				c0-0.512,0.197-0.932,0.595-1.26c0.396-0.328,0.921-0.527,1.573-0.598v-1.066h0.756v1.055c0.719,0.02,1.412,0.164,2.08,0.434
				l-0.306,0.768c-0.582-0.23-1.174-0.367-1.774-0.41v2.543c0.612,0.195,1.072,0.386,1.377,0.571s0.529,0.398,0.674,0.639
				C946.184,252.733,946.256,253.025,946.256,253.369z M942.055,249.807c0,0.297,0.088,0.535,0.265,0.715
				c0.176,0.18,0.479,0.35,0.913,0.51v-2.268c-0.387,0.063-0.68,0.185-0.879,0.366C942.155,249.311,942.055,249.537,942.055,249.807
				z M945.26,253.445c0-0.281-0.087-0.509-0.261-0.683c-0.174-0.174-0.511-0.347-1.011-0.519v2.279
				C944.836,254.406,945.26,254.047,945.26,253.445z"/>
			<path fill="#FFFFFF" d="M950.117,252.713c0,1.027-0.151,1.984-0.454,2.871c-0.303,0.887-0.739,1.658-1.31,2.314h-0.938
				c0.543-0.734,0.959-1.55,1.248-2.446s0.434-1.813,0.434-2.751c0-0.953-0.142-1.881-0.425-2.783s-0.706-1.73-1.269-2.484h0.948
				c0.574,0.684,1.013,1.478,1.313,2.382C949.966,250.72,950.117,251.686,950.117,252.713z"/>
		</g>
		<g>
			<path fill="#FFFFFF" d="M920.904,272.62h-5.631v-0.838l2.256-2.268c0.688-0.695,1.141-1.191,1.358-1.488
				c0.218-0.297,0.384-0.586,0.492-0.867c0.109-0.281,0.164-0.584,0.164-0.908c0-0.457-0.139-0.819-0.416-1.087
				s-0.662-0.401-1.154-0.401c-0.354,0-0.691,0.059-1.011,0.176c-0.318,0.117-0.673,0.33-1.063,0.639l-0.517-0.662
				c0.789-0.656,1.648-0.984,2.578-0.984c0.806,0,1.437,0.206,1.894,0.618s0.686,0.966,0.686,1.661c0,0.543-0.152,1.08-0.457,1.611
				c-0.305,0.531-0.875,1.203-1.711,2.016l-1.875,1.834v0.047h4.406V272.62z"/>
			<path fill="#FFFFFF" d="M927.813,268.325c0,1.48-0.232,2.586-0.699,3.316s-1.182,1.096-2.143,1.096
				c-0.922,0-1.623-0.374-2.104-1.122c-0.481-0.748-0.721-1.845-0.721-3.29c0-1.492,0.231-2.6,0.696-3.322
				c0.465-0.722,1.174-1.084,2.127-1.084c0.931,0,1.636,0.377,2.118,1.131C927.57,265.804,927.813,266.896,927.813,268.325z
				 M923.131,268.325c0,1.246,0.146,2.153,0.439,2.722c0.293,0.569,0.76,0.853,1.399,0.853c0.648,0,1.118-0.288,1.409-0.864
				c0.291-0.576,0.438-1.479,0.438-2.71c0-1.231-0.146-2.132-0.438-2.704c-0.291-0.572-0.761-0.858-1.409-0.858
				c-0.641,0-1.106,0.282-1.399,0.847S923.131,267.079,923.131,268.325z"/>
			<path fill="#FFFFFF" d="M933.379,272.62l-2.906-7.594h-0.047c0.055,0.602,0.082,1.316,0.082,2.145v5.449h-0.92v-8.566h1.5
				l2.713,7.066h0.047l2.736-7.066h1.488v8.566h-0.996v-5.52c0-0.633,0.027-1.32,0.082-2.063h-0.047l-2.931,7.582L933.379,272.62
				L933.379,272.62z"/>
		</g>
		<g>
			<path fill="#FFFFFF" d="M918.877,285.162h-0.949v-6.104c0-0.509,0.017-0.989,0.047-1.441c-0.082,0.082-0.174,0.168-0.274,0.258
				c-0.102,0.09-0.566,0.471-1.396,1.143l-0.516-0.667l2.268-1.752h0.82V285.162z"/>
			<path fill="#FFFFFF" d="M927.813,280.867c0,1.479-0.232,2.586-0.699,3.315c-0.467,0.73-1.182,1.097-2.143,1.097
				c-0.922,0-1.623-0.374-2.104-1.122c-0.481-0.748-0.721-1.846-0.721-3.29c0-1.492,0.231-2.6,0.696-3.322
				c0.465-0.722,1.174-1.084,2.127-1.084c0.931,0,1.636,0.377,2.118,1.131C927.57,278.346,927.813,279.438,927.813,280.867z
				 M923.131,280.867c0,1.246,0.146,2.153,0.439,2.722c0.293,0.569,0.76,0.854,1.399,0.854c0.648,0,1.118-0.289,1.409-0.864
				c0.291-0.576,0.438-1.479,0.438-2.71c0-1.231-0.146-2.132-0.438-2.704c-0.291-0.572-0.761-0.858-1.409-0.858
				c-0.641,0-1.106,0.282-1.399,0.847S923.131,279.621,923.131,280.867z"/>
			<path fill="#FFFFFF" d="M933.379,285.162l-2.906-7.594h-0.047c0.055,0.602,0.082,1.316,0.082,2.145v5.449h-0.92v-8.566h1.5
				l2.713,7.066h0.047l2.736-7.066h1.488v8.566h-0.996v-5.521c0-0.633,0.027-1.319,0.082-2.063h-0.047l-2.931,7.582L933.379,285.162
				L933.379,285.162z"/>
		</g>
		<g>
			<path fill="#FFFFFF" d="M924.813,292.472c0.902,0,1.612,0.225,2.131,0.672c0.518,0.446,0.775,1.06,0.775,1.836
				c0,0.888-0.281,1.582-0.847,2.086s-1.343,0.757-2.335,0.757c-0.965,0-1.701-0.154-2.209-0.464v-0.938
				c0.273,0.176,0.613,0.313,1.02,0.413c0.407,0.101,0.808,0.149,1.201,0.149c0.688,0,1.223-0.162,1.604-0.486
				s0.57-0.793,0.57-1.406c0-1.195-0.731-1.793-2.196-1.793c-0.371,0-0.867,0.057-1.488,0.17l-0.504-0.322l0.321-4.008h4.261v0.896
				h-3.429l-0.217,2.572C923.92,292.517,924.367,292.472,924.813,292.472z"/>
			<path fill="#FFFFFF" d="M933.379,297.704l-2.906-7.594h-0.047c0.055,0.602,0.082,1.315,0.082,2.145v5.449h-0.92v-8.566h1.5
				l2.713,7.066h0.047l2.736-7.066h1.488v8.566h-0.996v-5.52c0-0.634,0.027-1.32,0.082-2.063h-0.047l-2.931,7.582L933.379,297.704
				L933.379,297.704z"/>
		</g>
		<g>
			<g>
				
					<line fill="none" stroke="#FFFFFF" stroke-linecap="round" stroke-linejoin="round" x1="886.546" y1="265.715" x2="886.546" y2="265.715"/>
				
					<line fill="none" stroke="#FFFFFF" stroke-linecap="round" stroke-linejoin="round" stroke-dasharray="0,1.9803" x1="888.526" y1="265.715" x2="911.3" y2="265.715"/>
				
					<line fill="none" stroke="#FFFFFF" stroke-linecap="round" stroke-linejoin="round" x1="912.29" y1="265.715" x2="912.29" y2="265.715"/>
			</g>
		</g>
		<g>
			<g>
				
					<line fill="none" stroke="#FFFFFF" stroke-linecap="round" stroke-linejoin="round" x1="886.546" y1="279.134" x2="886.546" y2="279.134"/>
				
					<line fill="none" stroke="#FFFFFF" stroke-linecap="round" stroke-linejoin="round" stroke-dasharray="0,1.9803" x1="888.526" y1="279.134" x2="911.3" y2="279.134"/>
				
					<line fill="none" stroke="#FFFFFF" stroke-linecap="round" stroke-linejoin="round" x1="912.29" y1="279.134" x2="912.29" y2="279.134"/>
			</g>
		</g>
		<g>
			<g>
				
					<line fill="none" stroke="#FFFFFF" stroke-linecap="round" stroke-linejoin="round" x1="886.546" y1="288.49" x2="886.546" y2="288.49"/>
				
					<line fill="none" stroke="#FFFFFF" stroke-linecap="round" stroke-linejoin="round" stroke-dasharray="0,1.9803" x1="888.526" y1="288.49" x2="911.3" y2="288.49"/>
				
					<line fill="none" stroke="#FFFFFF" stroke-linecap="round" stroke-linejoin="round" x1="912.29" y1="288.49" x2="912.29" y2="288.49"/>
			</g>
		</g>
	</g>
</g>
</svg>
