<?xml version="1.0" encoding="utf-8"?>
<!-- Generator: Adobe Illustrator 16.0.0, SVG Export Plug-In . SVG Version: 6.00 Build 0)  -->
<!DOCTYPE svg PUBLIC "-//W3C//DTD SVG 1.1//EN" "http://www.w3.org/Graphics/SVG/1.1/DTD/svg11.dtd">
<svg version="1.1" id="Layer_1" xmlns="http://www.w3.org/2000/svg" xmlns:xlink="http://www.w3.org/1999/xlink" x="0px" y="0px"
	 width="205px" height="205px" viewBox="0 0 205 205" enable-background="new 0 0 205 205" xml:space="preserve">
<circle fill="#93C83E" cx="102.499" cy="102.5" r="102.501"/>
<path fill="#FFFFFF" d="M102.5,72.015c-16.311,0-29.579-13.27-29.579-29.579S86.189,12.856,102.5,12.856s29.579,13.27,29.579,29.579
	S118.811,72.015,102.5,72.015z M102.5,16.813c-14.129,0-25.623,11.494-25.623,25.623S88.371,68.059,102.5,68.059
	s25.623-11.494,25.623-25.623S116.629,16.813,102.5,16.813z M120.529,25.989c-0.296-0.002-0.159-0.411-0.563-0.312
	c0.08,0,0.137,0.002,0.18,0.005c-0.069-0.021-0.151-0.068-0.18-0.168c-0.009-0.034-0.008-0.077-0.001-0.123
	C120.156,25.586,120.344,25.785,120.529,25.989z M102.152,57.419c0.108,0.325,0,0.433-0.325,0.325c0,0.385-0.116,0.378-0.346,0.349
	c-0.081,0.106-0.175,0.2-0.281,0.281c0.017,0.206,0.012,0.344-0.22,0.3c-0.296-0.056-0.064,0.292-0.12,0.338
	c-0.162,0.136-0.277,0.025-0.317-0.116c-0.023,0.137-0.14,0.191-0.335,0.143c0.108,0.108,0.216,0.216,0.325,0.324
	c-0.05,0-0.101,0-0.15,0c0.183,0.049,0.185,0.268,0.007,0.322c0.312,0.085,0.146,0.72,0.064,0.701
	c-0.292-0.067-0.301,0.167-0.14,0.254c-0.102,0.033,0.036,0.201-0.106,0.344c0,0.594-0.646,0.38-0.646,0.974
	c-0.514,0-0.257,0.194-0.649,0.324c-0.502,0.167-1.294,0.021-1.849,0.005c-0.046,0.037-0.049,0.113-0.049,0.229
	c0.002,0.178-0.366,0.129-0.57,0.102c-0.138,0.058-0.148,0.241-0.135,0.425c-0.016,0.319-0.095,0.54-0.262,0.672
	c-0.035-0.068-0.124-0.119-0.22-0.135c0.234,0.002,0.222-0.004-0.069-0.021c-0.004,0.005-0.002,0.013-0.005,0.018
	c-0.028,0-0.059-0.005-0.08,0c0.035,0,0.05,0,0.079,0.001c-0.056,0.089-0.083,0.186-0.091,0.289
	c-0.049,0.008-0.101,0.013-0.157,0.017c-0.05-0.018-0.105-0.03-0.152,0.018c-0.106,0.104,0.067,0.243,0.003,0.296
	c-0.106,0.087-0.759,0.121-1.101,0.031c0.072,0.065,0.126,0.122,0.126,0.157c0,0.268-0.875,0.26-0.982,0.12
	c-0.161-0.211-0.056-0.264-0.313-0.278c-0.036-0.001-0.079-0.002-0.129-0.003c0.104,0.033,0.15,0.13,0.124,0.285
	c-0.013-0.005-0.024-0.009-0.036-0.014c-0.094-0.13-0.229-0.206-0.377-0.244c0.04,0.033,0.066,0.078,0.089,0.126
	c-0.105-0.047-0.205-0.105-0.309-0.153c-0.004,0-0.006-0.002-0.01-0.001c0.004-0.001,0.004,0.002,0.009,0.001
	c-1.127-0.52-2.215-1.116-3.249-1.796c0-0.157,0-0.314,0-0.471c-0.703,0,0.052-0.325-0.646-0.325c0-0.703-0.325,0.054-0.325-0.649
	c0-0.641-0.389-0.038-0.337-0.527c0.052-0.48-0.36-0.346-0.33-0.703c0.033-0.398-0.214-0.43-0.34-0.838
	c-0.376-1.221-1.854-2.212-2.829-2.79c-0.061-0.125-0.072-0.253-0.032-0.39c0.029-0.36-0.232-0.115-0.343-0.332
	c-0.069-0.134,0.098-0.484-0.051-0.573c-0.142-0.083-0.273,0.149-0.273-0.162c0-0.278-0.325-0.126-0.325-0.648
	c0-0.278-0.099-0.146-0.245-0.112c-0.18,0.041-0.064-0.639-0.077-0.698c-0.028-0.122-0.418-0.664-0.487-0.649
	c-0.233,0.052-0.155-0.269-0.145-0.389c0.03-0.362-0.23-0.116-0.342-0.333c-0.069-0.134,0.101-0.484-0.05-0.573
	c-0.142-0.083-0.274,0.149-0.274-0.162c0-0.444,0.211-0.54,0.289-0.886c-0.049,0.128-0.144,0.22-0.289,0.078
	c-0.11-0.111-0.021-0.515-0.01-0.643c0.023-0.272,0.01-0.546,0.01-0.818c0-0.362,0.444,0.001,0.325-0.487
	c0.275,0.067,0.765-0.541,0.533-0.644c0.002-0.001,0.002-0.003,0.005-0.003c0.095-0.039,0.111-0.15,0.111-0.324
	c-0.521,0-0.34-0.359-0.312-0.798c0.023-0.215,0.018-0.43-0.012-0.646c-0.075-0.394-0.627-0.498-0.001-0.498
	c-0.335,0.081-0.352-0.161-0.337-0.399c-0.042,0.035-0.117,0.034-0.222,0.031c-0.175-0.002-0.133,0.353-0.105,0.559
	c-0.04,0.154-0.145,0.297-0.307,0.134c-0.089-0.089-0.044-0.332-0.016-0.508c-0.067-0.314-0.309-0.761-0.309-0.138
	c0-0.144,0.031-0.35-0.007-0.497c-0.004,0.079-0.054,0.161-0.183,0.196c-0.028,0.008-0.059-0.144-0.101-0.345
	c-0.015,0.003-0.018-0.006-0.036-0.002c0.015-0.004,0.021,0.002,0.036,0c-0.041-0.201-0.092-0.449-0.162-0.649
	c-0.031-0.005-0.057-0.014-0.08-0.028c0.021,0.009,0.049,0.008,0.073,0.01c-0.052-0.144-0.113-0.26-0.189-0.307
	c-0.009,0.037-0.006,0.064-0.002,0.091c-0.075-0.284,0.002-0.735,0.002-0.899c0-0.54-0.324-0.537-0.324-1.133
	c0,0.107,0,0.214,0,0.322c0.002-0.01-0.451-0.971-0.484-0.971c-0.325,0-0.162-0.769-0.142-0.979c0.049-0.499-0.25-0.679-0.332-0.52
	c-0.027-0.088-0.133-0.058-0.268-0.131c-0.18-0.1-0.067-0.807-0.067-0.963c0-0.104-0.039-0.79-0.031-1.328
	c0.05-0.222,0.122-0.438,0.179-0.658c0.245,0.008,0.187-0.287,0.159-0.579c0.064-0.225,0.117-0.453,0.187-0.676
	c0.006,0.002,0.008,0,0.014,0.003c0.136,0.066,0.161-0.233,0.157-0.518c0.089-0.261,0.192-0.517,0.288-0.775
	c0.008,0.001,0.011-0.003,0.018-0.001c-0.007,0-0.01,0-0.018,0c2.198-5.856,6.577-10.847,12.435-13.594
	c0.198,0.027,0.588,0.083,0.586-0.102c-0.001-0.063,0.001-0.112,0.008-0.152c0.061-0.026,0.12-0.052,0.181-0.077
	c0.031,0.002,0.066,0.007,0.078-0.006v-0.001c0.005,0.001,0.007,0,0.013,0.001c0.054,0,0.108,0,0.162,0
	c-0.093,0.026-0.139,0.097-0.162,0.162c0.021,0.072,0.069,0.119,0.121,0.146c0.16-0.011,0.252-0.099,0.201-0.308
	c0,0.515,0.129,0.274,0.325,0c0.064,0.268-0.057,0.39-0.325,0.324c-0.033-0.007-0.041,0.012-0.069,0.009
	c0.131,0.006,0.281,0.028,0.394-0.009c0.186-0.062,0.315-0.238,0.469-0.305c0.019,0,0.033-0.005,0.047-0.009
	c0.042-0.011,0.084-0.022,0.133-0.01c-0.036,0-0.072,0-0.108,0c0.058-0.034,0.064-0.111,0.062-0.236
	c-0.002-0.225,0.592-0.089,0.693-0.089c0.108,0,0.216,0,0.325,0c0.049,0,0.098,0,0.146,0c0.067,0.011,0.129,0.016,0.175,0
	c0.135,0.033,0.19,0.024,0.225,0c0.04-0.027,0.056-0.08,0.074-0.152c-0.093,0.037-0.186,0.074-0.283,0.102
	c0.033-0.346,0.304-0.336,0.628-0.299c0.168-0.008,0.362,0.007,0.502,0.017c0.04-0.007,0.087-0.007,0.151,0.009
	c-0.031,0-0.087-0.004-0.151-0.009c-0.191,0.034-0.155,0.279-0.325,0.333c0.051,0,0.101,0,0.152,0c0.108,0,0.216,0,0.324,0
	c0.022,0.092-0.006,0.141-0.025,0.196c0.002-0.004,0.005-0.007,0.007-0.011c0.056-0.12,0.095-0.253,0.34-0.185
	c0.069,0.194-0.007,0.269-0.12,0.306c0.017,0.005,0.032,0.004,0.052,0.019c0.023,0,0.046,0,0.068,0
	c-0.028-0.007-0.036,0.007-0.06,0.005c0.266,0.206-0.013,0.28-0.271,0.305c0,0.004,0,0.011,0,0.014
	c-0.002,0.027-0.005,0.028-0.002,0c0-0.003,0-0.01,0-0.014c-0.063,0.007-0.12,0.009-0.172,0.011
	c0.033,0.007,0.062,0.019,0.087,0.033c-0.057,0.036-0.135,0.163-0.229,0.295c0.108,0,0.216,0,0.324,0c0.067,0,0.134,0,0.202,0
	c-0.026,0.007-0.05,0.016-0.075,0.025c0.124,0.058,0.243,0.237,0.132,0.297c0.022,0,0.042,0,0.063,0
	c-0.038-0.009-0.049,0.013-0.08,0.011c-0.018,0.005-0.039,0.007-0.063,0.008c-0.143,0.019-0.229,0.105-0.179,0.305
	c0-0.475-0.09-0.201-0.327-0.06c-0.021,0.036-0.051,0.049-0.092,0.04c-0.018,0.006-0.036,0.016-0.057,0.021
	c-0.015,0.003-0.035-0.001-0.051,0c-0.033,0.008-0.07,0.012-0.122,0c-0.002,0.001-0.518,0.72-0.649,0.63
	c-0.026-0.018-0.031-0.081-0.018-0.179c-0.041-0.151-0.144-0.287-0.304-0.126c-0.072,0.071-0.054,0.241-0.031,0.398
	c-0.085-0.101-0.281-0.074-0.456-0.074c-0.252,0-0.196-0.236-0.016-0.308c-0.101-0.015-0.102-0.103-0.099-0.252
	c0.004-0.226-0.595-0.089-0.694-0.089c0.16,0.039,0.54-0.371,0.649-0.286c0.013,0.011,0.017,0.038,0.021,0.066
	c0.134-0.164,0.626,0.083,0.626-0.426c0.17-0.057,0.507,0.14,0.646,0c0.184-0.184-0.013-0.298-0.186-0.325
	c-0.052,0.008-0.102,0.009-0.139,0c0.037-0.009,0.087-0.008,0.139,0c0.173-0.026,0.37-0.141,0.186-0.324c-0.116-0.116-0.5,0-0.646,0
	c-0.157,0.038-0.564-0.086-0.325-0.324c-0.523,0.003-0.034,0.033-0.322,0.324c0.033,0,0.665,0.014,0.625,0.21
	c-0.069,0.367-1.411,0.202-1.274,0.76c0.041-0.17-0.018-0.255-0.119-0.295c-0.255,0.104-0.755,0.458-0.853,0.236
	c-0.005-0.012-0.006-0.031-0.01-0.045c-0.054,0.321-0.402,0.405-0.737,0.42c-0.039-0.002-0.077-0.005-0.143-0.009
	c-0.009,0.003-0.007,0.012-0.014,0.016c-0.023,0-0.049,0.002-0.07,0.002c0.028,0,0.042,0,0.067,0.001
	c-0.15,0.092,0.045,0.375-0.211,0.318c-0.129-0.028-0.915-0.039-0.827,0.143c0.055,0.116-0.859,0.404-0.945,0.506
	c-0.129,0.153-0.018,0.325-0.161,0.345c0.099,0.04-0.207,0.146-0.394,0.327c0.107,0.05,0.529,1.102,0.529,1.277
	c0-0.038-0.548,0.292-0.599,0.322c-0.141,0.083-0.008,0.519-0.05,0.649c-0.01,0.029-0.024,0.046-0.041,0.059
	c0.008,0.011,0.015,0.02,0.021,0.04c0.039-0.221,0.336,0.028,0.327,0.168c0.271-0.211,0.25-0.851,0.386-0.912
	c0.176-0.079,1.46-0.742,1.453-0.718c0.085-0.225,0.152-0.292,0.376-0.379c0.085-0.102,0.108-0.223,0.069-0.364
	c-0.105-0.316,0.198-0.079,0.329-0.188c0.055-0.047-0.177-0.397,0.12-0.341c0.26,0.049,0.188-0.154,0.271-0.25
	c0.035-0.003,0.072-0.011,0.112-0.025c-0.035,0.001-0.069,0.002-0.093,0.004c0.028-0.019,0.075-0.025,0.134-0.021
	c0.056-0.029,0.101-0.076,0.101-0.149c0-0.28,0.33-0.162,0.484-0.162c0.095,0,0.534-0.113,0.532,0.089
	c-0.001,0.095,0.001,0.163,0.026,0.206c0.035,0.003,0.073,0.012,0.112,0.026c-0.036-0.001-0.072-0.002-0.095-0.004
	c0.024,0.023,0.072,0.028,0.136,0.021c0.057,0.03,0.101,0.076,0.101,0.147c0,0.264-0.051,0.146-0.201,0.118
	c-0.027-0.005-0.205,0.247-0.329,0.451c0.127,0.006,0.251,0.16-0.112,0.218c0,0.004-0.009,0.02-0.008,0.022
	c-0.002-0.01,0-0.013-0.001-0.022c-0.083,0.013-0.187,0.022-0.323,0.022c0.263,0,1.103,0.204,0.974-0.324
	c-0.036,0.143,0.011,0.213,0.083,0.259c-0.061-0.109,0.305-0.336,0.59-0.473c-0.025,0.057-0.053,0.114-0.027,0.214
	c0.399-0.098,0.408,0.354,0.053,0.319c0.001,0,0.004,0.004,0.004,0.005c0.038,0,0.073,0,0.11,0c-0.029,0.008-0.057,0.018-0.08,0.031
	c0.046,0.064,0.102,0.199,0.149,0.263c-0.025,0.015-0.054,0.025-0.085,0.033c0.169,0.031,0.352,0.144,0.173,0.322
	c-0.075,0.074-0.255,0.053-0.415,0.028c0.106,0.088,0.106,0.278,0.286,0.298c-0.024,0.007-0.046,0.016-0.07,0.023
	c0.124,0.057,0.245,0.236,0.134,0.297c-0.009,0.006-0.013,0.014-0.028,0.018c0.216,0.022,0.476,0.072,0.35,0.193
	c-0.122,0.066-0.254,0.095-0.389,0.106c0.043,0.003,0.092,0.008,0.131,0.008c0.194-0.047,0.309,0.007,0.333,0.143
	c0.007-0.018,0.011-0.037,0.02-0.052c0.031,0.056,0.159,0.136,0.293,0.233c-0.353-0.086-0.394,0.248-0.161,0.31
	c-0.017,0.002-0.028,0.009-0.04,0.015c-0.119,0.057-0.033,0.257-0.214,0.315c-0.069-0.009-0.121-0.006-0.144,0.012
	c-0.03-0.001-0.052,0.002-0.089-0.003c-0.455-0.066-0.779,0.274-1.23,0.308c-0.559-0.028-1.118-0.124-1.676-0.059
	c-0.46,0.053-0.299,0.255-0.355,0.347c0.256,0.019,0.578,0.217,0.672,0.372c-0.18-0.044-0.623,0.458-0.669,0.226
	c-0.057,0.101-0.172,0.105-0.249,0.031c0.036,0.036,0.079,0.056,0.119,0.069c0.17,0.045,0.177,0.241,0.022,0.305
	c0.298,0.041-0.07,0.562,0.202,0.681c0.125,0.054,0.631-0.22,0.635,0.086c0.002,0.308-1.163,0.013-1.033,0.546
	c0-0.045,0-0.089,0-0.134c-0.017,0.046-0.047,0.08-0.088,0.104c-0.059-0.026-0.452-0.028-0.544,0.182
	c0.006,0.048,0.002,0.106-0.014,0.173c-0.018-0.071-0.007-0.126,0.014-0.173c-0.012-0.087-0.064-0.137-0.145-0.156
	c-0.045,0.02-0.104,0.027-0.194,0.005c0.08-0.02,0.142-0.017,0.194-0.005c0.12-0.052,0.126-0.21,0.218-0.289
	c0.064,0.027,0.481,0.028,0.555-0.203c0.002-0.041,0.004-0.084,0.004-0.152c0.015,0.061,0.009,0.109-0.004,0.152
	c0,0.007,0,0.021-0.001,0.027c0.021-0.064,0.067-0.134,0.151-0.167c-0.081-0.013-0.128-0.062-0.148-0.136
	c-0.073,0.208-0.435,0.125-0.645,0.125c0.765,0-0.745,0.325-0.971,0.325c0.107,0,0.214,0,0.322,0
	c-0.191-0.046-0.683,0.532-0.675,0.178c-0.157,0.318-0.876,0.471-0.296,0.471c-0.43-0.105-0.342,0.318-0.328,0.588
	c-0.143,0.065-0.278,0.071-0.321-0.046c-0.018-0.05-0.026-0.115,0-0.218c0.111,0.459-0.826,0.398-0.86,0.349
	c-0.054,0.032-0.087,0.077-0.107,0.125c-0.002,0.036-0.009,0.071-0.019,0.105c0.002-0.014,0.006-0.038,0.01-0.078
	c-0.018,0.056-0.02,0.094-0.014,0.089c-0.048,0.157-0.157,0.291-0.305,0.381c0.095,0.023,0.148-0.004,0.205-0.026
	c-0.158,0.118-0.422,0.173-0.529,0.351c0-0.091-0.01-0.209-0.013-0.322c0.006,0.001,0.008-0.003,0.013-0.002
	c-0.005-0.001-0.005,0.002-0.013,0.001c-0.001-0.11,0.017-0.207,0.072-0.27c-0.057,0.063-0.084,0.16-0.093,0.271
	c-0.093-0.015-0.16-0.006-0.201,0.028c0.05-0.028,0.113-0.041,0.201-0.026c-0.016,0.194,0.018,0.421,0.029,0.568
	c-0.102,0.056-0.206,0.099-0.318,0.126c-0.016,0.025-0.121,0.566-0.322,0.227c-0.096-0.16,0.371-0.397,0.322-0.602
	c-0.083,0.111-0.183,0.204-0.29,0.289c-0.012,0.235-0.089,0.424-0.359,0.358c0.193,0.271,0.324,0.529,0.324,0
	c0,0.099,0.005,0.22,0,0.336c0.018,0.089-0.004,0.145-0.029,0.198c0.024-0.055,0.026-0.127,0.029-0.198
	c-0.001-0.005,0-0.007,0-0.012c-0.108,0.108-0.216,0.216-0.324,0.324c0.086,0.354-0.263,0.409-0.325,0.175c0,0.05,0,0.1,0,0.15
	c-0.171,0.239-0.291,0.455-0.318,0.159c-0.042,0.189-0.306,0.143-0.338,0.342c0.004,0.043,0.01,0.084,0.01,0.148
	c-0.015-0.062-0.016-0.109-0.01-0.148c-0.048-0.446-0.314,0.121-0.314,0.309c0,0.325-0.398,0.146-0.322-0.161
	c0.082,0.335-0.203,0.279-0.305,0.418l-0.001,0.001c-0.02,0.027-0.028,0.064-0.03,0.109c0.004-0.01,0.011-0.018,0.015-0.029
	c-0.002,0.044-0.002,0.084-0.002,0.147c-0.012-0.048-0.014-0.084-0.012-0.118c-0.02,0.045-0.045,0.082-0.087,0.082
	c-0.321,0.006-0.236,0.169-0.21,0.452c0.026,0.279-0.304,0.202-0.351,0.503c-0.031,0.205-0.023,0.41-0.01,0.615
	c-0.046,0.57-0.234,0.967-0.323,1.542c-0.122,0.785-0.302-0.611-0.302-0.808c0-0.108,0-0.216,0-0.325
	c0-0.144-0.142-0.649,0.16-0.649c0.326,0,0.146-0.397-0.16-0.322c0.107-0.108,0.213-0.216,0.322-0.325
	c-0.469,0-0.6-0.073-0.632-0.413c-0.042,0.164-0.251,0.024-0.313-0.109c-0.006,0.017-0.011,0.033-0.017,0.05
	c0.006,0.042,0.006,0.09-0.008,0.148c-0.017-0.065-0.006-0.108,0.008-0.148c-0.04-0.267-0.422-0.219-0.333,0.148
	c0,0.043,0,0.087,0,0.131c-0.049-0.146-0.22-0.162-0.297-0.048c0.022-0.204,0.032-0.455-0.115-0.453
	c-0.139,0.002-0.219-0.004-0.245-0.084c0.024-0.047,0.028-0.097,0.002-0.135c0.004,0.044-0.008,0.072-0.014,0.106
	c-0.001-0.026,0.006-0.068,0.013-0.106c-0.025-0.035-0.074-0.06-0.153-0.06c-0.186,0-0.21,0.387-0.198,0.554
	c-0.025,0.034-0.054,0.061-0.088,0.079c-0.161-0.01-0.255-0.097-0.203-0.309c0,0.641-0.322,0.518-0.322,0.812
	c0,0.617-0.477,0.36-0.367,0.932c0.068,0.362-0.333,0.055-0.298,0.459c0.023,0.277,0.229,1.167-0.306,1.034
	c0.108-0.106,0.216-0.213,0.324-0.319c-0.572-0.14-0.324,1.191-0.324,1.455c0,0.182-0.145,0.665,0,0.809
	c0.203,0.204,0.646-0.158,0.669,0.13c0.048-0.515,0.295-1.007,0.842-1.073c0.027,0.016,0.051,0.038,0.072,0.065
	c-0.072,0.125-0.229,1.261-0.276,1.111c0.016,0.243,0.002,0.498-0.337,0.416c0.108-0.108,0.215-0.216,0.322-0.325
	c-0.348-0.085-0.365,0.363-0.363,0.584c0.001,0.079,0.013,0.418,0.024,0.59c-0.079,0.138-0.286,0.137-0.299,0.345
	c0.017,0.046,0.04,0.085,0.075,0.094c0.079,0.021,0.653-0.09,0.614,0.083c-0.087,0.381,0.425,0.375,0.621,0.618
	c0.089,0.108-0.228,0.328-0.278,0.371c-0.187,0.16-0.074,0.917-0.07,1.182c-0.008,0.206-0.064,0.2-0.364,0.375
	c-0.157,0.091,0.271,0.297,0.324,0.309c-0.168-0.036,0.367,1.28,0.367,1.281c0-0.063-0.002-0.101-0.002-0.145
	c0.019,0.076,0.054,0.146,0.118,0.151c0.201,0.018,0.436-0.172,0.531-0.331c0.041-0.167,0.366,0.982,0.319,0.945
	c0.131,0.108,0.271,0.049,0.325,0.113c0.031-0.044,0.08-0.077,0.167-0.087c0.339,0,0.042-0.135,0.163-0.322
	c0.158-0.247,0.144-0.564,0.381-0.641c-0.206,0.116,0.173,0.587,0.242,0.219c0.048-0.256,0.182-0.228,0.412-0.208
	c0.384,0.032,0.108-0.308,0.344-0.367c0.167,0.043,0.248,0.16,0.241,0.349c-0.764,0-0.047,2.406-0.004,0.5
	c0.002-0.016-0.003-0.04,0.001-0.053c0-0.043,0.002-0.076,0.002-0.123c0,0.04,0,0.08,0,0.119c0.051-0.138,0.23-0.145,0.407-0.133
	c-0.145-0.072-0.119-0.273,0.104-0.335c0.063-0.017,0.443,0.819,0.54,0.93c0.016,0.017,0.33,0.42,0.242,0.39
	c0.428,0.143,0.649-0.299,0.649,0.325c0.271,0,0.54,0,0.809,0c0.142,0.049,0.345,0.04,0.522,0.023
	c-0.031,0.129,0.325,0.472,0.289,0.624c0-0.108,0-0.215,0-0.322c0.108,0.107,0.216,0.214,0.325,0.322c0-0.108,0-0.215,0-0.322
	c-0.034,0.133,0.193,0.355,0.252,0.455c0.057,0.097,0.033,0.155-0.016,0.189c-0.016,0.001-0.027,0.001-0.045,0.004
	c0.013,0,0.027-0.001,0.04-0.001c-0.049,0.032-0.118,0.042-0.17,0.04c-0.085,0.044-0.139,0.116-0.061,0.219
	c0.141,0.185,0.482,0.005,0.612,0.104c0,0.038,0.01,0.09,0.028,0.142c-0.001-0.058-0.004-0.102-0.008-0.13
	c0.027,0.032,0.032,0.093,0.024,0.171c0.03,0.055,0.076,0.1,0.151,0.1c0.265,0,0.146,0.05,0.118,0.201
	c-0.036,0.187,0.177,0.17,0.271,0.122c0.106-0.053,0.124,0.198,0.119,0.408c0.103-0.158,0.381-0.079,0.304,0.24
	c0-0.653-0.018,0.117,0.322,0.324c0,0.04,0,0.079,0,0.118c0.068-0.189,0.367-0.071,0.323,0.02c-0.189,0.394,0.785,0.187,0.972,0.187
	c-0.108,0-0.216,0-0.325,0c0.194,0,0.515-0.071,0.625,0.076c0.001,0.035,0.006,0.069,0.014,0.103
	c0.008,0.043,0.026,0.077,0.01,0.146c0-0.053-0.002-0.083-0.002-0.123c0.013,0.042,0.031,0.077,0.059,0.077
	c0.211,0.004,0.361,0.045,0.592,0.045c0,0.373,0.517,0.51,0.628,0.788c0.001,0.027,0.009,0.043,0.018,0.06c0,0.001,0,0.003,0,0.004
	c0.078,0.145,0.396-0.053,0.325,0.443c-0.042,0.291,0.046,0.54,0.222,0.77c0.152,0.202,0.615,0.206,0.302,0.203
	c0.125,0.034,0.197,0.138,0.125,0.322c0-0.001-0.709,0.384-0.825,0.417c-0.366,0.107-0.138,0.422-0.511,0.523
	c0.255-0.04,0.568-0.086,0.688,0.033c0.125,0.125-0.014,0.224-0.149,0.337c0.103,0.011,0.198,0.11,0.149,0.312
	c-0.103-0.417,0.394-0.412,0.649-0.327c0.124,0.041,0.227,0.132,0.269,0.214c0.182-0.119,0.377-0.294,0.377-0.375
	c0-0.303,1.254-0.188,0.8-0.166c0.1,0.024,0.146,0.102,0.169,0.169c-0.011-0.045-0.014-0.098,0.002-0.165
	c0,0.08,0.003,0.137,0.005,0.179c-0.001-0.005-0.006-0.01-0.007-0.015c0.045,0.194,0.278,0.196,0.327,0.007
	c-0.014-0.042-0.019-0.094,0-0.171c0.017,0.07,0.013,0.125,0,0.171c0.047,0.151,0.245,0.143,0.313,0.272
	c0.047-0.192,0.338-0.019,0.488,0.15c0.241,0.273,0.087,0.359-0.005,0.382c0.047-0.013,0.099-0.022,0.174-0.004
	c-0.084,0-0.139,0.002-0.175,0.005c-0.181,0.051-0.165,0.275,0.044,0.308c0.056-0.027,0.109-0.075,0.13-0.152
	c0,0.054,0,0.109,0,0.164c0.118-0.197,0.77-0.562,0.981-0.284c0.175,0.232,0.036,0.273,0.392,0.281
	c0.304-0.009,1.312-0.053,1.219,0.141c-0.233,0.488,0.881-0.116,0.648,0.374c-0.182,0.38,0.999,0.327,1.25,0.618
	c0-0.065,0.024-0.122,0.087-0.166c0.626,0,0.636,0.909,0.613,1.285C102.459,57.173,102.675,57.419,102.152,57.419z M86.605,41.549
	C88.092,41.549,86.438,42.23,86.605,41.549L86.605,41.549z M85.957,41.549c-0.017-0.068-0.021-0.127-0.014-0.175
	c-0.155-0.336-1.069-0.279-0.957,0.175c0.164-0.674-1.125-0.515-0.971-0.973c0.278-0.224,0.313,0.221,0.432,0.362
	c0.184,0.216,0.465-0.573,0.108-0.687c0.036,0,0.072,0,0.109,0c0.359,0,0.667-0.135,0.603,0.2c-0.057,0.297,0.293,0.064,0.34,0.12
	c0.004,0.12,0.042,0.228,0.105,0.329c-0.03,0-0.045,0-0.08,0.001c0.041-0.01,0.051,0.008,0.082,0.006
	c0.001,0.004,0,0.008,0.003,0.011c0.029-0.001,0.041-0.003,0.065-0.004c0.161,0.044,0.15,0.25,0.294,0.311
	c0.055-0.016,0.119-0.02,0.204,0.001c-0.093,0.023-0.156,0.019-0.204-0.001c-0.074,0.021-0.124,0.068-0.135,0.15
	C85.965,41.423,85.973,41.481,85.957,41.549z M83.271,40.594c0.041,0.014,0.065,0.059,0.083,0.109
	c-0.037,0.269-0.4,0.239-0.31-0.127c0,0.108,0,0.216,0,0.324c0.022-0.091-0.164-0.302-0.258-0.465
	c-0.108-0.055-0.16-0.207,0.046-0.212c0.049-0.002,0.115,0.005,0.211,0.028C82.979,40.511,83.077,40.526,83.271,40.594z
	 M83.044,39.604c0.309,0.075,0.322-0.067,0.322-0.324c0,0.282-0.317-0.234-0.34-0.317c0.109-0.045,0.116-0.156,0.018-0.333
	c-0.703,0,0.054-0.324-0.649-0.324c-0.057-0.171,0.139-0.507,0-0.646c0.35-0.085,1.648,1.46,0.971,1.295
	c0.194-0.048,0.695,0.453,0.649,0.649c0-0.108,0-0.216,0-0.324c-0.062,0.253,0.296,0.34,0.326,0.548
	C84.354,39.929,83.178,39.604,83.044,39.604z M82.113,37.697c-0.04,0.123-0.04,0.288-0.042,0.288
	C81.468,37.985,81.751,37.782,82.113,37.697z M104.226,20.149c-0.016,0.003-0.021,0.012-0.031,0.019
	c-0.057,0.04-0.044,0.135-0.11,0.256c-0.098,0.18-0.804,0.068-0.958,0.068c-0.149-0.036-0.472,0.242-0.598,0.464
	c0.023,0.05,0.021,0.109-0.051,0.182c-0.116,0.116-0.5,0-0.649,0c0.108-0.108,0.216-0.216,0.325-0.325
	c-0.215-0.053-0.299,0.08-0.33,0.179c0.002-0.043,0.005-0.099,0.005-0.179c0.044,0.175-0.583,0.563-0.867,0.638
	c0.339-0.038,0.181,0.237,0.022,0.31c0.003,0.001,0.007,0.002,0.01,0.003c0.074,0.012,0.145,0.022,0.188,0.022
	c-0.086,0.021-0.135-0.002-0.188-0.022c-0.005,0-0.007,0-0.013-0.001c-0.044,0.02-0.081,0.011-0.109-0.016
	c-0.138-0.017-0.275-0.021-0.337,0.04c-0.178,0.177,0,0.291,0.168,0.322c-0.002,0-0.005,0.002-0.006,0.003
	c-0.084,0.024-0.125,0.086-0.15,0.146c-0.01,0.161-0.127,0.229-0.336,0.176c0.085,0.351-0.259,0.407-0.322,0.176
	c0,0.049,0,0.099,0,0.148c-0.125-0.092-0.233-0.2-0.325-0.325c-0.108,0-0.216,0-0.324,0c-0.108,0-0.216,0-0.325,0
	c0.108-0.107,0.216-0.214,0.325-0.322c-0.351,0.085-0.355-0.181-0.339-0.429c0-0.108-0.041-0.182-0.119-0.213
	c-0.052,0.011-0.113,0.013-0.191-0.006c0.083-0.021,0.143-0.013,0.191,0.006c0.127-0.028,0.179-0.141,0.133-0.331
	c-0.108,0.026-0.48-0.054-0.323-0.261c0.024-0.034,0.081-0.048,0.138-0.064c0.102-0.029,0.231-0.039,0.373-0.032
	c-0.12-0.062-0.23-0.231-0.125-0.29c0.046-0.024,0.117-0.035,0.263,0c0.065,0.016,0.117,0.013,0.161,0
	c0.083-0.023,0.125-0.085,0.151-0.145c0.005-0.103,0.056-0.166,0.146-0.186c-0.156-0.068-0.121-0.315-0.332-0.33
	c0.015,0.002,0.019,0.012,0.036,0.012c-0.054,0-0.108,0-0.162,0c0.051-0.013,0.091-0.015,0.126-0.012
	c-0.107-0.015-0.162-0.07-0.142-0.184c0.028-0.078,0.142-0.115,0.234-0.131c-0.009,0-0.027,0-0.038,0
	c-0.044,0.016-0.098,0.023-0.181,0.002c0.077,0,0.131-0.001,0.181-0.002c0.153-0.056,0.135-0.271,0.294-0.322c-0.05,0-0.1,0-0.15,0
	c0.108-0.108,0.216-0.214,0.325-0.322c-0.108,0-0.216,0-0.325,0c-0.108,0-0.216,0-0.324,0c-0.108,0-0.216,0-0.325,0
	c0.137,0,0.24-0.009,0.322-0.021c0.033-0.168-0.014-0.27-0.125-0.303c-0.066,0-0.132,0-0.198,0c0.083-0.021,0.145-0.016,0.198,0
	c0.042,0,0.084,0,0.127,0c0.323,0,0.646,0,0.971,0c-0.437,0.106-0.484-0.386,0.064-0.355c0.627,0.036,1.252,0.03,1.879,0.03
	c0.108,0,0.216,0,0.325,0c0.168,0,0.574-0.082,0.809,0c0.128,0.045,0.208,0.137,0.162,0.325c-0.034-0.136,0.043-0.241,0.147-0.315
	c0.15-0.107,0.371-0.138,0.499-0.009c0.137,0.137-0.034,0.24-0.176,0.365c0.117,0.067,0.219,0.228,0.112,0.284
	c-0.01,0.005-0.014,0.013-0.026,0.016c0.027,0.002,0.067,0.002,0.09,0.006c0.002-0.008-0.002-0.012,0-0.021
	c-0.002,0.01,0.006,0.012,0.003,0.022c0.477,0.074,0.142,0.306,0.024,0.176c0.024,0.063,0.075,0.094,0.148,0.105
	c0.028,0.001,0.053,0.003,0.072,0.009c0.03-0.002,0.042,0.019,0.079,0.01c-0.021,0-0.042,0-0.064,0
	c0.051,0.027,0.064,0.072,0.039,0.127c-0.031,0.064-0.097,0.13-0.162,0.164c0.126,0.004,0.234,0.029,0.234,0.122
	c-0.003,0.125,0.003,0.202,0.06,0.236c0.01,0.005,0.021,0.011,0.033,0.014c-0.13,0.013-0.295,0.029-0.464,0.033
	C104.076,20.04,104.132,20.116,104.226,20.149z M106.274,21.735c-0.136,0.098-0.49,0.096-0.537-0.107
	c-0.058-0.249-0.477-0.211-0.774-0.181c-0.046,0.031-0.112,0.043-0.22,0.017c0.054,0,0.133-0.008,0.22-0.017
	c0.114-0.075,0.11-0.261,0.255-0.308c-0.05,0-0.101,0-0.15,0c0.045-0.182-0.003-0.291-0.119-0.325c-0.065-0.011-0.133-0.015-0.205,0
	c0.086-0.021,0.15-0.016,0.205,0c0.003,0,0.006,0,0.009,0c0.183,0.035,0.335,0.159,0.436,0.325c0-0.918,0.271,0.413,0.314-0.135
	c-0.011-0.052-0.012-0.113,0.007-0.189c0,0.082-0.003,0.141-0.007,0.189c0.028,0.13,0.143,0.183,0.334,0.135
	c-0.065-0.266,0.055-0.39,0.322-0.325c0.312-0.076,0.505,0.448,0.592,0.527C106.808,21.514,106.433,21.62,106.274,21.735z
	 M111.223,25.352c-0.134-0.032-0.359,0.196-0.458,0.254c-0.102,0.06-0.16,0.033-0.193-0.02c0,0.009,0.001,0.019,0.001,0.027
	c0.005,0.018,0.009,0.036,0.002,0.063c0-0.028-0.001-0.044-0.002-0.063c-0.005-0.017-0.012-0.032-0.014-0.053
	c-0.025-0.059-0.031-0.129-0.025-0.17c-0.016-0.015-0.041-0.02-0.063-0.028c-0.046,0.013-0.106,0.018-0.219-0.009
	c0.096-0.023,0.163-0.014,0.219,0.009c0.013-0.004,0.029-0.004,0.039-0.009c0.113-0.06-0.008-0.241-0.13-0.299
	c0.025-0.009,0.049-0.019,0.075-0.026c-0.03,0-0.063,0.006-0.094,0c-0.182-0.035-0.336-0.159-0.437-0.324c0.022,0,0.043,0,0.064,0
	c-0.161-0.088,0.177-0.424,0.263-0.26c0-0.021,0-0.043,0-0.065c-0.069-0.287,0.145-0.362,0.262-0.259
	c-0.027-0.122-0.013-0.083,0.01,0.006c0.01,0.01,0.022,0.011,0.03,0.024c0.004-0.024,0.009-0.048,0.021-0.059
	c0.109-0.107,0.513,0.322,0.648,0.288c-0.05,0-0.1,0-0.15,0c0.188,0.049,0.188,0.275,0,0.325c0.007,0.002,0.02-0.002,0.025,0
	c0.233,0.085,0.018,0.564,0.25,0.649C111.306,25.352,111.265,25.352,111.223,25.352z M111.769,25.008
	c0.145-0.1,0.086-0.388,0.426-0.305c-0.194,0.047-0.694-0.453-0.646-0.646c0.134,0.55-0.489,0.164-0.625-0.166
	c0.004,0.065-0.002,0.111-0.024,0.127c-0.108,0.083-0.486-0.325-0.646-0.286c0.174,0.042,0.263-0.038,0.307-0.123
	c-0.011-0.159-0.097-0.252-0.307-0.202c0.055,0,0.108,0,0.162,0c-0.073-0.021-0.119-0.07-0.146-0.123
	c0.008-0.123,0.074-0.186,0.202-0.188c0.024-0.016,0.057-0.026,0.104-0.014c-0.101,0.407,0.499,0.469,0.63,0.194
	c-0.023,0.2-0.035,0.455,0.182,0.455c0.315-0.105,0.079,0.199,0.188,0.329c0.088,0.104,0.825-0.246,0.621,0.181
	c-0.026,0.052,0.503,0.496,0.648,0.461c-0.08,0-0.137-0.002-0.18-0.005c0.064,0.02,0.136,0.064,0.17,0.149
	c0.045-0.381,0.826,0.374,0.579,0.505c-0.004,0.002-0.001,0.009-0.008,0.012c0.029,0.026,0.061,0.049,0.068,0.105
	c-0.037,0.107-1.088,0.506-1.278,0.527c-0.174-0.175,0.481-0.537,0.328-0.62c-0.189-0.103-0.449,0.043-0.653-0.024
	C111.671,25.287,111.913,25.047,111.769,25.008z M125.166,33.563c0.101,0.262,0.207,0.522,0.297,0.787
	c0.005,0.024,0.005,0.048,0.013,0.073c0.007,0.019,0.016,0.026,0.023,0.036c0.009,0.026,0.018,0.052,0.026,0.079
	c-0.135-0.277-0.377-0.751-0.362-0.884C125.171,33.615,125.169,33.589,125.166,33.563c-0.013-0.034-0.025-0.068-0.038-0.102
	C125.15,33.485,125.162,33.52,125.166,33.563z M121.272,28.669c-0.049-0.145-0.25-0.012-0.31,0.118
	c-0.058-0.12-0.094-0.26-0.348-0.198c0.396-0.097,0.325,0.364,0.325,0.649c0.321-0.107,0.429,0,0.321,0.322
	c0.021,0,0.024,0.005,0.044,0.006c-0.025,0.014-0.044,0.092-0.044,0.318c0.144-0.58-0.849-0.089-0.646-0.51
	c-0.029,0.063-0.643-1.11-0.811-1.11c-0.521,0-0.229-0.128-0.552-0.32c-0.16-0.097-0.499,0.121-0.576-0.048
	c-0.083-0.182-0.621-0.779-0.671-0.503c-0.101-0.142-0.388-0.085-0.306-0.424c0,0.721-0.072,0.446,0.274,0.649
	c0.041,0.105,0.067,0.213,0.077,0.326c0.054,0.064,0.192-0.11,0.298-0.004c0.558,0,0.246,0.649,0.971,0.649
	c0,0.686,0.642,0.101,0.971,0.649c-0.105-0.025-0.48,0.053-0.321,0.259c0.202,0.264,0.283,0.224,0.309,0.446
	c-0.071-0.015-0.218,0.089-0.312-0.059c-0.093-0.146-0.324-1.156-0.324-0.324c0.065-0.266-0.463-0.646-0.646-0.646
	c-0.642,0-0.036-0.388-0.525-0.336c-0.151,0.016-0.446,0.117-0.446-0.15c0-0.298-0.729-0.728-0.971-0.487
	c-0.114,0.114-0.061,0.988-0.416,0.637c-0.064-0.064-0.138-0.155-0.232-0.313c0.096,0.395-0.325,0.264-0.325,0.649
	c0-0.305,0.771,0.949,0.138,0.647c-0.086-0.041-0.463,1.457,0.188,1.297c-0.429-0.105-0.479,0.567-0.152,0.647
	c0.04-0.012,0.086-0.017,0.152-0.001c-0.058,0.014-0.108,0.012-0.152,0.001c-0.181,0.057-0.155,0.348-0.587,0.307
	c-0.314-0.029-0.451,0.53-0.588,0.71c0.254,0.116,0.921,0.498,1.01,0.181c0.044,0.084,0.152,0.099,0.317,0.099
	c-0.342,0,0.341-0.341,0.324-0.324c0-0.703,0.324,0.054,0.324-0.649c0.392,0,0.657-0.172,1.017-0.325
	c0.293-0.125,1.101-0.401,1.25-0.646c-0.043,0.174,0.037,0.263,0.122,0.307c0.158-0.01,0.251-0.097,0.2-0.307
	c0,0.491,0.393,0.813,0.324,1.295c-0.052,0.364-0.035,0.356,0.226,0.36c0.053,0.001,0.083,0.052,0.102,0.113
	c-0.002-0.045-0.003-0.084-0.003-0.148c-0.159,0.65,1.523,0.07,1.617,0.76c0.123-0.228,0.98,0.68,0.977-0.113
	c-0.545,0-0.516-0.94,0.065-0.989c0.368-0.031,0.148,0.392,0.517,0.361c0.367-0.031,0.401-0.157,0.396-0.393
	c0.068,0.086,0.234-0.028,0.29-0.146c0.007,0.021,0.014,0.041,0.021,0.062c-0.022-0.76-0.217-0.213-0.318-0.515
	c-0.044-0.13,0.089-0.564-0.05-0.646c-0.142-0.083-0.272,0.148-0.272-0.162c0-0.563-0.324-0.399-0.324-0.649
	c0-0.094,0.112-0.536-0.089-0.532c-0.104,0.002-0.18,0.004-0.222-0.03c0.013,0.214-0.014,0.417-0.255,0.402
	c0.019,0.006,0.035,0.013,0.057,0.016c-0.098,0.016-0.188,0.111-0.14,0.307c0.026-0.113,0.008-0.191-0.031-0.244
	c-0.024-0.034-0.061-0.046-0.097-0.055c-0.021-0.005-0.033-0.01-0.054-0.007c-0.044,0.007-0.087,0.023-0.115,0.065
	c0.004-0.026,0.006-0.052,0.008-0.08c0.015-0.186,0.006-0.377-0.123-0.375c-0.101,0.002-0.174,0.003-0.217-0.026
	c-0.001-0.018-0.006-0.042-0.016-0.071c0.003,0.035,0.006,0.053,0.008,0.068c-0.005-0.004-0.005-0.016-0.009-0.021
	c0.003,0.03,0.005,0.061-0.004,0.097c0.018-0.071-0.012-0.103-0.02-0.152c0.002,0.025,0.013,0.04,0.023,0.055
	c-0.005-0.046-0.017-0.089-0.037-0.126c-0.019-0.028-0.044-0.051-0.075-0.071c0.007,0.003,0.019,0,0.024,0.003
	c-0.154-0.164-0.462-0.237-0.56-0.399c0.006-0.036,0.008-0.061,0.009-0.089c0.035-0.106,0.182-0.229,0.266-0.354
	c-0.111-0.206-0.358-0.471-0.184-0.508c-0.159-0.092-0.094-0.342,0.189-0.302c0.104-0.018,0.209-0.056,0.253-0.124
	c0.873,1.135,1.655,2.354,2.322,3.659c0.378,0.739,0.697,1.503,0.993,2.277c-0.053-0.031-0.139-0.027-0.26,0.015
	c0.093,0.35,0.393,1.02,0.481,0.977c0.027-0.013,0.344,0.73,0.526,1.226c0.072,0.255,0.146,0.509,0.209,0.767
	c0.013,0.06,0.027,0.125,0.044,0.184c0.103,0.437,0.195,0.875,0.275,1.317c-0.001,0.042,0.012,0.083,0.018,0.125
	c0.237,1.37,0.361,2.759,0.361,4.154c0,5.682-2.067,11.005-5.483,15.221c-0.011,0.001-0.015,0.002-0.026,0.002
	c0,0.013-0.006,0.024-0.006,0.037c-0.105,0.13-0.209,0.264-0.317,0.392c-0.025-0.2-0.066-0.429,0.163-0.429
	c0.395,0,0.022-0.507,0.16-0.645c0.27-0.267,0.424,0.035,0.327-0.648c-0.107-0.324-0.001-0.433,0.322-0.324
	c0.044-0.13-0.089-0.565,0.052-0.646c0.365-0.215,0.068-0.167,0.275-0.573c0.106-0.051,0.215-0.102,0.322-0.152
	c0.067-0.134-0.093-0.48,0-0.572c0.18-0.178,0.349,0.16,0.28-0.202c-0.116-0.616,0.4-0.234,0.4-0.701
	c0-0.267-0.247-1.504,0.124-1.674c-0.268-0.03-0.079-0.433-0.156-0.665c-0.106-0.322-0.319,0.323-0.323-0.625
	c-0.001,0-0.001,0-0.001,0c0,0.101,0,0.202,0,0.303c0.046-0.188-0.028-0.274-0.153-0.304c-0.029-0.002-0.057-0.006-0.084-0.011
	c-0.033,0.001-0.046-0.022-0.087-0.012c0.019,0,0.026,0,0.045,0c-0.031-0.01-0.055-0.023-0.055-0.042
	c0-0.188,0.334-0.309,0.334-0.442c0-0.207-0.096-0.653,0.103-0.779c-0.041-0.014-0.081-0.031-0.111-0.076
	c0-0.117,0.758-1.271,0.151-1.259c-0.059-0.026-0.115-0.072-0.14-0.152c0,0.032,0,0.073,0.001,0.095
	c-0.019-0.146-0.08-0.4-0.266-0.259c-0.127,0.098-0.421,0.498-0.385,0.647c0-0.148,0.003-0.228,0.005-0.278
	c-0.01,0.1-0.044,0.288-0.137,0.336c-0.273,0.142-0.23-0.362-0.206-0.598c-0.111-0.222-0.646,0.035-0.649-0.313
	c-0.158,0.458-1.747,0.853-0.96,0.853c-0.163-0.04-0.9,0.577-0.971,0.697c-0.296,0.505-0.194,0.002-0.488-0.057
	c0.233-0.021-0.084-0.076-0.311,0.02c-0.025,0.007-0.065,0.002-0.083,0.018c0.015-0.009,0.042-0.003,0.062-0.009
	c-0.054,0.027-0.098,0.062-0.125,0.111c0-0.002,0-0.006,0-0.009c-0.014,0.028-0.037,0.049-0.052,0.078c0-0.003,0-0.007,0-0.009
	c-0.026,0.048-0.07,0.084-0.125,0.109c0.02-0.005,0.047,0.001,0.063-0.008c-0.019,0.016-0.059,0.011-0.084,0.018
	c-0.267,0.112-0.678,0.013-0.152,0.013c-0.544-0.134-0.069,0.239-0.324,0.324c-0.215,0-0.432,0-0.646,0
	c0,0.473-0.116,0.33-0.519,0.351c-0.153,0.011-0.304,0.002-0.455-0.026c0-0.703-0.324,0.054-0.324-0.649
	c-0.695,0-0.558-0.25-1.05-0.312c0.15-0.06-0.164-0.372-0.233-0.57c0.07,0.492-0.467,0.015-0.27-0.09
	c0.018-0.01,0.041-0.018,0.074-0.019c-0.19-0.099-0.195-0.451-0.173-0.532c-0.039-0.056-0.095-0.088-0.146-0.103
	c0.044,0.002,0.101,0.005,0.181,0.005c-0.067,0.014-0.129,0-0.192-0.009c-0.029-0.009-0.046-0.01-0.059-0.01
	c0.006,0.001,0.011,0.006,0.018,0.007c-0.04-0.006-0.036-0.009-0.018-0.007c-0.21-0.058-0.371-0.234-0.399-0.452
	c-0.063,0.231-0.407,0.177-0.323-0.173c-0.044-0.182,0.004-0.29,0.119-0.324c-0.04,0-0.079,0-0.119,0c-0.215,0-0.432,0-0.646,0
	c-0.023-0.093-0.017-0.153,0-0.2c0.02-0.054,0.062-0.083,0.114-0.099c-0.09-0.013-0.162-0.041-0.161-0.115
	c0.003-0.125-0.002-0.202-0.061-0.235c0.036,0,0.071,0,0.107,0c0-0.134,0-0.268,0-0.402c-0.079,0.126-0.354-0.062-0.489-0.194
	c-0.381-0.371-0.013-0.248,0.169-0.402c0.114-0.095-0.089-0.29,0.251-0.42c0.166-0.063,0.102-1.196,0.094-1.347
	c-0.02-0.385-0.271-0.389-0.33-0.688c-0.041-0.211-0.344-1.611-0.344-0.758c0-0.173-0.162-0.974,0.162-0.974
	c0.241,0,0.218-0.793,0.188-0.899c0.042-0.027,0.111-0.028,0.211-0.027c0.234,0.004,0.089-0.726,0.089-0.856
	c0-0.033,0.582-0.75,0.461-0.808c0.133,0.063,0.229-0.618,0.518-0.832c0.217-0.16,0.704-1.111,0.803-1.111
	c0.245,0,0.245-0.325,0-0.325c-0.306,0-0.169-0.749-0.182-0.924c-0.036-0.505,0.683-0.473,0.688-0.861
	c0.002-0.185-0.214-1.289,0.234-1.103c0.008,0.003,0.021,0.01,0.029,0.014c0.015-0.121-0.868-0.689-0.609-0.69
	c-0.433,0.001-0.23,0.443-0.756,0.295c-0.381-0.107-0.215-0.667-0.215-0.944c-0.108,0.108-0.216,0.216-0.324,0.325
	c0-0.189,0.173-1.295-0.161-1.295c-0.045,0-0.502-0.9-0.485-0.971c0,0.805-0.094-0.133,0.098-0.237
	c0.398-0.214,0.92-0.113,1.349-0.078c0.172,0.014,0.677,0.133,0.82-0.009c0.496-0.497-0.568-0.625-0.162-0.645
	c-0.202-0.042-0.204-0.286-0.004-0.331c-0.313-0.086-0.416-0.652-0.682-0.601c-0.235,0.045-0.163-0.318-0.328-0.352
	c-0.188-0.018-0.378-0.021-0.565-0.007c-0.118-0.003-0.177-0.1-0.203-0.188c0.079-0.26,0.648,0.005,0.648-0.47
	c0-0.002-0.652,0-0.324-0.324c0.324-0.328,0.32,0.324,0.324,0.324c0.698,0,0.032-1.002,0.398-1.021
	c0.183-0.01,0.261-0.17,0.252-0.325c0.001,0.017,0.005,0.03-0.001,0.053c-0.124-0.092-0.232-0.2-0.325-0.324
	c0.093-0.125,0.201-0.232,0.325-0.325c-0.161,0.658,0.467,0.111,0.257,0c0.131,0,0.261,0,0.39,0
	c-0.066-0.267,0.059-0.388,0.324-0.322c0.117,0.029,0.178,0.023,0.218,0c0.058-0.034,0.063-0.111,0.061-0.236
	c-0.001-0.153,0.271-0.137,0.478-0.112c-0.039-0.026-0.069-0.063-0.085-0.113c0.121,0.142,0.5-0.125-0.023-0.175
	c0.002-0.006-0.002-0.007-0.001-0.013c-0.001,0.005,0.001,0.007,0,0.013c-0.052-0.005-0.092-0.013-0.161-0.013
	c-0.219,0-0.684-0.655-0.297-0.661c-0.29-0.101-0.645-0.609-0.361-0.65c-0.223-0.069-0.175-0.394,0.173-0.309
	c-0.108,0-0.217,0-0.324,0c-0.134-0.033-0.358,0.195-0.457,0.254c-0.1,0.059-0.159,0.033-0.192-0.018
	c0,0.009,0.001,0.018,0.001,0.025c0.005,0.018,0.009,0.036,0.002,0.063c0-0.028-0.001-0.044-0.002-0.063
	c-0.005-0.017-0.012-0.032-0.014-0.053c-0.027-0.059-0.032-0.13-0.025-0.171c-0.056-0.054-0.149-0.067-0.278-0.037
	c-0.36-0.308-0.889-0.671-0.977-0.649c-0.029,0-0.042-0.001-0.066-0.002c0.05,0.025,0.065,0.067,0.043,0.12
	c0.004,0.006,0,0.02,0.003,0.026c0.022,0.047,0.041,0.099,0.021,0.181c0.02-0.083-0.001-0.131-0.021-0.181
	c-0.001-0.006-0.004-0.011-0.005-0.017c-0.011,0.022-0.028,0.042-0.047,0.064c0.085,0.08,0.067,0.133-0.252,0.133
	c0.326-0.08,0.372,0.324,0.809,0.324c0.279,0,0.146,0.099,0.112,0.247c-0.024,0.109,0.178,0.119,0.372,0.107
	c0.002-0.012-0.001-0.016,0.002-0.029c-0.002,0.01,0.004,0.019,0.003,0.029c0.118-0.007,0.214-0.017,0.27-0.023
	c0.094,0.068-0.034,0.244-0.155,0.293c0.24,0.233,0.702,0.348,0.208,0.348c0.482-0.117,0.66,0.991,0.549,0.976
	c-0.156-0.022-0.245-0.229-0.386-0.306c-0.004,0-0.008,0-0.01-0.001c-0.045-0.022-0.095-0.034-0.153-0.02c0.034,0,0.07,0,0.105,0
	c-0.057-0.034-0.062-0.111-0.061-0.236c0.004-0.22-0.578-0.05-0.694-0.089c0-0.123-0.174-0.392-0.367-0.542
	c-0.043,0.055-0.155,0.129-0.279,0.218c-0.008,0-0.014,0-0.021,0c-0.081,0.514-0.354,0.078-0.145,0c-0.053,0-0.105,0-0.158,0
	c-0.268,0.065-0.389-0.058-0.324-0.325c-0.176,0.043-0.276,0.011-0.318-0.081c-0.002,0.027,0.001,0.05-0.007,0.081
	c0-0.033,0-0.065,0-0.098c-0.012-0.035-0.015-0.078-0.01-0.128c-0.043-0.097-0.145-0.137-0.312-0.096
	c-0.354,0.086-0.408-0.263-0.174-0.325c-0.051,0-0.101,0-0.151,0c0.063,0.015,0.108,0.008,0.152,0
	c0.018-0.004,0.035-0.008,0.056-0.009c0.134-0.059,0.143-0.225,0.019-0.294c0.019-0.003,0.022-0.014,0.034-0.021
	c0.05-0.027,0.064-0.072,0.038-0.128c-0.058-0.123-0.238-0.245-0.299-0.133c0-0.021,0-0.042,0-0.063
	c0.041-0.17-0.001-0.274-0.101-0.316c-0.04,0.002-0.075,0-0.104-0.009c-0.04,0-0.079,0-0.119,0c0.039-0.009,0.067-0.007,0.101-0.008
	c-0.1-0.041-0.143-0.144-0.101-0.313c-0.195,0.048-0.291-0.042-0.307-0.14c-0.005,0.047-0.033,0.075-0.018,0.14
	c0.038-0.162-0.37-0.542-0.282-0.649c0.003-0.003,0.013-0.002,0.016-0.005c-0.097-0.064,0.02-0.237,0.139-0.293
	c-0.01-0.004-0.021-0.007-0.033-0.011c-0.044-0.017-0.088-0.032-0.161-0.015c0.08-0.019,0.117,0,0.161,0.015
	c0.018,0.005,0.053-0.004,0.067,0.005c0.061-0.015,0.109,0.013,0.113,0.117c0.013-0.068,0.077-0.112,0.178-0.126
	c0.05,0.018,0.095,0.043,0.109,0.083c0.009,0.027,0.017,0.048,0.024,0.071c0.001,0.003,0.002,0.005,0.002,0.008
	c0.007,0.018,0.015,0.038,0.021,0.053c-0.004-0.009-0.001-0.024-0.004-0.035c0.027,0.048,0.071,0.084,0.125,0.11
	c-0.024-0.006-0.062,0.002-0.081-0.011c0.015,0.016,0.035,0.025,0.055,0.034c0.025,0.012,0.063,0.015,0.106,0.012
	c0.262,0.077,0.582-0.012,0.094-0.012c0.116,0,0.339,0,0.582,0.02c0.222,0.093,0.44,0.192,0.661,0.292
	c-0.031,0.001-0.056,0.002-0.086,0.004c0.076,0.015,0.123,0.063,0.142,0.136c0.02,0.02,0.087,0.139,0.309,0.169
	c-0.052-0.064-0.057-0.117-0.032-0.163c0.16,0.076,0.326,0.138,0.484,0.216c-0.036,0.005-0.071,0.011-0.108,0.016
	c0.019,0.032,0.025,0.071-0.009,0.145c-0.12,0.248,0.744,0.136,0.648,0.136c-0.251,0.062-0.288-0.077-0.349-0.196
	c2.399,1.214,4.602,2.823,6.499,4.772c-0.006,0.19-0.054,0.464,0.073,0.573c-0.077,0.008-0.149,0.013-0.216,0.016
	c0.021,0.003,0.039,0.01,0.059,0.016c0.027,0.001,0.049,0.002,0.087,0.002c-0.037,0.009-0.063,0.005-0.087-0.002
	c-0.067-0.002-0.117-0.006-0.14-0.009c0.066,0.016,0.243,0.086,0.227,0.335c-0.017,0.25,0.159,0.32,0.227,0.335
	c-0.012-0.002-0.025-0.004-0.05-0.006c0.308,0.127,0.079,0.969,0.635,0.969C121.301,27.619,121.293,28.25,121.272,28.669z
	 M120.431,26.338c0.146,0.018,0.234,0.104,0.185,0.307C120.508,26.579,120.467,26.459,120.431,26.338z M120.94,26.645
	c0.101-0.417-0.868-0.624-0.402-0.645c0.138,0.151,0.269,0.312,0.402,0.467C120.94,26.512,120.94,26.57,120.94,26.645z"/>
<g>
</g>
<g>
</g>
<g>
</g>
<g>
</g>
<g>
</g>
<g>
</g>
</svg>
