<?xml version="1.0" encoding="utf-8"?>
<!-- Generator: Adobe Illustrator 16.0.0, SVG Export Plug-In . SVG Version: 6.00 Build 0)  -->
<!DOCTYPE svg PUBLIC "-//W3C//DTD SVG 1.1//EN" "http://www.w3.org/Graphics/SVG/1.1/DTD/svg11.dtd">
<svg version="1.1" id="Layer_1" xmlns="http://www.w3.org/2000/svg" xmlns:xlink="http://www.w3.org/1999/xlink" x="0px" y="0px"
	 width="205px" height="205px" viewBox="0 0 205 205" enable-background="new 0 0 205 205" xml:space="preserve">
<g>
	<circle fill="#93C83E" cx="102.5" cy="102.5" r="102.5"/>
</g>
<path fill="#FFFFFF" d="M90.974,12.941c6.238-0.693,8.403,3.132,11.53,3.29c3.12-0.158,5.294-3.982,11.525-3.29
	c6.373,0.709,10.235,6.125,10.235,6.125l-7.767,7.229H88.501l-7.768-7.229C80.733,19.065,84.6,13.65,90.974,12.941z M128.976,65.544
	c0,0-1.687,6.47-9.451,6.47H85.49c-7.776,0-9.463-6.47-9.463-6.47c-5.083-22.428,10.375-34.593,10.375-34.593H118.6
	C118.6,30.951,134.053,43.117,128.976,65.544z M103.57,49.857v-5.465c1.073,0.39,1.735,1.14,1.994,2.235l4.193-0.46
	c-0.285-1.394-0.95-2.516-1.988-3.346c-1.039-0.832-2.44-1.336-4.199-1.517v-1.387h-2.402v1.387
	c-1.902,0.157-3.424,0.758-4.568,1.794c-1.146,1.04-1.717,2.327-1.717,3.853c0,1.515,0.504,2.791,1.516,3.857
	c1.009,1.051,2.604,1.844,4.769,2.365v5.858c-0.597-0.238-1.141-0.632-1.625-1.173c-0.486-0.542-0.817-1.184-0.994-1.925
	l-4.329,0.386c0.33,1.837,1.093,3.258,2.287,4.265c1.193,1.012,2.746,1.613,4.66,1.802v2.549h2.402v-2.614
	c2.159-0.264,3.837-0.972,5.052-2.126c1.212-1.153,1.813-2.581,1.813-4.261c0-1.517-0.477-2.753-1.44-3.719
	C108.033,51.25,106.23,50.468,103.57,49.857z M101.168,49.191c-0.721-0.263-1.256-0.6-1.61-1.032
	c-0.354-0.419-0.531-0.879-0.531-1.376c0-0.542,0.191-1.028,0.581-1.482c0.389-0.447,0.906-0.766,1.561-0.948V49.191z
	 M105.599,58.257c-0.521,0.519-1.194,0.839-2.028,0.974v-5.457c0.995,0.245,1.712,0.592,2.15,1.047
	c0.435,0.451,0.655,0.988,0.655,1.614C106.376,57.127,106.115,57.737,105.599,58.257z"/>
<g>
</g>
<g>
</g>
<g>
</g>
<g>
</g>
<g>
</g>
<g>
</g>
</svg>
