<?xml version="1.0" encoding="utf-8"?>
<!-- Generator: Adobe Illustrator 16.0.0, SVG Export Plug-In . SVG Version: 6.00 Build 0)  -->
<!DOCTYPE svg PUBLIC "-//W3C//DTD SVG 1.1//EN" "http://www.w3.org/Graphics/SVG/1.1/DTD/svg11.dtd">
<svg version="1.1" id="Layer_1" xmlns="http://www.w3.org/2000/svg" xmlns:xlink="http://www.w3.org/1999/xlink" x="0px" y="0px"
	 width="103px" height="103px" viewBox="134.745 134.742 103 103" enable-background="new 134.745 134.742 103 103"
	 xml:space="preserve">
<path fill="#1BACE3" stroke="#1BACE3" stroke-width="3" stroke-miterlimit="10" d="M186.245,136.242c-27.571,0-50,22.429-50,50
	c0,27.57,22.429,50,50,50s50-22.43,50-50C236.245,158.671,213.814,136.242,186.245,136.242z"/>
<g>
	<path fill="#FFFFFF" d="M221.953,153.669c-0.588-0.004-0.314-0.815-1.115-0.619c0.159,0,0.271,0.005,0.357,0.011
		c-0.139-0.041-0.301-0.135-0.357-0.334c-0.018-0.067-0.016-0.151-0.003-0.244C221.214,152.869,221.585,153.264,221.953,153.669z"/>
	<path fill="#FFFFFF" d="M185.555,215.917c0.215,0.644,0,0.856-0.643,0.644c0,0.764-0.23,0.75-0.686,0.69
		c-0.16,0.211-0.347,0.397-0.557,0.558c0.033,0.408,0.023,0.682-0.438,0.594c-0.586-0.109-0.125,0.578-0.237,0.67
		c-0.32,0.271-0.548,0.051-0.627-0.229c-0.046,0.271-0.278,0.378-0.664,0.283c0.214,0.212,0.428,0.427,0.644,0.642
		c-0.1,0-0.199,0-0.298,0c0.363,0.098,0.366,0.53,0.015,0.64c0.617,0.166,0.289,1.425,0.127,1.387
		c-0.578-0.134-0.597,0.33-0.277,0.505c-0.202,0.063,0.072,0.396-0.21,0.682c0,1.176-1.279,0.752-1.279,1.928
		c-1.019,0-0.509,0.385-1.284,0.643c-0.994,0.33-2.563,0.041-3.664,0.01c-0.091,0.073-0.096,0.225-0.096,0.453
		c0.003,0.353-0.727,0.256-1.13,0.202c-0.272,0.115-0.293,0.478-0.267,0.841c-0.032,0.633-0.188,1.07-0.521,1.332
		c-0.067-0.136-0.245-0.236-0.435-0.268c0.463,0.004,0.438-0.008-0.137-0.042c-0.009,0.011-0.004,0.026-0.01,0.036
		c-0.056,0-0.117-0.01-0.158,0c0.068,0,0.1,0,0.156,0.002c-0.111,0.176-0.165,0.367-0.18,0.572c-0.098,0.016-0.2,0.024-0.311,0.031
		c-0.1-0.033-0.209-0.06-0.302,0.038c-0.21,0.205,0.134,0.479,0.006,0.586c-0.209,0.173-1.503,0.237-2.181,0.06
		c0.143,0.131,0.25,0.244,0.25,0.313c0,0.532-1.732,0.518-1.944,0.237c-0.319-0.418-0.112-0.521-0.62-0.55
		c-0.072-0.004-0.156-0.004-0.255-0.008c0.206,0.065,0.298,0.261,0.246,0.565c-0.026-0.01-0.047-0.019-0.071-0.026
		c-0.186-0.259-0.453-0.408-0.746-0.483c0.08,0.065,0.129,0.153,0.176,0.249c-0.208-0.094-0.407-0.207-0.611-0.305
		c-0.009,0-0.013-0.002-0.021,0c0.009-0.002,0.009,0.006,0.018,0c-2.23-1.027-4.386-2.207-6.434-3.557c0-0.313,0-0.621,0-0.933
		c-1.393,0,0.103-0.644-1.28-0.644c0-1.394-0.644,0.106-0.644-1.285c0-1.271-0.771-0.076-0.666-1.045
		c0.103-0.951-0.713-0.685-0.654-1.393c0.064-0.789-0.424-0.852-0.674-1.659c-0.744-2.418-3.672-4.381-5.603-5.526
		c-0.121-0.246-0.144-0.5-0.063-0.771c0.058-0.713-0.459-0.229-0.68-0.657c-0.137-0.267,0.193-0.959-0.102-1.136
		c-0.28-0.164-0.54,0.296-0.54-0.319c0-0.553-0.644-0.25-0.644-1.283c0-0.551-0.197-0.291-0.485-0.223
		c-0.357,0.081-0.127-1.267-0.153-1.383c-0.055-0.242-0.828-1.314-0.964-1.284c-0.462,0.103-0.308-0.534-0.288-0.771
		c0.059-0.719-0.456-0.23-0.678-0.661c-0.137-0.265,0.199-0.959-0.1-1.134c-0.281-0.166-0.541,0.296-0.541-0.32
		c0-0.88,0.418-1.07,0.571-1.756c-0.097,0.256-0.285,0.438-0.571,0.154c-0.219-0.221-0.043-1.02-0.021-1.271
		c0.046-0.54,0.021-1.083,0.021-1.621c0-0.716,0.879,0.002,0.643-0.963c0.545,0.131,1.516-1.072,1.056-1.277
		c0.004-0.002,0.004-0.006,0.009-0.006c0.188-0.076,0.221-0.298,0.221-0.643c-1.031,0-0.674-0.709-0.617-1.58
		c0.045-0.426,0.035-0.852-0.024-1.28c-0.149-0.778-1.241-0.985-0.002-0.985c-0.663,0.162-0.696-0.317-0.667-0.789
		c-0.083,0.069-0.232,0.067-0.439,0.063c-0.346-0.005-0.264,0.698-0.209,1.105c-0.079,0.307-0.286,0.588-0.607,0.266
		c-0.176-0.176-0.087-0.657-0.031-1.006c-0.133-0.62-0.611-1.506-0.611-0.272c0-0.286,0.061-0.692-0.016-0.983
		c-0.008,0.156-0.105,0.318-0.361,0.389c-0.057,0.016-0.117-0.286-0.2-0.686c-0.03,0.009-0.037-0.012-0.072-0.004
		c0.03-0.008,0.042,0.004,0.072,0c-0.082-0.397-0.183-0.89-0.321-1.285c-0.061-0.01-0.113-0.027-0.159-0.055
		c0.042,0.018,0.099,0.016,0.146,0.02c-0.104-0.285-0.226-0.516-0.375-0.607c-0.019,0.074-0.013,0.127-0.005,0.18
		c-0.147-0.562,0.005-1.455,0.005-1.779c0-1.069-0.642-1.063-0.642-2.244c0,0.212,0,0.424,0,0.638
		c0.004-0.019-0.895-1.923-0.959-1.923c-0.644,0-0.32-1.523-0.281-1.939c0.098-0.988-0.494-1.344-0.657-1.028
		c-0.054-0.175-0.263-0.116-0.531-0.261c-0.356-0.197-0.132-1.598-0.132-1.907c0-0.205-0.078-1.563-0.063-2.629
		c0.1-0.439,0.242-0.868,0.355-1.304c0.484,0.017,0.37-0.567,0.314-1.146c0.127-0.446,0.231-0.896,0.371-1.339
		c0.012,0.005,0.017,0,0.027,0.006c0.27,0.129,0.319-0.461,0.313-1.026c0.176-0.518,0.379-1.023,0.569-1.535
		c0.017,0.002,0.021-0.006,0.036-0.002c-0.014,0-0.02,0-0.036,0c4.353-11.599,13.026-21.482,24.628-26.924
		c0.393,0.053,1.164,0.164,1.16-0.203c-0.001-0.125,0.002-0.222,0.016-0.301c0.121-0.05,0.238-0.102,0.359-0.152
		c0.061,0.004,0.131,0.015,0.155-0.012v-0.003c0.01,0.003,0.014,0,0.024,0.003c0.107,0,0.215,0,0.321,0
		c-0.185,0.051-0.274,0.192-0.321,0.32c0.043,0.143,0.138,0.236,0.24,0.29c0.317-0.022,0.499-0.197,0.398-0.61
		c0,1.021,0.255,0.542,0.643,0c0.127,0.531-0.113,0.771-0.643,0.643c-0.065-0.014-0.081,0.023-0.137,0.017
		c0.26,0.013,0.557,0.056,0.779-0.017c0.369-0.123,0.624-0.471,0.93-0.604c0.039,0,0.065-0.011,0.094-0.02
		c0.083-0.021,0.167-0.043,0.263-0.02c-0.069,0-0.142,0-0.214,0c0.115-0.068,0.126-0.221,0.124-0.468
		c-0.004-0.446,1.173-0.176,1.372-0.176c0.215,0,0.428,0,0.644,0c0.097,0,0.195,0,0.29,0c0.133,0.022,0.256,0.032,0.346,0
		c0.269,0.063,0.377,0.048,0.446,0c0.079-0.054,0.111-0.158,0.146-0.302c-0.185,0.074-0.369,0.146-0.562,0.203
		c0.065-0.687,0.604-0.666,1.244-0.594c0.333-0.016,0.717,0.014,0.994,0.034c0.079-0.013,0.173-0.013,0.3,0.019
		c-0.062,0-0.173-0.009-0.3-0.019c-0.378,0.067-0.307,0.552-0.643,0.66c0.101,0,0.199,0,0.301,0c0.213,0,0.429,0,0.642,0
		c0.043,0.183-0.012,0.28-0.05,0.388c0.005-0.007,0.011-0.013,0.014-0.021c0.111-0.237,0.188-0.5,0.674-0.366
		c0.136,0.384-0.014,0.532-0.238,0.606c0.033,0.01,0.063,0.008,0.103,0.037c0.046,0,0.091,0,0.136,0
		c-0.057-0.014-0.072,0.014-0.119,0.01c0.525,0.408-0.025,0.555-0.537,0.604c0,0.007,0,0.021,0,0.026
		c-0.004,0.056-0.01,0.057-0.004,0c0-0.004,0-0.02,0-0.026c-0.125,0.013-0.238,0.017-0.34,0.021
		c0.063,0.014,0.123,0.039,0.172,0.065c-0.113,0.072-0.268,0.323-0.453,0.584c0.214,0,0.427,0,0.642,0c0.132,0,0.265,0,0.399,0
		c-0.051,0.013-0.1,0.03-0.148,0.049c0.246,0.115,0.48,0.47,0.262,0.587c0.043,0,0.082,0,0.125,0
		c-0.076-0.017-0.098,0.026-0.16,0.022c-0.035,0.009-0.076,0.014-0.125,0.017c-0.283,0.037-0.453,0.207-0.354,0.604
		c0-0.941-0.179-0.399-0.648-0.119c-0.041,0.07-0.102,0.096-0.183,0.079c-0.034,0.012-0.071,0.032-0.112,0.042
		c-0.029,0.005-0.068-0.002-0.102,0c-0.064,0.015-0.139,0.023-0.242,0c-0.004,0.001-1.025,1.426-1.285,1.247
		c-0.052-0.035-0.062-0.16-0.037-0.354c-0.08-0.299-0.285-0.568-0.602-0.25c-0.143,0.141-0.107,0.479-0.063,0.789
		c-0.168-0.199-0.556-0.146-0.901-0.146c-0.5,0-0.39-0.467-0.032-0.611c-0.199-0.029-0.201-0.203-0.195-0.498
		c0.006-0.447-1.181-0.176-1.375-0.176c0.315,0.076,1.069-0.736,1.285-0.567c0.025,0.022,0.034,0.075,0.043,0.13
		c0.264-0.324,1.239,0.166,1.239-0.844c0.336-0.113,1.004,0.276,1.279,0c0.364-0.363-0.026-0.589-0.368-0.645
		c-0.104,0.018-0.202,0.02-0.275,0c0.073-0.017,0.172-0.016,0.275,0c0.342-0.051,0.732-0.277,0.368-0.641
		c-0.23-0.229-0.99,0-1.279,0c-0.312,0.074-1.117-0.171-0.646-0.642c-1.035,0.006-0.065,0.065-0.637,0.642
		c0.065,0,1.317,0.028,1.237,0.415c-0.137,0.728-2.794,0.399-2.522,1.505c0.082-0.336-0.037-0.505-0.236-0.584
		c-0.506,0.206-1.495,0.907-1.69,0.467c-0.009-0.022-0.011-0.062-0.019-0.088c-0.107,0.635-0.797,0.803-1.46,0.832
		c-0.078-0.004-0.153-0.011-0.284-0.018c-0.018,0.006-0.014,0.023-0.025,0.031c-0.046,0-0.099,0.005-0.141,0.005
		c0.056,0,0.083,0,0.132,0.002c-0.297,0.181,0.09,0.743-0.417,0.63c-0.255-0.057-1.813-0.078-1.637,0.284
		c0.107,0.229-1.702,0.8-1.872,1c-0.255,0.305-0.036,0.645-0.318,0.685c0.195,0.08-0.411,0.289-0.78,0.648
		c0.211,0.098,1.047,2.182,1.047,2.529c0-0.076-1.084,0.578-1.187,0.637c-0.28,0.164-0.016,1.027-0.099,1.285
		c-0.021,0.058-0.049,0.092-0.081,0.117c0.015,0.021,0.028,0.039,0.041,0.08c0.078-0.438,0.666,0.055,0.647,0.332
		c0.537-0.418,0.495-1.685,0.765-1.806c0.349-0.156,2.892-1.47,2.878-1.422c0.168-0.445,0.301-0.578,0.744-0.75
		c0.169-0.203,0.215-0.442,0.137-0.722c-0.208-0.627,0.393-0.155,0.652-0.371c0.107-0.094-0.352-0.789,0.238-0.676
		c0.514,0.098,0.371-0.306,0.536-0.496c0.069-0.006,0.142-0.021,0.222-0.049c-0.069,0.002-0.137,0.004-0.185,0.008
		c0.056-0.039,0.147-0.049,0.265-0.043c0.111-0.058,0.2-0.149,0.2-0.295c0-0.556,0.654-0.322,0.959-0.322
		c0.188,0,1.058-0.223,1.054,0.178c-0.002,0.189,0.002,0.322,0.052,0.408c0.069,0.006,0.145,0.023,0.221,0.052
		c-0.069-0.002-0.142-0.004-0.188-0.008c0.049,0.045,0.143,0.055,0.27,0.042c0.113,0.06,0.2,0.15,0.2,0.291
		c0,0.523-0.101,0.29-0.397,0.234c-0.054-0.011-0.406,0.488-0.652,0.894c0.252,0.011,0.498,0.315-0.221,0.431
		c0,0.008-0.019,0.04-0.017,0.043c-0.004-0.02,0-0.025-0.002-0.043c-0.165,0.025-0.371,0.043-0.64,0.043
		c0.521,0,2.184,0.404,1.929-0.642c-0.071,0.282,0.022,0.422,0.165,0.512c-0.121-0.215,0.604-0.665,1.168-0.937
		c-0.049,0.113-0.104,0.226-0.053,0.424c0.791-0.195,0.809,0.701,0.104,0.632c0.002,0,0.008,0.008,0.008,0.01
		c0.075,0,0.146,0,0.218,0c-0.058,0.015-0.113,0.036-0.158,0.062c0.091,0.127,0.201,0.395,0.295,0.521
		c-0.051,0.031-0.107,0.052-0.17,0.066c0.336,0.062,0.699,0.286,0.344,0.638c-0.149,0.146-0.505,0.104-0.822,0.055
		c0.209,0.174,0.209,0.551,0.566,0.59c-0.049,0.015-0.092,0.032-0.139,0.045c0.244,0.115,0.484,0.47,0.266,0.588
		c-0.02,0.014-0.026,0.027-0.057,0.037c0.428,0.043,0.943,0.143,0.693,0.382c-0.242,0.132-0.503,0.188-0.771,0.21
		c0.086,0.006,0.184,0.016,0.262,0.016c0.383-0.093,0.611,0.014,0.658,0.283c0.014-0.035,0.021-0.073,0.041-0.104
		c0.061,0.111,0.313,0.271,0.58,0.463c-0.699-0.17-0.78,0.49-0.318,0.612c-0.034,0.003-0.055,0.019-0.079,0.03
		c-0.237,0.113-0.065,0.509-0.424,0.623c-0.138-0.018-0.24-0.012-0.286,0.023c-0.059-0.002-0.104,0.004-0.176-0.006
		c-0.901-0.13-1.543,0.543-2.437,0.61c-1.106-0.058-2.214-0.246-3.319-0.118c-0.912,0.106-0.592,0.506-0.703,0.688
		c0.507,0.038,1.145,0.43,1.33,0.735c-0.355-0.087-1.233,0.908-1.324,0.449c-0.112,0.199-0.34,0.208-0.493,0.063
		c0.071,0.07,0.157,0.109,0.235,0.137c0.336,0.089,0.351,0.477,0.043,0.604c0.591,0.082-0.137,1.112,0.4,1.349
		c0.248,0.106,1.25-0.437,1.258,0.17c0.004,0.61-2.304,0.026-2.045,1.081c0-0.09,0-0.176,0-0.266
		c-0.035,0.092-0.095,0.159-0.176,0.207c-0.115-0.052-0.895-0.055-1.076,0.36c0.012,0.095,0.002,0.21-0.027,0.345
		c-0.036-0.142-0.016-0.25,0.027-0.345c-0.023-0.171-0.128-0.271-0.289-0.31c-0.089,0.041-0.205,0.055-0.384,0.011
		c0.159-0.039,0.281-0.033,0.384-0.011c0.238-0.103,0.25-0.416,0.433-0.571c0.126,0.054,0.952,0.055,1.099-0.403
		c0.004-0.081,0.008-0.167,0.008-0.301c0.029,0.121,0.018,0.216-0.008,0.301c0,0.016,0,0.042-0.002,0.055
		c0.042-0.127,0.133-0.265,0.301-0.332c-0.162-0.025-0.254-0.123-0.294-0.269c-0.145,0.412-0.86,0.248-1.278,0.248
		c1.516,0-1.476,0.644-1.922,0.644c0.211,0,0.424,0,0.638,0c-0.38-0.092-1.353,1.053-1.337,0.353
		c-0.312,0.629-1.735,0.933-0.586,0.933c-0.853-0.207-0.678,0.631-0.65,1.164c-0.284,0.131-0.55,0.141-0.635-0.091
		c-0.035-0.098-0.053-0.228,0-0.432c0.22,0.909-1.637,0.788-1.704,0.69c-0.106,0.063-0.172,0.152-0.212,0.247
		c-0.004,0.073-0.018,0.142-0.038,0.209c0.004-0.028,0.013-0.075,0.021-0.155c-0.037,0.11-0.041,0.187-0.029,0.178
		c-0.094,0.311-0.31,0.576-0.603,0.754c0.188,0.047,0.293-0.008,0.405-0.051c-0.313,0.233-0.836,0.343-1.048,0.695
		c0-0.182-0.019-0.416-0.026-0.639c0.014,0.001,0.018-0.006,0.026-0.004c-0.009-0.002-0.009,0.004-0.026,0.002
		c-0.001-0.218,0.034-0.411,0.145-0.534c-0.113,0.124-0.168,0.316-0.187,0.536c-0.183-0.029-0.315-0.012-0.397,0.057
		c0.099-0.057,0.224-0.082,0.397-0.052c-0.03,0.384,0.036,0.834,0.058,1.125c-0.201,0.11-0.407,0.194-0.629,0.25
		c-0.031,0.05-0.24,1.121-0.638,0.45c-0.19-0.318,0.735-0.787,0.638-1.193c-0.166,0.221-0.361,0.405-0.574,0.573
		c-0.023,0.465-0.176,0.839-0.711,0.708c0.382,0.537,0.643,1.048,0.643,0c0,0.197,0.009,0.438,0,0.666
		c0.035,0.176-0.008,0.287-0.059,0.393c0.048-0.108,0.052-0.252,0.059-0.393c-0.002-0.01,0-0.014,0-0.023
		c-0.214,0.213-0.429,0.428-0.643,0.642c0.17,0.701-0.521,0.812-0.644,0.346c0,0.101,0,0.199,0,0.298
		c-0.338,0.473-0.577,0.901-0.63,0.314c-0.083,0.375-0.605,0.283-0.669,0.679c0.007,0.084,0.021,0.165,0.021,0.292
		c-0.03-0.123-0.031-0.216-0.021-0.292c-0.095-0.885-0.623,0.239-0.623,0.61c0,0.644-0.788,0.29-0.638-0.318
		c0.162,0.664-0.402,0.553-0.604,0.828l-0.002,0.002c-0.04,0.053-0.055,0.127-0.059,0.217c0.008-0.021,0.021-0.037,0.028-0.058
		c-0.004,0.087-0.004,0.167-0.004,0.291c-0.022-0.095-0.027-0.166-0.022-0.233c-0.04,0.09-0.089,0.163-0.173,0.163
		c-0.635,0.013-0.467,0.334-0.416,0.896c0.053,0.552-0.603,0.4-0.694,0.996c-0.062,0.406-0.047,0.813-0.021,1.22
		c-0.092,1.128-0.463,1.914-0.64,3.054c-0.243,1.555-0.599-1.211-0.599-1.601c0-0.214,0-0.429,0-0.644
		c0-0.285-0.282-1.285,0.316-1.285c0.646,0,0.289-0.787-0.316-0.64c0.211-0.213,0.421-0.427,0.638-0.644
		c-0.929,0-1.188-0.145-1.252-0.817c-0.083,0.325-0.497,0.047-0.62-0.216c-0.011,0.033-0.021,0.066-0.033,0.1
		c0.012,0.083,0.012,0.178-0.016,0.293c-0.034-0.129-0.012-0.214,0.016-0.293c-0.08-0.527-0.836-0.434-0.66,0.293
		c0,0.086,0,0.172,0,0.26c-0.097-0.291-0.435-0.321-0.588-0.097c0.045-0.403,0.064-0.899-0.227-0.896
		c-0.275,0.004-0.436-0.01-0.484-0.166c0.047-0.094,0.055-0.193,0.002-0.268c0.008,0.086-0.016,0.141-0.027,0.209
		c-0.002-0.051,0.013-0.135,0.025-0.209c-0.049-0.07-0.146-0.119-0.304-0.119c-0.367,0-0.416,0.767-0.392,1.098
		c-0.049,0.066-0.108,0.119-0.174,0.154c-0.319-0.02-0.506-0.191-0.402-0.609c0,1.268-0.637,1.023-0.637,1.607
		c0,1.221-0.945,0.711-0.728,1.846c0.134,0.716-0.66,0.107-0.59,0.908c0.045,0.549,0.453,2.313-0.606,2.047
		c0.213-0.209,0.428-0.42,0.643-0.631c-1.135-0.276-0.643,2.359-0.643,2.883c0,0.359-0.287,1.316,0,1.601
		c0.402,0.405,1.279-0.312,1.325,0.259c0.095-1.021,0.584-1.996,1.668-2.125c0.054,0.031,0.101,0.074,0.142,0.129
		c-0.142,0.246-0.453,2.498-0.545,2.2c0.03,0.481,0.004,0.987-0.668,0.824c0.215-0.215,0.427-0.429,0.638-0.644
		c-0.689-0.168-0.722,0.719-0.718,1.156c0,0.156,0.024,0.827,0.047,1.168c-0.157,0.272-0.567,0.271-0.594,0.684
		c0.034,0.09,0.08,0.168,0.149,0.188c0.156,0.04,1.293-0.179,1.216,0.164c-0.173,0.756,0.842,0.743,1.229,1.225
		c0.178,0.213-0.451,0.649-0.551,0.733c-0.369,0.316-0.146,1.816-0.138,2.343c-0.017,0.407-0.126,0.396-0.721,0.742
		c-0.312,0.18,0.537,0.588,0.642,0.61c-0.332-0.069,0.728,2.536,0.728,2.539c0-0.127-0.005-0.2-0.005-0.289
		c0.039,0.149,0.107,0.29,0.234,0.3c0.398,0.037,0.864-0.34,1.051-0.656c0.082-0.33,0.727,1.945,0.633,1.873
		c0.259,0.213,0.537,0.098,0.643,0.225c0.063-0.088,0.159-0.152,0.331-0.174c0.671,0,0.083-0.268,0.324-0.638
		c0.313-0.489,0.284-1.116,0.754-1.271c-0.408,0.229,0.343,1.164,0.479,0.434c0.094-0.507,0.36-0.451,0.816-0.41
		c0.76,0.063,0.213-0.611,0.682-0.728c0.329,0.086,0.49,0.317,0.478,0.69c-1.515,0-0.093,4.766-0.009,0.989
		c0.004-0.03-0.004-0.079,0.002-0.104c0-0.084,0.004-0.15,0.004-0.243c0,0.079,0,0.159,0,0.235c0.101-0.272,0.455-0.289,0.806-0.266
		c-0.288-0.143-0.235-0.54,0.206-0.662c0.125-0.033,0.878,1.621,1.068,1.842c0.033,0.032,0.654,0.832,0.479,0.771
		c0.847,0.283,1.285-0.592,1.285,0.645c0.537,0,1.069,0,1.603,0c0.281,0.096,0.683,0.079,1.033,0.047
		c-0.062,0.256,0.645,0.934,0.573,1.233c0-0.213,0-0.426,0-0.637c0.213,0.211,0.427,0.424,0.644,0.637c0-0.213,0-0.426,0-0.637
		c-0.067,0.263,0.383,0.702,0.498,0.901c0.114,0.19,0.066,0.308-0.031,0.373c-0.03,0.004-0.053,0.004-0.088,0.008
		c0.025,0,0.054,0,0.078,0c-0.096,0.063-0.232,0.08-0.336,0.076c-0.168,0.09-0.273,0.23-0.121,0.435
		c0.28,0.366,0.955,0.012,1.213,0.208c0,0.074,0.02,0.176,0.056,0.279c-0.001-0.114-0.007-0.201-0.015-0.256
		c0.053,0.063,0.063,0.183,0.047,0.336c0.059,0.11,0.15,0.199,0.299,0.199c0.525,0,0.289,0.1,0.234,0.398
		c-0.072,0.369,0.35,0.337,0.537,0.24c0.209-0.104,0.245,0.394,0.235,0.811c0.203-0.313,0.754-0.159,0.603,0.475
		c0-1.295-0.037,0.231,0.638,0.642c0,0.079,0,0.157,0,0.233c0.134-0.375,0.726-0.142,0.639,0.039
		c-0.375,0.781,1.556,0.371,1.925,0.371c-0.215,0-0.428,0-0.644,0c0.384,0,1.021-0.141,1.237,0.15
		c0.002,0.07,0.012,0.136,0.027,0.203c0.016,0.085,0.051,0.152,0.02,0.289c0-0.104-0.004-0.163-0.004-0.244
		c0.026,0.085,0.063,0.154,0.117,0.154c0.418,0.008,0.715,0.088,1.174,0.088c0,0.74,1.023,1.011,1.242,1.561
		c0.004,0.055,0.019,0.085,0.036,0.119c0,0.003,0,0.006,0,0.009c0.154,0.285,0.784-0.104,0.645,0.877
		c-0.083,0.577,0.091,1.068,0.438,1.524c0.301,0.4,1.219,0.408,0.598,0.402c0.248,0.067,0.392,0.272,0.248,0.639
		c0-0.002-1.403,0.76-1.633,0.826c-0.727,0.209-0.273,0.834-1.013,1.035c0.505-0.08,1.125-0.172,1.363,0.063
		c0.248,0.248-0.028,0.444-0.296,0.667c0.205,0.021,0.393,0.22,0.296,0.618c-0.204-0.824,0.78-0.814,1.284-0.646
		c0.246,0.081,0.451,0.261,0.533,0.423c0.361-0.235,0.748-0.582,0.748-0.742c0-0.602,2.482-0.373,1.584-0.329
		c0.197,0.049,0.289,0.204,0.334,0.335c-0.021-0.09-0.027-0.193,0.004-0.327c0,0.158,0.006,0.272,0.01,0.354
		c-0.002-0.011-0.012-0.02-0.014-0.028c0.088,0.385,0.549,0.388,0.646,0.013c-0.027-0.083-0.038-0.186,0-0.338
		c0.033,0.141,0.025,0.247,0,0.338c0.093,0.301,0.484,0.282,0.619,0.538c0.094-0.379,0.67-0.037,0.967,0.298
		c0.477,0.541,0.173,0.712-0.009,0.758c0.093-0.027,0.194-0.044,0.344-0.008c-0.167,0-0.274,0.005-0.347,0.008
		c-0.358,0.104-0.326,0.547,0.088,0.611c0.109-0.055,0.216-0.148,0.257-0.302c0,0.108,0,0.218,0,0.325
		c0.233-0.392,1.524-1.114,1.942-0.563c0.347,0.459,0.072,0.54,0.776,0.557c0.603-0.019,2.599-0.104,2.414,0.279
		c-0.461,0.965,1.746-0.232,1.284,0.739c-0.361,0.754,1.979,0.647,2.477,1.223c0-0.127,0.047-0.239,0.172-0.327
		c1.238,0,1.259,1.801,1.213,2.545C186.164,215.43,186.591,215.917,185.555,215.917z"/>
	<path fill="#FFFFFF" d="M154.764,184.484C157.708,184.484,154.434,185.835,154.764,184.484L154.764,184.484z"/>
	<path fill="#FFFFFF" d="M153.48,184.484c-0.035-0.135-0.043-0.25-0.028-0.346c-0.308-0.664-2.117-0.553-1.896,0.346
		c0.324-1.334-2.229-1.019-1.923-1.926c0.55-0.443,0.62,0.438,0.855,0.717c0.364,0.429,0.921-1.133,0.214-1.36
		c0.07,0,0.142,0,0.216,0c0.711,0,1.321-0.267,1.194,0.396c-0.113,0.588,0.58,0.127,0.673,0.238c0.007,0.237,0.083,0.451,0.208,0.65
		c-0.059,0-0.089,0-0.158,0.002c0.081-0.02,0.102,0.017,0.162,0.013c0.002,0.009,0,0.017,0.006,0.021
		c0.059-0.002,0.081-0.006,0.129-0.008c0.318,0.086,0.297,0.496,0.583,0.616c0.108-0.032,0.235-0.04,0.403,0.002
		c-0.184,0.046-0.309,0.037-0.403-0.002c-0.147,0.041-0.246,0.136-0.268,0.298C153.496,184.234,153.514,184.35,153.48,184.484z"/>
	<path fill="#FFFFFF" d="M148.161,182.594c0.081,0.027,0.128,0.117,0.164,0.217c-0.074,0.533-0.792,0.473-0.614-0.252
		c0,0.213,0,0.428,0,0.642c0.043-0.181-0.325-0.599-0.511-0.921c-0.214-0.108-0.317-0.409,0.091-0.42
		c0.096-0.004,0.227,0.011,0.417,0.056C147.582,182.43,147.777,182.459,148.161,182.594z"/>
	<path fill="#FFFFFF" d="M147.711,180.633c0.612,0.148,0.639-0.132,0.639-0.641c0,0.559-0.629-0.465-0.675-0.628
		c0.216-0.089,0.23-0.31,0.037-0.659c-1.394,0,0.106-0.643-1.286-0.643c-0.113-0.338,0.275-1.004,0-1.278
		c0.693-0.168,3.264,2.892,1.924,2.565c0.383-0.096,1.375,0.897,1.285,1.284c0-0.214,0-0.429,0-0.641
		c-0.124,0.501,0.586,0.673,0.646,1.085C150.307,181.277,147.977,180.633,147.711,180.633z"/>
	<path fill="#FFFFFF" d="M145.867,176.857c-0.079,0.244-0.079,0.569-0.083,0.569C144.589,177.427,145.15,177.025,145.867,176.857z"
		/>
	<path fill="#FFFFFF" d="M189.665,142.102c-0.033,0.006-0.043,0.023-0.063,0.037c-0.111,0.079-0.088,0.268-0.218,0.506
		c-0.194,0.358-1.593,0.137-1.897,0.137c-0.295-0.071-0.935,0.479-1.185,0.919c0.046,0.099,0.041,0.215-0.101,0.358
		c-0.23,0.23-0.99,0-1.285,0c0.213-0.211,0.427-0.428,0.643-0.643c-0.425-0.105-0.592,0.158-0.652,0.354
		c0.004-0.084,0.01-0.195,0.01-0.354c0.086,0.348-1.155,1.115-1.718,1.264c0.671-0.074,0.358,0.471,0.043,0.613
		c0.006,0.002,0.015,0.004,0.021,0.007c0.146,0.023,0.287,0.043,0.372,0.043c-0.17,0.042-0.268-0.004-0.372-0.043
		c-0.01,0-0.015,0-0.025-0.003c-0.088,0.041-0.16,0.021-0.217-0.031c-0.272-0.033-0.543-0.041-0.666,0.08
		c-0.354,0.35,0,0.576,0.332,0.639c-0.004,0-0.01,0.004-0.012,0.006c-0.167,0.046-0.248,0.17-0.298,0.287
		c-0.021,0.32-0.251,0.455-0.666,0.35c0.168,0.696-0.513,0.807-0.637,0.348c0,0.099,0,0.197,0,0.293
		c-0.248-0.182-0.462-0.395-0.645-0.643c-0.213,0-0.427,0-0.641,0c-0.215,0-0.429,0-0.644,0c0.213-0.212,0.428-0.425,0.644-0.639
		c-0.695,0.168-0.704-0.356-0.672-0.85c0-0.213-0.082-0.359-0.235-0.422c-0.104,0.021-0.224,0.027-0.379-0.011
		c0.165-0.042,0.283-0.025,0.379,0.011c0.251-0.055,0.354-0.277,0.264-0.654c-0.215,0.051-0.951-0.107-0.641-0.518
		c0.048-0.066,0.16-0.095,0.273-0.126c0.201-0.058,0.457-0.078,0.738-0.063c-0.238-0.123-0.455-0.457-0.248-0.574
		c0.092-0.047,0.232-0.069,0.521,0c0.128,0.031,0.23,0.025,0.318,0c0.164-0.047,0.246-0.168,0.299-0.288
		c0.009-0.202,0.109-0.328,0.289-0.367c-0.311-0.136-0.239-0.625-0.657-0.653c0.028,0.004,0.037,0.022,0.069,0.022
		c-0.105,0-0.213,0-0.319,0c0.1-0.025,0.18-0.029,0.25-0.022c-0.213-0.029-0.322-0.14-0.282-0.365
		c0.055-0.154,0.282-0.227,0.463-0.259c-0.018,0-0.054,0-0.076,0c-0.087,0.032-0.192,0.046-0.356,0.005
		c0.151,0,0.259-0.002,0.356-0.005c0.305-0.11,0.269-0.536,0.584-0.638c-0.1,0-0.199,0-0.298,0c0.214-0.214,0.429-0.423,0.644-0.639
		c-0.213,0-0.428,0-0.644,0c-0.214,0-0.428,0-0.641,0c-0.216,0-0.429,0-0.646,0c0.271,0,0.477-0.017,0.639-0.041
		c0.064-0.332-0.028-0.535-0.248-0.601c-0.131,0-0.262,0-0.393,0c0.165-0.042,0.287-0.03,0.393,0c0.082,0,0.167,0,0.251,0
		c0.639,0,1.278,0,1.923,0c-0.866,0.209-0.958-0.765,0.126-0.704c1.242,0.072,2.479,0.061,3.722,0.061c0.215,0,0.428,0,0.643,0
		c0.334,0,1.137-0.163,1.603,0c0.254,0.089,0.412,0.271,0.321,0.644c-0.067-0.269,0.085-0.477,0.292-0.624
		c0.297-0.212,0.733-0.272,0.985-0.018c0.271,0.271-0.063,0.475-0.348,0.723c0.231,0.135,0.434,0.451,0.223,0.563
		c-0.021,0.01-0.028,0.024-0.053,0.033c0.055,0.002,0.135,0.002,0.178,0.011c0.004-0.017-0.004-0.024,0-0.042
		c-0.004,0.019,0.013,0.022,0.008,0.043c0.945,0.146,0.281,0.605,0.048,0.349c0.046,0.124,0.147,0.187,0.293,0.207
		c0.055,0.002,0.104,0.006,0.142,0.019c0.062-0.004,0.083,0.039,0.157,0.02c-0.042,0-0.084,0-0.128,0
		c0.104,0.055,0.128,0.143,0.077,0.252c-0.062,0.126-0.191,0.257-0.321,0.324c0.252,0.008,0.464,0.058,0.464,0.242
		c-0.005,0.248,0.009,0.4,0.12,0.467c0.02,0.011,0.041,0.021,0.064,0.027c-0.258,0.027-0.584,0.059-0.92,0.066
		C189.366,141.885,189.477,142.036,189.665,142.102z"/>
	<path fill="#FFFFFF" d="M193.718,145.242c-0.268,0.195-0.969,0.189-1.063-0.211c-0.112-0.493-0.944-0.418-1.532-0.358
		c-0.091,0.062-0.221,0.085-0.436,0.033c0.106,0,0.264-0.017,0.436-0.033c0.227-0.149,0.219-0.517,0.505-0.61
		c-0.099,0-0.198,0-0.296,0c0.089-0.359-0.008-0.576-0.234-0.644c-0.131-0.022-0.265-0.03-0.408,0c0.172-0.042,0.3-0.032,0.408,0
		c0.004,0,0.012,0,0.017,0c0.362,0.069,0.663,0.313,0.864,0.644c0-1.818,0.535,0.817,0.621-0.269
		c-0.021-0.103-0.025-0.224,0.015-0.374c0,0.163-0.007,0.28-0.015,0.374c0.057,0.258,0.283,0.363,0.661,0.269
		c-0.13-0.526,0.11-0.771,0.638-0.644c0.617-0.151,1,0.886,1.174,1.043C194.777,144.805,194.036,145.016,193.718,145.242z"/>
	<path fill="#FFFFFF" d="M203.521,152.406c-0.267-0.064-0.711,0.388-0.905,0.503c-0.204,0.118-0.317,0.065-0.384-0.041
		c0,0.018,0.002,0.038,0.002,0.054c0.01,0.035,0.018,0.071,0.005,0.124c0-0.055-0.003-0.087-0.005-0.124
		c-0.01-0.035-0.024-0.063-0.028-0.105c-0.049-0.116-0.063-0.254-0.049-0.334c-0.032-0.031-0.081-0.041-0.125-0.057
		c-0.091,0.025-0.21,0.036-0.435-0.018c0.189-0.045,0.323-0.028,0.435,0.018c0.026-0.008,0.058-0.008,0.077-0.018
		c0.224-0.12-0.017-0.477-0.258-0.592c0.051-0.019,0.099-0.037,0.148-0.053c-0.061,0-0.124,0.014-0.186,0
		c-0.36-0.067-0.666-0.313-0.866-0.641c0.042,0,0.085,0,0.127,0c-0.319-0.174,0.351-0.839,0.521-0.516c0-0.041,0-0.084,0-0.129
		c-0.137-0.567,0.288-0.715,0.521-0.513c-0.057-0.241-0.027-0.164,0.02,0.011c0.02,0.021,0.043,0.022,0.059,0.049
		c0.007-0.049,0.019-0.096,0.041-0.117c0.218-0.213,1.017,0.638,1.285,0.57c-0.102,0-0.198,0-0.297,0c0.37,0.097,0.37,0.545,0,0.645
		c0.012,0.003,0.037-0.004,0.049,0c0.461,0.168,0.035,1.117,0.496,1.285C203.688,152.406,203.605,152.406,203.521,152.406z"/>
	<path fill="#FFFFFF" d="M204.604,151.725c0.287-0.197,0.17-0.769,0.844-0.604c-0.385,0.093-1.375-0.896-1.279-1.279
		c0.268,1.09-0.968,0.324-1.238-0.328c0.008,0.127-0.004,0.219-0.047,0.25c-0.215,0.166-0.963-0.644-1.279-0.566
		c0.345,0.084,0.521-0.076,0.606-0.244c-0.021-0.314-0.192-0.499-0.606-0.398c0.107,0,0.213,0,0.32,0
		c-0.146-0.043-0.236-0.141-0.29-0.244c0.017-0.244,0.147-0.369,0.402-0.373c0.047-0.031,0.112-0.052,0.205-0.027
		c-0.201,0.807,0.989,0.929,1.247,0.384c-0.045,0.396-0.069,0.901,0.361,0.901c0.623-0.209,0.154,0.394,0.371,0.652
		c0.174,0.205,1.633-0.488,1.23,0.357c-0.053,0.104,0.994,0.982,1.281,0.914c-0.156,0-0.271-0.005-0.355-0.01
		c0.126,0.037,0.27,0.125,0.336,0.293c0.09-0.754,1.637,0.742,1.146,1c-0.008,0.004-0.002,0.018-0.016,0.024
		c0.059,0.052,0.12,0.097,0.137,0.207c-0.074,0.214-2.157,1.003-2.535,1.046c-0.344-0.349,0.955-1.064,0.65-1.229
		c-0.373-0.204-0.889,0.085-1.292-0.048C204.409,152.277,204.889,151.802,204.604,151.725z"/>
	<path fill="#FFFFFF" d="M231.136,168.669c0.201,0.519,0.41,1.033,0.589,1.56c0.01,0.047,0.01,0.096,0.026,0.145
		c0.011,0.038,0.03,0.052,0.044,0.07c0.018,0.052,0.037,0.104,0.053,0.158c-0.267-0.551-0.746-1.488-0.718-1.75
		C231.146,168.771,231.143,168.72,231.136,168.669c-0.026-0.067-0.05-0.134-0.075-0.202
		C231.105,168.514,231.128,168.584,231.136,168.669z"/>
	<path fill="#FFFFFF" d="M223.423,158.977c-0.098-0.287-0.496-0.023-0.612,0.233c-0.115-0.237-0.187-0.517-0.688-0.394
		c0.783-0.19,0.644,0.723,0.644,1.287c0.635-0.213,0.85,0,0.635,0.638c0.043,0,0.05,0.009,0.089,0.012
		c-0.05,0.028-0.089,0.183-0.089,0.629c0.287-1.149-1.681-0.177-1.277-1.01c-0.059,0.125-1.275-2.197-1.607-2.197
		c-1.029,0-0.453-0.254-1.093-0.634c-0.317-0.191-0.987,0.238-1.142-0.096c-0.164-0.359-1.229-1.541-1.329-0.995
		c-0.2-0.281-0.769-0.168-0.604-0.841c0,1.428-0.144,0.884,0.543,1.287c0.082,0.207,0.133,0.42,0.151,0.645
		c0.108,0.126,0.381-0.218,0.592-0.008c1.104,0,0.485,1.285,1.923,1.285c0,1.357,1.271,0.201,1.922,1.287
		c-0.207-0.051-0.951,0.104-0.637,0.512c0.4,0.521,0.563,0.443,0.614,0.883c-0.142-0.03-0.435,0.176-0.619-0.118
		c-0.185-0.288-0.644-2.289-0.644-0.641c0.131-0.527-0.916-1.279-1.276-1.279c-1.271,0-0.072-0.769-1.039-0.666
		c-0.302,0.032-0.886,0.231-0.886-0.297c0-0.59-1.443-1.44-1.924-0.965c-0.225,0.227-0.119,1.957-0.822,1.262
		c-0.127-0.126-0.273-0.308-0.46-0.619c0.19,0.782-0.644,0.523-0.644,1.285c0-0.604,1.527,1.88,0.272,1.281
		c-0.171-0.082-0.917,2.886,0.373,2.567c-0.853-0.207-0.95,1.123-0.302,1.281c0.078-0.023,0.17-0.031,0.302-0.001
		c-0.116,0.028-0.215,0.024-0.302,0.001c-0.357,0.113-0.305,0.69-1.163,0.608c-0.62-0.058-0.894,1.049-1.164,1.405
		c0.503,0.23,1.823,0.987,2,0.358c0.087,0.167,0.302,0.195,0.629,0.195c-0.677,0,0.676-0.675,0.644-0.642
		c0-1.393,0.642,0.106,0.642-1.285c0.774,0,1.3-0.34,2.014-0.645c0.58-0.248,2.181-0.794,2.476-1.279
		c-0.086,0.346,0.071,0.521,0.242,0.607c0.313-0.02,0.494-0.191,0.396-0.607c0,0.974,0.778,1.61,0.643,2.564
		c-0.104,0.721-0.069,0.706,0.448,0.713c0.104,0.002,0.162,0.104,0.201,0.225c-0.006-0.09-0.006-0.168-0.006-0.293
		c-0.315,1.286,3.015,0.137,3.203,1.504c0.242-0.451,1.939,1.348,1.934-0.224c-1.079,0-1.021-1.86,0.13-1.959
		c0.728-0.062,0.294,0.777,1.022,0.716s0.796-0.312,0.785-0.779c0.133,0.17,0.463-0.055,0.574-0.289
		c0.014,0.043,0.027,0.082,0.04,0.123c-0.044-1.504-0.429-0.42-0.628-1.02c-0.089-0.257,0.174-1.117-0.101-1.279
		c-0.28-0.164-0.538,0.293-0.538-0.32c0-1.115-0.643-0.79-0.643-1.286c0-0.187,0.224-1.062-0.176-1.054
		c-0.207,0.004-0.357,0.009-0.439-0.06c0.025,0.425-0.027,0.826-0.506,0.795c0.039,0.013,0.069,0.026,0.113,0.034
		c-0.195,0.03-0.373,0.219-0.275,0.605c0.05-0.223,0.016-0.377-0.063-0.482c-0.048-0.066-0.119-0.091-0.192-0.109
		c-0.041-0.009-0.065-0.02-0.105-0.013c-0.088,0.013-0.173,0.044-0.227,0.127c0.008-0.051,0.012-0.103,0.016-0.157
		c0.027-0.369,0.012-0.748-0.244-0.744c-0.201,0.004-0.345,0.006-0.43-0.051c-0.004-0.037-0.014-0.082-0.032-0.141
		c0.006,0.07,0.012,0.104,0.017,0.135c-0.011-0.008-0.011-0.031-0.018-0.042c0.006,0.062,0.009,0.122-0.01,0.192
		c0.035-0.141-0.022-0.203-0.037-0.301c0.003,0.049,0.023,0.08,0.044,0.107c-0.011-0.09-0.032-0.176-0.073-0.249
		c-0.037-0.055-0.087-0.101-0.148-0.14c0.016,0.006,0.039,0,0.049,0.006c-0.307-0.325-0.915-0.469-1.108-0.791
		c0.011-0.071,0.017-0.121,0.017-0.176c0.068-0.211,0.36-0.455,0.526-0.702c-0.218-0.407-0.71-0.933-0.364-1.005
		c-0.313-0.182-0.188-0.678,0.375-0.598c0.205-0.037,0.414-0.113,0.502-0.246c1.729,2.248,3.277,4.662,4.599,7.246
		c0.748,1.463,1.38,2.978,1.968,4.51c-0.104-0.062-0.273-0.053-0.516,0.031c0.185,0.691,0.777,2.02,0.951,1.935
		c0.055-0.025,0.683,1.446,1.043,2.428c0.142,0.506,0.289,1.008,0.414,1.521c0.024,0.119,0.053,0.248,0.088,0.363
		c0.203,0.866,0.387,1.733,0.545,2.609c-0.004,0.083,0.022,0.164,0.035,0.247c0.468,2.713,0.715,5.464,0.715,8.228
		c0,11.252-4.094,21.795-10.859,30.146c-0.021,0.002-0.029,0.004-0.052,0.004c0,0.024-0.013,0.048-0.013,0.073
		c-0.209,0.258-0.414,0.521-0.627,0.775c-0.05-0.396-0.131-0.849,0.32-0.849c0.784,0,0.045-1.005,0.318-1.279
		c0.535-0.528,0.839,0.07,0.646-1.282c-0.21-0.642-0.002-0.856,0.639-0.642c0.088-0.257-0.176-1.118,0.104-1.279
		c0.725-0.425,0.137-0.329,0.545-1.135c0.21-0.101,0.426-0.203,0.639-0.3c0.133-0.268-0.187-0.951,0-1.133
		c0.356-0.354,0.69,0.316,0.554-0.401c-0.228-1.22,0.793-0.464,0.793-1.388c0-0.528-0.489-2.979,0.246-3.315
		c-0.532-0.062-0.157-0.856-0.312-1.317c-0.21-0.639-0.632,0.639-0.64-1.237c-0.002,0-0.002,0-0.002,0c0,0.198,0,0.397,0,0.6
		c0.092-0.37-0.056-0.541-0.304-0.602c-0.057-0.005-0.112-0.013-0.168-0.021c-0.063,0-0.088-0.045-0.168-0.024
		c0.037,0,0.049,0,0.088,0c-0.063-0.021-0.109-0.045-0.109-0.084c0-0.371,0.661-0.61,0.661-0.875c0-0.409-0.188-1.293,0.203-1.543
		c-0.081-0.026-0.158-0.063-0.22-0.151c0-0.229,1.502-2.517,0.301-2.492c-0.117-0.052-0.229-0.143-0.278-0.302
		c0,0.064,0,0.146,0.004,0.188c-0.038-0.289-0.157-0.791-0.526-0.513c-0.252,0.195-0.834,0.985-0.765,1.282
		c0-0.295,0.007-0.453,0.011-0.553c-0.019,0.199-0.087,0.572-0.271,0.666c-0.541,0.279-0.457-0.719-0.41-1.185
		c-0.219-0.438-1.278,0.07-1.284-0.62c-0.313,0.908-3.461,1.69-1.9,1.69c-0.323-0.08-1.781,1.141-1.926,1.38
		c-0.584,0.998-0.383,0.005-0.964-0.114c0.462-0.04-0.168-0.146-0.618,0.041c-0.049,0.015-0.127,0.005-0.162,0.035
		c0.028-0.019,0.08-0.006,0.121-0.019c-0.105,0.053-0.194,0.123-0.246,0.22c0-0.005,0-0.013,0-0.017
		c-0.029,0.055-0.074,0.098-0.104,0.152c0-0.006,0-0.013,0-0.017c-0.053,0.094-0.141,0.166-0.248,0.217
		c0.039-0.013,0.094,0,0.124-0.017c-0.037,0.031-0.116,0.02-0.166,0.035c-0.528,0.221-1.344,0.025-0.302,0.025
		c-1.075-0.266-0.137,0.473-0.641,0.643c-0.428,0-0.857,0-1.281,0c0,0.936-0.229,0.651-1.026,0.693
		c-0.304,0.021-0.604,0.004-0.901-0.051c0-1.393-0.643,0.105-0.643-1.286c-1.376,0-1.104-0.495-2.078-0.618
		c0.296-0.119-0.324-0.736-0.462-1.129c0.14,0.975-0.925,0.031-0.534-0.178c0.034-0.02,0.081-0.035,0.146-0.039
		c-0.377-0.195-0.387-0.895-0.346-1.053c-0.076-0.111-0.187-0.174-0.287-0.205c0.086,0.005,0.199,0.011,0.357,0.011
		c-0.132,0.028-0.255,0-0.38-0.019c-0.058-0.018-0.093-0.02-0.115-0.02c0.011,0.002,0.019,0.014,0.034,0.014
		c-0.079-0.012-0.07-0.018-0.034-0.014c-0.418-0.115-0.735-0.464-0.791-0.896c-0.126,0.459-0.807,0.352-0.641-0.342
		c-0.087-0.359,0.008-0.574,0.235-0.642c-0.08,0-0.156,0-0.235,0c-0.427,0-0.854,0-1.28,0c-0.045-0.185-0.033-0.304,0-0.396
		c0.041-0.107,0.123-0.166,0.227-0.196c-0.178-0.026-0.319-0.081-0.319-0.229c0.009-0.246-0.003-0.4-0.119-0.464
		c0.071,0,0.14,0,0.212,0c0-0.267,0-0.53,0-0.797c-0.156,0.25-0.701-0.123-0.971-0.385c-0.755-0.734-0.023-0.491,0.337-0.796
		c0.224-0.188-0.179-0.575,0.496-0.832c0.329-0.125,0.202-2.368,0.187-2.668c-0.039-0.762-0.535-0.771-0.654-1.362
		c-0.08-0.418-0.68-3.19-0.68-1.501c0-0.344-0.32-1.93,0.32-1.93c0.479,0,0.432-1.57,0.371-1.779
		c0.084-0.055,0.221-0.055,0.42-0.055c0.462,0.009,0.174-1.437,0.174-1.695c0-0.064,1.153-1.485,0.914-1.6
		c0.266,0.125,0.454-1.225,1.026-1.648c0.43-0.316,1.395-2.201,1.59-2.201c0.485,0,0.485-0.645,0-0.645
		c-0.604,0-0.334-1.482-0.359-1.829c-0.071-1,1.353-0.938,1.363-1.705c0.005-0.367-0.426-2.554,0.462-2.187
		c0.018,0.006,0.041,0.021,0.057,0.029c0.03-0.24-1.718-1.365-1.205-1.367c-0.855,0.001-0.453,0.877-1.496,0.583
		c-0.754-0.211-0.426-1.319-0.426-1.868c-0.216,0.213-0.429,0.428-0.643,0.644c0-0.374,0.343-2.565-0.318-2.565
		c-0.09,0-0.994-1.781-0.959-1.922c0,1.594-0.188-0.265,0.192-0.471c0.789-0.424,1.821-0.223,2.671-0.154
		c0.342,0.028,1.34,0.264,1.625-0.018c0.98-0.984-1.127-1.238-0.32-1.278c-0.4-0.083-0.404-0.565-0.009-0.655
		c-0.621-0.17-0.823-1.291-1.353-1.189c-0.465,0.089-0.321-0.631-0.649-0.697c-0.371-0.037-0.747-0.042-1.118-0.014
		c-0.234-0.006-0.35-0.198-0.402-0.372c0.156-0.515,1.285,0.01,1.285-0.931c0-0.006-1.293,0-0.644-0.643
		c0.644-0.65,0.635,0.643,0.644,0.643c1.381,0,0.062-1.985,0.789-2.023c0.36-0.02,0.515-0.336,0.498-0.643
		c0,0.033,0.008,0.059-0.004,0.104c-0.244-0.182-0.458-0.396-0.642-0.641c0.184-0.248,0.397-0.459,0.642-0.646
		c-0.316,1.304,0.926,0.22,0.512,0c0.26,0,0.517,0,0.771,0c-0.131-0.528,0.117-0.767,0.641-0.637c0.231,0.057,0.354,0.045,0.434,0
		c0.115-0.067,0.124-0.22,0.12-0.468c0-0.304,0.536-0.271,0.946-0.223c-0.078-0.051-0.138-0.124-0.168-0.224
		c0.237,0.282,0.99-0.249-0.047-0.347c0.006-0.012-0.004-0.015-0.001-0.025c-0.003,0.01,0.001,0.014,0,0.025
		c-0.104-0.01-0.183-0.025-0.317-0.025c-0.437,0-1.356-1.298-0.59-1.311c-0.574-0.201-1.276-1.207-0.713-1.287
		c-0.443-0.137-0.35-0.78,0.34-0.611c-0.213,0-0.43,0-0.641,0c-0.266-0.064-0.71,0.386-0.906,0.503
		c-0.197,0.117-0.313,0.065-0.381-0.036c0,0.018,0.004,0.036,0.004,0.05c0.008,0.036,0.017,0.071,0.006,0.125
		c0-0.056-0.006-0.088-0.006-0.125c-0.012-0.032-0.024-0.063-0.027-0.104c-0.053-0.117-0.064-0.258-0.049-0.34
		c-0.111-0.105-0.297-0.133-0.551-0.072c-0.715-0.61-1.763-1.329-1.937-1.285c-0.06,0-0.082-0.003-0.13-0.005
		c0.099,0.049,0.13,0.133,0.085,0.237c0.008,0.012,0,0.039,0.006,0.053c0.042,0.092,0.081,0.195,0.042,0.357
		c0.039-0.166-0.003-0.26-0.042-0.357c-0.002-0.014-0.007-0.021-0.009-0.035c-0.022,0.044-0.057,0.083-0.096,0.127
		c0.17,0.159,0.133,0.264-0.5,0.264c0.646-0.158,0.739,0.642,1.604,0.642c0.551,0,0.288,0.194,0.223,0.489
		c-0.049,0.217,0.353,0.235,0.734,0.211c0.004-0.023,0-0.031,0.004-0.058c-0.004,0.021,0.01,0.037,0.008,0.058
		c0.232-0.015,0.425-0.032,0.534-0.045c0.186,0.135-0.066,0.482-0.307,0.58c0.475,0.461,1.39,0.688,0.41,0.688
		c0.957-0.231,1.308,1.963,1.088,1.935c-0.309-0.043-0.483-0.455-0.762-0.606c-0.012,0-0.019,0-0.021-0.002
		c-0.09-0.042-0.188-0.066-0.305-0.039c0.067,0,0.141,0,0.209,0c-0.111-0.067-0.123-0.222-0.119-0.47
		c0.007-0.435-1.146-0.098-1.375-0.176c0-0.244-0.348-0.776-0.729-1.072c-0.085,0.107-0.308,0.255-0.552,0.431
		c-0.017,0-0.028,0-0.042,0c-0.16,1.019-0.7,0.155-0.286,0c-0.106,0-0.208,0-0.313,0c-0.53,0.13-0.771-0.113-0.642-0.644
		c-0.348,0.086-0.548,0.021-0.631-0.16c-0.003,0.053,0.003,0.099-0.015,0.16c0-0.065,0-0.129,0-0.193
		c-0.021-0.07-0.027-0.155-0.019-0.253c-0.086-0.193-0.289-0.272-0.618-0.19c-0.699,0.172-0.808-0.521-0.346-0.644
		c-0.102,0-0.199,0-0.3,0c0.125,0.028,0.215,0.016,0.302,0c0.034-0.007,0.069-0.017,0.111-0.019
		c0.264-0.117,0.283-0.445,0.037-0.582c0.037-0.006,0.045-0.027,0.067-0.041c0.099-0.054,0.126-0.143,0.073-0.254
		c-0.114-0.244-0.471-0.486-0.592-0.264c0-0.042,0-0.083,0-0.125c0.081-0.338,0-0.543-0.199-0.626c-0.079,0.004-0.148,0-0.206-0.019
		c-0.078,0-0.155,0-0.237,0c0.078-0.018,0.137-0.014,0.201-0.015c-0.195-0.083-0.281-0.286-0.201-0.621
		c-0.385,0.095-0.574-0.083-0.605-0.278c-0.01,0.094-0.066,0.148-0.035,0.278c0.075-0.321-0.732-1.073-0.559-1.286
		c0.005-0.006,0.023-0.004,0.031-0.01c-0.192-0.127,0.039-0.468,0.274-0.58c-0.019-0.008-0.042-0.013-0.065-0.021
		c-0.087-0.032-0.175-0.063-0.318-0.028c0.158-0.038,0.231,0,0.318,0.028c0.035,0.011,0.104-0.006,0.133,0.011
		c0.121-0.03,0.217,0.024,0.224,0.231c0.028-0.135,0.153-0.222,0.353-0.25c0.102,0.035,0.188,0.086,0.217,0.166
		c0.021,0.053,0.035,0.094,0.049,0.14c0.002,0.006,0.004,0.01,0.004,0.016c0.014,0.036,0.029,0.075,0.041,0.105
		c-0.008-0.02,0-0.048-0.008-0.069c0.054,0.096,0.142,0.166,0.246,0.217c-0.045-0.012-0.121,0.006-0.157-0.021
		c0.028,0.03,0.067,0.049,0.108,0.067c0.049,0.023,0.123,0.028,0.209,0.023c0.519,0.152,1.151-0.023,0.186-0.023
		c0.23,0,0.673,0,1.152,0.039c0.44,0.185,0.871,0.381,1.312,0.579c-0.062,0.002-0.112,0.005-0.172,0.007
		c0.149,0.03,0.244,0.125,0.28,0.271c0.041,0.04,0.174,0.274,0.613,0.335c-0.104-0.127-0.113-0.23-0.063-0.323
		c0.315,0.151,0.646,0.274,0.959,0.429c-0.071,0.01-0.142,0.021-0.214,0.031c0.037,0.063,0.05,0.141-0.019,0.286
		c-0.239,0.492,1.474,0.271,1.284,0.271c-0.499,0.121-0.57-0.152-0.691-0.389c4.752,2.404,9.114,5.592,12.869,9.452
		c-0.01,0.375-0.104,0.918,0.146,1.133c-0.151,0.017-0.293,0.027-0.428,0.032c0.041,0.006,0.078,0.021,0.117,0.033
		c0.055,0.001,0.099,0.004,0.172,0.004c-0.073,0.018-0.123,0.009-0.172-0.004c-0.135-0.004-0.23-0.012-0.276-0.02
		c0.131,0.031,0.48,0.17,0.448,0.664c-0.033,0.496,0.314,0.635,0.451,0.664c-0.027-0.004-0.052-0.008-0.101-0.013
		c0.61,0.251,0.153,1.92,1.258,1.92C223.48,156.896,223.465,158.146,223.423,158.977z"/>
	<path fill="#FFFFFF" d="M221.759,154.359c0.288,0.035,0.464,0.205,0.366,0.607C221.911,154.836,221.829,154.598,221.759,154.359z"
		/>
	<path fill="#FFFFFF" d="M222.766,154.968c0.2-0.825-1.719-1.237-0.795-1.278c0.272,0.3,0.531,0.619,0.795,0.926
		C222.766,154.704,222.766,154.818,222.766,154.968z"/>
</g>
</svg>
