<?xml version="1.0" encoding="utf-8"?>
<!-- Generator: Adobe Illustrator 16.0.0, SVG Export Plug-In . SVG Version: 6.00 Build 0)  -->
<!DOCTYPE svg PUBLIC "-//W3C//DTD SVG 1.1//EN" "http://www.w3.org/Graphics/SVG/1.1/DTD/svg11.dtd">
<svg version="1.1" id="Layer_1" xmlns="http://www.w3.org/2000/svg" xmlns:xlink="http://www.w3.org/1999/xlink" x="0px" y="0px"
	 width="205px" height="205px" viewBox="0 0 205 205" enable-background="new 0 0 205 205" xml:space="preserve">
<circle fill="#93C83E" cx="102.5" cy="102.5" r="102.5"/>
<path fill="#FFFFFF" d="M122.796,12.856c2.77,0,5.018,2.246,5.018,5.021c0,2.776-2.248,5.024-5.018,5.024
	c-2.777,0-5.035-2.248-5.035-5.024C117.761,15.102,120.019,12.856,122.796,12.856z"/>
<path fill="#FFFFFF" d="M102.495,43.4c1.704,0,3.086,1.373,3.086,3.077c0,1.703-1.382,3.077-3.086,3.077
	c-1.708,0-3.091-1.375-3.091-3.077C99.404,44.773,100.788,43.4,102.495,43.4z"/>
<path fill="#FFFFFF" d="M82.203,12.87c2.774,0,5.03,2.248,5.03,5.021c0,2.772-2.256,5.02-5.03,5.02c-2.778,0-5.031-2.248-5.031-5.02
	C77.172,15.118,79.424,12.87,82.203,12.87z"/>
<path fill="#FFFFFF" d="M87.176,52.297l-1.003,18.54c0,0.642-0.531,1.177-1.182,1.177c-0.647,0-1.172-0.535-1.172-1.177
	l-1.089-18.54H81.61l-1.013,18.54c0,0.642-0.525,1.177-1.191,1.177c-0.642,0-1.172-0.535-1.172-1.177l-1.017-18.54h-3.273
	l3.394-20.783l-6.824,13.588c-0.258,0.598-0.95,0.883-1.552,0.629c-0.593-0.254-0.874-0.94-0.616-1.547
	c0,0,5.004-13.522,6.235-16.042c1.231-2.522,2.457-4.054,7.14-4.054h0.96c4.696,0,5.909,1.532,7.145,4.054
	c1.239,2.52,6.239,16.042,6.239,16.042c0.254,0.607-0.032,1.293-0.629,1.547c-0.602,0.254-1.294-0.031-1.543-0.629l-6.823-13.588
	l3.385,20.783H87.176z"/>
<path fill="#FFFFFF" d="M112.098,47.217c-0.134,0.206-2.864,4.443-4.474,5.407c-1.57,0.94-1.602,0.525-1.763,1.908l-0.182,4.067
	l0.57,11.85c0.031,0.094,0,0.664-0.009,0.691c-0.169,0.503-0.634,0.875-1.186,0.875c-0.54,0-0.981-0.339-1.174-0.813
	c0-0.008-1.387-9.651-1.387-9.651s-1.392,9.643-1.392,9.651c-0.179,0.473-0.634,0.813-1.164,0.813c-0.557,0-1.012-0.371-1.177-0.875
	c-0.022-0.027-0.053-0.597-0.022-0.691l0.566-11.85l-0.178-4.067c-0.152-1.383-0.188-0.968-1.762-1.908
	c-1.601-0.963-4.335-5.201-4.474-5.407c-0.134-0.214-0.383-0.583-0.428-0.82c-0.084-0.428,0.197-0.834,0.62-0.919
	c0.326-0.053,0.589,0.117,0.79,0.339c0.219,0.228,3.363,4.415,5.723,4.816c0.535-0.075,1.105-0.356,2.599-0.356h0.594
	c1.503,0,2.074,0.281,2.604,0.356c2.359-0.401,5.504-4.589,5.714-4.816c0.204-0.223,0.477-0.393,0.798-0.339
	c0.424,0.085,0.701,0.491,0.62,0.919C112.476,46.633,112.231,47.003,112.098,47.217z"/>
<path fill="#FFFFFF" d="M136.024,45.718c-0.599,0.259-1.294-0.03-1.548-0.624l-6.137-13.593l-0.334,10.927h-0.009l0.972,27.473
	c0.067,1.087-0.74,2.034-1.833,2.104c-0.049,0.01-0.094,0.01-0.143,0.01c-1.021,0-1.896-0.794-1.958-1.838l-2.252-22.625
	l-2.227,22.625c-0.08,1.043-0.949,1.838-1.979,1.838c-0.04,0-0.089,0-0.143-0.01c-1.079-0.07-1.895-1.017-1.828-2.104l0.967-27.473
	l-0.334-10.927l-6.145,13.593c-0.241,0.594-0.937,0.883-1.54,0.624c-0.603-0.258-0.878-0.945-0.624-1.552
	c0,0,4.321-13.521,5.549-16.038c1.234-2.52,3.144-4.051,7.83-4.051h0.964c4.688,0,6.592,1.532,7.827,4.051
	c1.235,2.516,5.557,16.038,5.557,16.038C136.911,44.773,136.63,45.46,136.024,45.718z"/>
<g>
</g>
<g>
</g>
<g>
</g>
<g>
</g>
<g>
</g>
<g>
</g>
</svg>
