<?xml version="1.0" encoding="utf-8"?>
<!-- Generator: Adobe Illustrator 16.0.0, SVG Export Plug-In . SVG Version: 6.00 Build 0)  -->
<!DOCTYPE svg PUBLIC "-//W3C//DTD SVG 1.1//EN" "http://www.w3.org/Graphics/SVG/1.1/DTD/svg11.dtd">
<svg version="1.1" id="Layer_1" xmlns="http://www.w3.org/2000/svg" xmlns:xlink="http://www.w3.org/1999/xlink" x="0px" y="0px"
	 width="100px" height="81.377px" viewBox="165 134.272 100 81.377" enable-background="new 165 134.272 100 81.377"
	 xml:space="preserve">
<g>
	<path fill="none" stroke="#F69486" stroke-width="2" stroke-miterlimit="10" d="M213.438,169.515"/>
	<g>
		<path fill="#414142" d="M225.018,202.483h-20.032c-1.136,13.061-1.576,13.166-1.576,13.166h0.062
			c0.053-0.039,0.094-0.067,0.094-0.067h22.873c0,0,0.029,0.028,0.091,0.067h0.063C226.594,215.647,226.152,215.542,225.018,202.483
			z"/>
	</g>
	<g>
		<path fill="#414142" d="M262.448,202.792h-94.896c-1.407,0-2.552-1.141-2.552-2.553v-63.411c0-1.413,1.145-2.557,2.552-2.557
			h94.896c1.407,0,2.552,1.144,2.552,2.557v63.411C265,201.652,263.855,202.792,262.448,202.792z M167.552,134.689
			c-1.181,0-2.142,0.959-2.142,2.14v63.411c0,1.187,0.961,2.141,2.142,2.141h94.896c1.179,0,2.135-0.953,2.135-2.141v-63.411
			c0-1.181-0.956-2.14-2.135-2.14H167.552z"/>
	</g>
	<g>
		<path fill="#414142" d="M262.448,134.485h-94.896c-1.287,0-2.342,1.056-2.342,2.344v63.411c0,1.292,1.057,2.351,2.342,2.351
			h94.896c1.291,0,2.347-1.06,2.347-2.351v-63.411C264.795,135.541,263.739,134.485,262.448,134.485z M259.6,197.14h-89.196v-56.343
			H259.6V197.14L259.6,197.14z"/>
	</g>
	<g>
		<g>
			<g>
				<rect x="168.716" y="139.119" fill="#B8E5F8" width="92.567" height="58.663"/>
			</g>
		</g>
	</g>
	<g opacity="0.15">
		<polygon fill="#FFFFFF" points="168.716,197.942 168.843,139.326 260.93,139.326 		"/>
	</g>
</g>
</svg>
