<?xml version="1.0" encoding="utf-8"?>
<!-- Generator: Adobe Illustrator 16.0.0, SVG Export Plug-In . SVG Version: 6.00 Build 0)  -->
<!DOCTYPE svg PUBLIC "-//W3C//DTD SVG 1.1//EN" "http://www.w3.org/Graphics/SVG/1.1/DTD/svg11.dtd">
<svg version="1.1" id="Layer_1" xmlns="http://www.w3.org/2000/svg" xmlns:xlink="http://www.w3.org/1999/xlink" x="0px" y="0px"
	 width="206.158px" height="206.158px" viewBox="0 0 206.158 206.158" enable-background="new 0 0 206.158 206.158"
	 xml:space="preserve">
<g>
	<g>
		<path fill="#50B748" d="M206.386,190.021c0,9.033-7.391,16.424-16.424,16.424H16.651c-9.033,0-16.424-7.391-16.424-16.424V16.71
			c0-9.033,7.391-16.424,16.424-16.424h173.311c9.033,0,16.424,7.391,16.424,16.424V190.021z"/>
	</g>
	<g>
		<g>
			<path fill="#231F20" d="M115.082,148.561c0,0.492-0.326,0.893-0.732,0.893h-10.972c-0.408,0-0.738-0.4-0.738-0.893v-6.693
				c0-0.494,0.33-0.887,0.738-0.887h10.972c0.406,0,0.732,0.393,0.732,0.887V148.561z"/>
		</g>
		<g>
			<path fill="#231F20" d="M128.871,141.875c0-0.492-0.328-0.893-0.74-0.893h-10.969c-0.41,0-0.74,0.4-0.74,0.893v6.693
				c0,0.486,0.33,0.885,0.74,0.885h10.969c0.412,0,0.74-0.398,0.74-0.885V141.875z"/>
		</g>
		<g>
			<path fill="#231F20" d="M121.98,132.055c0-0.492-0.328-0.887-0.738-0.887h-10.973c-0.402,0-0.738,0.395-0.738,0.887v6.693
				c0,0.492,0.336,0.893,0.738,0.893h10.973c0.41,0,0.738-0.4,0.738-0.893V132.055z"/>
		</g>
		<g>
			<path fill="#231F20" d="M124.849,109.253c0-0.492-0.33-0.89-0.742-0.89h-11.018c-0.402,0-0.74,0.397-0.74,0.89v6.698
				c0,0.495,0.338,0.896,0.74,0.896h11.018c0.412,0,0.742-0.4,0.742-0.896V109.253z"/>
		</g>
		
			<path fill="#FFFFFF" stroke="#231F20" stroke-width="1.5" stroke-linecap="round" stroke-linejoin="round" stroke-miterlimit="10" d="
			M149.912,118.799l-6.674-12.744c-0.432-0.826-1.199-1.423-2.107-1.646c-0.902-0.223-1.863-0.042-2.627,0.492l-3.666,2.747
			l-5.012,4.219l-8.938-0.521c-1.193-0.065-2.217,0.838-2.285,2.028c-0.07,1.186,0.84,2.206,2.031,2.274l9.762,0.57
			c0.057,0.005,0.111,0.008,0.168,0.008c0.314,0,0.633-0.071,0.936-0.218c0.01-0.002,0.02-0.008,0.027-0.011l4.656-2.311
			l5.217,7.879l1.568,7.131l1.791,18.618c0.162,1.064,1.084,1.829,2.133,1.829c0.109,0,0.221-0.011,0.33-0.026
			c1.18-0.181,1.992-1.28,1.811-2.457C149.033,146.661,151.527,121.836,149.912,118.799z"/>
		
			<path fill="#FFFFFF" stroke="#231F20" stroke-width="1.5" stroke-linecap="round" stroke-linejoin="round" stroke-miterlimit="10" d="
			M139.511,99.9c0,2.896-2.355,5.241-5.258,5.241S129,102.797,129,99.9c0-2.891,2.352-5.238,5.254-5.238S139.511,97.01,139.511,99.9
			z"/>
		<path fill="#231F20" d="M102.571,150.795c-0.382,0.696-0.855,3.404-2.088,5.526c0,0-10.294,22.85-51.63,27.015v8.952h108.906
			v-41.495L102.571,150.795z"/>
		<g>
			<path fill="none" d="M48.854,91.808v56.638c1.653,0.33,2.81,0.905,3.794,1.402c1.261,0.642,2.172,1.102,4.272,1.102
				c2.1,0,3.01-0.46,4.269-1.099c1.476-0.751,3.313-1.683,6.693-1.683s5.218,0.932,6.693,1.683c1.262,0.639,2.169,1.099,4.271,1.099
				c2.099,0,3.009-0.46,4.268-1.099c1.476-0.751,3.313-1.683,6.693-1.683s5.218,0.932,6.691,1.683
				c0.84,0.427,1.533,0.77,2.517,0.952c-0.039,0.131-0.078,0.262-0.12,0.406c-0.081,0.271-0.17,0.572-0.27,0.884
				c-0.262,0.838-0.591,1.764-1.021,2.51c-0.005,0.013-0.011,0.026-0.019,0.039l-0.156,0.307c-0.014,0.026-0.168,0.345-0.472,0.868
				c-1.185-0.335-2.093-0.785-2.886-1.188c-1.259-0.639-2.167-1.102-4.266-1.102s-3.009,0.463-4.268,1.102
				c-1.476,0.748-3.313,1.68-6.693,1.68s-5.218-0.932-6.693-1.68c-1.262-0.639-2.172-1.102-4.271-1.102s-3.009,0.463-4.268,1.102
				c-1.477,0.748-3.313,1.68-6.694,1.68c-3.383,0-5.22-0.932-6.695-1.68c-0.479-0.243-0.908-0.461-1.371-0.636v2.491
				c1.653,0.329,2.81,0.905,3.794,1.402c1.261,0.641,2.172,1.102,4.272,1.102c2.1,0,3.01-0.461,4.269-1.1
				c1.476-0.751,3.313-1.682,6.693-1.682s5.218,0.931,6.693,1.682c1.262,0.639,2.169,1.1,4.271,1.1c2.099,0,3.009-0.461,4.268-1.1
				c1.476-0.751,3.313-1.682,6.693-1.682c2.895,0,4.655,0.683,6.026,1.35c-0.238,0.34-0.51,0.709-0.812,1.1
				c-0.502,0.656-1.094,1.373-1.787,2.146c-0.311,0.348-0.644,0.704-0.999,1.07c-0.642-0.191-1.39-0.307-2.429-0.307
				c-2.099,0-3.009,0.463-4.268,1.102c-1.476,0.749-3.313,1.68-6.693,1.68s-5.218-0.931-6.693-1.68
				c-1.262-0.639-2.172-1.102-4.271-1.102s-3.009,0.463-4.268,1.102c-1.477,0.749-3.313,1.68-6.694,1.68
				c-3.383,0-5.22-0.931-6.695-1.68c-0.479-0.243-0.908-0.46-1.371-0.636v2.491c1.653,0.329,2.81,0.905,3.794,1.402
				c1.261,0.642,2.172,1.102,4.272,1.102c2.1,0,3.01-0.46,4.269-1.099c1.476-0.751,3.313-1.683,6.693-1.683s5.218,0.932,6.693,1.683
				c1.262,0.639,2.169,1.099,4.271,1.099c2.099,0,3.009-0.46,4.268-1.099c1.468-0.746,3.295-1.67,6.639-1.68
				c-0.539,0.476-1.117,0.96-1.725,1.449c-2.192,1.761-4.852,3.572-8.022,5.304c-0.819,0.448-1.667,0.89-2.557,1.321
				c-2.512-0.214-4.04-0.979-5.296-1.617c-1.262-0.638-2.172-1.102-4.271-1.102s-3.009,0.464-4.268,1.102
				c-1.477,0.749-3.313,1.681-6.694,1.681c-3.383,0-5.22-0.932-6.695-1.681c-0.479-0.243-0.908-0.46-1.371-0.636v2.491
				c1.653,0.33,2.81,0.905,3.794,1.402c1.261,0.642,2.172,1.103,4.272,1.103c2.1,0,3.01-0.461,4.269-1.1
				c1.476-0.751,3.313-1.683,6.693-1.683c3.124,0,4.925,0.796,6.346,1.508c-0.555,0.232-1.128,0.463-1.706,0.688
				c-1.659,0.652-3.426,1.267-5.291,1.845c-1.908,0.092-2.957,0.584-4.096,1.162c-2.318,0.589-4.791,1.106-7.407,1.552
				c-2.309-0.181-3.677-0.869-4.898-1.489c-0.644-0.327-1.246-0.63-1.976-0.855v15.596h108.906V91.808H48.854z"/>
			<path d="M52.04,159.082c1.319,0.67,2.457,1.246,4.88,1.246c2.421,0,3.557-0.576,4.875-1.246c1.419-0.72,3.025-1.536,6.087-1.536
				s4.668,0.816,6.089,1.536c1.316,0.67,2.454,1.246,4.875,1.246c2.42,0,3.556-0.576,4.875-1.246
				c1.418-0.72,3.024-1.536,6.086-1.536c2.46,0,3.978,0.529,5.215,1.11c0.302-0.391,0.573-0.76,0.812-1.1
				c-1.371-0.667-3.132-1.35-6.026-1.35c-3.381,0-5.218,0.931-6.693,1.682c-1.259,0.639-2.169,1.1-4.268,1.1
				c-2.102,0-3.009-0.461-4.271-1.1c-1.476-0.751-3.313-1.682-6.693-1.682s-5.218,0.931-6.693,1.682
				c-1.259,0.639-2.169,1.1-4.269,1.1c-2.101,0-3.012-0.461-4.272-1.102c-0.984-0.497-2.141-1.073-3.794-1.402v1.36
				C50.195,158.146,51.156,158.635,52.04,159.082z"/>
			<path d="M56.92,164.347c3.381,0,5.218-0.931,6.694-1.68c1.259-0.639,2.169-1.102,4.268-1.102s3.009,0.463,4.271,1.102
				c1.476,0.749,3.313,1.68,6.693,1.68s5.218-0.931,6.693-1.68c1.259-0.639,2.169-1.102,4.268-1.102
				c1.039,0,1.787,0.115,2.429,0.307c0.355-0.366,0.688-0.723,0.999-1.07c-0.873-0.343-1.892-0.576-3.428-0.576
				c-2.42,0-3.559,0.578-4.875,1.246c-1.418,0.72-3.024,1.536-6.086,1.536s-4.671-0.816-6.089-1.536
				c-1.316-0.668-2.455-1.246-4.875-1.246c-2.421,0-3.559,0.578-4.875,1.246c-1.418,0.72-3.024,1.536-6.087,1.536
				c-3.063,0-4.67-0.816-6.091-1.536c-0.644-0.327-1.246-0.631-1.976-0.856v1.416c0.463,0.176,0.892,0.393,1.371,0.636
				C51.7,163.416,53.537,164.347,56.92,164.347z"/>
			<path fill="#FFFFFF" d="M83.721,159.082c-1.319,0.67-2.455,1.246-4.875,1.246c-2.421,0-3.559-0.576-4.875-1.246
				c-1.421-0.72-3.027-1.536-6.089-1.536s-4.668,0.816-6.087,1.536c-1.318,0.67-2.454,1.246-4.875,1.246
				c-2.423,0-3.561-0.576-4.88-1.246c-0.884-0.447-1.845-0.937-3.187-1.237v2.771c0.729,0.226,1.332,0.529,1.976,0.856
				c1.421,0.72,3.027,1.536,6.091,1.536c3.063,0,4.669-0.816,6.087-1.536c1.316-0.668,2.454-1.246,4.875-1.246
				c2.42,0,3.559,0.578,4.875,1.246c1.418,0.72,3.027,1.536,6.089,1.536s4.668-0.816,6.086-1.536
				c1.316-0.668,2.455-1.246,4.875-1.246c1.536,0,2.555,0.233,3.428,0.576c0.693-0.772,1.285-1.489,1.787-2.146
				c-1.237-0.581-2.755-1.11-5.215-1.11C86.745,157.546,85.139,158.362,83.721,159.082z"/>
			<path d="M56.92,172.386c3.381,0,5.218-0.932,6.694-1.681c1.259-0.638,2.169-1.102,4.268-1.102s3.009,0.464,4.271,1.102
				c1.256,0.639,2.784,1.403,5.296,1.617c0.89-0.432,1.737-0.873,2.557-1.321c-0.364,0.029-0.746,0.045-1.159,0.045
				c-3.062,0-4.671-0.816-6.089-1.536c-1.316-0.667-2.455-1.245-4.875-1.245c-2.421,0-3.559,0.578-4.875,1.245
				c-1.418,0.72-3.024,1.536-6.087,1.536c-3.063,0-4.67-0.816-6.091-1.536c-0.644-0.327-1.246-0.631-1.976-0.855v1.415
				c0.463,0.176,0.892,0.393,1.371,0.636C51.7,171.454,53.537,172.386,56.92,172.386z"/>
			<path d="M52.04,167.121c1.319,0.67,2.457,1.245,4.88,1.245c2.421,0,3.557-0.575,4.875-1.245c1.419-0.72,3.025-1.536,6.087-1.536
				s4.668,0.816,6.089,1.536c1.316,0.67,2.454,1.245,4.875,1.245c2.42,0,3.556-0.575,4.875-1.245
				c1.112-0.563,2.353-1.184,4.307-1.424c0.607-0.489,1.186-0.974,1.725-1.449c-3.344,0.01-5.171,0.934-6.639,1.68
				c-1.259,0.639-2.169,1.099-4.268,1.099c-2.102,0-3.009-0.46-4.271-1.099c-1.476-0.751-3.313-1.683-6.693-1.683
				s-5.218,0.932-6.693,1.683c-1.259,0.639-2.169,1.099-4.269,1.099c-2.101,0-3.012-0.46-4.272-1.102
				c-0.984-0.497-2.141-1.073-3.794-1.402v1.36C50.195,166.184,51.156,166.674,52.04,167.121z"/>
			<path fill="#FFFFFF" d="M78.846,168.366c-2.421,0-3.559-0.575-4.875-1.245c-1.421-0.72-3.027-1.536-6.089-1.536
				s-4.668,0.816-6.087,1.536c-1.318,0.67-2.454,1.245-4.875,1.245c-2.423,0-3.561-0.575-4.88-1.245
				c-0.884-0.447-1.845-0.938-3.187-1.238v2.771c0.729,0.225,1.332,0.528,1.976,0.855c1.421,0.72,3.027,1.536,6.091,1.536
				c3.063,0,4.669-0.816,6.087-1.536c1.316-0.667,2.454-1.245,4.875-1.245c2.42,0,3.559,0.578,4.875,1.245
				c1.418,0.72,3.027,1.536,6.089,1.536c0.413,0,0.795-0.016,1.159-0.045c3.171-1.731,5.83-3.543,8.022-5.304
				c-1.954,0.24-3.194,0.861-4.307,1.424C82.401,167.791,81.266,168.366,78.846,168.366z"/>
			<path d="M52.04,175.159c1.319,0.67,2.457,1.245,4.88,1.245c2.421,0,3.557-0.575,4.875-1.245c1.419-0.72,3.025-1.536,6.087-1.536
				c2.093,0,3.501,0.385,4.64,0.855c0.578-0.225,1.151-0.455,1.706-0.688c-1.421-0.712-3.222-1.508-6.346-1.508
				c-3.381,0-5.218,0.932-6.693,1.683c-1.259,0.639-2.169,1.1-4.269,1.1c-2.101,0-3.012-0.461-4.272-1.103
				c-0.984-0.497-2.141-1.072-3.794-1.402v1.361C50.195,174.223,51.156,174.712,52.04,175.159z"/>
			<path fill="#FFFFFF" d="M55.728,179.037c2.616-0.445,5.089-0.963,7.407-1.552c1.139-0.578,2.188-1.07,4.096-1.162
				c1.865-0.578,3.632-1.192,5.291-1.845c-1.139-0.471-2.547-0.855-4.64-0.855c-3.062,0-4.668,0.816-6.087,1.536
				c-1.318,0.67-2.454,1.245-4.875,1.245c-2.423,0-3.561-0.575-4.88-1.245c-0.884-0.447-1.845-0.937-3.187-1.237v2.771
				c0.729,0.226,1.332,0.528,1.976,0.855C52.051,178.168,53.419,178.856,55.728,179.037z"/>
			<path d="M52.04,151.044c1.319,0.67,2.457,1.245,4.88,1.245c2.421,0,3.557-0.575,4.875-1.245c1.419-0.72,3.025-1.536,6.087-1.536
				s4.668,0.816,6.089,1.536c1.316,0.67,2.454,1.245,4.875,1.245c2.42,0,3.556-0.575,4.875-1.245
				c1.418-0.72,3.024-1.536,6.086-1.536c3.06,0,4.668,0.816,6.087,1.536c0.851,0.435,1.636,0.824,2.731,1.049
				c0.1-0.312,0.188-0.612,0.27-0.884c0.042-0.145,0.081-0.275,0.12-0.406c-0.983-0.183-1.677-0.525-2.517-0.952
				c-1.474-0.751-3.311-1.683-6.691-1.683s-5.218,0.932-6.693,1.683c-1.259,0.639-2.169,1.099-4.268,1.099
				c-2.102,0-3.009-0.46-4.271-1.099c-1.476-0.751-3.313-1.683-6.693-1.683s-5.218,0.932-6.693,1.683
				c-1.259,0.639-2.169,1.099-4.269,1.099c-2.101,0-3.012-0.46-4.272-1.102c-0.984-0.497-2.141-1.072-3.794-1.402v1.361
				C50.195,150.107,51.156,150.597,52.04,151.044z"/>
			<path d="M56.92,156.309c3.381,0,5.218-0.932,6.694-1.68c1.259-0.639,2.169-1.102,4.268-1.102s3.009,0.463,4.271,1.102
				c1.476,0.748,3.313,1.68,6.693,1.68s5.218-0.932,6.693-1.68c1.259-0.639,2.169-1.102,4.268-1.102s3.007,0.463,4.266,1.102
				c0.793,0.402,1.701,0.853,2.886,1.188c0.304-0.523,0.458-0.842,0.472-0.868l0.156-0.307c0.008-0.013,0.014-0.026,0.019-0.039
				c-1.201-0.304-2.101-0.751-2.925-1.17c-1.316-0.667-2.455-1.245-4.873-1.245c-2.42,0-3.559,0.578-4.875,1.245
				c-1.418,0.72-3.024,1.536-6.086,1.536s-4.671-0.816-6.089-1.536c-1.316-0.667-2.455-1.245-4.875-1.245
				c-2.421,0-3.559,0.578-4.875,1.245c-1.418,0.72-3.024,1.536-6.087,1.536c-3.063,0-4.67-0.816-6.091-1.536
				c-0.644-0.327-1.246-0.63-1.976-0.855v1.416c0.463,0.175,0.892,0.393,1.371,0.636C51.7,155.377,53.537,156.309,56.92,156.309z"/>
			<path fill="#FFFFFF" d="M89.807,149.508c-3.062,0-4.668,0.816-6.086,1.536c-1.319,0.67-2.455,1.245-4.875,1.245
				c-2.421,0-3.559-0.575-4.875-1.245c-1.421-0.72-3.027-1.536-6.089-1.536s-4.668,0.816-6.087,1.536
				c-1.318,0.67-2.454,1.245-4.875,1.245c-2.423,0-3.561-0.575-4.88-1.245c-0.884-0.447-1.845-0.937-3.187-1.237v2.771
				c0.729,0.226,1.332,0.528,1.976,0.855c1.421,0.72,3.027,1.536,6.091,1.536c3.063,0,4.669-0.816,6.087-1.536
				c1.316-0.667,2.454-1.245,4.875-1.245c2.42,0,3.559,0.578,4.875,1.245c1.418,0.72,3.027,1.536,6.089,1.536
				s4.668-0.816,6.086-1.536c1.316-0.667,2.455-1.245,4.875-1.245c2.418,0,3.557,0.578,4.873,1.245
				c0.824,0.419,1.724,0.866,2.925,1.17c0.43-0.746,0.759-1.672,1.021-2.51c-1.096-0.225-1.881-0.614-2.731-1.049
				C94.475,150.324,92.866,149.508,89.807,149.508z"/>
			<path d="M50.829,177.548c-0.644-0.327-1.246-0.63-1.976-0.855v1.416c0.463,0.175,0.892,0.393,1.371,0.636
				c0.544,0.274,1.138,0.575,1.839,0.845c1.254-0.164,2.474-0.351,3.664-0.552C53.419,178.856,52.051,178.168,50.829,177.548z"/>
			<path d="M67.23,176.323c-1.908,0.092-2.957,0.584-4.096,1.162C64.559,177.124,65.911,176.729,67.23,176.323z"/>
		</g>
	</g>
	<g>
		<rect x="15.531" y="17.048" fill="none" width="175.552" height="74.981"/>
		<path fill="#FFFFFF" d="M62.107,26.815v5.505h-3.042V17.975h4.18c1.949,0,3.393,0.354,4.328,1.064
			c0.935,0.71,1.402,1.787,1.402,3.233c0,0.844-0.231,1.595-0.696,2.252s-1.122,1.173-1.973,1.545
			c2.159,3.226,3.565,5.309,4.22,6.251H67.15l-3.424-5.505H62.107z M62.107,24.343h0.981c0.961,0,1.671-0.16,2.129-0.48
			c0.458-0.321,0.687-0.824,0.687-1.512c0-0.68-0.233-1.164-0.701-1.452s-1.192-0.432-2.174-0.432h-0.922V24.343z"/>
		<path fill="#FFFFFF" d="M77.062,32.517c-1.767,0-3.146-0.487-4.141-1.462c-0.995-0.975-1.492-2.355-1.492-4.141
			c0-1.839,0.46-3.26,1.379-4.264c0.919-1.005,2.189-1.507,3.813-1.507c1.55,0,2.757,0.441,3.621,1.325
			c0.863,0.883,1.295,2.103,1.295,3.66v1.452h-7.075c0.033,0.851,0.285,1.515,0.756,1.992s1.132,0.716,1.982,0.716
			c0.66,0,1.285-0.068,1.874-0.206s1.203-0.356,1.845-0.657v2.315c-0.523,0.262-1.083,0.456-1.678,0.584
			C78.645,32.453,77.918,32.517,77.062,32.517z M76.64,23.273c-0.635,0-1.132,0.201-1.491,0.604
			c-0.36,0.402-0.566,0.973-0.618,1.712h4.199c-0.013-0.739-0.206-1.31-0.579-1.712C77.778,23.475,77.274,23.273,76.64,23.273z"/>
		<path fill="#FFFFFF" d="M87.443,32.517c-1.289,0-2.302-0.5-3.037-1.501c-0.736-1.001-1.104-2.388-1.104-4.161
			c0-1.799,0.375-3.2,1.124-4.204c0.749-1.005,1.781-1.507,3.096-1.507c1.38,0,2.434,0.537,3.16,1.609h0.098
			c-0.15-0.817-0.226-1.547-0.226-2.188v-3.513h3.003V32.32H91.26l-0.578-1.423h-0.128C89.873,31.977,88.837,32.517,87.443,32.517z
			 M88.493,30.132c0.766,0,1.326-0.222,1.683-0.667c0.356-0.444,0.551-1.2,0.584-2.267v-0.324c0-1.177-0.182-2.021-0.545-2.531
			c-0.362-0.511-0.953-0.766-1.771-0.766c-0.668,0-1.187,0.283-1.556,0.849c-0.37,0.566-0.555,1.389-0.555,2.468
			c0,1.08,0.187,1.89,0.56,2.429C87.267,29.862,87.8,30.132,88.493,30.132z"/>
		<path fill="#FFFFFF" d="M104.458,32.32l-0.403-1.403h-0.157c-0.32,0.511-0.775,0.904-1.364,1.183s-1.259,0.417-2.012,0.417
			c-1.288,0-2.26-0.345-2.914-1.035s-0.981-1.683-0.981-2.979V21.35h2.993v6.408c0,0.791,0.141,1.385,0.422,1.78
			c0.281,0.396,0.729,0.594,1.345,0.594c0.837,0,1.442-0.279,1.815-0.839c0.372-0.56,0.559-1.486,0.559-2.781V21.35h2.994V32.32
			H104.458z"/>
		<path fill="#FFFFFF" d="M114.35,32.517c-3.415,0-5.123-1.874-5.123-5.623c0-1.864,0.465-3.288,1.394-4.273
			c0.929-0.984,2.261-1.477,3.994-1.477c1.269,0,2.407,0.249,3.415,0.746l-0.884,2.315c-0.471-0.189-0.909-0.345-1.314-0.466
			c-0.406-0.121-0.812-0.182-1.217-0.182c-1.558,0-2.336,1.105-2.336,3.316c0,2.146,0.778,3.219,2.336,3.219
			c0.575,0,1.108-0.077,1.6-0.23c0.49-0.153,0.98-0.395,1.472-0.722v2.562c-0.484,0.308-0.974,0.521-1.467,0.638
			C115.725,32.458,115.102,32.517,114.35,32.517z"/>
		<path fill="#FFFFFF" d="M120.1,18.514c0-0.975,0.543-1.462,1.629-1.462s1.629,0.487,1.629,1.462c0,0.465-0.136,0.826-0.407,1.085
			c-0.271,0.258-0.679,0.388-1.222,0.388C120.643,19.986,120.1,19.495,120.1,18.514z M123.22,32.32h-2.992V21.35h2.992V32.32z"/>
		<path fill="#FFFFFF" d="M136.487,32.32h-2.992v-6.407c0-0.792-0.141-1.386-0.422-1.781c-0.282-0.396-0.729-0.594-1.345-0.594
			c-0.838,0-1.442,0.279-1.815,0.839s-0.56,1.486-0.56,2.782v5.161h-2.992V21.35h2.286l0.402,1.403h0.167
			c0.333-0.529,0.793-0.931,1.378-1.202c0.586-0.271,1.252-0.407,1.997-0.407c1.275,0,2.244,0.346,2.904,1.035
			c0.661,0.69,0.991,1.687,0.991,2.988V32.32z"/>
		<path fill="#FFFFFF" d="M149.116,21.35v1.521l-1.717,0.441c0.314,0.49,0.471,1.04,0.471,1.648c0,1.178-0.41,2.095-1.231,2.752
			c-0.82,0.658-1.961,0.986-3.419,0.986l-0.54-0.029l-0.441-0.049c-0.308,0.235-0.461,0.497-0.461,0.785
			c0,0.432,0.549,0.647,1.648,0.647h1.864c1.203,0,2.121,0.259,2.752,0.775c0.632,0.517,0.947,1.275,0.947,2.276
			c0,1.282-0.535,2.276-1.604,2.982c-1.069,0.707-2.605,1.061-4.607,1.061c-1.53,0-2.7-0.267-3.508-0.8s-1.212-1.281-1.212-2.242
			c0-0.661,0.206-1.214,0.618-1.658c0.412-0.445,1.018-0.763,1.815-0.952c-0.308-0.131-0.575-0.345-0.805-0.643
			c-0.229-0.298-0.343-0.613-0.343-0.947c0-0.418,0.12-0.767,0.362-1.045s0.593-0.551,1.051-0.819
			c-0.576-0.248-1.032-0.647-1.369-1.197s-0.506-1.197-0.506-1.942c0-1.197,0.39-2.123,1.168-2.777s1.891-0.981,3.336-0.981
			c0.308,0,0.673,0.028,1.095,0.084s0.691,0.097,0.81,0.122H149.116z M140.648,33.871c0,0.412,0.198,0.735,0.594,0.971
			c0.396,0.236,0.95,0.354,1.663,0.354c1.073,0,1.913-0.147,2.521-0.441c0.608-0.295,0.913-0.696,0.913-1.207
			c0-0.412-0.18-0.696-0.54-0.854c-0.359-0.157-0.916-0.235-1.668-0.235h-1.551c-0.549,0-1.009,0.129-1.378,0.388
			C140.833,33.104,140.648,33.445,140.648,33.871z M141.737,24.941c0,0.595,0.136,1.066,0.407,1.413s0.686,0.52,1.241,0.52
			c0.563,0,0.975-0.173,1.236-0.52s0.393-0.818,0.393-1.413c0-1.321-0.543-1.982-1.629-1.982
			C142.287,22.959,141.737,23.62,141.737,24.941z"/>
		<path fill="#FFFFFF" d="M21.65,56.436l-4.18-10.971h3.13l2.12,6.251c0.235,0.791,0.383,1.54,0.441,2.247h0.059
			c0.033-0.628,0.18-1.377,0.441-2.247l2.11-6.251h3.13l-4.18,10.971H21.65z"/>
		<path fill="#FFFFFF" d="M38.244,56.436l-0.402-1.403h-0.157c-0.32,0.511-0.775,0.904-1.364,1.183s-1.259,0.417-2.012,0.417
			c-1.288,0-2.26-0.345-2.914-1.035s-0.981-1.683-0.981-2.979v-7.153h2.993v6.408c0,0.791,0.141,1.385,0.422,1.78
			c0.281,0.396,0.729,0.594,1.345,0.594c0.837,0,1.442-0.279,1.815-0.839c0.372-0.56,0.559-1.486,0.559-2.781v-5.162h2.993v10.971
			H38.244z"/>
		<path fill="#FFFFFF" d="M46.673,56.436h-2.992V41.167h2.992V56.436z"/>
		<path fill="#FFFFFF" d="M59.939,56.436h-2.992v-6.407c0-0.792-0.141-1.386-0.422-1.781c-0.282-0.396-0.729-0.594-1.345-0.594
			c-0.838,0-1.442,0.279-1.815,0.839s-0.56,1.486-0.56,2.782v5.161h-2.992V45.465H52.1l0.402,1.403h0.167
			c0.333-0.529,0.793-0.931,1.378-1.202c0.586-0.271,1.252-0.407,1.997-0.407c1.275,0,2.244,0.346,2.904,1.035
			c0.661,0.69,0.991,1.687,0.991,2.988V56.436z"/>
		<path fill="#FFFFFF" d="M67.986,56.632c-1.767,0-3.146-0.487-4.141-1.462c-0.995-0.975-1.492-2.355-1.492-4.141
			c0-1.839,0.46-3.26,1.379-4.264c0.919-1.005,2.189-1.507,3.813-1.507c1.55,0,2.757,0.441,3.621,1.325
			c0.863,0.883,1.295,2.103,1.295,3.66v1.452h-7.075c0.033,0.851,0.285,1.515,0.756,1.992s1.132,0.716,1.982,0.716
			c0.66,0,1.285-0.068,1.874-0.206s1.203-0.356,1.845-0.657v2.315c-0.523,0.262-1.083,0.456-1.678,0.584
			C69.569,56.568,68.843,56.632,67.986,56.632z M67.564,47.389c-0.635,0-1.132,0.201-1.491,0.604
			c-0.36,0.402-0.566,0.973-0.618,1.712h4.199c-0.013-0.739-0.206-1.31-0.579-1.712C68.703,47.59,68.199,47.389,67.564,47.389z"/>
		<path fill="#FFFFFF" d="M81.018,45.259c0.405,0,0.742,0.029,1.011,0.089l-0.226,2.806c-0.242-0.064-0.537-0.098-0.884-0.098
			c-0.955,0-1.699,0.245-2.232,0.736c-0.533,0.49-0.8,1.177-0.8,2.061v5.583h-2.992V45.465h2.267l0.441,1.845h0.147
			c0.34-0.614,0.8-1.11,1.378-1.486C79.707,45.447,80.337,45.259,81.018,45.259z"/>
		<path fill="#FFFFFF" d="M90.987,56.436l-0.579-1.491H90.33c-0.504,0.635-1.022,1.074-1.556,1.319s-1.229,0.368-2.085,0.368
			c-1.054,0-1.883-0.301-2.487-0.902c-0.605-0.603-0.908-1.459-0.908-2.571c0-1.164,0.407-2.023,1.222-2.576
			s2.043-0.858,3.685-0.917l1.903-0.059v-0.481c0-1.112-0.568-1.668-1.707-1.668c-0.877,0-1.907,0.265-3.091,0.795l-0.991-2.021
			c1.263-0.661,2.662-0.991,4.2-0.991c1.472,0,2.6,0.32,3.385,0.962c0.785,0.641,1.178,1.615,1.178,2.924v7.311H90.987z
			 M90.104,51.353l-1.157,0.039c-0.87,0.026-1.518,0.184-1.943,0.472c-0.425,0.287-0.638,0.726-0.638,1.314
			c0,0.844,0.484,1.266,1.452,1.266c0.693,0,1.248-0.199,1.663-0.599c0.416-0.398,0.623-0.929,0.623-1.589V51.353z"/>
		<path fill="#FFFFFF" d="M102.262,45.259c1.295,0,2.309,0.506,3.042,1.517c0.733,1.011,1.1,2.396,1.1,4.155
			c0,1.813-0.378,3.216-1.134,4.21c-0.755,0.994-1.785,1.491-3.086,1.491c-1.289,0-2.299-0.468-3.032-1.403h-0.206l-0.5,1.207
			h-2.286V41.167h2.992v3.553c0,0.451-0.039,1.174-0.117,2.168h0.117C99.851,45.802,100.888,45.259,102.262,45.259z M101.3,47.653
			c-0.739,0-1.279,0.228-1.619,0.682c-0.34,0.455-0.517,1.206-0.53,2.252v0.324c0,1.178,0.175,2.021,0.525,2.531
			c0.35,0.511,0.904,0.766,1.663,0.766c0.615,0,1.104-0.283,1.467-0.849s0.545-1.389,0.545-2.468s-0.184-1.889-0.55-2.429
			S101.935,47.653,101.3,47.653z"/>
		<path fill="#FFFFFF" d="M108.748,42.629c0-0.975,0.543-1.462,1.629-1.462s1.629,0.487,1.629,1.462
			c0,0.465-0.136,0.826-0.407,1.085c-0.271,0.258-0.679,0.388-1.222,0.388C109.291,44.102,108.748,43.61,108.748,42.629z
			 M111.868,56.436h-2.992V45.465h2.992V56.436z"/>
		<path fill="#FFFFFF" d="M118,56.436h-2.992V41.167H118V56.436z"/>
		<path fill="#FFFFFF" d="M121.013,42.629c0-0.975,0.543-1.462,1.629-1.462s1.629,0.487,1.629,1.462
			c0,0.465-0.136,0.826-0.407,1.085c-0.271,0.258-0.679,0.388-1.222,0.388C121.556,44.102,121.013,43.61,121.013,42.629z
			 M124.133,56.436h-2.992V45.465h2.992V56.436z"/>
		<path fill="#FFFFFF" d="M131.895,54.247c0.523,0,1.151-0.114,1.885-0.343v2.228c-0.746,0.333-1.662,0.5-2.748,0.5
			c-1.197,0-2.068-0.303-2.615-0.907c-0.546-0.605-0.819-1.513-0.819-2.724v-5.289h-1.433v-1.266l1.648-1.001l0.864-2.315h1.913
			v2.335h3.071v2.247h-3.071v5.289c0,0.426,0.119,0.739,0.358,0.942C131.187,54.146,131.502,54.247,131.895,54.247z"/>
		<path fill="#FFFFFF" d="M134.427,45.465h3.277l2.07,6.172c0.177,0.537,0.298,1.172,0.363,1.904h0.059
			c0.072-0.674,0.213-1.309,0.422-1.904l2.031-6.172h3.209l-4.642,12.374c-0.425,1.145-1.032,2.002-1.82,2.57
			c-0.788,0.569-1.709,0.854-2.762,0.854c-0.517,0-1.024-0.056-1.521-0.167v-2.375c0.36,0.085,0.753,0.128,1.178,0.128
			c0.53,0,0.993-0.162,1.389-0.486c0.396-0.323,0.705-0.813,0.927-1.467l0.177-0.539L134.427,45.465z"/>
		<path fill="#FFFFFF" d="M159.617,56.436l-0.579-1.491h-0.078c-0.504,0.635-1.022,1.074-1.556,1.319s-1.229,0.368-2.085,0.368
			c-1.054,0-1.883-0.301-2.487-0.902c-0.605-0.603-0.908-1.459-0.908-2.571c0-1.164,0.407-2.023,1.222-2.576
			s2.043-0.858,3.685-0.917l1.903-0.059v-0.481c0-1.112-0.568-1.668-1.707-1.668c-0.877,0-1.907,0.265-3.091,0.795l-0.991-2.021
			c1.263-0.661,2.662-0.991,4.2-0.991c1.472,0,2.6,0.32,3.385,0.962c0.785,0.641,1.178,1.615,1.178,2.924v7.311H159.617z
			 M158.733,51.353l-1.157,0.039c-0.87,0.026-1.518,0.184-1.943,0.472c-0.425,0.287-0.638,0.726-0.638,1.314
			c0,0.844,0.484,1.266,1.452,1.266c0.693,0,1.248-0.199,1.663-0.599c0.416-0.398,0.623-0.929,0.623-1.589V51.353z"/>
		<path fill="#FFFFFF" d="M174.914,56.436h-2.992v-6.407c0-0.792-0.141-1.386-0.422-1.781c-0.282-0.396-0.729-0.594-1.345-0.594
			c-0.838,0-1.442,0.279-1.815,0.839s-0.56,1.486-0.56,2.782v5.161h-2.992V45.465h2.286l0.402,1.403h0.167
			c0.333-0.529,0.793-0.931,1.378-1.202c0.586-0.271,1.252-0.407,1.997-0.407c1.275,0,2.244,0.346,2.904,1.035
			c0.661,0.69,0.991,1.687,0.991,2.988V56.436z"/>
		<path fill="#FFFFFF" d="M181.469,56.632c-1.289,0-2.302-0.5-3.037-1.501c-0.736-1.001-1.104-2.388-1.104-4.161
			c0-1.799,0.375-3.2,1.124-4.204c0.749-1.005,1.781-1.507,3.096-1.507c1.38,0,2.434,0.537,3.16,1.609h0.098
			c-0.15-0.817-0.226-1.547-0.226-2.188v-3.513h3.003v15.269h-2.297l-0.578-1.423h-0.128
			C183.899,56.092,182.863,56.632,181.469,56.632z M182.519,54.247c0.766,0,1.326-0.222,1.683-0.667
			c0.356-0.444,0.551-1.2,0.584-2.267v-0.324c0-1.177-0.182-2.021-0.545-2.531c-0.362-0.511-0.953-0.766-1.771-0.766
			c-0.668,0-1.187,0.283-1.556,0.849c-0.37,0.566-0.555,1.389-0.555,2.468c0,1.08,0.187,1.89,0.56,2.429
			C181.292,53.978,181.826,54.247,182.519,54.247z"/>
		<path fill="#FFFFFF" d="M43.602,80.551h-2.993v-6.407c0-0.792-0.132-1.386-0.397-1.781c-0.265-0.396-0.682-0.594-1.251-0.594
			c-0.766,0-1.321,0.281-1.668,0.844s-0.521,1.488-0.521,2.777v5.161h-2.992V69.58h2.286l0.402,1.403h0.167
			c0.294-0.504,0.719-0.897,1.275-1.183c0.556-0.284,1.193-0.427,1.913-0.427c1.643,0,2.754,0.537,3.337,1.609h0.265
			c0.294-0.51,0.728-0.906,1.3-1.188s1.219-0.422,1.938-0.422c1.242,0,2.184,0.319,2.821,0.957s0.956,1.66,0.956,3.066v7.153h-3.002
			v-6.407c0-0.792-0.133-1.386-0.397-1.781c-0.266-0.396-0.683-0.594-1.251-0.594c-0.733,0-1.281,0.262-1.645,0.785
			c-0.362,0.523-0.544,1.354-0.544,2.492V80.551z"/>
		<path fill="#FFFFFF" d="M60.479,80.551L59.9,79.06h-0.078c-0.504,0.635-1.022,1.074-1.556,1.319s-1.229,0.368-2.085,0.368
			c-1.054,0-1.883-0.301-2.487-0.902c-0.605-0.603-0.908-1.459-0.908-2.571c0-1.164,0.407-2.023,1.222-2.576
			s2.043-0.858,3.685-0.917l1.903-0.059V73.24c0-1.112-0.568-1.668-1.707-1.668c-0.877,0-1.907,0.265-3.091,0.795l-0.991-2.021
			c1.263-0.661,2.662-0.991,4.2-0.991c1.472,0,2.6,0.32,3.385,0.962c0.785,0.641,1.178,1.615,1.178,2.924v7.311H60.479z
			 M59.596,75.468l-1.157,0.039c-0.87,0.026-1.518,0.184-1.943,0.472c-0.425,0.287-0.638,0.726-0.638,1.314
			c0,0.844,0.484,1.266,1.452,1.266c0.693,0,1.248-0.199,1.663-0.599c0.416-0.398,0.623-0.929,0.623-1.589V75.468z"/>
		<path fill="#FFFFFF" d="M75.776,80.551h-2.992v-6.407c0-0.792-0.141-1.386-0.422-1.781c-0.282-0.396-0.729-0.594-1.345-0.594
			c-0.838,0-1.442,0.279-1.815,0.839s-0.56,1.486-0.56,2.782v5.161H65.65V69.58h2.286l0.402,1.403h0.167
			c0.333-0.529,0.793-0.931,1.378-1.202c0.586-0.271,1.252-0.407,1.997-0.407c1.275,0,2.244,0.346,2.904,1.035
			c0.661,0.69,0.991,1.687,0.991,2.988V80.551z"/>
		<path fill="#FFFFFF" d="M85.825,80.551l-0.579-1.491h-0.078c-0.504,0.635-1.022,1.074-1.556,1.319s-1.229,0.368-2.085,0.368
			c-1.054,0-1.883-0.301-2.487-0.902c-0.605-0.603-0.908-1.459-0.908-2.571c0-1.164,0.407-2.023,1.222-2.576
			s2.043-0.858,3.685-0.917l1.903-0.059V73.24c0-1.112-0.568-1.668-1.707-1.668c-0.877,0-1.907,0.265-3.091,0.795l-0.991-2.021
			c1.263-0.661,2.662-0.991,4.2-0.991c1.472,0,2.6,0.32,3.385,0.962c0.785,0.641,1.178,1.615,1.178,2.924v7.311H85.825z
			 M84.941,75.468l-1.157,0.039c-0.87,0.026-1.518,0.184-1.943,0.472c-0.425,0.287-0.638,0.726-0.638,1.314
			c0,0.844,0.484,1.266,1.452,1.266c0.693,0,1.248-0.199,1.663-0.599c0.416-0.398,0.623-0.929,0.623-1.589V75.468z"/>
		<path fill="#FFFFFF" d="M100.543,69.58v1.521l-1.717,0.441c0.314,0.49,0.471,1.04,0.471,1.648c0,1.178-0.41,2.095-1.231,2.752
			c-0.82,0.658-1.961,0.986-3.419,0.986l-0.54-0.029l-0.441-0.049c-0.308,0.235-0.461,0.497-0.461,0.785
			c0,0.432,0.549,0.647,1.648,0.647h1.864c1.203,0,2.121,0.259,2.752,0.775c0.632,0.517,0.947,1.275,0.947,2.276
			c0,1.282-0.535,2.276-1.604,2.982c-1.069,0.707-2.605,1.061-4.607,1.061c-1.53,0-2.7-0.267-3.508-0.8s-1.212-1.281-1.212-2.242
			c0-0.661,0.206-1.214,0.618-1.658c0.412-0.445,1.018-0.763,1.815-0.952c-0.308-0.131-0.575-0.345-0.805-0.643
			c-0.229-0.298-0.343-0.613-0.343-0.947c0-0.418,0.12-0.767,0.362-1.045s0.593-0.551,1.051-0.819
			c-0.576-0.248-1.032-0.647-1.369-1.197s-0.506-1.197-0.506-1.942c0-1.197,0.39-2.123,1.168-2.777s1.891-0.981,3.336-0.981
			c0.308,0,0.673,0.028,1.095,0.084s0.691,0.097,0.81,0.122H100.543z M92.075,82.102c0,0.412,0.198,0.735,0.594,0.971
			c0.396,0.236,0.95,0.354,1.663,0.354c1.073,0,1.913-0.147,2.521-0.441c0.608-0.295,0.913-0.696,0.913-1.207
			c0-0.412-0.18-0.696-0.54-0.854c-0.359-0.157-0.916-0.235-1.668-0.235h-1.551c-0.549,0-1.009,0.129-1.378,0.388
			C92.26,81.334,92.075,81.676,92.075,82.102z M93.164,73.172c0,0.595,0.136,1.066,0.407,1.413s0.686,0.52,1.241,0.52
			c0.563,0,0.975-0.173,1.236-0.52s0.393-0.818,0.393-1.413c0-1.321-0.543-1.982-1.629-1.982
			C93.714,71.189,93.164,71.851,93.164,73.172z"/>
		<path fill="#FFFFFF" d="M102.222,66.744c0-0.975,0.543-1.462,1.629-1.462c1.086,0,1.629,0.487,1.629,1.462
			c0,0.465-0.136,0.826-0.407,1.085c-0.271,0.258-0.679,0.388-1.222,0.388C102.765,68.217,102.222,67.726,102.222,66.744z
			 M105.342,80.551h-2.993V69.58h2.993V80.551z"/>
		<path fill="#FFFFFF" d="M118.609,80.551h-2.992v-6.407c0-0.792-0.141-1.386-0.422-1.781c-0.282-0.396-0.729-0.594-1.345-0.594
			c-0.838,0-1.442,0.279-1.815,0.839s-0.56,1.486-0.56,2.782v5.161h-2.992V69.58h2.286l0.402,1.403h0.167
			c0.333-0.529,0.793-0.931,1.378-1.202c0.586-0.271,1.252-0.407,1.997-0.407c1.275,0,2.244,0.346,2.904,1.035
			c0.661,0.69,0.991,1.687,0.991,2.988V80.551z"/>
		<path fill="#FFFFFF" d="M131.238,69.58v1.521l-1.717,0.441c0.314,0.49,0.471,1.04,0.471,1.648c0,1.178-0.41,2.095-1.231,2.752
			c-0.82,0.658-1.961,0.986-3.419,0.986l-0.54-0.029l-0.441-0.049c-0.308,0.235-0.461,0.497-0.461,0.785
			c0,0.432,0.549,0.647,1.648,0.647h1.864c1.203,0,2.121,0.259,2.752,0.775c0.632,0.517,0.947,1.275,0.947,2.276
			c0,1.282-0.535,2.276-1.604,2.982c-1.069,0.707-2.605,1.061-4.607,1.061c-1.53,0-2.7-0.267-3.508-0.8s-1.212-1.281-1.212-2.242
			c0-0.661,0.206-1.214,0.618-1.658c0.412-0.445,1.018-0.763,1.815-0.952c-0.308-0.131-0.575-0.345-0.805-0.643
			c-0.229-0.298-0.343-0.613-0.343-0.947c0-0.418,0.12-0.767,0.362-1.045s0.593-0.551,1.051-0.819
			c-0.576-0.248-1.032-0.647-1.369-1.197s-0.506-1.197-0.506-1.942c0-1.197,0.39-2.123,1.168-2.777s1.891-0.981,3.336-0.981
			c0.308,0,0.673,0.028,1.095,0.084s0.691,0.097,0.81,0.122H131.238z M122.77,82.102c0,0.412,0.198,0.735,0.594,0.971
			c0.396,0.236,0.95,0.354,1.663,0.354c1.073,0,1.913-0.147,2.521-0.441c0.608-0.295,0.913-0.696,0.913-1.207
			c0-0.412-0.18-0.696-0.54-0.854c-0.359-0.157-0.916-0.235-1.668-0.235h-1.551c-0.549,0-1.009,0.129-1.378,0.388
			C122.955,81.334,122.77,81.676,122.77,82.102z M123.859,73.172c0,0.595,0.136,1.066,0.407,1.413s0.686,0.52,1.241,0.52
			c0.563,0,0.975-0.173,1.236-0.52s0.393-0.818,0.393-1.413c0-1.321-0.543-1.982-1.629-1.982
			C124.409,71.189,123.859,71.851,123.859,73.172z"/>
		<path fill="#FFFFFF" d="M144.388,69.374c0.405,0,0.742,0.029,1.011,0.089l-0.226,2.806c-0.242-0.064-0.537-0.098-0.884-0.098
			c-0.955,0-1.699,0.245-2.232,0.736c-0.533,0.49-0.8,1.177-0.8,2.061v5.583h-2.992V69.58h2.267l0.441,1.845h0.147
			c0.34-0.614,0.8-1.11,1.378-1.486C143.078,69.563,143.708,69.374,144.388,69.374z"/>
		<path fill="#FFFFFF" d="M147.263,66.744c0-0.975,0.543-1.462,1.629-1.462s1.629,0.487,1.629,1.462
			c0,0.465-0.136,0.826-0.407,1.085c-0.271,0.258-0.679,0.388-1.222,0.388C147.806,68.217,147.263,67.726,147.263,66.744z
			 M150.383,80.551h-2.992V69.58h2.992V80.551z"/>
		<path fill="#FFFFFF" d="M161.177,77.293c0,1.125-0.391,1.982-1.173,2.571c-0.781,0.589-1.951,0.883-3.508,0.883
			c-0.798,0-1.479-0.054-2.041-0.162c-0.563-0.107-1.089-0.267-1.579-0.476v-2.473c0.556,0.262,1.182,0.48,1.879,0.657
			c0.696,0.177,1.31,0.265,1.84,0.265c1.086,0,1.629-0.313,1.629-0.941c0-0.236-0.072-0.427-0.216-0.574
			c-0.145-0.147-0.393-0.314-0.746-0.501s-0.824-0.403-1.413-0.652c-0.844-0.354-1.464-0.68-1.859-0.981
			c-0.396-0.301-0.684-0.646-0.863-1.035c-0.181-0.389-0.271-0.868-0.271-1.438c0-0.975,0.378-1.729,1.134-2.262
			s1.826-0.8,3.214-0.8c1.321,0,2.606,0.288,3.856,0.863l-0.903,2.159c-0.55-0.235-1.063-0.429-1.54-0.579s-0.966-0.226-1.463-0.226
			c-0.883,0-1.324,0.239-1.324,0.717c0,0.268,0.143,0.5,0.427,0.696s0.908,0.487,1.869,0.873c0.857,0.347,1.485,0.671,1.884,0.972
			c0.399,0.301,0.693,0.647,0.884,1.04C161.083,76.282,161.177,76.75,161.177,77.293z"/>
		<path fill="#FFFFFF" d="M166.388,74.585l1.305-1.668l3.071-3.337h3.376l-4.357,4.76l4.622,6.211h-3.454l-3.159-4.445l-1.286,1.03
			v3.415h-2.992V65.282h2.992v6.811l-0.156,2.492H166.388z"/>
	</g>
</g>
<g>
</g>
<g>
</g>
<g>
</g>
<g>
</g>
<g>
</g>
<g>
</g>
</svg>
