<?xml version="1.0" encoding="utf-8"?>
<!-- Generator: Adobe Illustrator 16.0.0, SVG Export Plug-In . SVG Version: 6.00 Build 0)  -->
<!DOCTYPE svg PUBLIC "-//W3C//DTD SVG 1.1//EN" "http://www.w3.org/Graphics/SVG/1.1/DTD/svg11.dtd">
<svg version="1.1" id="Layer_1" xmlns="http://www.w3.org/2000/svg" xmlns:xlink="http://www.w3.org/1999/xlink" x="0px" y="0px"
	 width="206.158px" height="206.158px" viewBox="0 0 206.158 206.158" enable-background="new 0 0 206.158 206.158"
	 xml:space="preserve">
<g>
	<g>
		<path fill="#F9A51A" d="M206.158,189.734c0,9.033-7.391,16.424-16.424,16.424H16.424C7.391,206.158,0,198.768,0,189.734V16.424
			C0,7.391,7.391,0,16.424,0h173.31c9.033,0,16.424,7.391,16.424,16.424V189.734z"/>
	</g>
	<g>
		<rect x="79.771" y="146.137" fill="#231F20" width="45.857" height="45.865"/>
		<rect x="83.434" y="149.795" fill="#FFFFFF" width="38.544" height="38.549"/>
		<rect x="83.434" y="95.18" fill="#FFFFFF" width="38.544" height="38.549"/>
		<polygon fill="#231F20" points="121.978,119.907 121.978,133.729 83.434,133.729 83.434,95.18 114.847,95.18 119.242,91.521 
			79.771,91.521 79.771,137.384 125.627,137.384 125.627,116.262 		"/>
		<polygon fill="#231F20" points="96.125,102.813 87.044,111.932 104.197,129.078 133.19,100.096 126.556,93.353 104.393,111.767 		
			"/>
	</g>
	<g>
		<rect x="14.863" y="16.762" fill="none" width="176.433" height="67.044"/>
		<path fill="#FFFFFF" d="M46.009,32.034h-3.032v-6.191h-5.682v6.191h-3.042V17.688h3.042v5.622h5.682v-5.622h3.032V32.034z"/>
		<path fill="#FFFFFF" d="M57.166,32.034l-0.402-1.403h-0.157c-0.321,0.511-0.775,0.904-1.364,1.183
			c-0.589,0.278-1.26,0.417-2.012,0.417c-1.289,0-2.26-0.345-2.915-1.035c-0.654-0.69-0.981-1.683-0.981-2.979v-7.153h2.993v6.408
			c0,0.791,0.141,1.385,0.422,1.78c0.281,0.396,0.729,0.594,1.344,0.594c0.837,0,1.443-0.279,1.815-0.839
			c0.373-0.56,0.56-1.486,0.56-2.781v-5.162h2.993v10.971H57.166z"/>
		<path fill="#FFFFFF" d="M72.424,32.034h-2.993v-6.407c0-0.792-0.132-1.386-0.397-1.781c-0.265-0.396-0.682-0.594-1.251-0.594
			c-0.765,0-1.321,0.281-1.668,0.844s-0.52,1.488-0.52,2.777v5.161h-2.993V21.063h2.287l0.402,1.403h0.167
			c0.294-0.504,0.72-0.897,1.276-1.183c0.556-0.284,1.194-0.427,1.914-0.427c1.642,0,2.754,0.537,3.336,1.609h0.265
			c0.294-0.51,0.728-0.906,1.3-1.188c0.572-0.281,1.218-0.422,1.938-0.422c1.243,0,2.183,0.319,2.821,0.957
			c0.638,0.638,0.957,1.66,0.957,3.066v7.153h-3.003v-6.407c0-0.792-0.132-1.386-0.397-1.781c-0.265-0.396-0.682-0.594-1.251-0.594
			c-0.733,0-1.28,0.262-1.644,0.785s-0.544,1.354-0.544,2.492V32.034z"/>
		<path fill="#FFFFFF" d="M89.302,32.034l-0.579-1.491h-0.079c-0.504,0.635-1.022,1.074-1.555,1.319s-1.229,0.368-2.085,0.368
			c-1.054,0-1.883-0.301-2.488-0.902c-0.605-0.603-0.908-1.459-0.908-2.571c0-1.164,0.407-2.023,1.222-2.576
			s2.042-0.858,3.685-0.917l1.904-0.059v-0.481c0-1.112-0.569-1.668-1.708-1.668c-0.876,0-1.907,0.265-3.091,0.795l-0.991-2.021
			c1.263-0.661,2.663-0.991,4.2-0.991c1.472,0,2.601,0.32,3.386,0.962c0.785,0.641,1.177,1.615,1.177,2.924v7.311H89.302z
			 M88.418,26.951l-1.158,0.039c-0.87,0.026-1.518,0.184-1.943,0.472c-0.425,0.287-0.638,0.726-0.638,1.314
			c0,0.844,0.484,1.266,1.453,1.266c0.693,0,1.248-0.199,1.663-0.599c0.416-0.398,0.623-0.929,0.623-1.589V26.951z"/>
		<path fill="#FFFFFF" d="M104.6,32.034h-2.994v-6.407c0-0.792-0.141-1.386-0.422-1.781s-0.729-0.594-1.344-0.594
			c-0.837,0-1.442,0.279-1.815,0.839c-0.373,0.56-0.559,1.486-0.559,2.782v5.161h-2.993V21.063h2.287l0.402,1.403h0.167
			c0.334-0.529,0.793-0.931,1.379-1.202s1.251-0.407,1.997-0.407c1.276,0,2.244,0.346,2.905,1.035
			c0.661,0.69,0.992,1.687,0.992,2.988V32.034z"/>
		<path fill="#FFFFFF" d="M107.553,18.228c0-0.975,0.543-1.462,1.629-1.462s1.629,0.487,1.629,1.462
			c0,0.465-0.136,0.826-0.407,1.085c-0.271,0.258-0.679,0.388-1.222,0.388C108.096,19.7,107.553,19.209,107.553,18.228z
			 M110.673,32.034h-2.993V21.063h2.993V32.034z"/>
		<path fill="#FFFFFF" d="M118.435,29.846c0.523,0,1.151-0.114,1.884-0.343v2.228c-0.745,0.333-1.661,0.5-2.747,0.5
			c-1.197,0-2.069-0.303-2.615-0.907c-0.546-0.605-0.819-1.513-0.819-2.724v-5.289h-1.433v-1.266l1.648-1.001l0.863-2.315h1.914
			v2.335h3.071v2.247h-3.071V28.6c0,0.426,0.119,0.739,0.357,0.942C117.727,29.745,118.042,29.846,118.435,29.846z"/>
		<path fill="#FFFFFF" d="M129.503,32.034l-0.579-1.491h-0.078c-0.504,0.635-1.022,1.074-1.556,1.319s-1.229,0.368-2.085,0.368
			c-1.054,0-1.883-0.301-2.487-0.902c-0.605-0.603-0.908-1.459-0.908-2.571c0-1.164,0.407-2.023,1.222-2.576
			s2.043-0.858,3.685-0.917l1.904-0.059v-0.481c0-1.112-0.569-1.668-1.708-1.668c-0.876,0-1.906,0.265-3.091,0.795l-0.991-2.021
			c1.263-0.661,2.663-0.991,4.2-0.991c1.472,0,2.601,0.32,3.386,0.962c0.784,0.641,1.177,1.615,1.177,2.924v7.311H129.503z
			 M128.621,26.951l-1.158,0.039c-0.87,0.026-1.518,0.184-1.942,0.472c-0.426,0.287-0.639,0.726-0.639,1.314
			c0,0.844,0.484,1.266,1.453,1.266c0.693,0,1.247-0.199,1.663-0.599c0.415-0.398,0.623-0.929,0.623-1.589V26.951z"/>
		<path fill="#FFFFFF" d="M140.797,20.857c0.406,0,0.743,0.029,1.011,0.089l-0.226,2.806c-0.242-0.064-0.536-0.098-0.883-0.098
			c-0.955,0-1.699,0.245-2.232,0.736c-0.533,0.49-0.8,1.177-0.8,2.061v5.583h-2.993V21.063h2.268l0.441,1.845h0.146
			c0.341-0.614,0.8-1.11,1.379-1.486S140.118,20.857,140.797,20.857z"/>
		<path fill="#FFFFFF" d="M143.672,18.228c0-0.975,0.543-1.462,1.629-1.462s1.629,0.487,1.629,1.462
			c0,0.465-0.136,0.826-0.407,1.085c-0.271,0.258-0.679,0.388-1.222,0.388C144.215,19.7,143.672,19.209,143.672,18.228z
			 M146.793,32.034H143.8V21.063h2.993V32.034z"/>
		<path fill="#FFFFFF" d="M156.9,32.034l-0.579-1.491h-0.078c-0.504,0.635-1.022,1.074-1.556,1.319s-1.229,0.368-2.085,0.368
			c-1.054,0-1.883-0.301-2.487-0.902c-0.605-0.603-0.908-1.459-0.908-2.571c0-1.164,0.407-2.023,1.222-2.576
			s2.043-0.858,3.685-0.917l1.904-0.059v-0.481c0-1.112-0.569-1.668-1.708-1.668c-0.876,0-1.906,0.265-3.091,0.795l-0.991-2.021
			c1.263-0.661,2.663-0.991,4.2-0.991c1.472,0,2.601,0.32,3.386,0.962c0.784,0.641,1.177,1.615,1.177,2.924v7.311H156.9z
			 M156.017,26.951l-1.158,0.039c-0.87,0.026-1.518,0.184-1.942,0.472c-0.426,0.287-0.639,0.726-0.639,1.314
			c0,0.844,0.484,1.266,1.453,1.266c0.693,0,1.247-0.199,1.663-0.599c0.415-0.398,0.623-0.929,0.623-1.589V26.951z"/>
		<path fill="#FFFFFF" d="M172.198,32.034h-2.993v-6.407c0-0.792-0.141-1.386-0.422-1.781s-0.729-0.594-1.344-0.594
			c-0.838,0-1.442,0.279-1.815,0.839s-0.56,1.486-0.56,2.782v5.161h-2.993V21.063h2.287l0.402,1.403h0.166
			c0.334-0.529,0.794-0.931,1.379-1.202c0.586-0.271,1.251-0.407,1.997-0.407c1.275,0,2.244,0.346,2.904,1.035
			c0.661,0.69,0.991,1.687,0.991,2.988V32.034z"/>
		<path fill="#FFFFFF" d="M43.188,56.346c-1.766,0-3.146-0.487-4.141-1.462c-0.994-0.975-1.491-2.355-1.491-4.141
			c0-1.839,0.459-3.26,1.378-4.264c0.919-1.005,2.19-1.507,3.813-1.507c1.55,0,2.757,0.441,3.621,1.325
			c0.864,0.883,1.295,2.103,1.295,3.66v1.452h-7.075c0.032,0.851,0.284,1.515,0.755,1.992s1.132,0.716,1.982,0.716
			c0.661,0,1.286-0.068,1.875-0.206s1.204-0.356,1.845-0.657v2.315c-0.523,0.262-1.083,0.456-1.678,0.584
			S44.044,56.346,43.188,56.346z M42.766,47.103c-0.635,0-1.132,0.201-1.492,0.604s-0.566,0.973-0.618,1.712h4.2
			c-0.013-0.739-0.206-1.31-0.579-1.712C43.904,47.304,43.4,47.103,42.766,47.103z"/>
		<path fill="#FFFFFF" d="M56.16,47.426h-2.591v8.724h-2.993v-8.724h-1.648v-1.442l1.648-0.805v-0.805
			c0-1.249,0.308-2.162,0.922-2.737s1.6-0.863,2.954-0.863c1.034,0,1.953,0.153,2.757,0.461l-0.765,2.198
			c-0.602-0.19-1.158-0.285-1.668-0.285c-0.425,0-0.732,0.126-0.922,0.378s-0.285,0.574-0.285,0.967v0.687h2.591V47.426z
			 M63.941,47.426h-2.59v8.724h-2.993v-8.724h-1.648v-1.442l1.648-0.805v-0.805c0-1.249,0.308-2.162,0.922-2.737
			c0.615-0.575,1.6-0.863,2.954-0.863c1.034,0,1.953,0.153,2.757,0.461l-0.765,2.198c-0.602-0.19-1.158-0.285-1.668-0.285
			c-0.425,0-0.732,0.126-0.922,0.378c-0.189,0.252-0.284,0.574-0.284,0.967v0.687h2.59V47.426z"/>
		<path fill="#FFFFFF" d="M70.613,56.346c-1.766,0-3.146-0.487-4.141-1.462c-0.994-0.975-1.491-2.355-1.491-4.141
			c0-1.839,0.459-3.26,1.378-4.264c0.919-1.005,2.19-1.507,3.813-1.507c1.55,0,2.757,0.441,3.621,1.325
			c0.864,0.883,1.295,2.103,1.295,3.66v1.452h-7.075c0.032,0.851,0.284,1.515,0.755,1.992s1.132,0.716,1.982,0.716
			c0.661,0,1.286-0.068,1.875-0.206s1.204-0.356,1.845-0.657v2.315c-0.523,0.262-1.083,0.456-1.678,0.584
			S71.47,56.346,70.613,56.346z M70.191,47.103c-0.635,0-1.132,0.201-1.492,0.604s-0.566,0.973-0.618,1.712h4.2
			c-0.013-0.739-0.206-1.31-0.579-1.712C71.33,47.304,70.826,47.103,70.191,47.103z"/>
		<path fill="#FFFFFF" d="M81.976,56.346c-3.415,0-5.122-1.874-5.122-5.623c0-1.864,0.464-3.288,1.393-4.273
			c0.929-0.984,2.26-1.477,3.994-1.477c1.269,0,2.407,0.249,3.415,0.746l-0.883,2.315c-0.471-0.189-0.909-0.345-1.314-0.466
			c-0.406-0.121-0.812-0.182-1.217-0.182c-1.557,0-2.335,1.105-2.335,3.316c0,2.146,0.778,3.219,2.335,3.219
			c0.575,0,1.108-0.077,1.599-0.23s0.981-0.395,1.472-0.722v2.562c-0.484,0.308-0.973,0.521-1.467,0.638
			C83.352,56.287,82.729,56.346,81.976,56.346z"/>
		<path fill="#FFFFFF" d="M92.476,53.961c0.523,0,1.151-0.114,1.884-0.343v2.228c-0.746,0.333-1.662,0.5-2.748,0.5
			c-1.197,0-2.069-0.303-2.615-0.907c-0.546-0.605-0.819-1.513-0.819-2.724v-5.289h-1.433V46.16l1.648-1.001l0.863-2.315h1.914
			v2.335h3.071v2.247H91.17v5.289c0,0.426,0.119,0.739,0.358,0.942S92.083,53.961,92.476,53.961z"/>
		<path fill="#FFFFFF" d="M96.449,42.343c0-0.975,0.543-1.462,1.629-1.462s1.629,0.487,1.629,1.462c0,0.465-0.136,0.826-0.407,1.085
			c-0.271,0.258-0.679,0.388-1.222,0.388C96.992,43.815,96.449,43.324,96.449,42.343z M99.57,56.149h-2.993V45.179h2.993V56.149z"/>
		<path fill="#FFFFFF" d="M105.32,56.149l-4.18-10.971h3.13l2.119,6.251c0.236,0.791,0.383,1.54,0.442,2.247h0.059
			c0.032-0.628,0.18-1.377,0.441-2.247l2.109-6.251h3.131l-4.181,10.971H105.32z"/>
		<path fill="#FFFFFF" d="M119.107,56.346c-1.767,0-3.146-0.487-4.142-1.462c-0.994-0.975-1.491-2.355-1.491-4.141
			c0-1.839,0.46-3.26,1.379-4.264c0.919-1.005,2.189-1.507,3.813-1.507c1.55,0,2.757,0.441,3.62,1.325
			c0.864,0.883,1.296,2.103,1.296,3.66v1.452h-7.075c0.032,0.851,0.284,1.515,0.756,1.992c0.471,0.478,1.132,0.716,1.981,0.716
			c0.661,0,1.286-0.068,1.875-0.206s1.203-0.356,1.845-0.657v2.315c-0.523,0.262-1.083,0.456-1.679,0.584
			C120.69,56.282,119.963,56.346,119.107,56.346z M118.685,47.103c-0.635,0-1.132,0.201-1.492,0.604
			c-0.359,0.402-0.565,0.973-0.618,1.712h4.2c-0.014-0.739-0.206-1.31-0.579-1.712S119.319,47.103,118.685,47.103z"/>
		<path fill="#FFFFFF" d="M136.141,56.149h-2.993v-6.407c0-0.792-0.141-1.386-0.422-1.781s-0.729-0.594-1.344-0.594
			c-0.838,0-1.442,0.279-1.815,0.839s-0.56,1.486-0.56,2.782v5.161h-2.993V45.179h2.287l0.402,1.403h0.166
			c0.334-0.529,0.794-0.931,1.379-1.202c0.586-0.271,1.251-0.407,1.997-0.407c1.275,0,2.244,0.346,2.904,1.035
			c0.661,0.69,0.991,1.687,0.991,2.988V56.149z"/>
		<path fill="#FFFFFF" d="M144.187,56.346c-1.766,0-3.146-0.487-4.141-1.462s-1.491-2.355-1.491-4.141
			c0-1.839,0.459-3.26,1.378-4.264c0.919-1.005,2.19-1.507,3.813-1.507c1.551,0,2.758,0.441,3.621,1.325
			c0.863,0.883,1.295,2.103,1.295,3.66v1.452h-7.074c0.032,0.851,0.284,1.515,0.755,1.992c0.472,0.478,1.132,0.716,1.982,0.716
			c0.66,0,1.285-0.068,1.874-0.206s1.204-0.356,1.845-0.657v2.315c-0.523,0.262-1.083,0.456-1.678,0.584
			C145.77,56.282,145.044,56.346,144.187,56.346z M143.765,47.103c-0.635,0-1.132,0.201-1.491,0.604
			c-0.36,0.402-0.566,0.973-0.618,1.712h4.199c-0.013-0.739-0.206-1.31-0.578-1.712C144.904,47.304,144.4,47.103,143.765,47.103z"/>
		<path fill="#FFFFFF" d="M158.749,52.892c0,1.125-0.391,1.982-1.172,2.571c-0.782,0.589-1.951,0.883-3.508,0.883
			c-0.799,0-1.479-0.054-2.041-0.162c-0.563-0.107-1.09-0.267-1.58-0.476v-2.473c0.556,0.262,1.183,0.48,1.879,0.657
			s1.31,0.265,1.84,0.265c1.086,0,1.629-0.313,1.629-0.941c0-0.236-0.072-0.427-0.216-0.574c-0.145-0.147-0.393-0.314-0.746-0.501
			c-0.353-0.187-0.824-0.403-1.413-0.652c-0.844-0.354-1.464-0.68-1.859-0.981c-0.396-0.301-0.684-0.646-0.863-1.035
			c-0.18-0.389-0.27-0.868-0.27-1.438c0-0.975,0.378-1.729,1.133-2.262c0.756-0.533,1.827-0.8,3.214-0.8
			c1.321,0,2.606,0.288,3.856,0.863l-0.903,2.159c-0.549-0.235-1.063-0.429-1.54-0.579s-0.965-0.226-1.462-0.226
			c-0.884,0-1.325,0.239-1.325,0.717c0,0.268,0.143,0.5,0.427,0.696c0.285,0.196,0.908,0.487,1.869,0.873
			c0.857,0.347,1.485,0.671,1.885,0.972c0.398,0.301,0.693,0.647,0.883,1.04S158.749,52.349,158.749,52.892z"/>
		<path fill="#FFFFFF" d="M168.738,52.892c0,1.125-0.391,1.982-1.172,2.571c-0.782,0.589-1.951,0.883-3.508,0.883
			c-0.799,0-1.479-0.054-2.041-0.162c-0.563-0.107-1.09-0.267-1.58-0.476v-2.473c0.556,0.262,1.183,0.48,1.879,0.657
			s1.31,0.265,1.84,0.265c1.086,0,1.629-0.313,1.629-0.941c0-0.236-0.072-0.427-0.216-0.574c-0.145-0.147-0.393-0.314-0.746-0.501
			c-0.353-0.187-0.824-0.403-1.413-0.652c-0.844-0.354-1.464-0.68-1.859-0.981c-0.396-0.301-0.684-0.646-0.863-1.035
			c-0.18-0.389-0.27-0.868-0.27-1.438c0-0.975,0.378-1.729,1.133-2.262c0.756-0.533,1.827-0.8,3.214-0.8
			c1.321,0,2.606,0.288,3.856,0.863l-0.903,2.159c-0.549-0.235-1.063-0.429-1.54-0.579s-0.965-0.226-1.462-0.226
			c-0.884,0-1.325,0.239-1.325,0.717c0,0.268,0.143,0.5,0.427,0.696c0.285,0.196,0.908,0.487,1.869,0.873
			c0.857,0.347,1.485,0.671,1.885,0.972c0.398,0.301,0.693,0.647,0.883,1.04S168.738,52.349,168.738,52.892z"/>
	</g>
</g>
<g>
</g>
<g>
</g>
<g>
</g>
<g>
</g>
<g>
</g>
<g>
</g>
</svg>
