<?xml version="1.0" encoding="utf-8"?>
<!-- Generator: Adobe Illustrator 16.0.0, SVG Export Plug-In . SVG Version: 6.00 Build 0)  -->
<!DOCTYPE svg PUBLIC "-//W3C//DTD SVG 1.1//EN" "http://www.w3.org/Graphics/SVG/1.1/DTD/svg11.dtd">
<svg version="1.1" id="Layer_1" xmlns="http://www.w3.org/2000/svg" xmlns:xlink="http://www.w3.org/1999/xlink" x="0px" y="0px"
	 width="206.158px" height="206.158px" viewBox="0 0 206.158 206.158" enable-background="new 0 0 206.158 206.158"
	 xml:space="preserve">
<g>
	<g>
		<path fill="#00B8F1" d="M206.83,189.576c0,9.033-7.391,16.424-16.424,16.424H17.096c-9.033,0-16.424-7.391-16.424-16.424V16.266
			c0-9.033,7.391-16.424,16.424-16.424h173.31c9.033,0,16.424,7.391,16.424,16.424V189.576z"/>
	</g>
	<g>
		<path fill="#FFFFFF" d="M97.058,192.844c-0.552,0-1-0.447-1-1v-3.937c-0.735-0.489-1.409-1.069-2.007-1.729
			c-0.244-0.27-0.323-0.65-0.206-0.994s0.412-0.598,0.77-0.662l20.033-3.608c0.06-0.011,0.119-0.016,0.178-0.016
			c0.287,0,0.563,0.123,0.755,0.344c0.231,0.267,0.306,0.635,0.194,0.97c-0.764,2.316-2.285,4.318-4.314,5.689v3.943
			c0,0.553-0.447,1-1,1H97.058z M93.433,184.617c-0.358,0-0.695-0.193-0.874-0.515c-0.536-0.966-0.915-1.99-1.126-3.045
			c-0.053-0.263,0.002-0.536,0.154-0.759c0.151-0.222,0.385-0.374,0.649-0.422l22.885-4.124c0.06-0.011,0.119-0.016,0.178-0.016
			c0.232,0,0.46,0.081,0.642,0.232c0.227,0.19,0.358,0.472,0.358,0.768v2.109c0,0.313-0.015,0.63-0.044,0.927
			c-0.044,0.444-0.378,0.805-0.817,0.885l-21.826,3.943C93.552,184.612,93.492,184.617,93.433,184.617z M92.204,179.763
			c-0.232,0-0.46-0.081-0.641-0.232c-0.228-0.19-0.359-0.472-0.359-0.768v-2.936c0-0.484,0.347-0.898,0.823-0.984l23.095-4.155
			c0.059-0.011,0.118-0.016,0.177-0.016c0.232,0,0.46,0.081,0.642,0.232c0.228,0.19,0.358,0.472,0.358,0.768v2.925
			c0,0.483-0.347,0.898-0.822,0.984l-23.094,4.166C92.323,179.758,92.263,179.763,92.204,179.763z M92.204,174.702
			c-0.232,0-0.46-0.081-0.641-0.232c-0.228-0.19-0.359-0.472-0.359-0.768v-7.628c-8.971-4.705-14.518-13.84-14.518-23.989
			c0-14.921,12.138-27.06,27.057-27.06c14.93,0,27.075,12.139,27.075,27.06c0,10.15-5.548,19.285-14.521,23.989v3.457
			c0,0.483-0.347,0.898-0.822,0.984l-23.094,4.171C92.323,174.697,92.263,174.702,92.204,174.702z M137.064,137.14
			c-0.188,0-0.372-0.053-0.533-0.154c-0.225-0.142-0.384-0.367-0.442-0.626l-0.711-3.161c-0.121-0.538,0.216-1.071,0.753-1.194
			l16.495-3.775c0.073-0.017,0.148-0.025,0.223-0.025c0.187,0,0.371,0.052,0.531,0.153c0.225,0.141,0.385,0.365,0.443,0.624
			l0.726,3.174c0.06,0.259,0.014,0.53-0.128,0.755s-0.366,0.384-0.624,0.442l-16.51,3.763
			C137.212,137.132,137.138,137.14,137.064,137.14z M70.425,137.14c-0.074,0-0.149-0.008-0.222-0.025l-16.496-3.763
			c-0.538-0.122-0.875-0.657-0.753-1.195l0.717-3.174c0.059-0.259,0.218-0.484,0.443-0.626c0.161-0.101,0.346-0.153,0.533-0.153
			c0.075,0,0.149,0.009,0.223,0.025l16.491,3.775c0.537,0.123,0.874,0.657,0.752,1.194l-0.712,3.161
			c-0.059,0.259-0.217,0.484-0.442,0.626C70.798,137.087,70.612,137.14,70.425,137.14z M76.299,123.276
			c-0.219,0-0.439-0.071-0.623-0.219L62.454,112.51c-0.432-0.344-0.502-0.973-0.158-1.405l2.031-2.546
			c0.166-0.207,0.406-0.34,0.67-0.37c0.038-0.004,0.075-0.006,0.112-0.006c0.226,0,0.446,0.076,0.624,0.219l13.222,10.551
			c0.208,0.165,0.341,0.406,0.37,0.67c0.03,0.264-0.047,0.528-0.212,0.735l-2.03,2.543
			C76.884,123.147,76.593,123.276,76.299,123.276z M131.082,123.271c-0.264-0.03-0.505-0.163-0.671-0.37l-2.028-2.543
			c-0.344-0.432-0.273-1.062,0.158-1.405l13.218-10.551c0.178-0.143,0.398-0.219,0.624-0.219c0.037,0,0.074,0.002,0.112,0.006
			c0.264,0.03,0.505,0.164,0.67,0.371l2.027,2.546c0.344,0.432,0.272,1.061-0.158,1.404l-13.217,10.548
			c-0.179,0.143-0.398,0.219-0.624,0.219C131.156,123.276,131.119,123.274,131.082,123.271z M87.601,113.317
			c-0.111,0-0.223-0.019-0.33-0.056c-0.25-0.088-0.456-0.271-0.571-0.51L79.358,97.53c-0.115-0.239-0.131-0.515-0.043-0.765
			s0.271-0.456,0.511-0.571l2.936-1.41c0.14-0.067,0.287-0.099,0.433-0.099c0.372,0,0.729,0.208,0.901,0.566l7.332,15.219
			c0.24,0.497,0.031,1.094-0.466,1.334l-2.926,1.413C87.899,113.284,87.75,113.317,87.601,113.317z M119.888,113.317
			c-0.149,0-0.298-0.033-0.436-0.1l-2.922-1.413c-0.496-0.24-0.705-0.837-0.466-1.334l7.328-15.219
			c0.173-0.357,0.53-0.566,0.902-0.566c0.145,0,0.292,0.032,0.432,0.099l2.937,1.41c0.239,0.115,0.424,0.32,0.511,0.571
			c0.088,0.25,0.072,0.526-0.043,0.765l-7.343,15.222c-0.115,0.239-0.32,0.422-0.571,0.51
			C120.111,113.299,120,113.317,119.888,113.317z M102.121,109.274c-0.552,0-1-0.447-1-1V91.363c0-0.552,0.448-1,1-1h3.248
			c0.553,0,1,0.448,1,1v16.911c0,0.553-0.447,1-1,1H102.121z"/>
		<path fill="#231F20" d="M105.369,91.363v16.911h-3.248V91.363H105.369 M124.294,95.686l2.937,1.41l-7.343,15.222l-2.922-1.413
			L124.294,95.686 M83.195,95.686l7.332,15.219l-2.926,1.413l-7.342-15.222L83.195,95.686 M142.382,109.183l2.027,2.546
			l-13.217,10.548l-2.028-2.543L142.382,109.183 M65.108,109.183l13.222,10.551l-2.03,2.543l-13.222-10.548L65.108,109.183
			 M103.744,116.025c14.41,0,26.075,11.665,26.075,26.06c0,10.255-5.913,19.106-14.521,23.377v4.069l-23.094,4.171v-8.24
			c-8.604-4.271-14.518-13.122-14.518-23.377C77.687,127.69,89.365,116.025,103.744,116.025 M152.848,129.203l0.726,3.174
			l-16.51,3.763l-0.711-3.161L152.848,129.203 M54.646,129.203l16.491,3.775l-0.712,3.161l-16.496-3.763L54.646,129.203
			 M115.298,171.672v2.925l-23.094,4.166v-2.936L115.298,171.672 M115.298,176.737v2.109c0,0.28-0.013,0.563-0.039,0.827
			l-21.826,3.943c-0.474-0.854-0.824-1.777-1.021-2.756L115.298,176.737 M114.826,181.897h0.005 M114.826,181.897
			c-0.757,2.295-2.324,4.224-4.365,5.456v4.49H97.058v-4.49c-0.853-0.502-1.607-1.12-2.266-1.848L114.826,181.897 M105.369,89.363
			h-3.248c-1.104,0-2,0.896-2,2v16.911c0,1.104,0.896,2,2,2h3.248c1.104,0,2-0.896,2-2V91.363
			C107.369,90.259,106.473,89.363,105.369,89.363L105.369,89.363z M124.295,93.685c-0.744,0-1.458,0.417-1.803,1.133l-7.328,15.218
			c-0.479,0.994-0.063,2.188,0.931,2.669l2.922,1.413c0.274,0.132,0.572,0.199,0.871,0.199c0.222,0,0.444-0.037,0.658-0.111
			c0.501-0.175,0.912-0.542,1.144-1.02l7.343-15.222c0.23-0.479,0.262-1.029,0.086-1.53c-0.176-0.501-0.543-0.912-1.021-1.142
			l-2.937-1.41C124.881,93.749,124.586,93.685,124.295,93.685L124.295,93.685z M83.193,93.685c-0.291,0-0.585,0.063-0.864,0.198
			l-2.936,1.41c-0.479,0.23-0.847,0.641-1.022,1.142c-0.175,0.501-0.145,1.052,0.086,1.53l7.342,15.222
			c0.23,0.478,0.642,0.845,1.143,1.02c0.213,0.074,0.437,0.111,0.659,0.111c0.298,0,0.596-0.066,0.87-0.199l2.926-1.413
			c0.994-0.479,1.411-1.675,0.932-2.669l-7.332-15.219C84.652,94.103,83.938,93.685,83.193,93.685L83.193,93.685z M65.108,107.183
			c-0.074,0-0.149,0.004-0.224,0.013c-0.527,0.06-1.009,0.325-1.34,0.74l-2.031,2.546c-0.689,0.863-0.547,2.122,0.316,2.811
			l13.222,10.548c0.368,0.294,0.809,0.437,1.246,0.437c0.587,0,1.169-0.258,1.564-0.752l2.03-2.543
			c0.331-0.415,0.484-0.944,0.425-1.471c-0.06-0.527-0.326-1.01-0.74-1.341l-13.222-10.551C66,107.335,65.56,107.183,65.108,107.183
			L65.108,107.183z M142.382,107.183c-0.451,0-0.892,0.152-1.248,0.437l-13.218,10.551c-0.862,0.689-1.004,1.947-0.315,2.811
			l2.028,2.543c0.331,0.415,0.813,0.681,1.34,0.74c0.075,0.009,0.149,0.013,0.224,0.013c0.451,0,0.892-0.152,1.248-0.437
			l13.217-10.548c0.862-0.688,1.004-1.946,0.316-2.81l-2.027-2.546c-0.33-0.415-0.813-0.682-1.34-0.741
			C142.532,107.187,142.457,107.183,142.382,107.183L142.382,107.183z M103.744,114.025c-15.471,0-28.057,12.588-28.057,28.06
			c0,10.32,5.531,19.63,14.518,24.587v7.03c0,0.38,0.108,0.747,0.306,1.063c-0.194,0.31-0.306,0.675-0.306,1.063v2.936
			c0,0.444,0.148,0.871,0.414,1.218c-0.193,0.393-0.252,0.841-0.166,1.274c0.232,1.155,0.646,2.276,1.233,3.333
			c0.247,0.445,0.646,0.768,1.107,0.924c0.001,0.486,0.181,0.965,0.518,1.337c0.531,0.587,1.116,1.115,1.748,1.579v3.416
			c0,1.104,0.896,2,2,2h13.402c1.104,0,2-0.896,2-2v-3.427c1.962-1.457,3.442-3.475,4.229-5.788
			c0.089-0.227,0.139-0.474,0.139-0.731c0-0.284-0.06-0.554-0.166-0.799c0.325-0.319,0.539-0.749,0.587-1.227
			c0.032-0.326,0.049-0.671,0.049-1.025v-2.109c0-0.383-0.109-0.754-0.311-1.07c0.197-0.312,0.311-0.68,0.311-1.07v-2.925
			c0-0.383-0.109-0.754-0.311-1.07c0.197-0.312,0.311-0.68,0.311-1.07v-2.859c8.988-4.956,14.521-14.265,14.521-24.587
			C131.819,126.613,119.224,114.025,103.744,114.025L103.744,114.025z M54.646,127.203c-0.374,0-0.744,0.104-1.065,0.308
			c-0.45,0.283-0.769,0.733-0.885,1.252l-0.717,3.174c-0.243,1.075,0.431,2.146,1.506,2.391l16.496,3.763
			c0.147,0.033,0.296,0.05,0.445,0.05c0.375,0,0.745-0.105,1.066-0.309c0.45-0.283,0.768-0.733,0.885-1.252l0.712-3.161
			c0.242-1.075-0.431-2.144-1.505-2.389l-16.491-3.775C54.945,127.22,54.795,127.203,54.646,127.203L54.646,127.203z
			 M152.848,127.203c-0.149,0-0.299,0.017-0.446,0.051l-16.495,3.775c-1.074,0.245-1.747,1.313-1.505,2.388l0.711,3.161
			c0.116,0.519,0.435,0.97,0.884,1.253c0.322,0.203,0.692,0.309,1.067,0.309c0.148,0,0.298-0.017,0.444-0.05l16.51-3.763
			c0.518-0.118,0.967-0.437,1.249-0.886c0.282-0.45,0.375-0.993,0.256-1.51l-0.725-3.174c-0.119-0.518-0.438-0.967-0.887-1.249
			C153.59,127.308,153.221,127.203,152.848,127.203L152.848,127.203z"/>
	</g>
	<g>
		<rect x="14.653" y="17.384" fill="none" width="178.198" height="67.043"/>
		<path fill="#FFFFFF" d="M32.178,32.656h-3.042V20.842H25.24v-2.531h10.833v2.531h-3.896V32.656z"/>
		<path fill="#FFFFFF" d="M44.168,21.479c0.406,0,0.743,0.029,1.011,0.089l-0.226,2.806c-0.242-0.064-0.537-0.098-0.883-0.098
			c-0.955,0-1.699,0.245-2.232,0.736c-0.534,0.49-0.8,1.177-0.8,2.061v5.583h-2.993V21.686h2.267l0.441,1.845h0.147
			c0.34-0.614,0.8-1.11,1.379-1.486S43.488,21.479,44.168,21.479z"/>
		<path fill="#FFFFFF" d="M54.138,32.656l-0.579-1.491H53.48c-0.504,0.635-1.022,1.074-1.555,1.319s-1.229,0.368-2.085,0.368
			c-1.054,0-1.883-0.301-2.488-0.902c-0.605-0.603-0.908-1.459-0.908-2.571c0-1.164,0.407-2.023,1.222-2.576
			s2.042-0.858,3.685-0.917l1.904-0.059v-0.481c0-1.112-0.569-1.668-1.708-1.668c-0.876,0-1.907,0.265-3.091,0.795l-0.991-2.021
			c1.263-0.661,2.663-0.991,4.2-0.991c1.472,0,2.601,0.32,3.386,0.962c0.785,0.641,1.177,1.615,1.177,2.924v7.311H54.138z
			 M53.255,27.573l-1.158,0.039c-0.87,0.026-1.518,0.184-1.943,0.472c-0.425,0.287-0.638,0.726-0.638,1.314
			c0,0.844,0.484,1.266,1.453,1.266c0.693,0,1.248-0.199,1.663-0.599c0.416-0.398,0.623-0.929,0.623-1.589V27.573z"/>
		<path fill="#FFFFFF" d="M69.436,32.656h-2.993v-6.407c0-0.792-0.141-1.386-0.422-1.781s-0.729-0.594-1.344-0.594
			c-0.837,0-1.442,0.279-1.815,0.839c-0.373,0.56-0.559,1.486-0.559,2.782v5.161h-2.993V21.686h2.287l0.402,1.403h0.167
			c0.334-0.529,0.793-0.931,1.379-1.202s1.251-0.407,1.997-0.407c1.276,0,2.244,0.346,2.905,1.035
			c0.661,0.69,0.991,1.687,0.991,2.988V32.656z"/>
		<path fill="#FFFFFF" d="M80.17,29.398c0,1.125-0.391,1.982-1.172,2.571s-1.951,0.883-3.508,0.883
			c-0.798,0-1.479-0.054-2.041-0.162c-0.563-0.107-1.089-0.267-1.58-0.476v-2.473c0.556,0.262,1.183,0.48,1.879,0.657
			c0.697,0.177,1.31,0.265,1.84,0.265c1.086,0,1.629-0.313,1.629-0.941c0-0.236-0.072-0.427-0.216-0.574s-0.393-0.314-0.746-0.501
			s-0.824-0.403-1.413-0.652c-0.844-0.354-1.464-0.68-1.859-0.981c-0.396-0.301-0.684-0.646-0.864-1.035
			c-0.18-0.389-0.27-0.868-0.27-1.438c0-0.975,0.378-1.729,1.133-2.262s1.827-0.8,3.213-0.8c1.322,0,2.607,0.288,3.856,0.863
			l-0.903,2.159c-0.549-0.235-1.063-0.429-1.541-0.579s-0.965-0.226-1.462-0.226c-0.883,0-1.325,0.239-1.325,0.717
			c0,0.268,0.142,0.5,0.427,0.696s0.908,0.487,1.869,0.873c0.857,0.347,1.485,0.671,1.884,0.972s0.693,0.647,0.883,1.04
			C80.076,28.388,80.17,28.855,80.17,29.398z"/>
		<path fill="#FFFFFF" d="M88.57,23.933h-2.591v8.724h-2.993v-8.724h-1.648V22.49l1.648-0.805v-0.805
			c0-1.249,0.308-2.162,0.922-2.737s1.6-0.863,2.954-0.863c1.034,0,1.953,0.153,2.757,0.461l-0.765,2.198
			c-0.602-0.19-1.158-0.285-1.668-0.285c-0.425,0-0.732,0.126-0.922,0.378s-0.285,0.574-0.285,0.967v0.687h2.591V23.933z"/>
		<path fill="#FFFFFF" d="M100.257,27.151c0,1.786-0.471,3.183-1.413,4.19c-0.942,1.007-2.253,1.511-3.935,1.511
			c-1.054,0-1.982-0.23-2.787-0.691c-0.805-0.462-1.423-1.124-1.854-1.987s-0.647-1.871-0.647-3.022c0-1.792,0.468-3.186,1.403-4.18
			c0.935-0.995,2.25-1.492,3.944-1.492c1.053,0,1.982,0.229,2.787,0.688c0.804,0.458,1.422,1.115,1.854,1.972
			C100.041,24.996,100.257,26,100.257,27.151z M92.672,27.151c0,1.086,0.178,1.907,0.535,2.463c0.356,0.557,0.937,0.834,1.742,0.834
			c0.798,0,1.372-0.276,1.722-0.829c0.35-0.553,0.525-1.375,0.525-2.468c0-1.086-0.177-1.9-0.53-2.443
			c-0.354-0.543-0.932-0.814-1.737-0.814c-0.798,0-1.374,0.27-1.727,0.81C92.848,25.243,92.672,26.059,92.672,27.151z"/>
		<path fill="#FFFFFF" d="M108.853,21.479c0.405,0,0.742,0.029,1.01,0.089l-0.225,2.806c-0.242-0.064-0.537-0.098-0.884-0.098
			c-0.955,0-1.699,0.245-2.231,0.736c-0.534,0.49-0.801,1.177-0.801,2.061v5.583h-2.993V21.686h2.267l0.441,1.845h0.147
			c0.34-0.614,0.799-1.11,1.379-1.486C107.542,21.668,108.172,21.479,108.853,21.479z"/>
		<path fill="#FFFFFF" d="M121.677,32.656h-2.992v-6.407c0-0.792-0.133-1.386-0.398-1.781c-0.264-0.396-0.682-0.594-1.25-0.594
			c-0.766,0-1.322,0.281-1.668,0.844c-0.348,0.563-0.521,1.488-0.521,2.777v5.161h-2.993V21.686h2.287l0.402,1.403h0.166
			c0.295-0.504,0.72-0.897,1.275-1.183c0.557-0.284,1.194-0.427,1.914-0.427c1.642,0,2.754,0.537,3.336,1.609h0.266
			c0.294-0.51,0.727-0.906,1.3-1.188c0.572-0.281,1.218-0.422,1.938-0.422c1.242,0,2.183,0.319,2.82,0.957
			c0.639,0.638,0.957,1.66,0.957,3.066v7.153h-3.003v-6.407c0-0.792-0.132-1.386-0.397-1.781c-0.265-0.396-0.682-0.594-1.251-0.594
			c-0.733,0-1.28,0.262-1.644,0.785s-0.545,1.354-0.545,2.492V32.656z"/>
		<path fill="#FFFFFF" d="M138.555,32.656l-0.579-1.491h-0.078c-0.504,0.635-1.022,1.074-1.556,1.319s-1.229,0.368-2.085,0.368
			c-1.054,0-1.883-0.301-2.488-0.902c-0.604-0.603-0.907-1.459-0.907-2.571c0-1.164,0.407-2.023,1.222-2.576
			s2.043-0.858,3.685-0.917l1.903-0.059v-0.481c0-1.112-0.568-1.668-1.707-1.668c-0.877,0-1.906,0.265-3.091,0.795l-0.991-2.021
			c1.263-0.661,2.662-0.991,4.199-0.991c1.473,0,2.602,0.32,3.387,0.962c0.784,0.641,1.177,1.615,1.177,2.924v7.311H138.555z
			 M137.671,27.573l-1.157,0.039c-0.87,0.026-1.519,0.184-1.942,0.472c-0.426,0.287-0.639,0.726-0.639,1.314
			c0,0.844,0.484,1.266,1.453,1.266c0.693,0,1.247-0.199,1.662-0.599c0.416-0.398,0.623-0.929,0.623-1.589V27.573z"/>
		<path fill="#FFFFFF" d="M148.348,30.468c0.522,0,1.151-0.114,1.884-0.343v2.228c-0.746,0.333-1.662,0.5-2.748,0.5
			c-1.197,0-2.068-0.303-2.614-0.907c-0.546-0.605-0.819-1.513-0.819-2.724v-5.289h-1.433v-1.266l1.648-1.001l0.863-2.315h1.913
			v2.335h3.072v2.247h-3.072v5.289c0,0.426,0.119,0.739,0.358,0.942S147.956,30.468,148.348,30.468z"/>
		<path fill="#FFFFFF" d="M152.322,18.85c0-0.975,0.543-1.462,1.629-1.462s1.629,0.487,1.629,1.462c0,0.465-0.136,0.826-0.407,1.085
			c-0.271,0.258-0.679,0.388-1.222,0.388C152.865,20.322,152.322,19.831,152.322,18.85z M155.443,32.656h-2.994V21.686h2.994V32.656
			z"/>
		<path fill="#FFFFFF" d="M168.552,27.151c0,1.786-0.472,3.183-1.414,4.19c-0.941,1.007-2.253,1.511-3.934,1.511
			c-1.055,0-1.982-0.23-2.787-0.691c-0.805-0.462-1.424-1.124-1.855-1.987s-0.646-1.871-0.646-3.022c0-1.792,0.467-3.186,1.402-4.18
			c0.936-0.995,2.25-1.492,3.945-1.492c1.053,0,1.982,0.229,2.787,0.688c0.804,0.458,1.422,1.115,1.854,1.972
			C168.335,24.996,168.552,26,168.552,27.151z M160.966,27.151c0,1.086,0.179,1.907,0.535,2.463
			c0.356,0.557,0.938,0.834,1.742,0.834c0.797,0,1.371-0.276,1.722-0.829c0.35-0.553,0.524-1.375,0.524-2.468
			c0-1.086-0.176-1.9-0.529-2.443s-0.932-0.814-1.736-0.814c-0.799,0-1.375,0.27-1.728,0.81
			C161.143,25.243,160.966,26.059,160.966,27.151z"/>
		<path fill="#FFFFFF" d="M181.152,32.656h-2.994v-6.407c0-0.792-0.141-1.386-0.422-1.781s-0.729-0.594-1.344-0.594
			c-0.838,0-1.442,0.279-1.815,0.839c-0.372,0.56-0.56,1.486-0.56,2.782v5.161h-2.992V21.686h2.286l0.402,1.403h0.167
			c0.334-0.529,0.793-0.931,1.379-1.202c0.584-0.271,1.25-0.407,1.996-0.407c1.275,0,2.244,0.346,2.904,1.035
			c0.66,0.69,0.992,1.687,0.992,2.988V32.656z"/>
		<path fill="#FFFFFF" d="M69.309,54.583c0.523,0,1.151-0.114,1.884-0.343v2.228c-0.746,0.333-1.662,0.5-2.748,0.5
			c-1.197,0-2.069-0.303-2.615-0.907c-0.546-0.605-0.819-1.513-0.819-2.724v-5.289h-1.433v-1.266l1.648-1.001l0.863-2.315h1.914
			v2.335h3.071v2.247h-3.071v5.289c0,0.426,0.119,0.739,0.358,0.942S68.916,54.583,69.309,54.583z"/>
		<path fill="#FFFFFF" d="M83.537,56.771h-2.993v-6.407c0-1.583-0.588-2.375-1.766-2.375c-0.837,0-1.442,0.284-1.815,0.854
			c-0.373,0.569-0.559,1.491-0.559,2.768v5.161H73.41V41.503h2.993v3.11c0,0.242-0.023,0.812-0.069,1.708l-0.069,0.883h0.157
			c0.667-1.072,1.727-1.609,3.179-1.609c1.289,0,2.267,0.347,2.934,1.04c0.667,0.693,1.001,1.688,1.001,2.983V56.771z"/>
		<path fill="#FFFFFF" d="M92.74,45.595c0.406,0,0.743,0.029,1.011,0.089l-0.226,2.806c-0.242-0.064-0.537-0.098-0.883-0.098
			c-0.955,0-1.699,0.245-2.232,0.736c-0.534,0.49-0.8,1.177-0.8,2.061v5.583h-2.993V45.801h2.267l0.441,1.845h0.147
			c0.34-0.614,0.8-1.11,1.379-1.486S92.06,45.595,92.74,45.595z"/>
		<path fill="#FFFFFF" d="M105.712,51.267c0,1.786-0.471,3.183-1.413,4.19c-0.942,1.007-2.253,1.511-3.935,1.511
			c-1.054,0-1.982-0.23-2.787-0.691c-0.805-0.462-1.423-1.124-1.854-1.987s-0.647-1.871-0.647-3.022c0-1.792,0.468-3.186,1.403-4.18
			c0.935-0.995,2.25-1.492,3.944-1.492c1.053,0,1.982,0.229,2.787,0.688c0.804,0.458,1.422,1.115,1.854,1.972
			C105.497,49.111,105.712,50.115,105.712,51.267z M98.127,51.267c0,1.086,0.178,1.907,0.535,2.463
			c0.356,0.557,0.937,0.834,1.742,0.834c0.798,0,1.372-0.276,1.722-0.829c0.35-0.553,0.525-1.375,0.525-2.468
			c0-1.086-0.177-1.9-0.53-2.443c-0.354-0.543-0.932-0.814-1.737-0.814c-0.798,0-1.374,0.27-1.727,0.81
			C98.304,49.358,98.127,50.174,98.127,51.267z"/>
		<path fill="#FFFFFF" d="M115.957,56.771l-0.402-1.403h-0.156c-0.321,0.511-0.775,0.904-1.364,1.183s-1.26,0.417-2.012,0.417
			c-1.289,0-2.261-0.345-2.915-1.035c-0.653-0.69-0.98-1.683-0.98-2.979v-7.153h2.992v6.408c0,0.791,0.141,1.385,0.422,1.78
			c0.281,0.396,0.73,0.594,1.345,0.594c0.837,0,1.442-0.279,1.815-0.839s0.56-1.486,0.56-2.781v-5.162h2.993v10.971H115.957z"/>
		<path fill="#FFFFFF" d="M130.941,45.801v1.521l-1.718,0.441c0.313,0.49,0.472,1.04,0.472,1.648c0,1.178-0.411,2.095-1.232,2.752
			c-0.82,0.658-1.961,0.986-3.42,0.986l-0.539-0.029l-0.441-0.049c-0.308,0.235-0.461,0.497-0.461,0.785
			c0,0.432,0.549,0.647,1.648,0.647h1.863c1.204,0,2.121,0.259,2.753,0.775s0.947,1.275,0.947,2.276
			c0,1.282-0.535,2.276-1.604,2.982c-1.07,0.707-2.605,1.061-4.607,1.061c-1.53,0-2.699-0.267-3.508-0.8
			c-0.808-0.533-1.211-1.281-1.211-2.242c0-0.661,0.205-1.214,0.617-1.658c0.412-0.445,1.018-0.763,1.815-0.952
			c-0.308-0.131-0.575-0.345-0.804-0.643c-0.23-0.298-0.344-0.613-0.344-0.947c0-0.418,0.121-0.767,0.363-1.045
			c0.241-0.278,0.592-0.551,1.049-0.819c-0.575-0.248-1.031-0.647-1.368-1.197s-0.505-1.197-0.505-1.942
			c0-1.197,0.389-2.123,1.167-2.777s1.891-0.981,3.337-0.981c0.307,0,0.672,0.028,1.094,0.084s0.691,0.097,0.809,0.122H130.941z
			 M122.472,58.322c0,0.412,0.197,0.735,0.594,0.971c0.396,0.236,0.95,0.354,1.663,0.354c1.073,0,1.913-0.147,2.522-0.441
			c0.607-0.295,0.912-0.696,0.912-1.207c0-0.412-0.18-0.696-0.54-0.854s-0.915-0.235-1.668-0.235h-1.55
			c-0.55,0-1.01,0.129-1.379,0.388C122.657,57.555,122.472,57.896,122.472,58.322z M123.562,49.393c0,0.595,0.135,1.066,0.406,1.413
			s0.686,0.52,1.242,0.52c0.563,0,0.975-0.173,1.236-0.52s0.393-0.818,0.393-1.413c0-1.321-0.543-1.982-1.629-1.982
			C124.111,47.41,123.562,48.071,123.562,49.393z"/>
		<path fill="#FFFFFF" d="M142.873,56.771h-2.993v-6.407c0-1.583-0.589-2.375-1.767-2.375c-0.837,0-1.441,0.284-1.814,0.854
			s-0.56,1.491-0.56,2.768v5.161h-2.993V41.503h2.993v3.11c0,0.242-0.022,0.812-0.069,1.708l-0.068,0.883h0.157
			c0.667-1.072,1.728-1.609,3.179-1.609c1.289,0,2.268,0.347,2.935,1.04s1.001,1.688,1.001,2.983V56.771z"/>
		<path fill="#FFFFFF" d="M50.66,67.08c0-0.975,0.543-1.462,1.629-1.462s1.629,0.487,1.629,1.462c0,0.465-0.136,0.826-0.407,1.085
			c-0.271,0.258-0.679,0.388-1.222,0.388C51.203,68.553,50.66,68.062,50.66,67.08z M53.78,80.887h-2.993V69.916h2.993V80.887z"/>
		<path fill="#FFFFFF" d="M67.047,80.887h-2.993v-6.407c0-0.792-0.141-1.386-0.422-1.781s-0.729-0.594-1.344-0.594
			c-0.837,0-1.442,0.279-1.815,0.839c-0.373,0.56-0.559,1.486-0.559,2.782v5.161H56.92V69.916h2.287l0.402,1.403h0.167
			c0.334-0.529,0.793-0.931,1.379-1.202s1.251-0.407,1.997-0.407c1.276,0,2.244,0.346,2.905,1.035
			c0.661,0.69,0.991,1.687,0.991,2.988V80.887z"/>
		<path fill="#FFFFFF" d="M80.254,80.887h-2.993v-6.407c0-0.792-0.141-1.386-0.422-1.781s-0.729-0.594-1.344-0.594
			c-0.837,0-1.442,0.279-1.815,0.839c-0.373,0.56-0.559,1.486-0.559,2.782v5.161h-2.993V69.916h2.287l0.402,1.403h0.167
			c0.334-0.529,0.793-0.931,1.379-1.202s1.251-0.407,1.997-0.407c1.276,0,2.244,0.346,2.905,1.035
			c0.661,0.69,0.991,1.687,0.991,2.988V80.887z"/>
		<path fill="#FFFFFF" d="M93.305,75.382c0,1.786-0.471,3.183-1.413,4.19c-0.942,1.007-2.253,1.511-3.935,1.511
			c-1.054,0-1.982-0.23-2.787-0.691c-0.805-0.462-1.423-1.124-1.854-1.987s-0.647-1.871-0.647-3.022c0-1.792,0.468-3.186,1.403-4.18
			c0.935-0.995,2.25-1.492,3.944-1.492c1.053,0,1.982,0.229,2.787,0.688c0.804,0.458,1.422,1.115,1.854,1.972
			C93.089,73.227,93.305,74.23,93.305,75.382z M85.72,75.382c0,1.086,0.178,1.907,0.535,2.463c0.356,0.557,0.937,0.834,1.742,0.834
			c0.798,0,1.372-0.276,1.722-0.829c0.35-0.553,0.525-1.375,0.525-2.468c0-1.086-0.177-1.9-0.53-2.443
			c-0.354-0.543-0.932-0.814-1.737-0.814c-0.798,0-1.374,0.27-1.727,0.81C85.896,73.474,85.72,74.289,85.72,75.382z"/>
		<path fill="#FFFFFF" d="M98.388,80.887l-4.18-10.971h3.13l2.119,6.251c0.236,0.791,0.383,1.54,0.442,2.247h0.059
			c0.033-0.628,0.18-1.377,0.442-2.247l2.109-6.251h3.13l-4.18,10.971H98.388z"/>
		<path fill="#FFFFFF" d="M114.176,80.887l-0.579-1.491h-0.078c-0.504,0.635-1.022,1.074-1.556,1.319s-1.229,0.368-2.085,0.368
			c-1.054,0-1.883-0.301-2.488-0.902c-0.604-0.603-0.907-1.459-0.907-2.571c0-1.164,0.407-2.023,1.222-2.576
			s2.043-0.858,3.685-0.917l1.903-0.059v-0.481c0-1.112-0.568-1.668-1.707-1.668c-0.877,0-1.906,0.265-3.091,0.795l-0.991-2.021
			c1.263-0.661,2.662-0.991,4.199-0.991c1.473,0,2.602,0.32,3.387,0.962c0.784,0.641,1.177,1.615,1.177,2.924v7.311H114.176z
			 M113.292,75.804l-1.157,0.039c-0.87,0.026-1.519,0.184-1.942,0.472c-0.426,0.287-0.639,0.726-0.639,1.314
			c0,0.844,0.484,1.266,1.453,1.266c0.693,0,1.247-0.199,1.662-0.599c0.416-0.398,0.623-0.929,0.623-1.589V75.804z"/>
		<path fill="#FFFFFF" d="M123.969,78.698c0.522,0,1.151-0.114,1.884-0.343v2.228c-0.746,0.333-1.662,0.5-2.748,0.5
			c-1.197,0-2.068-0.303-2.614-0.907c-0.546-0.605-0.819-1.513-0.819-2.724v-5.289h-1.433v-1.266l1.648-1.001l0.863-2.315h1.913
			v2.335h3.072v2.247h-3.072v5.289c0,0.426,0.119,0.739,0.358,0.942S123.577,78.698,123.969,78.698z"/>
		<path fill="#FFFFFF" d="M127.943,67.08c0-0.975,0.543-1.462,1.629-1.462s1.629,0.487,1.629,1.462c0,0.465-0.136,0.826-0.407,1.085
			c-0.271,0.258-0.679,0.388-1.222,0.388C128.486,68.553,127.943,68.062,127.943,67.08z M131.064,80.887h-2.994V69.916h2.994V80.887
			z"/>
		<path fill="#FFFFFF" d="M144.173,75.382c0,1.786-0.472,3.183-1.414,4.19c-0.941,1.007-2.253,1.511-3.934,1.511
			c-1.055,0-1.982-0.23-2.787-0.691c-0.805-0.462-1.424-1.124-1.855-1.987s-0.646-1.871-0.646-3.022c0-1.792,0.467-3.186,1.402-4.18
			c0.936-0.995,2.25-1.492,3.945-1.492c1.053,0,1.982,0.229,2.787,0.688c0.804,0.458,1.422,1.115,1.854,1.972
			C143.957,73.227,144.173,74.23,144.173,75.382z M136.587,75.382c0,1.086,0.179,1.907,0.535,2.463
			c0.356,0.557,0.938,0.834,1.742,0.834c0.797,0,1.371-0.276,1.722-0.829c0.35-0.553,0.524-1.375,0.524-2.468
			c0-1.086-0.176-1.9-0.529-2.443s-0.932-0.814-1.736-0.814c-0.799,0-1.375,0.27-1.728,0.81
			C136.764,73.474,136.587,74.289,136.587,75.382z"/>
		<path fill="#FFFFFF" d="M156.773,80.887h-2.994v-6.407c0-0.792-0.141-1.386-0.422-1.781s-0.729-0.594-1.344-0.594
			c-0.838,0-1.442,0.279-1.815,0.839c-0.372,0.56-0.56,1.486-0.56,2.782v5.161h-2.992V69.916h2.286l0.402,1.403h0.167
			c0.334-0.529,0.793-0.931,1.379-1.202c0.585-0.271,1.25-0.407,1.996-0.407c1.275,0,2.244,0.346,2.904,1.035
			c0.661,0.69,0.992,1.687,0.992,2.988V80.887z"/>
	</g>
</g>
<g>
</g>
<g>
</g>
<g>
</g>
<g>
</g>
<g>
</g>
<g>
</g>
</svg>
