<?xml version="1.0" encoding="utf-8"?>
<!-- Generator: Adobe Illustrator 16.0.0, SVG Export Plug-In . SVG Version: 6.00 Build 0)  -->
<!DOCTYPE svg PUBLIC "-//W3C//DTD SVG 1.1//EN" "http://www.w3.org/Graphics/SVG/1.1/DTD/svg11.dtd">
<svg version="1.1" id="Layer_1" xmlns="http://www.w3.org/2000/svg" xmlns:xlink="http://www.w3.org/1999/xlink" x="0px" y="0px"
	 width="206.158px" height="206.158px" viewBox="0 0 206.158 206.158" enable-background="new 0 0 206.158 206.158"
	 xml:space="preserve">
<g>
	<g>
		<path fill="#9F66A9" d="M206.386,189.576c0,9.033-7.391,16.424-16.424,16.424H16.651c-9.033,0-16.424-7.391-16.424-16.424V16.266
			c0-9.033,7.391-16.424,16.424-16.424h173.311c9.033,0,16.424,7.391,16.424,16.424V189.576z"/>
	</g>
	<g>
		<g>
			<path fill="#231F20" d="M75.172,108.002c0,0-0.084,2.432-2.834,3.044l-12.063,2.703c-2.75,0.617-3.868-1.544-3.868-1.544
				c-3.574-7.541,1.678-13.246,1.678-13.246l10.043-2.25C68.128,96.709,75.19,99.655,75.172,108.002z"/>
			<path fill="#FFFFFF" d="M66.241,102.531c1.521,0.963,1.97-3.287,1.97-3.287C67.824,99.425,64.726,101.57,66.241,102.531z"/>
			<path fill="#FFFFFF" d="M64.362,103.575c0.641,0.405,1.848-0.312,0.748-1.986c-0.981-1.489-0.251-2.395-0.251-2.395
				C64.47,99.433,62.931,102.667,64.362,103.575z"/>
			<path fill="#FFFFFF" d="M63.057,105.637c0.639,0.406,1.848-0.313,0.746-1.988c-0.979-1.489-0.246-2.395-0.246-2.395
				C63.161,101.489,61.62,104.729,63.057,105.637z"/>
			<path fill="#FFFFFF" d="M62.016,108.937c-0.278-0.178-0.406-0.474-0.514-0.298l-1.007,2.004
				c-0.118,0.191,0.432,0.771,0.683,0.369l1.327-1.74C62.614,109.099,62.293,109.109,62.016,108.937z"/>
			<path fill="#FFFFFF" d="M62.457,105.775c-0.98-1.491-0.248-2.396-0.248-2.396c-0.396,0.238-1.934,3.475-0.505,4.38
				C62.348,108.17,63.557,107.447,62.457,105.775z"/>
			<path fill="#FFFFFF" d="M66.995,106.414c0,0-0.508,1.049-2.274,0.796c-1.98-0.28-2.119,1.12-1.471,1.528
				C64.679,109.643,66.95,106.867,66.995,106.414z"/>
			<path fill="#FFFFFF" d="M68.345,104.292c0,0-0.51,1.044-2.279,0.793c-1.976-0.277-2.116,1.122-1.473,1.528
				C66.026,107.521,68.298,104.747,68.345,104.292z"/>
			<path fill="#FFFFFF" d="M69.653,102.23c0,0-0.513,1.052-2.274,0.795c-1.988-0.28-2.119,1.12-1.48,1.525
				C67.33,105.459,69.606,102.686,69.653,102.23z"/>
			<path fill="#231F20" d="M70.001,92.744l-2.177,3.18l-9.92,2.225l-3.328-1.95c0,0,0.944-2.222,3.147-2.98
				c2.156-0.74,3.227,0.445,4.341,0.249c1.094-0.299,1.565-1.829,3.826-2.078C68.209,91.135,70.001,92.744,70.001,92.744z"/>
		</g>
		<path fill="#231F20" d="M157.607,165.583l-2.307-7.364c-0.553-1.766-2.453-2.758-4.219-2.205l-3.168,0.994l-1.184-3.786
			l-7.926,2.483l1.188,3.786l-3.17,0.991c-1.764,0.555-2.756,2.452-2.205,4.219l2.309,7.363c0.555,1.766,2.455,2.76,4.221,2.205
			l14.256-4.469C157.167,169.246,158.164,167.349,157.607,165.583z M141.468,159.027l-0.725-2.308l4.971-1.56l0.723,2.311
			L141.468,159.027z"/>
		<polygon fill="#FFFFFF" points="145.333,166.401 142.953,167.147 143.697,169.521 141.859,170.099 141.113,167.723 
			138.734,168.469 138.158,166.629 140.535,165.884 139.789,163.505 141.632,162.927 142.378,165.306 144.757,164.56 		"/>
		
			<path fill="#FFFFFF" stroke="#231F20" stroke-width="1.5" stroke-linecap="round" stroke-linejoin="round" stroke-miterlimit="10" d="
			M77.333,118.726c0,3.744-3.046,6.782-6.787,6.782c-3.753,0-6.793-3.038-6.793-6.782c0-3.747,3.04-6.785,6.793-6.785
			C74.287,111.94,77.333,114.979,77.333,118.726z M71.257,165.208l1.469,25.045c0,0.868,0.709,1.591,1.58,1.591
			c0.879,0,1.594-0.723,1.594-1.591l1.355-25.045h4.425l-4.569-28.079l9.211,18.361c0.338,0.803,1.271,1.19,2.083,0.848
			c0.806-0.346,1.19-1.271,0.851-2.091c0,0-6.751-18.27-8.423-21.671c-1.67-3.407-3.303-5.479-9.646-5.479h-1.295
			c-2.136,0-4.278-0.068-6.346-0.293c-4.048-0.445-7.795-1.492-10.61-3.818l5.061-10.786c0.882-1.887-0.974-2.956-1.851-1.562
			c-0.471,0.745-3.017,5.322-7.292,13.313l15.124,13.178l-4.582,28.079h4.42l1.371,25.045c0,0.868,0.717,1.591,1.583,1.591
			c0.897,0,1.609-0.723,1.609-1.591l1.363-25.045H71.257z M125.332,111.922c-3.748,0-6.793,3.033-6.793,6.785
			c0,3.753,3.045,6.788,6.793,6.788c3.738,0,6.771-3.035,6.771-6.788C132.103,114.955,129.07,111.922,125.332,111.922z
			 M132.365,151.874l0.449-14.764l8.285,18.366c0.34,0.801,1.279,1.193,2.088,0.843c0.818-0.351,1.199-1.276,0.854-2.096
			c0,0-5.832-18.27-7.502-21.666c-1.664-3.404-4.236-5.475-10.561-5.475h-1.301c-6.328,0-8.902,2.07-10.572,5.475
			c-1.652,3.396-7.486,21.666-7.486,21.666c-0.342,0.819,0.029,1.745,0.844,2.096c0.811,0.351,1.75-0.042,2.076-0.843l8.295-18.366
			l0.451,14.764l-1.309,37.112c-0.086,1.471,1.012,2.75,2.471,2.844c0.07,0.014,0.139,0.014,0.189,0.014
			c1.391,0,2.568-1.073,2.676-2.48l3.004-30.568l3.037,30.568c0.084,1.407,1.264,2.48,2.643,2.48c0.066,0,0.127,0,0.197-0.014
			c1.473-0.094,2.559-1.373,2.473-2.844l-1.311-37.112H132.365z M97.932,153.188c-2.308,0-4.168,1.855-4.168,4.158
			c0,2.3,1.86,4.155,4.168,4.155c2.3,0,4.169-1.855,4.169-4.155C102.101,155.043,100.231,153.188,97.932,153.188z M97.932,177.708
			c0,0,1.871,13.026,1.871,13.039c0.262,0.639,0.855,1.097,1.583,1.097c0.746,0,1.374-0.5,1.604-1.183
			c0.013-0.034,0.052-0.806,0.013-0.932l-0.772-16.009l0.246-5.495c0.218-1.868,0.26-1.309,2.378-2.577
			c2.172-1.304,5.857-7.026,6.037-7.307c0.18-0.287,0.51-0.787,0.578-1.106c0.109-0.578-0.264-1.128-0.838-1.243
			c-0.434-0.07-0.797,0.16-1.078,0.458c-0.281,0.309-4.525,5.966-7.71,6.508c-0.717-0.102-1.486-0.481-3.512-0.481h-0.803
			c-2.016,0-2.787,0.38-3.507,0.481c-3.188-0.542-7.429-6.199-7.728-6.508c-0.27-0.298-0.625-0.528-1.064-0.458
			c-0.57,0.115-0.95,0.665-0.835,1.243c0.058,0.319,0.396,0.819,0.576,1.106c0.188,0.28,3.878,6.003,6.039,7.307
			c2.125,1.269,2.172,0.709,2.376,2.577l0.243,5.495l-0.764,16.009c-0.042,0.126,0,0.897,0.028,0.932
			c0.226,0.683,0.838,1.183,1.589,1.183c0.717,0,1.329-0.458,1.569-1.097C96.053,190.734,97.932,177.708,97.932,177.708"/>
	</g>
	<g>
		<rect x="15.531" y="17.384" fill="none" width="175.552" height="74.98"/>
		<path fill="#FFFFFF" d="M56.971,28.672c0,1.296-0.466,2.316-1.398,3.062c-0.932,0.746-2.229,1.119-3.891,1.119
			c-1.53,0-2.885-0.288-4.062-0.863v-2.826c0.968,0.432,1.787,0.735,2.458,0.912c0.67,0.177,1.283,0.266,1.84,0.266
			c0.667,0,1.179-0.128,1.535-0.383s0.535-0.635,0.535-1.139c0-0.281-0.079-0.531-0.235-0.75c-0.157-0.22-0.388-0.431-0.692-0.634
			c-0.304-0.202-0.924-0.526-1.859-0.971c-0.877-0.412-1.534-0.809-1.973-1.188c-0.438-0.38-0.788-0.821-1.05-1.325
			c-0.262-0.503-0.393-1.092-0.393-1.766c0-1.27,0.431-2.267,1.291-2.993c0.859-0.727,2.049-1.089,3.566-1.089
			c0.746,0,1.457,0.088,2.135,0.265c0.677,0.177,1.385,0.426,2.124,0.746l-0.981,2.364c-0.766-0.313-1.398-0.533-1.898-0.657
			c-0.501-0.124-0.993-0.187-1.477-0.187c-0.576,0-1.018,0.134-1.325,0.402s-0.461,0.618-0.461,1.05
			c0,0.269,0.062,0.502,0.187,0.702c0.124,0.199,0.322,0.393,0.594,0.578c0.271,0.187,0.914,0.522,1.928,1.006
			c1.341,0.642,2.261,1.284,2.758,1.929S56.971,27.737,56.971,28.672z"/>
		<path fill="#FFFFFF" d="M64.301,32.853c-1.767,0-3.146-0.487-4.141-1.462c-0.995-0.975-1.492-2.355-1.492-4.141
			c0-1.839,0.46-3.26,1.379-4.264c0.919-1.005,2.189-1.507,3.813-1.507c1.55,0,2.757,0.441,3.621,1.325
			c0.863,0.883,1.295,2.103,1.295,3.66v1.452H61.7c0.033,0.851,0.285,1.515,0.756,1.992s1.132,0.716,1.982,0.716
			c0.66,0,1.285-0.068,1.874-0.206s1.203-0.356,1.845-0.657v2.315c-0.523,0.262-1.083,0.456-1.678,0.584
			C65.884,32.789,65.157,32.853,64.301,32.853z M63.879,23.609c-0.635,0-1.132,0.201-1.491,0.604
			c-0.36,0.402-0.566,0.973-0.618,1.712h4.199c-0.013-0.739-0.206-1.31-0.579-1.712C65.018,23.811,64.514,23.609,63.879,23.609z"/>
		<path fill="#FFFFFF" d="M77.332,21.479c0.405,0,0.742,0.029,1.011,0.089l-0.226,2.806c-0.242-0.064-0.537-0.098-0.884-0.098
			c-0.955,0-1.699,0.245-2.232,0.736c-0.533,0.49-0.8,1.177-0.8,2.061v5.583h-2.992V21.686h2.267l0.441,1.845h0.147
			c0.34-0.614,0.8-1.11,1.378-1.486C76.021,21.668,76.651,21.479,77.332,21.479z"/>
		<path fill="#FFFFFF" d="M82.944,32.656l-4.18-10.971h3.13l2.12,6.251c0.235,0.791,0.383,1.54,0.441,2.247h0.059
			c0.033-0.628,0.18-1.377,0.441-2.247l2.11-6.251h3.13l-4.18,10.971H82.944z"/>
		<path fill="#FFFFFF" d="M91.639,18.85c0-0.975,0.543-1.462,1.629-1.462s1.629,0.487,1.629,1.462c0,0.465-0.136,0.826-0.407,1.085
			c-0.271,0.258-0.679,0.388-1.222,0.388C92.182,20.322,91.639,19.831,91.639,18.85z M94.759,32.656h-2.992V21.686h2.992V32.656z"/>
		<path fill="#FFFFFF" d="M108.026,32.656h-2.992v-6.407c0-0.792-0.141-1.386-0.422-1.781c-0.282-0.396-0.73-0.594-1.345-0.594
			c-0.838,0-1.442,0.279-1.815,0.839s-0.56,1.486-0.56,2.782v5.161h-2.992V21.686h2.286l0.402,1.403h0.167
			c0.333-0.529,0.793-0.931,1.378-1.202c0.586-0.271,1.252-0.407,1.997-0.407c1.276,0,2.245,0.346,2.905,1.035
			c0.661,0.69,0.991,1.687,0.991,2.988V32.656z"/>
		<path fill="#FFFFFF" d="M120.655,21.686v1.521l-1.717,0.441c0.314,0.49,0.471,1.04,0.471,1.648c0,1.178-0.41,2.095-1.231,2.752
			c-0.82,0.658-1.961,0.986-3.419,0.986l-0.54-0.029l-0.441-0.049c-0.308,0.235-0.461,0.497-0.461,0.785
			c0,0.432,0.549,0.647,1.648,0.647h1.864c1.203,0,2.121,0.259,2.752,0.775c0.632,0.517,0.947,1.275,0.947,2.276
			c0,1.282-0.535,2.276-1.604,2.982c-1.069,0.707-2.605,1.061-4.607,1.061c-1.53,0-2.7-0.267-3.508-0.8s-1.212-1.281-1.212-2.242
			c0-0.661,0.206-1.214,0.618-1.658c0.412-0.445,1.018-0.763,1.815-0.952c-0.308-0.131-0.575-0.345-0.805-0.643
			c-0.229-0.298-0.343-0.613-0.343-0.947c0-0.418,0.12-0.767,0.362-1.045s0.593-0.551,1.051-0.819
			c-0.576-0.248-1.032-0.647-1.369-1.197s-0.506-1.197-0.506-1.942c0-1.197,0.39-2.123,1.168-2.777s1.891-0.981,3.336-0.981
			c0.308,0,0.673,0.028,1.095,0.084s0.691,0.097,0.81,0.122H120.655z M112.187,34.207c0,0.412,0.198,0.735,0.594,0.971
			c0.396,0.236,0.95,0.354,1.663,0.354c1.073,0,1.913-0.147,2.521-0.441c0.608-0.295,0.913-0.696,0.913-1.207
			c0-0.412-0.18-0.696-0.54-0.854c-0.359-0.157-0.916-0.235-1.668-0.235h-1.551c-0.549,0-1.009,0.129-1.378,0.388
			C112.372,33.439,112.187,33.781,112.187,34.207z M113.276,25.277c0,0.595,0.136,1.066,0.407,1.413s0.686,0.52,1.241,0.52
			c0.563,0,0.975-0.173,1.236-0.52s0.393-0.818,0.393-1.413c0-1.321-0.543-1.982-1.629-1.982
			C113.826,23.295,113.276,23.956,113.276,25.277z"/>
		<path fill="#FFFFFF" d="M132.303,30.468c0.523,0,1.151-0.114,1.885-0.343v2.228c-0.746,0.333-1.662,0.5-2.748,0.5
			c-1.197,0-2.068-0.303-2.615-0.907c-0.546-0.605-0.819-1.513-0.819-2.724v-5.289h-1.433v-1.266l1.648-1.001l0.864-2.315h1.913
			v2.335h3.071v2.247h-3.071v5.289c0,0.426,0.119,0.739,0.358,0.942C131.595,30.367,131.911,30.468,132.303,30.468z"/>
		<path fill="#FFFFFF" d="M146.532,32.656h-2.992v-6.407c0-1.583-0.589-2.375-1.767-2.375c-0.838,0-1.442,0.284-1.815,0.854
			s-0.56,1.491-0.56,2.768v5.161h-2.992V17.388h2.992v3.11c0,0.242-0.022,0.812-0.068,1.708l-0.068,0.883h0.156
			c0.668-1.072,1.728-1.609,3.18-1.609c1.289,0,2.267,0.347,2.934,1.04c0.668,0.693,1.001,1.688,1.001,2.983V32.656z"/>
		<path fill="#FFFFFF" d="M154.579,32.853c-1.767,0-3.146-0.487-4.141-1.462c-0.995-0.975-1.492-2.355-1.492-4.141
			c0-1.839,0.46-3.26,1.379-4.264c0.919-1.005,2.189-1.507,3.813-1.507c1.55,0,2.757,0.441,3.621,1.325
			c0.863,0.883,1.295,2.103,1.295,3.66v1.452h-7.075c0.033,0.851,0.285,1.515,0.756,1.992s1.132,0.716,1.982,0.716
			c0.66,0,1.285-0.068,1.874-0.206s1.203-0.356,1.845-0.657v2.315c-0.523,0.262-1.083,0.456-1.678,0.584
			C156.162,32.789,155.435,32.853,154.579,32.853z M154.157,23.609c-0.635,0-1.132,0.201-1.491,0.604
			c-0.36,0.402-0.566,0.973-0.618,1.712h4.199c-0.013-0.739-0.206-1.31-0.579-1.712C155.295,23.811,154.792,23.609,154.157,23.609z"
			/>
		<path fill="#FFFFFF" d="M35.962,56.771H32.97v-6.407c0-0.792-0.141-1.386-0.422-1.781c-0.282-0.396-0.729-0.594-1.345-0.594
			c-0.838,0-1.442,0.279-1.815,0.839s-0.56,1.486-0.56,2.782v5.161h-2.992V45.801h2.286l0.402,1.403h0.167
			c0.333-0.529,0.793-0.931,1.378-1.202c0.586-0.271,1.252-0.407,1.997-0.407c1.275,0,2.244,0.346,2.904,1.035
			c0.661,0.69,0.991,1.687,0.991,2.988V56.771z"/>
		<path fill="#FFFFFF" d="M44.009,56.968c-1.767,0-3.146-0.487-4.141-1.462c-0.995-0.975-1.492-2.355-1.492-4.141
			c0-1.839,0.46-3.26,1.379-4.264c0.919-1.005,2.189-1.507,3.813-1.507c1.55,0,2.757,0.441,3.621,1.325
			c0.863,0.883,1.295,2.103,1.295,3.66v1.452h-7.075c0.033,0.851,0.285,1.515,0.756,1.992s1.132,0.716,1.982,0.716
			c0.66,0,1.285-0.068,1.874-0.206s1.203-0.356,1.845-0.657v2.315c-0.523,0.262-1.083,0.456-1.678,0.584
			C45.592,56.904,44.865,56.968,44.009,56.968z M43.587,47.725c-0.635,0-1.132,0.201-1.491,0.604
			c-0.36,0.402-0.566,0.973-0.618,1.712h4.199c-0.013-0.739-0.206-1.31-0.579-1.712C44.726,47.926,44.222,47.725,43.587,47.725z"/>
		<path fill="#FFFFFF" d="M55.882,56.968c-1.767,0-3.146-0.487-4.141-1.462c-0.995-0.975-1.492-2.355-1.492-4.141
			c0-1.839,0.46-3.26,1.379-4.264c0.919-1.005,2.189-1.507,3.813-1.507c1.55,0,2.757,0.441,3.621,1.325
			c0.863,0.883,1.295,2.103,1.295,3.66v1.452h-7.075c0.033,0.851,0.285,1.515,0.756,1.992s1.132,0.716,1.982,0.716
			c0.66,0,1.285-0.068,1.874-0.206s1.203-0.356,1.845-0.657v2.315c-0.523,0.262-1.083,0.456-1.678,0.584
			C57.465,56.904,56.738,56.968,55.882,56.968z M55.46,47.725c-0.635,0-1.132,0.201-1.491,0.604
			c-0.36,0.402-0.566,0.973-0.618,1.712h4.199c-0.013-0.739-0.206-1.31-0.579-1.712C56.599,47.926,56.095,47.725,55.46,47.725z"/>
		<path fill="#FFFFFF" d="M66.264,56.968c-1.289,0-2.302-0.5-3.037-1.501c-0.736-1.001-1.104-2.388-1.104-4.161
			c0-1.799,0.375-3.2,1.124-4.204c0.749-1.005,1.781-1.507,3.096-1.507c1.38,0,2.434,0.537,3.16,1.609H69.6
			c-0.15-0.817-0.226-1.547-0.226-2.188v-3.513h3.003v15.269H70.08l-0.578-1.423h-0.128C68.693,56.428,67.657,56.968,66.264,56.968z
			 M67.313,54.583c0.766,0,1.326-0.222,1.683-0.667c0.356-0.444,0.551-1.2,0.584-2.267v-0.324c0-1.177-0.182-2.021-0.545-2.531
			c-0.362-0.511-0.953-0.766-1.771-0.766c-0.668,0-1.187,0.283-1.556,0.849c-0.37,0.566-0.555,1.389-0.555,2.468
			c0,1.08,0.187,1.89,0.56,2.429C66.087,54.313,66.62,54.583,67.313,54.583z"/>
		<path fill="#FFFFFF" d="M83.16,53.514c0,1.125-0.391,1.982-1.173,2.571c-0.781,0.589-1.951,0.883-3.508,0.883
			c-0.798,0-1.479-0.054-2.041-0.162c-0.563-0.107-1.089-0.267-1.579-0.476v-2.473c0.556,0.262,1.182,0.48,1.879,0.657
			c0.696,0.177,1.31,0.265,1.84,0.265c1.086,0,1.629-0.313,1.629-0.941c0-0.236-0.072-0.427-0.216-0.574
			c-0.145-0.147-0.393-0.314-0.746-0.501s-0.824-0.403-1.413-0.652c-0.844-0.354-1.464-0.68-1.859-0.981
			c-0.396-0.301-0.684-0.646-0.863-1.035c-0.181-0.389-0.271-0.868-0.271-1.438c0-0.975,0.378-1.729,1.134-2.262
			s1.826-0.8,3.214-0.8c1.321,0,2.606,0.288,3.856,0.863l-0.903,2.159c-0.55-0.235-1.063-0.429-1.54-0.579s-0.966-0.226-1.463-0.226
			c-0.883,0-1.324,0.239-1.324,0.717c0,0.268,0.143,0.5,0.427,0.696s0.908,0.487,1.869,0.873c0.857,0.347,1.485,0.671,1.884,0.972
			c0.399,0.301,0.693,0.647,0.884,1.04C83.065,52.503,83.16,52.971,83.16,53.514z"/>
		<path fill="#FFFFFF" d="M100.687,51.267c0,1.786-0.472,3.183-1.413,4.19c-0.942,1.007-2.254,1.511-3.936,1.511
			c-1.053,0-1.981-0.23-2.786-0.691c-0.805-0.462-1.423-1.124-1.854-1.987c-0.433-0.863-0.648-1.871-0.648-3.022
			c0-1.792,0.468-3.186,1.403-4.18c0.936-0.995,2.251-1.492,3.945-1.492c1.053,0,1.981,0.229,2.786,0.688s1.423,1.115,1.854,1.972
			C100.47,49.111,100.687,50.115,100.687,51.267z M93.101,51.267c0,1.086,0.179,1.907,0.535,2.463
			c0.356,0.557,0.938,0.834,1.742,0.834c0.798,0,1.372-0.276,1.722-0.829s0.525-1.375,0.525-2.468c0-1.086-0.177-1.9-0.53-2.443
			s-0.933-0.814-1.737-0.814c-0.798,0-1.373,0.27-1.727,0.81S93.101,50.174,93.101,51.267z"/>
		<path fill="#FFFFFF" d="M109.223,48.048h-2.59v8.724h-2.994v-8.724h-1.648v-1.442l1.648-0.805v-0.805
			c0-1.249,0.308-2.162,0.923-2.737c0.614-0.575,1.599-0.863,2.953-0.863c1.033,0,1.953,0.153,2.758,0.461l-0.766,2.198
			c-0.603-0.19-1.158-0.285-1.668-0.285c-0.426,0-0.733,0.126-0.923,0.378s-0.284,0.574-0.284,0.967v0.687h2.59V48.048z"/>
		<path fill="#FFFFFF" d="M122.186,56.968c-1.289,0-2.299-0.468-3.032-1.403h-0.156c0.104,0.916,0.156,1.445,0.156,1.59V61.6h-2.992
			V45.801h2.434l0.422,1.423h0.137c0.7-1.086,1.737-1.629,3.111-1.629c1.295,0,2.309,0.501,3.041,1.502
			c0.733,1.001,1.1,2.391,1.1,4.17c0,1.171-0.172,2.188-0.516,3.052c-0.343,0.863-0.832,1.521-1.467,1.973
			C123.789,56.742,123.043,56.968,122.186,56.968z M121.303,47.989c-0.739,0-1.279,0.228-1.619,0.682
			c-0.34,0.455-0.517,1.206-0.53,2.252v0.324c0,1.178,0.175,2.021,0.525,2.531c0.35,0.511,0.904,0.766,1.663,0.766
			c1.341,0,2.012-1.105,2.012-3.316c0-1.079-0.165-1.889-0.495-2.429C122.528,48.259,122.009,47.989,121.303,47.989z"/>
		<path fill="#FFFFFF" d="M133.843,56.968c-1.767,0-3.146-0.487-4.141-1.462c-0.995-0.975-1.492-2.355-1.492-4.141
			c0-1.839,0.46-3.26,1.379-4.264c0.919-1.005,2.189-1.507,3.813-1.507c1.55,0,2.757,0.441,3.621,1.325
			c0.863,0.883,1.295,2.103,1.295,3.66v1.452h-7.075c0.033,0.851,0.285,1.515,0.756,1.992s1.132,0.716,1.982,0.716
			c0.66,0,1.285-0.068,1.874-0.206s1.203-0.356,1.845-0.657v2.315c-0.523,0.262-1.083,0.456-1.678,0.584
			C135.426,56.904,134.7,56.968,133.843,56.968z M133.421,47.725c-0.635,0-1.132,0.201-1.491,0.604
			c-0.36,0.402-0.566,0.973-0.618,1.712h4.199c-0.013-0.739-0.206-1.31-0.579-1.712C134.56,47.926,134.056,47.725,133.421,47.725z"
			/>
		<path fill="#FFFFFF" d="M150.721,51.267c0,1.786-0.472,3.183-1.413,4.19c-0.942,1.007-2.254,1.511-3.936,1.511
			c-1.053,0-1.981-0.23-2.786-0.691c-0.805-0.462-1.423-1.124-1.854-1.987c-0.433-0.863-0.648-1.871-0.648-3.022
			c0-1.792,0.468-3.186,1.403-4.18c0.936-0.995,2.251-1.492,3.945-1.492c1.053,0,1.981,0.229,2.786,0.688s1.423,1.115,1.854,1.972
			C150.504,49.111,150.721,50.115,150.721,51.267z M143.135,51.267c0,1.086,0.179,1.907,0.535,2.463
			c0.356,0.557,0.938,0.834,1.742,0.834c0.798,0,1.372-0.276,1.722-0.829s0.525-1.375,0.525-2.468c0-1.086-0.177-1.9-0.53-2.443
			s-0.933-0.814-1.737-0.814c-0.798,0-1.373,0.27-1.727,0.81S143.135,50.174,143.135,51.267z"/>
		<path fill="#FFFFFF" d="M159.218,56.968c-1.289,0-2.299-0.468-3.032-1.403h-0.156c0.104,0.916,0.156,1.445,0.156,1.59V61.6h-2.992
			V45.801h2.434l0.422,1.423h0.137c0.7-1.086,1.737-1.629,3.111-1.629c1.295,0,2.309,0.501,3.041,1.502
			c0.733,1.001,1.1,2.391,1.1,4.17c0,1.171-0.172,2.188-0.516,3.052c-0.343,0.863-0.832,1.521-1.467,1.973
			C160.821,56.742,160.076,56.968,159.218,56.968z M158.335,47.989c-0.739,0-1.279,0.228-1.619,0.682
			c-0.34,0.455-0.517,1.206-0.53,2.252v0.324c0,1.178,0.175,2.021,0.525,2.531c0.35,0.511,0.904,0.766,1.663,0.766
			c1.341,0,2.012-1.105,2.012-3.316c0-1.079-0.165-1.889-0.495-2.429C159.56,48.259,159.042,47.989,158.335,47.989z"/>
		<path fill="#FFFFFF" d="M168.903,56.771h-2.992V41.503h2.992V56.771z"/>
		<path fill="#FFFFFF" d="M177.008,56.968c-1.767,0-3.146-0.487-4.141-1.462c-0.995-0.975-1.492-2.355-1.492-4.141
			c0-1.839,0.46-3.26,1.379-4.264c0.919-1.005,2.189-1.507,3.813-1.507c1.55,0,2.757,0.441,3.621,1.325
			c0.863,0.883,1.295,2.103,1.295,3.66v1.452h-7.075c0.033,0.851,0.285,1.515,0.756,1.992s1.132,0.716,1.982,0.716
			c0.66,0,1.285-0.068,1.874-0.206s1.203-0.356,1.845-0.657v2.315c-0.523,0.262-1.083,0.456-1.678,0.584
			C178.591,56.904,177.865,56.968,177.008,56.968z M176.586,47.725c-0.635,0-1.132,0.201-1.491,0.604
			c-0.36,0.402-0.566,0.973-0.618,1.712h4.199c-0.013-0.739-0.206-1.31-0.579-1.712C177.725,47.926,177.221,47.725,176.586,47.725z"
			/>
		<path fill="#FFFFFF" d="M54.93,67.08c0-0.975,0.543-1.462,1.629-1.462s1.629,0.487,1.629,1.462c0,0.465-0.136,0.826-0.407,1.085
			c-0.271,0.258-0.679,0.388-1.222,0.388C55.473,68.553,54.93,68.062,54.93,67.08z M58.05,80.887h-2.992V69.916h2.992V80.887z"/>
		<path fill="#FFFFFF" d="M71.316,80.887h-2.992v-6.407c0-0.792-0.141-1.386-0.422-1.781c-0.282-0.396-0.729-0.594-1.345-0.594
			c-0.838,0-1.442,0.279-1.815,0.839s-0.56,1.486-0.56,2.782v5.161H61.19V69.916h2.286l0.402,1.403h0.167
			c0.333-0.529,0.793-0.931,1.378-1.202c0.586-0.271,1.252-0.407,1.997-0.407c1.275,0,2.244,0.346,2.904,1.035
			c0.661,0.69,0.991,1.687,0.991,2.988V80.887z"/>
		<path fill="#FFFFFF" d="M84.074,81.083c-3.415,0-5.123-1.874-5.123-5.623c0-1.864,0.465-3.288,1.394-4.273
			c0.929-0.984,2.261-1.477,3.994-1.477c1.269,0,2.407,0.249,3.415,0.746l-0.884,2.315c-0.471-0.189-0.909-0.345-1.314-0.466
			c-0.406-0.121-0.812-0.182-1.217-0.182c-1.558,0-2.336,1.105-2.336,3.316c0,2.146,0.778,3.219,2.336,3.219
			c0.575,0,1.108-0.077,1.6-0.23c0.49-0.153,0.98-0.395,1.472-0.722v2.562c-0.484,0.308-0.974,0.521-1.467,0.638
			C85.449,81.024,84.826,81.083,84.074,81.083z"/>
		<path fill="#FFFFFF" d="M99.922,75.382c0,1.786-0.472,3.183-1.413,4.19c-0.942,1.007-2.254,1.511-3.936,1.511
			c-1.053,0-1.981-0.23-2.786-0.691c-0.805-0.462-1.423-1.124-1.854-1.987c-0.433-0.863-0.648-1.871-0.648-3.022
			c0-1.792,0.468-3.186,1.403-4.18c0.936-0.995,2.251-1.492,3.945-1.492c1.053,0,1.981,0.229,2.786,0.688s1.423,1.115,1.854,1.972
			C99.705,73.227,99.922,74.23,99.922,75.382z M92.336,75.382c0,1.086,0.179,1.907,0.535,2.463c0.356,0.557,0.938,0.834,1.742,0.834
			c0.798,0,1.372-0.276,1.722-0.829s0.525-1.375,0.525-2.468c0-1.086-0.177-1.9-0.53-2.443s-0.933-0.814-1.737-0.814
			c-0.798,0-1.373,0.27-1.727,0.81S92.336,74.289,92.336,75.382z"/>
		<path fill="#FFFFFF" d="M112.521,80.887h-2.992v-6.407c0-0.792-0.141-1.386-0.422-1.781c-0.282-0.396-0.729-0.594-1.345-0.594
			c-0.838,0-1.442,0.279-1.815,0.839s-0.56,1.486-0.56,2.782v5.161h-2.993V69.916h2.287l0.402,1.403h0.167
			c0.333-0.529,0.793-0.931,1.378-1.202c0.586-0.271,1.252-0.407,1.997-0.407c1.275,0,2.244,0.346,2.904,1.035
			c0.661,0.69,0.991,1.687,0.991,2.988V80.887z"/>
		<path fill="#FFFFFF" d="M121.667,72.163h-2.59v8.724h-2.993v-8.724h-1.648v-1.442l1.648-0.805v-0.805
			c0-1.249,0.308-2.162,0.923-2.737c0.614-0.575,1.599-0.863,2.953-0.863c1.033,0,1.953,0.153,2.758,0.461l-0.766,2.198
			c-0.603-0.19-1.158-0.285-1.668-0.285c-0.426,0-0.733,0.126-0.923,0.378s-0.284,0.574-0.284,0.967v0.687h2.59V72.163z
			 M126.376,80.887h-2.992V65.618h2.992V80.887z"/>
		<path fill="#FFFFFF" d="M129.379,67.08c0-0.975,0.543-1.462,1.629-1.462s1.629,0.487,1.629,1.462c0,0.465-0.136,0.826-0.407,1.085
			c-0.271,0.258-0.679,0.388-1.222,0.388C129.922,68.553,129.379,68.062,129.379,67.08z M132.5,80.887h-2.992V69.916h2.992V80.887z"
			/>
		<path fill="#FFFFFF" d="M140.095,81.083c-3.415,0-5.123-1.874-5.123-5.623c0-1.864,0.465-3.288,1.394-4.273
			c0.929-0.984,2.261-1.477,3.994-1.477c1.269,0,2.407,0.249,3.415,0.746l-0.884,2.315c-0.471-0.189-0.909-0.345-1.314-0.466
			c-0.406-0.121-0.812-0.182-1.217-0.182c-1.558,0-2.336,1.105-2.336,3.316c0,2.146,0.778,3.219,2.336,3.219
			c0.575,0,1.108-0.077,1.6-0.23c0.49-0.153,0.98-0.395,1.472-0.722v2.562c-0.484,0.308-0.974,0.521-1.467,0.638
			C141.47,81.024,140.847,81.083,140.095,81.083z"/>
		<path fill="#FFFFFF" d="M150.594,78.698c0.523,0,1.151-0.114,1.885-0.343v2.228c-0.746,0.333-1.662,0.5-2.748,0.5
			c-1.197,0-2.068-0.303-2.615-0.907c-0.546-0.605-0.819-1.513-0.819-2.724v-5.289h-1.433v-1.266l1.648-1.001l0.864-2.315h1.913
			v2.335h3.071v2.247h-3.071v5.289c0,0.426,0.119,0.739,0.358,0.942C149.886,78.598,150.202,78.698,150.594,78.698z"/>
	</g>
</g>
<g>
</g>
<g>
</g>
<g>
</g>
<g>
</g>
<g>
</g>
<g>
</g>
</svg>
