<?xml version="1.0" encoding="utf-8"?>
<!-- Generator: Adobe Illustrator 16.0.0, SVG Export Plug-In . SVG Version: 6.00 Build 0)  -->
<!DOCTYPE svg PUBLIC "-//W3C//DTD SVG 1.1//EN" "http://www.w3.org/Graphics/SVG/1.1/DTD/svg11.dtd">
<svg version="1.1" id="Layer_1" xmlns="http://www.w3.org/2000/svg" xmlns:xlink="http://www.w3.org/1999/xlink" x="0px" y="0px"
	 width="231.351px" height="190.347px" viewBox="0 0 231.351 190.347" enable-background="new 0 0 231.351 190.347"
	 xml:space="preserve">
<g>
	<g>
		<path fill="#FFFFFF" d="M52.766,39.002c0-4.895,3.979-8.85,8.851-8.85l0,0c4.896,0.016,8.829,3.962,8.839,8.85l0,0
			c-0.008,4.882-3.948,8.821-8.839,8.835l0,0v-0.562v-0.56c4.276,0,7.723-3.447,7.723-7.715l0,0c0-4.278-3.453-7.727-7.723-7.727
			l0,0c-4.266,0.003-7.728,3.449-7.733,7.727l0,0c0.007,4.268,3.467,7.705,7.733,7.715l0,0v0.56v0.562
			C56.744,47.837,52.766,43.894,52.766,39.002L52.766,39.002z"/>
		<path fill="#FFFFFF" d="M45.735,39.002c0-8.762,7.102-15.893,15.88-15.893l0,0c8.759,0,15.877,7.126,15.877,15.893l0,0
			c0,8.749-7.118,15.868-15.877,15.872l0,0v-0.55v-0.565c8.131-0.013,14.75-6.63,14.766-14.756l0,0
			c-0.014-8.146-6.635-14.76-14.766-14.776l0,0c-8.152,0.016-14.741,6.629-14.76,14.776l0,0c0.018,8.126,6.607,14.743,14.76,14.756
			l0,0v0.565v0.55C52.837,54.874,45.735,47.751,45.735,39.002L45.735,39.002z"/>
		<path fill="#FFFFFF" d="M38.066,39.002c0-13.008,10.551-23.536,23.549-23.536l0,0c12.991,0,23.527,10.528,23.532,23.536l0,0
			c-0.005,12.986-10.541,23.523-23.532,23.523l0,0v-0.562v-0.559c12.374-0.021,22.395-10.029,22.416-22.403l0,0
			c-0.021-12.39-10.042-22.397-22.416-22.429l0,0c-12.377,0.031-22.407,10.039-22.429,22.429l0,0
			c0.022,12.374,10.052,22.382,22.429,22.403l0,0v0.559v0.562C48.617,62.525,38.066,51.998,38.066,39.002L38.066,39.002z"/>
		<path fill="#FFFFFF" d="M30.745,39.002c0-17.073,13.813-30.883,30.867-30.883l0,0c17.062,0,30.893,13.807,30.893,30.883l0,0
			c0,17.05-13.831,30.871-30.893,30.871l0,0v-0.56v-0.56c16.443-0.032,29.746-13.325,29.773-29.753l0,0
			C91.357,22.548,78.055,9.259,61.612,9.235l0,0c-16.441,0.024-29.72,13.313-29.751,29.766l0,0
			c0.031,16.428,13.31,29.721,29.751,29.753l0,0v0.56v0.56C44.558,69.873,30.745,56.052,30.745,39.002L30.745,39.002z"/>
		<path fill="#FFFFFF" d="M22.64,39.002C22.64,17.473,40.088,0.005,61.612,0l0,0c21.523,0.002,38.978,17.473,38.978,39.002l0,0
			c0,21.524-17.454,38.97-38.978,38.97l0,0v-0.563v-0.554c20.906-0.034,37.826-16.938,37.863-37.853l0,0
			C99.439,18.089,82.52,1.156,61.612,1.117l0,0C40.708,1.156,23.791,18.089,23.75,39.002l0,0
			c0.041,20.911,16.958,37.814,37.862,37.853l0,0v0.554v0.563C40.089,77.975,22.64,60.526,22.64,39.002L22.64,39.002z"/>
		<g>
			<g>
				<polygon fill="#FFFFFF" points="61.042,30.721 61.042,0.564 62.166,0.564 62.166,30.721 				"/>
			</g>
		</g>
		<g>
			<g>
				<polygon fill="#FFFFFF" points="34.069,12.22 34.86,11.436 56.158,32.743 55.36,33.535 				"/>
			</g>
		</g>
		<g>
			<g>
				<polygon fill="#FFFFFF" points="23.189,39.555 23.189,38.448 53.322,38.448 53.322,39.555 				"/>
			</g>
		</g>
		<g>
			<g>
				<polygon fill="#FFFFFF" points="34.069,65.745 55.36,44.481 56.158,45.27 34.86,66.54 				"/>
			</g>
		</g>
		<g>
			<g>
				<polygon fill="#FFFFFF" points="61.042,77.408 61.042,47.276 62.166,47.276 62.166,77.408 				"/>
			</g>
		</g>
		<g>
			<g>
				<polygon fill="#FFFFFF" points="67.075,45.27 67.867,44.481 89.167,65.745 88.375,66.54 				"/>
			</g>
		</g>
		<g>
			<g>
				<polygon fill="#FFFFFF" points="69.895,39.559 69.895,38.448 100.035,38.448 100.035,39.559 				"/>
			</g>
		</g>
		<g>
			<g>
				<polygon fill="#FFFFFF" points="67.075,32.743 88.375,11.436 89.167,12.22 67.867,33.535 				"/>
			</g>
		</g>
	</g>
	<g>
		<path fill="#FFFFFF" d="M55.693,41.498c0.339-0.041,0.281,0.255,0.396,0.443c0,0.009,0.09,0.009,0.139,0
			c0.512-0.551,0.832-1.2,0.958-1.96c0-0.059,0.143-0.123,0.143-0.15c-0.076-0.341-0.445-0.457-0.609-0.747
			c-0.192,0.509-0.708,0.094-1.096,0.341c-0.004,0.011-0.034,0.147,0.068,0.188c0.138,0.067,0.338,0.005,0.382,0.11
			c0.094,0.135,0.094,0.37-0.044,0.539c-0.018,0.038-0.129,0.03-0.129,0c-0.201-0.392-0.521-0.34-0.88-0.34
			c0.151,0.129-0.116,0.093-0.053,0.17c-0.498-0.135-0.979,0.105-1.46,0.149c-0.145,0.017-0.337-0.098-0.464-0.227
			c-0.174,0.183-0.379,0.541-0.65,0.44c-0.09-0.04-0.248-0.258-0.146-0.31c0.274-0.165,0.52-0.355,0.651-0.622
			c0.107-0.219,0-0.477,0.118-0.693c0.141-0.284,0.368-0.551,0.636-0.529c0.301,0,0.857,0.268,1.109-0.062
			c0.093-0.086,0.281,0.181,0.391,0.307c0.04,0.038-0.021,0.105-0.067,0.16c-0.183,0.182-0.467,0.199-0.579,0.471
			c-0.084,0.187,0.022,0.347,0.163,0.399c0.233,0.105,0.306-0.211,0.414-0.372c0.13-0.155,0.266-0.027,0.391,0
			c0-0.049-0.013-0.12,0-0.12c0.271-0.081,0.578-0.035,0.86-0.035c0.334,0,0.157-0.681,0.125-1.086c0-0.087-0.009-0.204,0-0.304
			c0-0.047,0-0.104,0.031-0.155c0.098-0.222,0.528-0.284,0.594-0.048c0.009,0.087,0.028,0.156,0.05,0.228
			c0.021,0.119,0.081,0.189,0.231,0.119c0.035-0.022,0.081-0.058,0.089-0.119c0.055-0.13,0.031-0.34,0.114-0.412
			c0.13-0.134,0.311,0.204,0.519,0.232c0.209,0.049,0.441,0.049,0.615-0.069c0.146-0.09,0.146-0.265,0.021-0.438
			c-0.048-0.077-0.167-0.094-0.194-0.056c-0.191,0.201-0.441,0.15-0.65,0.15c-0.193,0-0.288-0.238-0.453-0.355
			c-0.183-0.129-0.409,0.133-0.623,0.045c-0.199-0.096-0.3-0.292-0.186-0.478c0.047-0.089,0.186-0.177,0.302-0.244
			c0.248-0.126,0.534-0.126,0.671-0.338c0.106-0.191,0.172-0.428,0.187-0.647c0.013-0.119,0.132-0.119,0.199-0.134
			c0.291-0.101,0.618-0.032,0.872-0.154c0.289-0.112,0.512-0.359,0.794-0.554c0.14-0.075,0.271-0.16,0.434-0.195
			c0.08-0.025,0.125-0.16,0.14-0.22c0.059-0.485-0.074-0.936,0-1.445c0.037-0.134,0.242-0.217,0.14-0.366
			c-0.031-0.052-0.233,0.035-0.282-0.03c-0.111-0.091-0.209-0.284-0.045-0.387c0.125-0.11,0.396-0.012,0.489-0.186
			c0.164-0.231,0.083-0.667-0.181-0.752c-0.263-0.132-0.555,0.112-0.857,0.051c0.034,0.115-0.125,0.154-0.169,0.154
			c-0.375,0.125-0.405-0.339-0.34-0.592c0-0.052,0.036-0.085,0.076-0.067c0.091,0.016,0.109-0.11,0.125-0.218
			c-0.083,0-0.191-0.006-0.266,0c-0.33,0.164-0.477,0.515-0.805,0.684c-0.039,0.035-0.039,0.101-0.015,0.152
			c0.015,0.04,0.063,0.104,0.112,0.08c0,0.209,0.069,0.555-0.289,0.472c-0.032-0.015-0.032-0.088-0.058-0.097
			c-0.09-0.068-0.292-0.117-0.343,0c-0.056,0.236,0.425,0.341,0.309,0.578c-0.187,0.328-0.642,0.39-1.014,0.568
			c-0.782,0.307-1.592-0.044-2.422,0.135c-0.437,0.085-0.882,0.027-1.34-0.097c-0.325-0.064-0.388,0.222-0.557,0.439
			c-0.012-0.042-0.035-0.083-0.092-0.067c-0.022-0.169,0.08-0.297,0.041-0.47c-0.02-0.135-0.231-0.118-0.281-0.229
			c-0.544-1.022-1.859-0.894-2.859-0.726c-0.187,0.019-0.257,0.21-0.378,0.326c-0.205,0.182-0.484-0.027-0.706,0.121
			c-0.098,0.061-0.136,0.206-0.221,0.222c-0.304,0.085-0.623-0.222-0.884-0.063c-0.172,0.149-0.385,0.17-0.565,0.257
			c-0.063,0.047-0.063,0.186-0.084,0.306c0,0.088-0.152,0.066-0.201,0.066c-0.281,0.088-0.695-0.058-0.747,0.342
			c0.008,0,0.079,0,0.101,0c0.111,0.321-0.049,0.681-0.353,0.805c-0.346,0.119-0.729,0.093-1.069,0.231
			c-0.166,0.057-0.387,0.217-0.448,0.368c-0.544,0.958-1.061,1.949-1.096,3.051c0,0.038,0,0.071,0,0.119
			c0,0.074,0.115,0.137,0.115,0.165c-0.528,1.138-0.886,1.716-1.503,2.806c-0.252,0.442-0.555,1.517-0.104,1.882
			c0.229,0.186-0.124,0.636-0.453,0.656c-0.417,0.018-0.979-0.084-1.13-0.541c-0.075-0.195-0.423-0.231-0.689-0.266
			c0,0,0.018,0,0.035,0l-0.199-0.024c-0.312,0-0.646-0.067-0.907,0.024c-0.476,0.122-0.513,0.68-0.724,1.057
			c-0.145,0.34-0.692,0.256-0.854,0.574c-0.079,0.137,0.078,0.371-0.044,0.569c-0.085,0.132-0.268,0.132-0.315,0.282
			c-0.032,0.087-0.053,0.205-0.107,0.284c-0.121,0.44-0.205,0.842-0.103,1.277c0.008,0.126,0.008,0.254,0.042,0.338
			c0.113,0.458-0.034,0.854-0.233,1.228c-0.299,0.431-0.822,0.431-1.304,0.58c-0.201,0.088-0.445-0.119-0.69-0.066
			c-0.547,0.102-1.081-0.13-1.6,0.047c-0.032,0.019-0.134,0.086-0.177,0.126c-0.268,0.105-0.362-0.192-0.512-0.321
			c-0.161-0.16-0.179-0.439-0.344-0.522c-0.313-0.153-0.747,0.021-0.968,0.337c0.146-0.017-0.003,0.17,0.111,0.17
			c-0.346,0.016-0.611,0.318-0.876,0.442c-0.352,0.193-0.43-0.427-0.462-0.795c-0.036-0.186-0.333-0.307-0.601-0.17
			c-0.043,0.056-0.102,0.099-0.102,0.196c-0.08,0-0.146-0.1-0.222-0.026c-0.235,0.26,0.183,0.228,0.308,0.385
			c0.08,0.073-0.021,0.171-0.11,0.23c-0.121,0.101-0.303-0.101-0.32,0c-0.059,0.177-0.166,0.274-0.307,0.22
			c0,0.055-0.023,0.067,0,0.103c0,0.048,0.038,0.086,0.087,0.048c-0.134,0.054-0.266,0.138-0.365,0.064
			c-0.125-0.064-0.085-0.268-0.125-0.435c-0.025-0.034-0.164,0-0.164,0.054c-0.046,0.269,0.026,0.351-0.265,0.37
			c0.033,0.099-0.075,0.266,0.069,0.294c0.149,0.073,0.334-0.095,0.468,0c0.213,0.216,0.185,0.554,0.247,0.861
			c0,0.02-0.063,0.04-0.094,0.04c0.059,0.159,0.094,0.563-0.136,0.389c-0.281-0.162,0.042-0.567-0.12-0.82
			c-0.03-0.048-0.198-0.016-0.333-0.016c0.164,0.407-0.192,0.836,0.164,1.231c0.139,0.176-0.423,0.416-0.217,0.628
			c0.119,0.122,0.327,0.241,0.506,0.276c0.099,0.01,0-0.205,0.031-0.276c0.031-0.093,0.323-0.192,0.385-0.063
			c0.032,0.091,0.076,0.202,0.076,0.34c-0.137-0.035-0.279,0.032-0.394,0.085c0.115,0.263-0.055,0.443-0.099,0.697
			c0,0.054,0.084,0.154,0.099,0.225c0.069,0.199,0.401,0.016,0.503,0.18c0.075,0.135-0.152,0.285-0.078,0.469
			c0.06,0.117,0.255,0.048,0.34,0.149c0.125,0.077,0.08,0.239,0.065,0.389c0.125-0.016,0.321,0.119,0.268,0.284
			c0.148,0.057,0.179-0.112,0.164-0.213c0.329,0.014,0.196-0.306,0.232-0.559c-0.112,0.058-0.104-0.177-0.232-0.083
			c-0.063-0.179,0.015-0.375-0.063-0.535c-0.089-0.182-0.355-0.222-0.394-0.468c0.227,0.051,0.394-0.03,0.535-0.272
			c0.08-0.12,0.281,0.054,0.361,0.219c0.042,0.039,0.013,0.088,0.013,0.155c0.206-0.067,0.206,0.141,0.281,0.237
			c0.169,0.115,0.223,0.32,0.412,0.397c0.292,0.087,0.575,0.087,0.868,0.032c-0.026-0.132,0-0.271,0.077-0.314
			c0.128-0.115,0.195,0.135,0.355,0.144c-0.07,0.286,0.077,0.522,0.308,0.665c0.06,0.013,0.154-0.021,0.209,0.013
			c0.093,0.067,0.132,0.218,0.268,0.262c0.093,0.023,0.191-0.044,0.272-0.031c0.146,0.031,0.146,0.152,0.172,0.307
			c0.018,0.015,0.094,0.062,0.094,0.118c0.272-0.057,0.573,0.015,0.649,0.252c0.138,0.346,0.382,0.616,0.539,0.928
			c0.062,0.163,0.336,0.215,0.375,0.359c0.016,0.118,0.096,0.195,0.141,0.221c0.177,0.205,0.445,0.267,0.707,0.334
			c0.094,0.033,0.244-0.147,0.41-0.221c0.084-0.03,0.181,0.054,0.195,0.073c0.25,0.406,0.312,0.955,0.713,1.188
			c0.203,0.12,0.261,0.362,0.475,0.422c0.13,0.032,0.286-0.103,0.414,0c0.083,0.063,0.111,0.238,0.177,0.25
			c0.292,0.136,0.524,0.315,0.586,0.636c0.009,0.048,0.041,0.149,0.122,0.17c0.266,0.031,0.487-0.157,0.63-0.021
			c0.196,0.185,0.448,0.268,0.622,0.449c0.053,0.071,0.2,0.126,0.249,0.071c0.071-0.091,0.036-0.253,0.092-0.336
			c0.078-0.148,0.272-0.102,0.415-0.148c0.178-0.07,0.196-0.404,0.387-0.417c0.329-0.055,0.459,0.347,0.719,0.504
			c0.017,0.032,0.119,0.063,0.155,0.096c0.29,0.157,0.16,0.678,0.502,0.713c0.406,0,0.616,0.36,0.979,0.428
			c0.271,0.085,0.486,0.15,0.731,0.304c0.081,0.052,0.218,0.052,0.312,0.018c0.155-0.058,0.295-0.13,0.417-0.217
			c0.346-0.218,0.795-0.238,1.146-0.469c0.075-0.053,0.151-0.15,0.248-0.187c0.583-0.255,1.231,0.221,1.837-0.099
			c0.145-0.07,0.35-0.07,0.528-0.189c0.365-0.252,0.472-0.77,0.357-1.168c-0.257-0.638-0.479-1.298-0.92-1.85
			c-0.216-0.272-0.504-0.421-0.758-0.695c-0.047-0.078-0.252-0.056-0.374-0.107c-0.238-0.106-0.2-0.387-0.152-0.626
			c0-0.082-0.26-0.082-0.304-0.167c-0.086-0.15,0-0.329,0.021-0.482c0.015-0.068-0.091-0.134-0.105-0.134
			c-0.343-0.066-0.654-0.222-1.002-0.168c-0.112,0.014-0.215-0.107-0.316-0.171c-0.062-0.05,0.018-0.168,0.066-0.186
			c0.2-0.171,0.437-0.289,0.687-0.382c-0.09-0.123-0.101-0.309-0.024-0.351c0.135-0.135,0.098-0.375,0.054-0.505
			c0-0.052-0.054-0.163-0.187-0.163c0.026-0.325,0.213-0.575,0.026-0.857c-0.204-0.269-0.485-0.427-0.558-0.773
			c0-0.034-0.168-0.118-0.168-0.173c0-0.392,0.12-0.82,0.041-1.217c-0.059-0.169-0.25-0.371-0.104-0.472
			c0.063-0.047,0.211-0.154,0.339-0.185c0.275-0.104,0.369-0.291,0.23-0.479c-0.138-0.192-0.417,0-0.621-0.067
			c-0.095-0.025-0.106-0.093-0.115-0.182c-0.051-0.16,0.115-0.414-0.039-0.501c-0.124-0.045-0.239-0.172-0.296-0.256
			c-0.13-0.199-0.021-0.427,0.128-0.627c-0.087,0.008-0.05-0.155-0.15-0.102c-0.033-0.209,0.124-0.446,0.035-0.627
			c-0.068-0.188-0.223-0.42-0.454-0.318c-0.023,0,0,0.068-0.023,0.068c-0.123,0.119-0.269,0.152-0.404,0.034
			c-0.027-0.034-0.027-0.152,0-0.24c0.094-0.117,0.28-0.067,0.381-0.15c0.187-0.191,0.021-0.448-0.067-0.552
			c-0.284-0.248-0.405-0.472-0.341-0.821c-0.326-0.046-0.823-0.085-0.799-0.543c0.022-0.401-0.072-0.769-0.17-1.178
			c-0.078-0.285-0.062-0.582,0.12-0.787c0.05-0.063,0.106-0.18,0.197-0.188c0.417-0.059,0.933,0.032,1.169-0.364
			c0.15-0.284-0.174-0.727,0.078-0.911c0.428-0.323,1.066-0.108,1.586-0.405c0.162-0.12,0.136-0.342,0.089-0.521
			c-0.069-0.198-0.195-0.409-0.309-0.596c-0.176-0.261-0.596-0.135-0.716-0.414c-0.058-0.151-0.058-0.305,0-0.439
			c0.095-0.204,0.272-0.391,0.484-0.492c0.471-0.181,0.917-0.043,1.316,0.184c0.13,0.073,0.253,0.215,0.342,0.36
			c0.025,0.047,0.044,0.119,0.071,0.176c0.124,0.535,0.307,1.103,0.124,1.588c-0.083,0.164-0.285,0.267-0.231,0.519
			c0.133-0.108,0.182,0.067,0.182,0.107c0.097,0.365,0.31,0.869,0,1.095c-0.391,0.239-0.358-0.079-0.765,0
			c-0.201,0.021-0.353-0.033-0.33,0.146c0.014,0.106,0.168,0.346,0.268,0.377c0.94,0.24,1.434,0.317,2.424,0.476
			c0.208,0.05,0.367,0.299,0.617,0.333c0.183,0.025,0.387,0.126,0.592-0.118c0.062-0.086,0.253,0,0.274,0.055
			c0.052,0.189,0.165,0.189,0.289,0.257c0.302,0.146,0.204,0.917,0.603,0.667c0.215-0.141,0.401,0.015,0.642-0.036
			c-0.241,0.329-0.117,0.653,0.117,0.889c0.188,0.232,0.458,0.34,0.685,0.552c0.177,0.205,0.461,0.15,0.488-0.134
			c0.044-0.304-0.281-0.653,0.107-0.916c0.374,0.529-0.107,1.188,0.286,1.673c0.026,0.047,0.047,0.07,0.068,0.114
			c0.179,0.222,0.327,0.455,0.561,0.427c0.173-0.058,0.246-0.222,0.331-0.407c0.003-0.066,0.031-0.134,0.047-0.15
			c0.028-0.171,0.099-0.289,0.147-0.436c0.085-0.234,0.378-0.421,0.33-0.692c0-0.085-0.021-0.196-0.021-0.267
			c0.021-0.369,0.425-0.606,0.776-0.544c0.104,0.023,0.028-0.063,0.123-0.136c0.149-0.113,0.114-0.462,0.252-0.636
			c0.116-0.15,0.25-0.296,0.328-0.447c0.059-0.098,0.17-0.209,0.126-0.343C55.56,41.699,55.56,41.514,55.693,41.498z"/>
		<path fill="#FFFFFF" d="M44.563,40.855c-0.147-0.103-0.268-0.025-0.365,0.076c-0.1,0.1-0.116,0.232-0.05,0.31
			c0.071,0.124,0.147,0.272,0.161,0.397c0,0.267-0.067,0.523-0.023,0.809c0.063,0.215,0.312,0.591,0.45,0.341
			c0.154-0.275,0.396-0.688,0.209-1.021C44.793,41.457,44.889,41.05,44.563,40.855z"/>
		<path fill="#FFFFFF" d="M44.042,43.182c0.04,0.1,0.085,0.167,0.124,0.268c0.076,0.217,0.431,0.114,0.559-0.034
			c0.019-0.086,0-0.233-0.095-0.313c-0.099-0.112-0.258-0.095-0.343-0.152c-0.065-0.016-0.138-0.093-0.188-0.07
			C44.019,42.95,44.019,43.078,44.042,43.182z"/>
		<path fill="#FFFFFF" d="M44.668,44.222c0-0.405-0.359-0.53-0.627-0.285c-0.341,0.285,0.057,0.8,0.315,1.168
			c0.04,0.091,0.088,0.21,0.143,0.309c0.124,0.132,0.365,0.083,0.443-0.067c0.063-0.138,0.112-0.188,0.188-0.323
			C45.232,44.738,45.068,44.222,44.668,44.222z"/>
		<path fill="#FFFFFF" d="M43.873,42.102c0-0.063-0.103-0.063-0.124-0.053c-0.163,0.053-0.206,0.182-0.232,0.33
			c-0.045,0.212,0.026,0.414,0.173,0.571c0.069,0.09,0.185-0.016,0.231-0.157C44.019,42.574,43.889,42.338,43.873,42.102z"/>
		<path fill="#FFFFFF" d="M44.98,43.718c0.057-0.051,0.178-0.152,0.151-0.287c0.101,0.019,0.211,0,0.284-0.119
			c0.069-0.053-0.07-0.13-0.035-0.209c-0.222-0.063-0.374,0.156-0.546,0.313C44.677,43.565,44.889,43.783,44.98,43.718z"/>
		<path fill="#FFFFFF" d="M44.704,46.084c-0.035,0.204,0,0.341,0.136,0.382c0.068,0.02,0.195,0.048,0.195-0.041
			c0.019-0.126,0.097-0.246,0.019-0.357c-0.019-0.017-0.076,0-0.09,0C44.84,46,44.793,46.179,44.704,46.084z"/>
		<path fill="#FFFFFF" d="M45.398,48.045c0.063-0.155,0.199-0.315-0.055-0.474c-0.048-0.016-0.172-0.016-0.249-0.016
			C45.094,47.793,45.232,47.979,45.398,48.045z"/>
		<path fill="#FFFFFF" d="M28.521,54.656c-0.051,0.029-0.065,0.281,0,0.348c0.076,0.083,0.281,0.052,0.399,0.052
			C28.832,54.854,28.846,54.486,28.521,54.656z"/>
		<path fill="#FFFFFF" d="M30.264,56.419c-0.152,0.271,0.177,0.563,0.573,0.599c0-0.135,0.047-0.297-0.022-0.401
			C30.678,56.432,30.336,56.265,30.264,56.419z"/>
		<path fill="#FFFFFF" d="M31.042,57.472c-0.043,0.484,0.147,0.81,0.635,0.874C31.735,57.833,31.54,57.538,31.042,57.472z"/>
		<path fill="#FFFFFF" d="M57.801,43.871c0.44-0.142,0.988-0.265,1.503-0.265c1.164-0.023,1.099-1.505,1.693-2.442
			c0.13-0.232-0.071-0.748-0.237-0.993c-0.392-0.637-1.63,0.088-1.913-0.582c-0.162-0.377,0.833,0.241,0.927-0.354
			c0.018-0.152-0.076-0.348-0.195-0.407c-0.161-0.093-0.474-0.11-0.597,0c-0.627,0.524-0.741,1.431-1.062,2.027
			c-0.665,1.152-1.862,1.984-2.498,3.27c-0.103,0.188,0.047,0.345,0.206,0.416C56.499,44.836,57.094,44.021,57.801,43.871z"/>
		<path fill="#FFFFFF" d="M62.572,41.014c-0.164,0.057-0.348,0.104-0.431,0.218c-0.071,0.167-0.1,0.444,0,0.6
			c0.051,0.074,0.316,0.09,0.385,0c0.127-0.132-0.044-0.299-0.185-0.377C62.482,41.329,62.625,41.231,62.572,41.014z"/>
		<path fill="#FFFFFF" d="M59.051,45.023c0.368,0.441,1.317,0.293,1.213-0.13c-0.112-0.368-0.738-0.577-1.165-0.452
			C58.828,44.525,59.58,44.836,59.051,45.023z"/>
		<path fill="#FFFFFF" d="M60.287,48.482c0.377-0.167,0.182-0.536,0.234-0.857c-0.393,0.168-0.602,0.448-0.664,0.857
			C60.005,48.482,60.154,48.534,60.287,48.482z"/>
		<path fill="#FFFFFF" d="M65.119,41.452c0.039-0.025,0.076-0.288,0-0.382c-0.081-0.057-0.256,0-0.396-0.035
			c-0.174-0.071-0.235-0.221-0.268-0.41c0-0.236-0.223-0.403-0.159-0.666c-0.295,0.135-0.276,0.457-0.186,0.598
			C64.373,40.955,64.549,41.577,65.119,41.452z"/>
		<path fill="#FFFFFF" d="M58.733,38.152c-0.177-0.093-0.31,0.022-0.177,0.182c0.067,0.087,0.271,0.033,0.391,0.035
			C58.886,38.3,58.85,38.194,58.733,38.152z"/>
		<path fill="#FFFFFF" d="M27.467,48.315c0.063-0.102-0.07-0.176-0.152-0.271c-0.116-0.099-0.253,0.028-0.341-0.099
			c0,0.099-0.029,0.227,0.041,0.305C27.095,48.38,27.315,48.482,27.467,48.315z"/>
		<path fill="#FFFFFF" d="M29.295,48.325c0.184-0.093,0.436-0.164,0.312-0.445c0-0.016-0.045,0-0.086,0
			c-0.292-0.171-0.675-0.105-0.61,0.245C28.921,48.28,29.114,48.446,29.295,48.325z"/>
		<path fill="#FFFFFF" d="M59.492,29.703c0.07-0.179,0.365-0.214,0.324-0.406c-0.022-0.085-0.209-0.085-0.29-0.085
			c-0.134,0.01-0.106,0.198-0.106,0.36c-0.053-0.012-0.097,0-0.097,0.046C59.322,29.703,59.463,29.736,59.492,29.703z"/>
		<path fill="#FFFFFF" d="M60.425,29.343c0.044-0.046,0.208-0.173,0.074-0.285c-0.11-0.102-0.293-0.102-0.345-0.053
			C60.024,29.147,60.228,29.477,60.425,29.343z"/>
		<path fill="#FFFFFF" d="M57.57,36.385c-0.116,0.301,0.438,0.679,0.712,0.501c0.218-0.133,0.117-0.521-0.094-0.632
			C57.987,36.149,57.643,36.197,57.57,36.385z"/>
		<path fill="#FFFFFF" d="M58.211,38.421c0.121-0.108,0-0.267-0.097-0.33c-0.105-0.093-0.313-0.043-0.471,0
			c-0.041,0.021-0.09-0.031-0.147-0.043c-0.041,0.13,0.083,0.191,0.147,0.191C57.863,38.239,58.05,38.545,58.211,38.421z"/>
		<path fill="#FFFFFF" d="M57.375,38.99c-0.151,0.094-0.12,0.381,0.034,0.498c0.169,0.084,0.391,0.049,0.479-0.158
			c0.063-0.175,0.175-0.424,0-0.549C57.68,38.633,57.579,38.87,57.375,38.99z"/>
		<path fill="#FFFFFF" d="M56.836,38.239c0.017,0.28-0.133,0.547-0.067,0.809c0.044,0.156,0.257,0.107,0.289,0
			c0.086-0.245,0-0.463,0.195-0.627c-0.068-0.021-0.152-0.119-0.152,0.065c0.018-0.065,0.075-0.117,0.042-0.174
			C57.059,38.215,56.956,38.239,56.836,38.239z"/>
		<path fill="#FFFFFF" d="M60.403,53.044c0.013,0.004,0.021,0,0.034,0.004c0.009,0,0.023,0,0.033-0.004
			C60.436,53.044,60.425,53.044,60.403,53.044z"/>
		<path fill="#FFFFFF" d="M77.217,56.95c0.021-0.014,0.004-0.048,0-0.067c-0.006,0.051-0.062,0.084-0.109,0.067
			C77.154,56.95,77.211,56.967,77.217,56.95z"/>
		<path fill="#FFFFFF" d="M61.784,46.801c-0.1,0.033-0.083-0.095-0.1-0.115c-0.093-0.099-0.191-0.099-0.226-0.237
			c-0.099-0.195-0.264,0.138-0.46,0.119c-0.021,0-0.071,0.067-0.043,0.139c0.173,0.226-0.028,0.318-0.168,0.484
			c-0.091,0.181,0.177,0.195,0.235,0.381c0.088,0.215-0.145,0.396-0.094,0.627c-0.057,0.06-0.141,0.166-0.263,0.352
			c-0.032,0.027-0.134,0.216-0.085,0.301c0.174,0.203,0.484-0.205,0.67-0.236c0.17,0,0.197,0,0.341-0.104
			c0.193-0.115,0.381-0.188,0.451-0.404c0.028-0.079-0.311-0.115-0.414-0.129c0.154-0.388-0.063-0.504,0.01-0.925
			C61.638,47.04,61.837,46.801,61.784,46.801z"/>
		<path fill="#FFFFFF" d="M63.383,51.855c0,0.018,0.102,0.028,0.13,0c0.167-0.124,0.183-0.342,0.097-0.475
			c-0.061-0.112-0.302-0.112-0.322,0.056C63.243,51.585,63.31,51.731,63.383,51.855z"/>
		<path fill="#FFFFFF" d="M63.62,51.083c0.16-0.034,0.06-0.201-0.018-0.304c-0.05-0.052-0.18-0.079-0.198-0.036
			C63.287,50.931,63.402,51.168,63.62,51.083z"/>
		<path fill="#FFFFFF" d="M65.195,51.884c-0.036-0.01-0.076-0.064-0.049-0.086c-0.136,0-0.281-0.092-0.445-0.047
			c-0.044,0-0.162-0.031-0.244-0.031c-0.021,0.134-0.067,0.317,0.094,0.365C64.781,52.104,65.017,52.104,65.195,51.884z"/>
		<path fill="#FFFFFF" d="M67.928,51.632c0.056,0,0.014-0.251-0.035-0.267c-0.235-0.047-0.437,0.2-0.685,0.117
			c0,0.103-0.024,0.169-0.075,0.228c-0.023,0.021-0.103,0.014-0.162,0.014C67.231,52.04,67.646,51.731,67.928,51.632z"/>
		<path fill="#FFFFFF" d="M68.956,50.7c0.103,0.413,0.564,0.217,0.614-0.07c0-0.202-0.279-0.202-0.37-0.049
			c0.023-0.035,0.041-0.09,0.072-0.137C69.152,50.546,68.92,50.546,68.956,50.7z"/>
		<path fill="#FFFFFF" d="M81.612,42.255c-0.092,0.221,0.309,0.266,0.506,0.336c0.24,0.071,0.634,0.036,0.699-0.186
			c0.11-0.396-0.328-0.802-0.75-0.755C81.706,41.684,81.732,41.992,81.612,42.255z"/>
		<path fill="#FFFFFF" d="M81.683,55.775c-0.135-0.044-0.385-0.044-0.385,0c-0.304,1.309-1.512,3.115-0.068,3.994
			c0.635,0.401,1.422-0.394,1.52-0.806C82.99,57.977,82.88,56.364,81.683,55.775z"/>
		<path fill="#FFFFFF" d="M77.683,49.986c-0.203,0.113-0.242,0.595,0.073,0.595c0.13,0,0.271-0.103,0.379-0.187
			c0.116-0.135,0.1-0.316-0.036-0.357C77.958,49.986,77.797,49.913,77.683,49.986z"/>
		<path fill="#FFFFFF" d="M78.64,63.441c-0.125,0.219-0.092,0.488,0.12,0.636c-0.003-0.195,0.36-0.438,0.092-0.636
			C78.754,63.339,78.684,63.401,78.64,63.441z"/>
		<path fill="#FFFFFF" d="M84.707,32.417c-0.181-0.025-0.244,0.032-0.307,0.136c-0.044,0.17,0.022,0.376-0.044,0.564
			c-0.427,1.186-1.796,2.262-1.151,3.595c0,0.024,0.097,0.024,0.115,0c0.381-0.257,0.61-0.61,0.815-0.981
			c0.391-0.821,0.736-1.658,1.008-2.593C85.187,32.854,85.084,32.454,84.707,32.417z"/>
		<path fill="#FFFFFF" d="M82.487,37.138c-0.102,0.19,0.131,0.338,0.286,0.257c0.152-0.067,0.254-0.331,0.116-0.371
			C82.773,36.969,82.56,36.969,82.487,37.138z"/>
		<path fill="#FFFFFF" d="M68.988,28.978c-0.153-0.484-0.539-0.021-0.851-0.08c-0.133-0.014-0.196-0.183-0.27-0.183
			c-0.116,0.022-0.221,0.041-0.304,0.122c-0.208,0.119-0.048,0.439,0.163,0.4c0.166,0,0.278-0.232,0.348-0.088
			c0.16,0.262,0.053,0.71,0.458,0.617c0.261-0.062,0.423-0.249,0.706-0.274c0.281-0.015,0.313-0.321,0.281-0.534
			c0.292-0.036,0.64-0.275,0.827-0.036c0.09,0.084,0.116,0.269,0.188,0.378c0.089,0.2,0.291,0.25,0.5,0.259
			c0.255-0.062,0.519-0.041,0.714-0.259c0.206-0.252,0.188-0.562-0.074-0.734c-0.107-0.071-0.294,0.022-0.398-0.071
			c-0.221-0.119-0.38-0.307-0.599-0.39C69.908,27.898,69.448,28.565,68.988,28.978z"/>
		<path fill="#FFFFFF" d="M71.279,29.56c-0.077,0-0.163,0-0.246-0.002c-0.01,0-0.019,0-0.028,0.002H71.279z"/>
		<path fill="#FFFFFF" d="M66.328,29.343c0.268-0.051,0.508-0.046,0.782-0.015c0-0.031,0-0.036,0-0.052
			c-0.021-0.439-0.458-0.39-0.704-0.219c-0.019,0,0,0.068,0,0.068c-0.091,0.045-0.208-0.016-0.261,0.023
			C66.042,29.276,66.201,29.396,66.328,29.343z"/>
		<path fill="#FFFFFF" d="M67.293,31.109c0.287-0.371,0.69-0.609,1.124-0.815c0.032,0,0-0.096,0-0.147
			c-0.016,0.035-0.03,0.067-0.052,0.119c-0.087-0.199-0.235-0.341-0.423-0.437c-0.014,0.178-0.215,0.297-0.296,0.37
			c-0.224,0.166-0.498,0.345-0.598,0.58c-0.076,0.19-0.115,0.492,0.041,0.613C67.185,31.455,67.235,31.206,67.293,31.109z"/>
		<path fill="#FFFFFF" d="M63.243,28.494c-0.031,0.122-0.062,0.28,0.103,0.306c0.204,0.057,0.204-0.263,0.103-0.33
			C63.383,28.427,63.269,28.4,63.243,28.494z"/>
		<path fill="#FFFFFF" d="M53.781,22.483c0.313,0.154,0.691,0.154,1.02,0.17c0.056,0,0.243-0.197,0.146-0.333
			c-0.182-0.141-0.468-0.021-0.632-0.239l-0.157-0.033c-0.27-0.083-0.341,0.167-0.492,0.308
			C53.594,22.455,53.771,22.483,53.781,22.483z"/>
		<path fill="#FFFFFF" d="M77.931,26.9c-0.116,0.161-0.343,0.09-0.556,0.161c-0.104,0.028-0.097,0.244-0.042,0.312
			c0.206,0.292,0.448,0.124,0.734,0.063c-0.08,0.106,0.07,0.088,0.109,0.122c0.132,0.089,0.187-0.221,0.313-0.122
			c0.034,0.035,0.034,0.213,0,0.23c-0.188,0.1-0.188,0.286-0.351,0.359C78.03,28.1,77.817,28.1,77.72,27.898
			c-0.014-0.027-0.104,0-0.154,0c0.024,0,0.04,0,0.05,0c-0.08,0.134,0,0.376-0.08,0.443c-0.325,0.291-1.048,0.515-0.729,0.951
			c0.24,0.327,0.782,0.231,1.222,0.198c0.049,0,0.108-0.082,0.094-0.126c-0.044-0.408,0.177-0.481,0.448-0.684
			c0.113-0.093-0.084-0.221-0.211-0.339c-0.122-0.056,0.003-0.307,0.13-0.307c0.167-0.009,0.167-0.221,0.32-0.172
			c0-0.11,0-0.173,0-0.273c0.258,0.032,0.475-0.146,0.422-0.368c-0.085-0.293-0.35-0.547-0.254-0.863
			c0.018-0.117,0.113-0.239,0.285-0.286c0.085-0.021,0.131-0.129,0.062-0.188c-0.041-0.033-0.094-0.015-0.141-0.015
			c0,0.102-0.163,0.062-0.115,0.146c-0.281,0.059-0.552,0-0.798,0.151C77.986,26.307,78.099,26.676,77.931,26.9z"/>
		<path fill="#FFFFFF" d="M75.117,29.574c0.018,0.316,0.365,0.162,0.543,0.053c-0.118,0.045-0.027-0.103-0.118-0.109
			C75.389,29.491,75.265,29.574,75.117,29.574z"/>
		<path fill="#FFFFFF" d="M79.066,28.957c-0.187,0.256,0.325,0.256,0.527,0.151c0.008,0,0.007-0.032,0-0.05
			c0.016-0.053,0-0.08-0.041-0.102C79.359,28.834,79.119,28.856,79.066,28.957z"/>
		<path fill="#FFFFFF" d="M79.882,27.623c-0.062-0.032-0.169-0.01-0.253-0.01c0.115,0.053,0.115,0.295,0.298,0.259
			c-0.01-0.031-0.031-0.057-0.031-0.121C79.882,27.714,79.917,27.649,79.882,27.623z"/>
		<path fill="#FFFFFF" d="M74.005,16.938c0.247,0.141,0.409,0.347,0.487,0.562c0.115,0.286-0.094,0.653,0.097,0.937
			c0.034,0.121,0.155,0.206,0.205,0.271c0.119,0.134-0.006,0.389,0.034,0.564c0.107,0.377,0.135,0.723,0.183,1.084
			c0.146-0.032,0.146,0.228,0.333,0.166c0,0.221,0.108,0.389,0.138,0.608c0.062,0.243,0.35,0.121,0.512,0.294
			c0.254,0.354,0.494,0.712,0.872,0.959c0.114,0.075,0.289,0.075,0.351,0.183c0.031,0.049,0,0.131,0.061,0.131
			c0.502,0.086,1.208,0.349,0.959,0.963c0.189-0.139,0.418-0.241,0.481-0.455c0.103-0.376,0.183-0.788,0.018-1.156
			c-0.097-0.188-0.377-0.289-0.437-0.502c-0.047-0.155,0-0.296,0.006-0.417c0.014-0.219-0.292-0.142-0.348-0.245
			c-0.119-0.263-0.216-0.705,0.294-0.667c0.018,0-0.076-0.093-0.049-0.185c-0.174,0-0.333,0.031-0.499,0
			c-0.115-0.013-0.115-0.182-0.115-0.237c-0.052-0.278,0.094-0.628-0.156-0.825c-0.217-0.135-0.498-0.173-0.714-0.325
			c-0.183-0.151-0.338-0.269-0.547-0.388c-0.13-0.083-0.358,0.119-0.453,0c-0.424-0.471-0.722-1.023-1.112-1.555
			c-0.153-0.171-0.455-0.167-0.726-0.125c-0.075,0.019-0.034,0.102-0.053,0.147c0.036,0,0.081,0,0.107,0.017
			C74.023,16.783,73.964,16.896,74.005,16.938z"/>
		<path fill="#FFFFFF" d="M71.542,17.817c-0.178,0.251-0.107,0.581,0.07,0.651c0.257,0.106,0.63,0.088,0.958,0.058
			c0.172-0.032,0.284-0.215,0.383-0.387c0.172-0.268,0.625-0.114,0.965-0.233c-0.053,0.208,0.097,0.189,0.213,0.276
			c-0.013-0.231-0.013-0.545-0.166-0.652c-0.307-0.181-0.325-0.452-0.483-0.733c-0.034-0.097-0.21,0.048-0.21,0.099
			c0.035,0.476-0.362,0.389-0.688,0.515c-0.013,0.032,0.018,0.12-0.013,0.157c0,0.018-0.05,0.018-0.103,0
			c-0.059-0.068-0.103-0.094-0.093-0.202c-0.165,0-0.396,0-0.462,0.108C71.818,17.638,71.65,17.667,71.542,17.817z"/>
		<path fill="#FFFFFF" d="M65.298,7.452C65.01,6.905,64.559,6.408,64.68,5.71c0.827,0.291,1.571,0.15,2.392-0.113
			c0.612-0.168,1.315,0.124,1.912-0.257c0.077-0.067,0.006-0.271,0.006-0.422c-0.686,0.317-1.261-0.586-1.879-0.19
			c-0.805,0.507-1.672,0.63-2.454,0.835c-0.635,0.146-2.285,0.034-2.361,0.979c0.885,0.006,1.859,0.074,2.405,0.867
			C64.781,7.505,65.091,7.452,65.298,7.452z"/>
		<path fill="#FFFFFF" d="M68.013,11.39c0.239,0.423,0.671,0.515,1.068,0.659c0.071-0.213-0.045-0.316-0.173-0.431
			C68.625,11.39,68.338,11.364,68.013,11.39z"/>
		<path fill="#FFFFFF" d="M67.4,12.702c-0.148,0.067,0.017,0.286,0.164,0.404C67.537,12.918,67.781,12.536,67.4,12.702z"/>
		<path fill="#FFFFFF" d="M66.755,11.915c0.039,0.013,0.12,0.013,0.157,0c0.02-0.009,0-0.057,0-0.102
			c0-0.286-0.286-0.367-0.527-0.39c0,0.056-0.023,0.194,0.019,0.208C66.552,11.703,66.589,11.813,66.755,11.915z"/>
		<path fill="#FFFFFF" d="M69.133,14.929c0.019,0.041,0.106,0.085,0.152,0.034c0.057-0.054,0.098-0.134,0.057-0.246
			c0,0,0,0.019,0,0.044c-0.052-0.093,0.067-0.231-0.057-0.314c-0.045-0.018-0.116-0.036-0.133,0
			C68.982,14.6,69.133,14.761,69.133,14.929z"/>
		<path fill="#FFFFFF" d="M69.991,14.969c-0.027,0.128,0,0.222,0.076,0.293c0.068,0.021,0.117,0,0.136-0.044
			c-0.069-0.05-0.069-0.089-0.069-0.169C70.159,14.862,70.018,15.049,69.991,14.969z"/>
		<path fill="#FFFFFF" d="M69.653,15.609c0.037,0.129,0.16-0.044,0.194-0.201c0-0.003,0.014-0.026,0.019-0.039
			c0.021,0.017,0.044,0.035,0.061,0.054c-0.009-0.027-0.034-0.054-0.053-0.082l0,0c-0.122-0.151-0.342-0.272-0.467-0.124
			C69.269,15.384,69.57,15.384,69.653,15.609z"/>
		<path fill="#FFFFFF" d="M69.964,15.704c0.086,0.055-0.115,0.02-0.056,0.103c0.159,0.219,0.44,0.327,0.635,0.266
			c0.097-0.067,0.219-0.266,0.116-0.333c-0.161-0.102-0.387-0.035-0.592-0.035C70.05,15.704,70.005,15.704,69.964,15.704z"/>
		<path fill="#FFFFFF" d="M71.212,16.255c0.11-0.063,0.005-0.147,0-0.214c-0.056-0.146-0.14-0.284-0.241-0.193
			c-0.099,0.054-0.171,0.286-0.027,0.371C70.995,16.259,71.111,16.313,71.212,16.255z"/>
		<path fill="#FFFFFF" d="M71.596,17.005c0.054,0.059,0.208-0.057,0.274-0.109c0.041,0,0.019-0.099,0.019-0.156
			c0.062,0.022,0.086,0,0.086-0.058c0.055-0.087,0.028-0.206-0.086-0.243c-0.071-0.026-0.168,0.099-0.258,0.022
			c-0.018,0,0.019-0.048,0-0.085c-0.082-0.062-0.197-0.114-0.254-0.053c-0.104,0.09-0.104,0.253-0.057,0.355
			C71.378,16.783,71.489,16.896,71.596,17.005z"/>
		<path fill="#FFFFFF" d="M70.894,17.585c0.05,0,0.102-0.053,0.111-0.105c0.032-0.108,0.032-0.195,0-0.324
			c-0.01-0.078-0.078-0.078-0.133-0.04c-0.08,0.04-0.072,0.168-0.172,0.193C70.724,17.442,70.792,17.564,70.894,17.585z"/>
		<path fill="#FFFFFF" d="M70.184,4.381c-0.023,0-0.064-0.02-0.064-0.049c0-0.009,0.041-0.031,0.064-0.044
			c-0.134-0.141-0.29-0.04-0.445-0.069C69.841,4.381,69.991,4.517,70.184,4.381z"/>
		<path fill="#FFFFFF" d="M79.141,10.892c0.141,0.136,0.453-0.029,0.604,0.136c0.152,0.171,0.268,0.451,0.53,0.451
			c0.164,0,0.288-0.087,0.312-0.236c0.042-0.436-0.13-0.938-0.553-1.13c-0.403-0.119-0.826-0.119-1.226-0.111
			c-0.264,0-0.264,0.304-0.153,0.421C78.786,10.578,78.958,10.729,79.141,10.892z"/>
		<path fill="#FFFFFF" d="M90.038,24.662c-0.289-0.356-0.312-0.748-0.499-1.037c-0.173-0.273-0.598-0.301-0.821-0.623
			c-0.112-0.155,0.091-0.423-0.078-0.547c-0.097-0.075-0.199-0.158-0.216-0.242c-0.139-0.374-0.31-0.618-0.652-0.792
			c0.106-0.437-0.29-0.647-0.7-0.766c-0.018-0.023,0.042-0.137,0.042-0.188c-0.016-0.169-0.227-0.217-0.368-0.268
			c-0.055-0.03-0.165,0-0.183-0.03c-0.209-0.277-0.5-0.492-0.596-0.727c-0.123-0.389-0.497-0.613-0.821-0.825
			c-0.118-0.063-0.221-0.397-0.285-0.397c-0.227,0-0.536,0.018-0.566-0.238c-0.042-0.485-0.432-0.783-0.792-1.076
			c-0.524-0.378-0.063-1.189-0.245-1.779c-0.053-0.247-0.32-0.247-0.555-0.247c-0.086,0-0.169-0.078-0.216-0.166
			c-0.206-0.364-0.046-0.774-0.284-1.111c-0.37-0.521-0.779-0.917-1.182-1.432c-0.231-0.259-0.563-0.216-0.856-0.242
			c-0.085-0.015-0.134-0.065-0.208-0.116c-0.107-0.068-0.137-0.199-0.2-0.3c-0.164-0.292-0.521-0.42-0.818-0.56
			c-0.553-0.228-1.143-0.108-1.727-0.19c-0.462-0.037-0.968,0.129-1.31,0.415c-0.406,0.302-0.878,0.46-1.391,0.555
			c-0.196,0.034,0.074,0.282,0,0.43c-0.115,0.195-0.396,0.407-0.281,0.593c0.058,0.043-0.103,0.012-0.051,0.079
			c0.112,0.111,0.309,0.026,0.463,0.026c0.182,0.03,0.248,0.224,0.351,0.312c0.225,0.237,0.485,0.463,0.617,0.754
			c0.053,0.11-0.155,0.318-0.052,0.425c0.284,0.293,0.23,0.555,0.23,0.913c0,0.145,0.309,0.008,0.381,0.057
			c0.419,0.219,0.497,0.75,0.38,1.172c-0.062,0.227-0.039,0.551,0.06,0.739c0.209,0.405,0.253,0.992,0.635,1.293
			c0.084-0.129,0.186-0.301,0.257-0.286c0.333,0.044,0.338-0.214,0.548-0.332c0.63-0.427,1.154,0.404,1.329,0.885
			c0.173,0.475,0,1.087,0.213,1.559c0.164,0.462,0.458,0.837,0.909,1.068c0.104,0.058,0.124,0.338,0.221,0.542
			c0.044,0.115,0.164,0.271,0.341,0.146c0.104-0.063,0.054-0.285,0.221-0.351c0.138-0.049,0.29,0.044,0.375,0.12
			c0.405,0.502,0.502,1.539,1.328,1.476c-0.016,0.125,0.073,0.217,0.156,0.249c0.169,0.053,0.289-0.188,0.411,0.031
			c0.128,0.188,0.195,0.425,0.374,0.52c0.282,0.087,0.593-0.017,0.875,0.056c0.181,0.053,0.338,0.271,0.469,0.453
			c0.077,0.123,0.177,0.266,0.292,0.385c0.555,0.543,0.769,1.362,1.439,1.775c0.204,0.138,0.401,0.4,0.698,0.319
			c0.087,0,0.026-0.134,0.12-0.15c0.274-0.031,0.435-0.264,0.552-0.432c0.204-0.273,0.51-0.524,0.87-0.688
			c0.007-0.017,0-0.117,0.007-0.134c0.243-0.201,0.553-0.253,0.786-0.471C90.241,25.116,90.131,24.764,90.038,24.662z"/>
		<path fill="#FFFFFF" d="M79.406,23.416c0.071,0.01,0.125,0.036,0.178,0.06c0.054,0.011,0.104,0.008,0.161,0.031L79.406,23.416z"/>
		<path fill="#FFFFFF" d="M78.914,24.897c0.105,0.181,0.345,0.217,0.521,0.333c0.195,0.166,0.29,0.407,0.46,0.509
			c0.347,0.195,0.214-0.39,0.378-0.586c0.062-0.036,0.245,0.031,0.289-0.036c0.206-0.285-0.044-0.729-0.299-1.005
			c-0.211-0.2-0.371-0.515-0.679-0.635c-0.158-0.036-0.309-0.03-0.402,0.15c-0.164,0.249,0.003,0.583-0.116,0.837
			C78.994,24.594,78.859,24.745,78.914,24.897z"/>
		<path fill="#FFFFFF" d="M80.93,26.138c-0.14,0.493-0.042,1.023-0.1,1.552c-0.04,0.263-0.441,0.208-0.604,0.436
			c-0.1,0.126-0.143,0.347-0.117,0.507c0.056,0.345,0.453,0.325,0.697,0.453c0.65,0.326,1.238,0.807,1.609,1.462
			c0.134,0.218,0.192,0.526,0.385,0.714c0.188,0.193,0.55,0.193,0.607,0.544c0.028,0.139,0.276,0.188,0.388,0.107
			c0.339-0.275,0.299-0.804,0.06-1.093c-0.155-0.153-0.302-0.359-0.302-0.526c-0.026-0.718-0.239-1.396-0.627-2.019
			c-0.245-0.341-0.662-0.522-0.914-0.838c-0.031-0.071-0.117-0.188-0.053-0.275c0.083-0.168,0.266-0.287,0.307-0.485
			c0.035-0.37-0.384-0.508-0.479-0.866c0-0.018-0.116,0-0.186,0l0.203,0.062C81.458,25.724,81.021,25.791,80.93,26.138z"/>
		<path fill="#FFFFFF" d="M84.732,29.703c-0.056-0.188,0-0.427-0.026-0.66c-0.031-0.395-0.458-0.459-0.787-0.459
			c-0.15,0-0.334-0.048-0.364,0.123c-0.026,0.15-0.026,0.312,0.091,0.505c0.616,0.702,0.564,1.708,0.833,2.526
			c0.088,0.334,0.663,0.067,0.762-0.286c0.056-0.181,0.066-0.379,0.031-0.554c-0.084-0.181-0.258-0.307-0.302-0.512
			C84.926,30.128,84.773,29.951,84.732,29.703z"/>
		<path fill="#FFFFFF" d="M83.77,27.436c-0.271,0.213,0.117,0.435,0.041,0.731c0.048,0,0.076,0,0.11,0
			c0.173,0.082,0.173-0.134,0.214-0.217c-0.325,0.018-0.272-0.332-0.25-0.514C83.856,27.436,83.81,27.407,83.77,27.436z"/>
		<path fill="#FFFFFF" d="M83.622,26.704c0.02-0.169-0.019-0.344-0.216-0.375c-0.034,0.27-0.301,0.206-0.449,0.347
			c-0.186,0.146,0.017,0.386,0.214,0.466c0.045,0,0.045,0.081,0.078,0.081c0.373,0.153,0.67-0.146,0.52-0.516
			C83.77,26.686,83.684,26.704,83.622,26.704z"/>
		<path fill="#FFFFFF" d="M82.325,25.438c0.332,0.195,0.007,0.553,0.264,0.661c0.184,0.123,0.557,0.188,0.729,0.021
			c0.136-0.104-0.005-0.353-0.281-0.37c-0.112-0.013-0.102-0.213-0.081-0.356c-0.069,0-0.128-0.047-0.158-0.079
			c-0.266-0.184,0.227-0.322,0.081-0.553c-0.05-0.049-0.019-0.16-0.081-0.169c-0.097-0.048-0.21,0.009-0.251,0.121
			c-0.084,0.101,0.068,0.235,0.01,0.36C82.487,25.229,82.185,25.348,82.325,25.438z"/>
		<path fill="#FFFFFF" d="M82.137,23.79c-0.154-0.067-0.4,0.084-0.525-0.186c-0.011-0.033-0.136-0.033-0.186,0
			c-0.039,0.021-0.039,0.069-0.067,0.093c-0.088,0.124-0.19,0.217-0.088,0.31c0.137,0.104,0.171,0.202,0.249,0.318
			c0.092,0.171,0.347,0,0.401,0.154c0.04,0.151,0.177,0.202,0.284,0.124c0.128-0.057,0.023-0.278,0.063-0.392
			c-0.083,0.053-0.04-0.146-0.104-0.056C82.203,24.025,82.286,23.844,82.137,23.79z"/>
		<path fill="#FFFFFF" d="M63.383,36.004c0.019,0,0.068,0,0.102,0c0.008-0.052,0-0.12,0.063-0.193
			c0.061-0.088-0.035-0.217-0.097-0.279c-0.091-0.103-0.274,0-0.215,0.191c0,0,0.051,0,0.093,0
			C63.31,35.811,63.31,35.9,63.383,36.004z"/>
		<path fill="#FFFFFF" d="M84.093,32.66c-0.325-0.13-0.687,0.04-0.989,0.225c-0.64,0.331-0.721,1.188-1.123,1.645
			c-0.277,0.311-0.596,0.466-0.98,0.445c-0.047,0-0.195-0.065-0.211-0.188c0-0.186-0.067-0.377,0.075-0.528
			c0.128-0.101,0.274-0.186,0.364-0.338c0.177-0.284,0.04-0.623-0.027-0.887c-0.157-0.582-0.766-0.926-1.321-0.832
			c-0.56,0.11-0.89,0.694-1.199,1.2c0,0-0.113,0.013-0.113,0c-0.211-0.264-0.492-0.401-0.639-0.676
			c-0.034-0.026-0.034-0.089,0-0.146c0.222,0.12,0.425,0.454,0.662,0.315c0.228-0.135,0.027-0.442-0.147-0.504
			c-0.194-0.067-0.381-0.264-0.63-0.236c-0.173,0.013-0.383-0.244-0.44-0.453c-0.069-0.311-0.097-0.718-0.368-0.805
			c-0.289-0.119-0.556-0.134-0.835-0.334c-0.13-0.067-0.288,0.054-0.414,0.045c0.087-0.088,0.013-0.299,0.057-0.299
			c0.349-0.031,0.775-0.031,0.567-0.423c-0.092-0.184-0.281-0.372-0.498-0.215c-0.069,0.031-0.195,0.031-0.222,0.125
			c-0.044,0.06-0.059,0.154-0.1,0.211c-0.061,0.148,0.107,0.425,0,0.513c-0.218,0.146-0.534,0.132-0.803,0.322
			c-0.032,0.015-0.134,0.015-0.179,0c-0.235-0.077-0.604-0.342-0.714-0.226c-0.166,0.204-0.206,0.455-0.402,0.555
			c-0.172,0.087-0.396,0.1-0.578,0.184c-0.315,0.124-0.135,0.53,0,0.823c0.067,0.104,0.022,0.273-0.089,0.351
			c-0.224,0.13-0.274-0.155-0.327-0.267c-0.095-0.287-0.179-0.606-0.179-0.908c-0.027-0.312,0.368-0.513,0.46-0.812
			c0.069-0.182,0.121-0.391-0.008-0.597c-0.14-0.214-0.368-0.321-0.582-0.254c-0.565,0.151-0.726,1.124-1.291,0.871
			c-0.29-0.11-0.544-0.407-0.856-0.555c-0.177-0.121-0.345-0.243-0.545-0.093c-0.398,0.299-0.88,0.471-1.299,0.675
			c-0.375,0.173-0.699,0.615-0.92,1.023c-0.238,0.515-1.179,0.803-1.493,0.191c-0.148-0.299-0.463-0.535-0.798-0.525
			c-0.309,0.051-0.414,0.448-0.752,0.525c-0.245,0.045-0.386-0.039-0.481-0.228c-0.015-0.047-0.015-0.134,0-0.155
			c0.46-0.378,0.929-0.659,1.499-0.878c0.276-0.092,0.311-0.391,0.208-0.657c-0.003-0.045-0.021-0.123-0.063-0.187
			c-0.025-0.142-0.047-0.362-0.097-0.362c-0.695,0.055-1.275,0.549-1.624,1.179c-0.044,0.089-0.084,0.218-0.139,0.218
			c-0.44-0.033-0.89,0.214-1.261-0.033c-0.079-0.051-0.187-0.56-0.24-0.506c-0.177,0.188-0.282,0.419-0.448,0.618
			c-0.044,0.104-0.165,0.15-0.231,0.254c-0.25,0.38,0.231,0.777,0.122,1.085c-0.077,0.154-0.48,0.154-0.743,0.217
			c-0.134,0.045-0.134,0.263-0.12,0.438c0.019,0.134,0.167,0.119,0.258,0.168c0.257,0.252,0.274,0.688,0.605,0.839
			c0.398,0.182,0.884,0.058,1.363,0.182c0.308,0.068,0.541,0.283,0.676,0.601c0.075,0.167,0.332,0.255,0.343,0.517
			c0.013,0.088,0.13,0.173,0.255,0.236c0.141,0.052,0.329-0.096,0.466-0.034c0.204,0.059,0.12,0.327,0.17,0.488
			c0.1,0.315-0.069,0.659,0.265,0.971c0.125,0.105-0.131,0.429-0.271,0.613c-0.063,0.062-0.268,0.062-0.289,0.16
			c-0.083,0.28-0.014,0.538,0.125,0.757c0.103,0.128,0.266,0,0.305,0.088c0.244,0.306,0.348,0.648,0.554,0.928
			c0.088,0.107,0.187,0.246,0.307,0.291c-0.148,0.031-0.192,0.213-0.148,0.279c0.089,0.119,0.294,0.196,0.403,0.084
			c0.168-0.111,0.349-0.15,0.515-0.305c0.097-0.106,0.263-0.066,0.365-0.17c0.114,0.108,0.213,0.35,0.134,0.451
			c-0.245,0.239-0.686,0.074-0.971,0.261c-0.196,0.091-0.387,0.039-0.489,0.195c-0.097,0.101,0,0.326,0.174,0.348
			c0.62,0.134,0.137,1.032-0.167,1.49c-0.07,0.098,0,0.267-0.034,0.457c-0.023,0.081-0.14,0.13-0.208,0.13
			c-0.597,0.052-1.205-0.156-1.749,0.04c-0.188,0.054-0.281,0.315-0.368,0.535c0.055,0,0.086,0,0.106,0
			c-0.159,0.016-0.159,0.189-0.195,0.278c-0.031,0.106-0.016,0.31-0.085,0.407c-0.525,0.58-0.597,1.313-0.693,1.986
			c-0.018,0.201,0.237,0.337,0.383,0.337c0.147,0,0.354-0.17,0.485-0.17c0.271,0.034,0.205,0.452,0.305,0.632
			c0.115,0.208,0.516,0.243,0.562-0.032c0.065-0.235,0.065-0.513,0.144-0.72c0.083-0.288-0.224-0.483-0.282-0.751
			c-0.07-0.253,0.059-0.476,0.203-0.647c0.1-0.097,0.26,0.024,0.324,0.172c0.054,0.149,0.054,0.351,0.114,0.522
			c0.035,0.183-0.094,0.4,0.01,0.528c0.104,0.125,0.167,0.295,0.121,0.443c-0.019,0.079-0.121,0.146-0.174,0.243
			c-0.069,0.205,0.054,0.482-0.116,0.556c-0.177,0.138-0.155,0.388-0.364,0.406c-0.476,0.031-1.054-0.222-0.897-0.757
			c-0.191-0.016-0.392-0.016-0.476,0.153c-0.102,0.212,0,0.549-0.127,0.723c-0.177,0.218-0.293,0.446-0.487,0.667
			c-0.067,0.049,0.093,0.086,0.031,0.156c-0.254,0.299-0.548,0.412-0.859,0.646c-0.018,0-0.031,0-0.031,0.057
			c-0.204,0.137-0.546-0.085-0.628,0.159c-0.116,0.256,0.257,0.427,0.375,0.687c0.07,0.172,0.028,0.377-0.213,0.408
			c-0.347,0.083-0.649,0.036-1.014-0.019c0,0.103-0.093,0.091-0.093,0.122c-0.063,0.307,0,0.556-0.237,0.825
			c-0.15,0.195,0.075,0.438,0.21,0.603c0.152,0.203,0.213,0.483,0.404,0.532c0.15,0.038,0.281,0.173,0.418,0.154
			c0.292-0.075,0.501-0.188,0.617-0.503c0.044-0.184,0.361,0.031,0.571-0.032c0.047-0.02,0.153-0.055,0.193-0.087
			c0.161-0.187-0.04-0.456,0.052-0.563c0.317-0.373,0.679-0.677,1.1-0.949c0.138-0.114,0.35-0.233,0.558-0.165
			c0.16,0.048,0.299,0.151,0.474,0.218c0.161,0.08,0.292,0.193,0.455,0.286c0.034,0.035,0.163,0.079,0.239,0.116
			c0.28,0.121,0.449,0.465,0.755,0.64c0.09,0.043,0.022-0.121,0.116-0.054c0.01-0.279-0.048-0.548-0.18-0.716
			c-0.183-0.272-0.487-0.408-0.689-0.627c-0.077-0.065-0.077-0.261,0.038-0.378c0.025-0.053,0.125-0.053,0.129,0
			c0.167,0.149,0.328,0.149,0.498,0.232c0.338,0.146,0.275,0.653,0.603,0.821c0.175,0.094,0.267,0.354,0.475,0.388
			c0.244,0.084,0.641,0,0.779-0.294c0.108-0.177-0.097-0.278-0.22-0.396c-0.245-0.187,0.123-0.271,0.245-0.417
			c0.211-0.257,0-0.479-0.023-0.728c-0.026-0.105,0.046-0.167,0.108-0.215c0,0,0.017-0.031,0.048-0.05
			c0.142-0.307,0.014-0.637,0.132-0.938c0.042-0.065,0.124-0.057,0.124-0.033c0.085,0.145,0.257,0.252,0.409,0.198
			c0.248-0.06,0.443-0.186,0.618-0.407c0.211-0.281,0.667-0.125,0.776,0.142c0.05,0.202-0.017,0.485-0.177,0.54
			c-0.538,0.075-0.97,0.278-1.368,0.548c-0.054,0.048-0.125,0.087-0.157,0.149c-0.213,0.158-0.296,0.313-0.181,0.647
			c0.021,0.125-0.144,0.258-0.263,0.376c0.204,0.071,0.204,0.321,0.391,0.362c0.338,0.079,0.649,0.093,0.889-0.14
			c0.058-0.088,0.124-0.271,0.09-0.424c0.219-0.029,0.365-0.239,0.6-0.286c0.47-0.077,0.742,0.44,0.618,0.85
			c-0.027,0.079-0.147,0.079-0.187,0.106c-0.245,0.387-0.431,0.763-0.813,0.93c-0.587,0.299-1.303,0.231-1.824,0.533
			c-0.2,0.135-0.26,0.483-0.558,0.567c-0.26,0.069-0.59,0.217-0.855,0c0,0.02,0,0.031,0,0.061c0,0.195-0.609,0.062-0.903-0.061
			c-0.097-0.036-0.039-0.325-0.163-0.438c-0.104-0.066-0.306,0.033-0.347-0.082c-0.063-0.062,0-0.212-0.08-0.233
			c-0.691-0.116-1.336,0.095-2.042,0.02c-0.188-0.02-0.171,0.229-0.325,0.346c-0.13,0.063-0.253,0.188-0.388,0.241
			c-0.279,0.142-0.582,0.342-0.921,0.217c-0.292,0.093-0.564,0.135-0.831,0.185c-0.44,0.082-0.688,0.45-1.05,0.698
			c-0.277,0.188-0.606,0.222-0.915,0.205c-0.09,0-0.041,0.147-0.123,0.147c-0.475,0.12-0.906,0.718-1.178,1.236
			c-0.08,0.136,0.023,0.339-0.063,0.458c-0.248,0.387-0.378,0.769-0.719,1.089c-0.035,0.035-0.035,0.137-0.022,0.199
			c0.384,0.525,0.835,0.879,1.223,1.415c0.094,0.145,0.287,0.145,0.344,0.285c0.152,0.337,0.361,0.641,0.539,0.956
			c0.247,0.447,0.898,0.624,1.458,0.447c0.205-0.058,0.445,0.136,0.631,0.177c0.636,0.06,1.31,0.21,1.907-0.11
			c0.889,0.276,1.815-0.11,2.623,0.276c0.16,0.044,0.16,0.337,0.278,0.533c0.187,0.351,0.402,0.706,0.74,0.959
			c0.285,0.201,0.689,0.336,1.086,0.369c0.11,0,0.13,0.279,0.225,0.397c0.117,0.149,0.063,0.386,0.206,0.502
			c0.197,0.185,0.364,0.317,0.352,0.591c0,0.319-0.391,0.601-0.157,1.023c0.056,0.134-0.026,0.35,0.042,0.435
			c0.503,0.503,0.981,0.976,1.592,1.428c0.059,0.055,0.168,0.129,0.122,0.255c0.235,0.067,0.266,0.303,0.422,0.43
			c0.12,0.152,0.053,0.388,0.172,0.541c0.21,0.248,0.436,0.489,0.675,0.708c0.31,0.282,0.744,0.219,1.115,0.297
			c0.085,0.061,0.189,0.123,0.293,0.155c0.352,0.112,0.736,0.146,1.042-0.087c0.173-0.146,0.327-0.417,0.497-0.521
			c0.267-0.216,0.674-0.196,1.038-0.268c0.072-0.01,0.178-0.051,0.229-0.145c0.042-0.21,0.235-0.319,0.221-0.525
			c0.271-0.014,0.48-0.153,0.702-0.269c0.445-0.229,0.784-0.682,1.201-1.037c0.418-0.392,1.121-0.219,1.347-0.659
			c0.226-0.431-0.089-1.022,0.111-1.525c0.116-0.231,0.262-0.511,0.286-0.769c0.036-0.436,0.053-0.883,0.021-1.32
			c-0.021-0.254-0.284-0.511-0.255-0.76c0.019-0.183,0.334-0.183,0.401-0.334c0.156-0.355,0.302-0.724,0.486-1.057
			c0.031-0.07,0.16-0.1,0.265-0.17c0.163-0.115,0.023-0.299,0.053-0.468c-0.131-0.04-0.194-0.188-0.252-0.273
			c-0.374-0.529-0.721-1.04-1.34-1.292c-0.151-0.046-0.164-0.21-0.234-0.334c-0.058-0.048,0.021-0.211-0.036-0.273
			c-0.165-0.095-0.102-0.248-0.143-0.364h0.148c-0.005-0.004,0-0.014,0-0.014c-0.063,0-0.086-0.053-0.086-0.07
			c0.139-0.369,0.349-0.703,0.625-0.942c0.083-0.081,0.296-0.081,0.322-0.178c0.076-0.313,0.059-0.64-0.092-0.907
			c-0.228-0.388-0.028-0.775-0.089-1.139c-0.059-0.727-0.059-1.389-0.392-2.049c-0.07-0.202-0.256-0.354-0.514-0.283
			c-0.125,0.018-0.114,0.18-0.183,0.283c-0.088,0.104-0.106,0.237-0.15,0.419c-0.104,0.241-0.429,0.314-0.512,0.57
			c-0.046,0.155-0.086,0.304-0.154,0.404c-0.116,0.121-0.221,0.285-0.377,0.315c-0.262,0.09-0.512,0.151-0.759,0.202
			c-0.268,0.058-0.561,0.058-0.851-0.029c-1.515-0.42-2.812-1.006-4.333-1.427c-0.018,0-0.018-0.104,0-0.119
			c0.237-0.12,0.488,0.052,0.737-0.012c0.172-0.033-0.034-0.273,0.052-0.273c0.317,0.073,0.575,0.282,0.887,0.404
			c0.63,0.218,1.254,0.278,1.924,0.417c0.521,0.115,0.879,0.483,1.375,0.609c0.421,0.127,0.696-0.188,1.021-0.321
			c0.021,0-0.006-0.135,0.021-0.171c0.144-0.272,0.412-0.413,0.522-0.665c0.078-0.187-0.038-0.469,0.078-0.678
			c0.055-0.098,0.224-0.195,0.265-0.311c0.085-0.325,0.036-0.658,0.036-0.979c0.186,0.018,0.327-0.186,0.274-0.272
			c-0.045-0.048-0.059-0.129-0.09-0.176c0-0.187,0.032-0.389,0.071-0.588c0.099-0.478-0.039-0.943-0.235-1.347
			c-0.097-0.215-0.384-0.272-0.609-0.215c-0.071,0.044-0.097,0.171-0.169,0.215c-0.232,0.017-0.428,0.119-0.567,0.236
			c-0.197,0.154-0.189,0.488-0.354,0.627c-0.288,0.239-0.567,0.494-0.946,0.636c-0.24,0.113-0.59-0.023-0.641-0.223
			c-0.229-0.616,0.609-0.509,1.034-0.616c0.056-0.042,0.156-0.141,0.204-0.224c0.118-0.217,0.165-0.534,0.401-0.648
			c0.155-0.057,0.334-0.057,0.49-0.035c0.151,0.035,0.265-0.176,0.425-0.267c0.125-0.058,0.116-0.304,0.164-0.436
			c0.075-0.255,0.356-0.386,0.472-0.605c0.261-0.471,0.261-1.177,0.64-1.547c0.258-0.199,0.124,0.34,0.222,0.454
			c0.16,0.222,0.611,0.201,0.761,0.036c0.132-0.135-0.014-0.473,0.226-0.606c0.108-0.021,0.23-0.021,0.321,0
			c0.177,0.116,0.389,0.314,0.577,0.206c0.132-0.09,0.268-0.273,0.406-0.32c0.218-0.072,0.467,0,0.688-0.1
			c0.547-0.254,1.689,0.1,1.628-0.431c-0.098-0.854-0.791-1.529-1.543-1.925c-0.599-0.284-0.374-1.125-0.911-1.597
			c-0.136-0.099-0.069-0.314-0.185-0.448c-0.038-0.046-0.116-0.112-0.201-0.152c-0.077-0.063-0.168-0.136-0.168-0.163
			c0.09-0.447-0.124-0.863,0.113-1.233c0.117-0.177,0.385-0.268,0.543-0.396c0.19-0.154,0.534-0.274,0.534-0.528
			c0-0.348-0.034-0.725,0.029-1.084c0.031-0.122,0.242-0.218,0.367-0.218c0.627-0.012,1.304,0.153,1.881-0.225
			c0.147-0.131,0.165-0.317,0.26-0.432c0.448-0.658,1.131-1.17,1.104-2.023c-0.013-0.151,0.225-0.191,0.286-0.372
			C84.134,32.812,84.134,32.66,84.093,32.66z M72.005,47.007c0,0.049,0.027,0.129-0.028,0.145c-0.105,0.124-0.327,0.053-0.381-0.111
			c-0.079-0.17-0.161-0.354-0.324-0.422c-0.161-0.031-0.303-0.013-0.384,0.152c-0.164-0.122-0.329-0.033-0.48-0.064
			c0.054-0.258-0.205-0.238-0.341-0.407c-0.159-0.151-0.104-0.454,0.136-0.534c0.184-0.085,0.34,0.065,0.379,0.271
			C70.56,46,70.543,46,70.534,45.959c0,0.076-0.036,0.125,0,0.175c0.166,0.154,0.354-0.05,0.538,0.085
			c0.208,0.122,0.494-0.071,0.733,0.069c0.013,0-0.027,0.117,0.058,0.117c0.268,0.043,0.361,0.278,0.299,0.479
			C72.143,46.935,72.101,47.027,72.005,47.007z"/>
		<g>
			<path fill="#FFFFFF" d="M47.447,93.197c3.415-5.055,13.746-10.476,23.875-10.476c10.181,0,21.18,5.883,25.531,2.771
				c0,0-4.445,3.84-13.417,3.84c-8.98,0-12.399-4.525-18.632-4.525c-6.237,0-12.839,5.05-15.588,9.292L47.447,93.197z"/>
			<path fill="#FFFFFF" d="M79.496,81.989c0,0,2.97-1.775,4.514-5.036c1.576-3.283,5.65-8.471,9.753-11.663
				c0,0-4.615,14.56-9.364,15.21c0,0-0.752,0.453,0.585,0.229c1.349-0.229,7.421-2.462,9.585-2.835
				c2.14-0.365,7.412-1.555,8.825-2.965c1.195-1.188,2-1.023,2-1.023s-5.857,9.778-16.398,9.778
				C88.997,83.688,83.81,83.248,79.496,81.989z"/>
			<path fill="#FFFFFF" d="M91.96,76.953c0,0,1.109-1.702,1.335-4.62c0.232-2.89,2.01-9.559,7.071-16.841
				c0,0,0.736,11.51-4.999,18.566c0,0-0.346,1.03,0.392,0.275c0.748-0.741,4.358-5.098,12.177-10.389c0,0,4.06-3.339,4.291-4.441
				C112.227,59.5,109.043,75.836,91.96,76.953z"/>
			<path fill="#FFFFFF" d="M101.859,66.024c0,0,0.435-1.845,0.435-3.405c0-1.569-0.67-6.909-0.67-9.289
				c0-2.383,0.236-6.822,2.069-9.832c0,0,0,2.649,0.593,3.845c0.598,1.17,1.267,5.92,1.267,6.504c0,0.588-0.155,4.608-1.19,6.756
				c0,0,0.75-0.435,1.568-1.987c0.813-1.581,2.808-4.462,5.867-7.502c3.039-3.04,3.7-5.854,3.7-5.854s0.748,5.335-3.188,10.95
				c-3.936,5.678-5.565,4.686-7.716,6.999C104.591,63.205,102.134,66.188,101.859,66.024z"/>
			<path fill="#FFFFFF" d="M107.987,53.194c0,0-0.127-3.271-0.717-4.307c-0.623-1.064-4.156-7.49-3.42-15.726
				c0,0,0.585-0.525,1.702,2.67c1.096,3.198,2.682,4.148,3.186,7.349c0.538,3.172,0.538,4.512,0.538,4.512s0.357,0.446,0.357,0.081
				c0-0.389,0.378-4.673,2.163-8.599c1.772-3.932,4.14-7.646,3.928-10.258c0,0,1.04,0.085,0.877,4.314
				C116.467,37.476,115.347,44.822,107.987,53.194z"/>
			<path fill="#FFFFFF" d="M109.946,40.198c0,0-1.28-2.947-2.17-3.934c-0.889-0.942-7.06-9.936-7.562-14.026
				c0,0,0.502-0.277,1.105,0.746c0.598,1.057,3.566,4.005,4.077,4.459c0.534,0.455,3.646,3.793,3.938,7.343
				c0,0,0.299,0.38-0.292-5.564c-0.587-5.931,1.938-9.778-0.142-13.952c0,0,2.896,0.449,4.442,12.624c0,0-0.067,4.306-2.294,9.578
				C111.046,37.476,110.301,40.198,109.946,40.198z"/>
			<path fill="#FFFFFF" d="M107.705,26.858c0,0-2.308-2.379-4.167-3.489c-1.841-1.131-7.628-6.835-8.668-11.294
				c0,0,0.374-0.493,2.224,1.935c1.414,1.867,2.881,0.955,7.127,6.312c0,0,0.596,1.197,0.893,1.098
				c0.284-0.049-0.156-1.244-0.156-1.244s-0.828-3.331-0.898-4.539c-0.064-1.191-1.766-7.482-2.361-8.305
				c0,0,5.705,3.258,6.535,12.459C108.233,19.792,107.987,26.475,107.705,26.858z"/>
			<path fill="#FFFFFF" d="M102.801,17.045c0,0,0.386-8.022-10.191-12.102c0,0,3.662,7.509,6.411,9.29
				C101.767,16.022,102.801,17.045,102.801,17.045z"/>
		</g>
	</g>
	<g>
		<path fill="#FFFFFF" d="M75.792,93.197c-3.417-5.055-13.751-10.476-23.895-10.476c-10.153,0-21.163,5.883-25.533,2.771
			c0,0,4.452,3.84,13.446,3.84c8.965,0,12.404-4.525,18.631-4.525c6.215,0,12.807,5.05,15.565,9.292L75.792,93.197z"/>
		<path fill="#FFFFFF" d="M43.75,81.989c0,0-2.976-1.775-4.554-5.036c-1.547-3.283-5.633-8.471-9.716-11.663
			c0,0,4.596,14.56,9.367,15.21c0,0,0.738,0.453-0.596,0.229c-1.342-0.229-7.431-2.462-9.582-2.835
			c-2.155-0.365-7.423-1.555-8.84-2.965c-1.183-1.188-2.006-1.023-2.006-1.023s5.865,9.778,16.419,9.778
			C34.238,83.688,39.423,83.248,43.75,81.989z"/>
		<path fill="#FFFFFF" d="M31.259,76.953c0,0-1.102-1.702-1.332-4.62c-0.218-2.89-2.007-9.559-7.049-16.841
			c0,0-0.749,11.51,4.956,18.566c0,0,0.391,1.03-0.355,0.275c-0.738-0.741-4.375-5.098-12.19-10.389c0,0-4.073-3.339-4.284-4.441
			C11.005,59.5,14.198,75.836,31.259,76.953z"/>
		<path fill="#FFFFFF" d="M21.392,66.024c0,0-0.444-1.845-0.444-3.405c0-1.569,0.666-6.909,0.666-9.289
			c0-2.383-0.221-6.822-2.076-9.832c0,0,0,2.649-0.592,3.845c-0.599,1.17-1.267,5.92-1.267,6.504c0,0.588,0.141,4.608,1.19,6.756
			c0,0-0.737-0.435-1.578-1.987c-0.814-1.581-2.814-4.462-5.847-7.502c-3.029-3.04-3.712-5.854-3.712-5.854
			s-0.734,5.335,3.196,10.95c3.93,5.678,5.546,4.686,7.713,6.999C18.642,63.205,21.096,66.188,21.392,66.024z"/>
		<path fill="#FFFFFF" d="M15.229,53.194c0,0,0.151-3.271,0.739-4.307c0.591-1.064,4.16-7.49,3.414-15.726
			c0,0-0.59-0.525-1.701,2.67c-1.122,3.198-2.659,4.148-3.202,7.349c-0.52,3.172-0.52,4.512-0.52,4.512s-0.355,0.446-0.355,0.081
			c0-0.389-0.391-4.673-2.157-8.599C9.671,35.244,7.28,31.53,7.504,28.917c0,0-1.045,0.085-0.896,4.314
			C6.759,37.476,7.875,44.822,15.229,53.194z"/>
		<path fill="#FFFFFF" d="M13.29,40.198c0,0,1.267-2.947,2.165-3.934c0.898-0.942,7.033-9.936,7.571-14.026
			c0,0-0.538-0.277-1.125,0.746c-0.592,1.057-3.558,4.005-4.082,4.459c-0.527,0.455-3.621,3.793-3.948,7.343
			c0,0-0.272,0.38,0.327-5.564c0.572-5.931-1.931-9.778,0.15-13.952c0,0-2.904,0.449-4.473,12.624c0,0,0.075,4.306,2.302,9.578
			C12.177,37.476,12.929,40.198,13.29,40.198z"/>
		<path fill="#FFFFFF" d="M15.527,26.858c0,0,2.292-2.379,4.157-3.489c1.856-1.131,7.631-6.835,8.689-11.294
			c0,0-0.382-0.493-2.237,1.935c-1.408,1.867-2.902,0.955-7.113,6.312c0,0-0.596,1.197-0.894,1.098
			c-0.312-0.049,0.141-1.244,0.141-1.244s0.827-3.331,0.884-4.539c0.072-1.191,1.789-7.482,2.385-8.305
			c0,0-5.732,3.258-6.523,12.459C15.019,19.792,15.229,26.475,15.527,26.858z"/>
		<path fill="#FFFFFF" d="M20.436,17.045c0,0-0.387-8.022,10.153-12.102c0,0-3.633,7.509-6.375,9.29
			C21.47,16.022,20.436,17.045,20.436,17.045z"/>
	</g>
</g>
<g>
	<path fill="#076DB6" d="M149.238,93.736h-22.962v-4.831l8.246-8.335c2.441-2.501,4.037-4.235,4.786-5.201
		c0.749-0.967,1.288-1.861,1.618-2.686c0.33-0.823,0.495-1.677,0.495-2.561c0-1.318-0.364-2.3-1.09-2.943
		c-0.727-0.645-1.696-0.967-2.91-0.967c-1.273,0-2.509,0.293-3.707,0.877c-1.199,0.584-2.449,1.415-3.752,2.493l-3.774-4.471
		c1.618-1.378,2.958-2.352,4.022-2.921c1.063-0.569,2.224-1.007,3.482-1.314c1.258-0.307,2.666-0.46,4.224-0.46
		c2.052,0,3.865,0.374,5.438,1.123s2.793,1.798,3.662,3.146s1.303,2.891,1.303,4.628c0,1.514-0.266,2.933-0.798,4.258
		c-0.532,1.326-1.355,2.686-2.471,4.078c-1.116,1.393-3.082,3.378-5.898,5.954l-4.224,3.977v0.314h14.312V93.736z"/>
	<path fill="#076DB6" d="M175.059,77.313c0,5.737-0.94,9.983-2.82,12.739s-4.774,4.134-8.684,4.134c-3.79,0-6.647-1.423-8.571-4.269
		c-1.925-2.846-2.887-7.047-2.887-12.604c0-5.797,0.936-10.069,2.809-12.818c1.872-2.748,4.755-4.122,8.65-4.122
		c3.79,0,6.654,1.438,8.594,4.313S175.059,71.771,175.059,77.313z M158.994,77.313c0,4.029,0.349,6.916,1.045,8.661
		s1.868,2.617,3.516,2.617c1.618,0,2.786-0.883,3.505-2.65c0.719-1.768,1.079-4.644,1.079-8.628c0-4.029-0.363-6.924-1.09-8.684
		s-1.891-2.641-3.494-2.641c-1.633,0-2.801,0.881-3.505,2.641S158.994,73.283,158.994,77.313z"/>
	<path fill="#076DB6" d="M195.441,93.736h-6.942V74.729l0.067-3.123l0.112-3.415c-1.153,1.153-1.955,1.91-2.404,2.27l-3.774,3.033
		l-3.348-4.18l10.582-8.425h5.707V93.736z"/>
	<path fill="#076DB6" d="M227.979,86.929h-3.954v6.808h-6.785v-6.808H203.22v-4.831l14.402-21.209h6.403v20.647h3.954V86.929z
		 M217.24,81.536v-5.572c0-0.928,0.037-2.276,0.112-4.044c0.074-1.767,0.135-2.793,0.18-3.078h-0.18
		c-0.555,1.229-1.222,2.427-2,3.595l-6.021,9.1H217.24z"/>
</g>
<g>
	<path fill="#FFFFFF" d="M30.371,119.799c0,4.675-1.182,8.352-3.546,11.029c-2.365,2.677-5.652,4.016-9.861,4.016
		c-4.303,0-7.623-1.315-9.96-3.946c-2.338-2.63-3.507-6.344-3.507-11.139c0-4.756,1.172-8.442,3.517-11.06
		c2.344-2.617,5.674-3.926,9.99-3.926c4.196,0,7.473,1.332,9.831,3.996S30.371,115.11,30.371,119.799z M7.093,119.799
		c0,3.956,0.842,6.956,2.527,9.001s4.133,3.067,7.343,3.067c3.237,0,5.681-1.02,7.333-3.058c1.651-2.038,2.478-5.041,2.478-9.011
		c0-3.93-0.823-6.91-2.467-8.941c-1.646-2.031-4.08-3.047-7.303-3.047c-3.237,0-5.698,1.022-7.383,3.066
		C7.936,112.922,7.093,115.896,7.093,119.799z"/>
	<path fill="#FFFFFF" d="M49.523,107.851c-3.21,0-5.744,1.068-7.603,3.206c-1.858,2.139-2.787,5.065-2.787,8.782
		c0,3.823,0.896,6.776,2.687,8.861s4.346,3.127,7.663,3.127c2.038,0,4.362-0.366,6.973-1.1v2.978
		c-2.025,0.759-4.522,1.139-7.493,1.139c-4.303,0-7.623-1.305-9.96-3.916c-2.338-2.61-3.507-6.32-3.507-11.129
		c0-3.011,0.563-5.647,1.688-7.913c1.125-2.264,2.75-4.009,4.875-5.234s4.625-1.838,7.503-1.838c3.063,0,5.741,0.559,8.032,1.678
		l-1.438,2.917C53.945,108.369,51.734,107.851,49.523,107.851z"/>
	<path fill="#FFFFFF" d="M85.194,134.444h-3.397v-13.747H66.412v13.747h-3.396v-29.212h3.396v12.428h15.385v-12.428h3.397V134.444z"
		/>
	<path fill="#FFFFFF" d="M111.377,134.444l-3.637-9.291H96.032l-3.597,9.291h-3.437l11.549-29.332h2.857l11.489,29.332H111.377z
		 M106.682,122.097l-3.396-9.052c-0.439-1.146-0.893-2.551-1.359-4.216c-0.293,1.279-0.712,2.685-1.259,4.216l-3.437,9.052H106.682z
		"/>
	<path fill="#FFFFFF" d="M138.767,117.261l6.094-12.028h6.673l-9.69,17.843v11.369h-6.154v-11.169l-9.69-18.043h6.713
		L138.767,117.261z"/>
	<path fill="#FFFFFF" d="M172.499,134.444h-16.824v-29.212h16.824v5.075H161.87v6.414h9.89v5.075h-9.89v7.532h10.629V134.444z"/>
	<path fill="#FFFFFF" d="M196.559,134.444l-2.118-6.953h-10.65l-2.117,6.953h-6.674l10.31-29.332h7.573l10.35,29.332H196.559z
		 M192.962,122.296c-1.958-6.3-3.061-9.863-3.307-10.689c-0.247-0.826-0.424-1.479-0.53-1.958
		c-0.439,1.705-1.698,5.921-3.776,12.647H192.962z"/>
	<path fill="#FFFFFF" d="M212.869,123.235v11.209h-6.193v-29.212h8.512c3.969,0,6.906,0.723,8.812,2.168
		c1.904,1.445,2.856,3.64,2.856,6.584c0,1.718-0.473,3.247-1.418,4.585c-0.946,1.339-2.285,2.388-4.017,3.147
		c4.396,6.567,7.26,10.81,8.592,12.728h-6.873l-6.974-11.209H212.869z M212.869,118.2h1.998c1.958,0,3.403-0.326,4.336-0.979
		c0.933-0.652,1.398-1.678,1.398-3.077c0-1.385-0.476-2.37-1.429-2.957c-0.952-0.586-2.427-0.879-4.425-0.879h-1.879V118.2z"/>
</g>
<g>
	<path fill="#FFFFFF" d="M4.028,177.212v-32.005h6.787v32.005H4.028z"/>
	<path fill="#FFFFFF" d="M47.421,177.212h-8.625L24.873,153h-0.197c0.277,4.276,0.416,7.326,0.416,9.15v15.062h-6.064v-32.005h8.56
		l13.901,23.971h0.153c-0.219-4.159-0.328-7.1-0.328-8.822v-15.148h6.107V177.212z"/>
	<path fill="#FFFFFF" d="M73.814,164.931v12.281h-6.787v-32.005h9.326c4.349,0,7.567,0.792,9.654,2.375
		c2.087,1.584,3.13,3.988,3.13,7.213c0,1.883-0.518,3.558-1.554,5.024c-1.037,1.467-2.503,2.616-4.4,3.448
		c4.816,7.194,7.954,11.843,9.414,13.944h-7.531l-7.64-12.281H73.814z M73.814,159.414h2.189c2.146,0,3.729-0.357,4.75-1.072
		c1.021-0.715,1.532-1.839,1.532-3.371c0-1.518-0.522-2.598-1.565-3.24c-1.044-0.642-2.66-0.963-4.849-0.963h-2.058V159.414z"/>
	<path fill="#FFFFFF" d="M115.46,177.212H97.028v-32.005h18.433v5.561h-11.646v7.026h10.836v5.561h-10.836v8.253h11.646V177.212z"/>
	<path fill="#FFFFFF" d="M140.285,145.207h6.852l-10.88,32.005h-7.399L118,145.207h6.852l6.02,19.045
		c0.335,1.124,0.682,2.434,1.04,3.93c0.357,1.496,0.58,2.536,0.667,3.119c0.161-1.342,0.708-3.691,1.642-7.049L140.285,145.207z"/>
	<path fill="#FFFFFF" d="M151.028,177.212v-32.005h6.787v32.005H151.028z"/>
	<path fill="#FFFFFF" d="M184.461,177.212h-18.433v-32.005h18.433v5.561h-11.646v7.026h10.836v5.561h-10.836v8.253h11.646V177.212z"
		/>
	<path fill="#FFFFFF" d="M222.201,177.212h-7.728l-4.335-16.813c-0.16-0.599-0.434-1.835-0.82-3.711
		c-0.387-1.875-0.609-3.134-0.668-3.776c-0.088,0.788-0.307,2.055-0.656,3.799c-0.351,1.744-0.621,2.988-0.811,3.732l-4.313,16.769
		h-7.706L187,145.207h6.677l4.094,17.469c0.715,3.226,1.233,6.021,1.555,8.385c0.087-0.832,0.288-2.12,0.602-3.864
		c0.313-1.743,0.609-3.098,0.887-4.061l4.663-17.929h6.414l4.663,17.929c0.204,0.803,0.459,2.028,0.766,3.678s0.54,3.064,0.7,4.247
		c0.146-1.139,0.38-2.558,0.701-4.258c0.32-1.7,0.612-3.076,0.875-4.127l4.072-17.469h6.677L222.201,177.212z"/>
</g>
<g>
</g>
<g>
</g>
<g>
</g>
<g>
</g>
<g>
</g>
<g>
</g>
</svg>
