<?xml version="1.0" encoding="utf-8"?>
<!-- Generator: Adobe Illustrator 16.0.0, SVG Export Plug-In . SVG Version: 6.00 Build 0)  -->
<!DOCTYPE svg PUBLIC "-//W3C//DTD SVG 1.1//EN" "http://www.w3.org/Graphics/SVG/1.1/DTD/svg11.dtd">
<svg version="1.1" id="Layer_1" xmlns="http://www.w3.org/2000/svg" xmlns:xlink="http://www.w3.org/1999/xlink" x="0px" y="0px"
	 width="100px" height="81.269px" viewBox="86.695 70.456 100 81.269" enable-background="new 86.695 70.456 100 81.269"
	 xml:space="preserve">
<path fill="#1BACE3" d="M186.695,80.076c-3.68,1.632-7.633,2.734-11.784,3.229c4.235-2.539,7.489-6.56,9.021-11.35
	c-3.964,2.351-8.354,4.058-13.027,4.979c-3.742-3.986-9.074-6.479-14.975-6.479c-11.332,0-20.518,9.186-20.518,20.516
	c0,1.608,0.182,3.174,0.531,4.675c-17.051-0.854-32.168-9.022-42.287-21.436c-1.766,3.03-2.777,6.554-2.777,10.313
	c0,7.118,3.622,13.397,9.127,17.077c-3.363-0.105-6.527-1.028-9.293-2.565c-0.001,0.086-0.001,0.172-0.001,0.258
	c0,9.939,7.072,18.232,16.457,20.117c-1.722,0.469-3.534,0.72-5.405,0.72c-1.322,0-2.606-0.129-3.859-0.368
	c2.611,8.151,10.188,14.083,19.166,14.249c-7.022,5.502-15.868,8.781-25.48,8.781c-1.656,0-3.289-0.097-4.895-0.286
	c9.08,5.821,19.865,9.218,31.449,9.218c37.737,0,58.373-31.262,58.373-58.373c0-0.89-0.021-1.773-0.06-2.653
	C180.466,87.803,183.943,84.19,186.695,80.076z"/>
</svg>
