<?xml version="1.0" encoding="utf-8"?>
<!-- Generator: Adobe Illustrator 16.0.0, SVG Export Plug-In . SVG Version: 6.00 Build 0)  -->
<!DOCTYPE svg PUBLIC "-//W3C//DTD SVG 1.1//EN" "http://www.w3.org/Graphics/SVG/1.1/DTD/svg11.dtd">
<svg version="1.1" id="graph" xmlns="http://www.w3.org/2000/svg" xmlns:xlink="http://www.w3.org/1999/xlink" x="0px" y="0px"
	 width="880px" height="375px" viewBox="0 0 880 375" enable-background="new 0 0 880 375" xml:space="preserve">
<g>
	<path fill="none" stroke="#CC3333" stroke-miterlimit="10" stroke-dasharray="2.2,2.2" d="M31.108,317.451h635.598 M31.108,284.764
		h635.598 M31.108,252.074h635.598 M31.108,219.387h635.598 M31.108,186.59h635.598 M31.108,153.901h635.598 M31.108,121.213
		h635.598 M31.108,88.524h635.598 M31.108,55.836h635.598"/>
</g>
<g id="tick_mark">
	
		<line fill="none" stroke="#FFFFFF" stroke-width="0.5" stroke-linejoin="round" stroke-miterlimit="10" x1="31.108" y1="350.141" x2="31.108" y2="353.448"/>
	
		<line fill="none" stroke="#FFFFFF" stroke-width="0.5" stroke-linejoin="round" stroke-miterlimit="10" x1="31.108" y1="350.141" x2="31.108" y2="354.605"/>
	
		<line fill="none" stroke="#FFFFFF" stroke-width="0.5" stroke-linejoin="round" stroke-miterlimit="10" x1="294.867" y1="350.141" x2="294.867" y2="354.605"/>
	
		<line fill="none" stroke="#FFFFFF" stroke-width="0.5" stroke-linejoin="round" stroke-miterlimit="10" x1="559.559" y1="350.141" x2="559.559" y2="354.605"/>
</g>
<line fill="none" stroke="#CC3333" stroke-width="3" stroke-miterlimit="10" x1="31.108" y1="350.141" x2="666.706" y2="350.141"/>
<g id="labels">
	<g enable-background="new    ">
		<path fill="#CC3333" d="M24.56,348.379c0,1.48-0.233,2.586-0.7,3.316s-1.181,1.096-2.142,1.096c-0.922,0-1.623-0.374-2.104-1.122
			s-0.721-1.845-0.721-3.29c0-1.492,0.232-2.6,0.697-3.322s1.174-1.084,2.127-1.084c0.93,0,1.636,0.377,2.118,1.131
			S24.56,346.949,24.56,348.379z M19.878,348.379c0,1.246,0.146,2.153,0.439,2.722s0.76,0.853,1.4,0.853
			c0.648,0,1.118-0.288,1.409-0.864s0.437-1.479,0.437-2.71s-0.146-2.132-0.437-2.704s-0.761-0.858-1.409-0.858
			c-0.641,0-1.107,0.282-1.4,0.847S19.878,347.133,19.878,348.379z"/>
	</g>
	<g enable-background="new    ">
		<path fill="#CC3333" d="M19.984,319.969h-5.631v-0.838l2.256-2.268c0.688-0.695,1.141-1.191,1.359-1.488s0.383-0.586,0.492-0.867
			s0.164-0.584,0.164-0.908c0-0.457-0.139-0.819-0.416-1.087s-0.662-0.401-1.154-0.401c-0.355,0-0.692,0.059-1.011,0.176
			s-0.673,0.33-1.063,0.639l-0.516-0.662c0.789-0.656,1.648-0.984,2.578-0.984c0.805,0,1.436,0.206,1.893,0.618
			s0.686,0.966,0.686,1.661c0,0.543-0.152,1.08-0.457,1.611s-0.875,1.203-1.711,2.016l-1.875,1.834v0.047h4.406V319.969z"/>
		<path fill="#CC3333" d="M26.893,315.674c0,1.48-0.233,2.586-0.7,3.316s-1.181,1.096-2.142,1.096c-0.922,0-1.623-0.374-2.104-1.122
			s-0.721-1.845-0.721-3.29c0-1.492,0.232-2.6,0.697-3.322s1.174-1.084,2.127-1.084c0.93,0,1.636,0.377,2.118,1.131
			S26.893,314.244,26.893,315.674z M22.211,315.674c0,1.246,0.146,2.153,0.439,2.722s0.76,0.853,1.4,0.853
			c0.648,0,1.118-0.288,1.409-0.864s0.437-1.479,0.437-2.71s-0.146-2.132-0.437-2.704s-0.761-0.858-1.409-0.858
			c-0.641,0-1.107,0.282-1.4,0.847S22.211,314.428,22.211,315.674z"/>
	</g>
	<g enable-background="new    ">
		<path fill="#CC3333" d="M20.389,285.289h-1.271v1.969h-0.932v-1.969H14.02v-0.85l4.066-5.795h1.031v5.76h1.271V285.289z
			 M18.186,284.404v-2.848c0-0.559,0.02-1.189,0.059-1.893h-0.047c-0.188,0.375-0.363,0.686-0.527,0.932l-2.678,3.809H18.186z"/>
		<path fill="#CC3333" d="M26.893,282.963c0,1.48-0.233,2.586-0.7,3.316s-1.181,1.096-2.142,1.096c-0.922,0-1.623-0.374-2.104-1.122
			s-0.721-1.845-0.721-3.29c0-1.492,0.232-2.6,0.697-3.322s1.174-1.084,2.127-1.084c0.93,0,1.636,0.377,2.118,1.131
			S26.893,281.533,26.893,282.963z M22.211,282.963c0,1.246,0.146,2.153,0.439,2.722s0.76,0.853,1.4,0.853
			c0.648,0,1.118-0.288,1.409-0.864s0.437-1.479,0.437-2.71s-0.146-2.132-0.437-2.704s-0.761-0.858-1.409-0.858
			c-0.641,0-1.107,0.282-1.4,0.847S22.211,281.717,22.211,282.963z"/>
	</g>
	<g enable-background="new    ">
		<path fill="#CC3333" d="M14.453,250.893c0-1.684,0.327-2.942,0.981-3.776s1.622-1.251,2.903-1.251
			c0.441,0,0.789,0.037,1.043,0.111v0.838c-0.301-0.098-0.645-0.146-1.031-0.146c-0.918,0-1.619,0.286-2.104,0.858
			s-0.75,1.472-0.797,2.698h0.07c0.43-0.672,1.109-1.008,2.039-1.008c0.77,0,1.376,0.232,1.819,0.697s0.665,1.096,0.665,1.893
			c0,0.891-0.243,1.591-0.729,2.101s-1.144,0.765-1.972,0.765c-0.887,0-1.59-0.333-2.109-0.999S14.453,252.08,14.453,250.893z
			 M17.33,253.846c0.555,0,0.985-0.175,1.292-0.524s0.46-0.854,0.46-1.515c0-0.566-0.143-1.012-0.428-1.336
			s-0.711-0.486-1.277-0.486c-0.352,0-0.674,0.072-0.967,0.217s-0.526,0.344-0.7,0.598s-0.261,0.518-0.261,0.791
			c0,0.402,0.078,0.777,0.234,1.125s0.378,0.623,0.665,0.826S16.963,253.846,17.33,253.846z"/>
		<path fill="#CC3333" d="M26.893,250.26c0,1.48-0.233,2.586-0.7,3.316s-1.181,1.096-2.142,1.096c-0.922,0-1.623-0.374-2.104-1.122
			s-0.721-1.845-0.721-3.29c0-1.492,0.232-2.6,0.697-3.322s1.174-1.084,2.127-1.084c0.93,0,1.636,0.377,2.118,1.131
			S26.893,248.83,26.893,250.26z M22.211,250.26c0,1.246,0.146,2.153,0.439,2.722s0.76,0.853,1.4,0.853
			c0.648,0,1.118-0.288,1.409-0.864s0.437-1.479,0.437-2.71s-0.146-2.132-0.437-2.704s-0.761-0.858-1.409-0.858
			c-0.641,0-1.107,0.282-1.4,0.847S22.211,249.014,22.211,250.26z"/>
	</g>
	<g enable-background="new    ">
		<path fill="#CC3333" d="M17.189,213.154c0.781,0,1.4,0.182,1.857,0.545s0.686,0.865,0.686,1.506c0,0.422-0.131,0.807-0.393,1.154
			s-0.68,0.664-1.254,0.949c0.695,0.332,1.189,0.681,1.482,1.046s0.439,0.788,0.439,1.269c0,0.711-0.248,1.278-0.744,1.702
			s-1.176,0.636-2.039,0.636c-0.914,0-1.617-0.2-2.109-0.601s-0.738-0.968-0.738-1.702c0-0.98,0.598-1.744,1.793-2.291
			c-0.539-0.305-0.926-0.634-1.16-0.987s-0.352-0.749-0.352-1.187c0-0.621,0.229-1.116,0.688-1.485S16.42,213.154,17.189,213.154z
			 M15.338,219.682c0,0.469,0.163,0.834,0.489,1.096s0.784,0.393,1.374,0.393c0.582,0,1.035-0.137,1.359-0.41
			s0.486-0.648,0.486-1.125c0-0.379-0.152-0.716-0.457-1.011s-0.836-0.581-1.594-0.858c-0.582,0.25-1.004,0.526-1.266,0.829
			S15.338,219.26,15.338,219.682z M17.178,213.945c-0.488,0-0.871,0.117-1.148,0.352s-0.416,0.547-0.416,0.938
			c0,0.359,0.115,0.668,0.346,0.926s0.656,0.516,1.277,0.773c0.559-0.234,0.954-0.486,1.187-0.756s0.349-0.584,0.349-0.943
			c0-0.395-0.142-0.708-0.425-0.94S17.674,213.945,17.178,213.945z"/>
		<path fill="#CC3333" d="M26.893,217.549c0,1.48-0.233,2.586-0.7,3.316s-1.181,1.096-2.142,1.096c-0.922,0-1.623-0.374-2.104-1.122
			s-0.721-1.845-0.721-3.29c0-1.492,0.232-2.6,0.697-3.322s1.174-1.084,2.127-1.084c0.93,0,1.636,0.377,2.118,1.131
			S26.893,216.119,26.893,217.549z M22.211,217.549c0,1.246,0.146,2.153,0.439,2.722s0.76,0.853,1.4,0.853
			c0.648,0,1.118-0.288,1.409-0.864s0.437-1.479,0.437-2.71s-0.146-2.132-0.437-2.704s-0.761-0.858-1.409-0.858
			c-0.641,0-1.107,0.282-1.4,0.847S22.211,216.303,22.211,217.549z"/>
	</g>
	<g enable-background="new    ">
		<path fill="#CC3333" d="M13.422,189.139h-0.949v-6.105c0-0.508,0.016-0.988,0.047-1.441c-0.082,0.082-0.174,0.168-0.275,0.258
			s-0.566,0.471-1.395,1.143l-0.516-0.668l2.268-1.752h0.82V189.139z"/>
	</g>
	<g enable-background="new    ">
		<path fill="#CC3333" d="M22.357,184.844c0,1.48-0.233,2.586-0.7,3.316s-1.181,1.096-2.142,1.096c-0.922,0-1.623-0.374-2.104-1.122
			s-0.721-1.845-0.721-3.29c0-1.492,0.232-2.6,0.697-3.322s1.174-1.084,2.127-1.084c0.93,0,1.636,0.377,2.118,1.131
			S22.357,183.414,22.357,184.844z M17.676,184.844c0,1.246,0.146,2.153,0.439,2.722s0.76,0.853,1.4,0.853
			c0.648,0,1.118-0.288,1.409-0.864s0.437-1.479,0.437-2.71s-0.146-2.132-0.437-2.704s-0.761-0.858-1.409-0.858
			c-0.641,0-1.107,0.282-1.4,0.847S17.676,183.598,17.676,184.844z"/>
	</g>
	<g enable-background="new    ">
		<path fill="#CC3333" d="M29.351,184.844c0,1.48-0.233,2.586-0.7,3.316s-1.181,1.096-2.142,1.096c-0.922,0-1.623-0.374-2.104-1.122
			s-0.721-1.845-0.721-3.29c0-1.492,0.232-2.6,0.697-3.322s1.174-1.084,2.127-1.084c0.93,0,1.636,0.377,2.118,1.131
			S29.351,183.414,29.351,184.844z M24.669,184.844c0,1.246,0.146,2.153,0.439,2.722s0.76,0.853,1.4,0.853
			c0.648,0,1.118-0.288,1.409-0.864s0.437-1.479,0.437-2.71s-0.146-2.132-0.437-2.704s-0.761-0.858-1.409-0.858
			c-0.641,0-1.107,0.282-1.4,0.847S24.669,183.598,24.669,184.844z"/>
	</g>
	<g enable-background="new    ">
		<path fill="#CC3333" d="M13.422,156.428h-0.949v-6.105c0-0.508,0.016-0.988,0.047-1.441c-0.082,0.082-0.174,0.168-0.275,0.258
			s-0.566,0.471-1.395,1.143l-0.516-0.668l2.268-1.752h0.82V156.428z"/>
	</g>
	<g enable-background="new    ">
		<path fill="#CC3333" d="M22.311,156.428H16.68v-0.838l2.256-2.268c0.688-0.695,1.141-1.191,1.359-1.488s0.383-0.586,0.492-0.867
			s0.164-0.584,0.164-0.908c0-0.457-0.139-0.819-0.416-1.087s-0.662-0.401-1.154-0.401c-0.355,0-0.692,0.059-1.011,0.176
			s-0.673,0.33-1.063,0.639l-0.516-0.662c0.789-0.656,1.648-0.984,2.578-0.984c0.805,0,1.436,0.206,1.893,0.618
			s0.686,0.966,0.686,1.661c0,0.543-0.152,1.08-0.457,1.611s-0.875,1.203-1.711,2.016l-1.875,1.834v0.047h4.406V156.428z"/>
	</g>
	<g enable-background="new    ">
		<path fill="#CC3333" d="M29.351,152.133c0,1.48-0.233,2.586-0.7,3.316s-1.181,1.096-2.142,1.096c-0.922,0-1.623-0.374-2.104-1.122
			s-0.721-1.845-0.721-3.29c0-1.492,0.232-2.6,0.697-3.322s1.174-1.084,2.127-1.084c0.93,0,1.636,0.377,2.118,1.131
			S29.351,150.703,29.351,152.133z M24.669,152.133c0,1.246,0.146,2.153,0.439,2.722s0.76,0.853,1.4,0.853
			c0.648,0,1.118-0.288,1.409-0.864s0.437-1.479,0.437-2.71s-0.146-2.132-0.437-2.704s-0.761-0.858-1.409-0.858
			c-0.641,0-1.107,0.282-1.4,0.847S24.669,150.887,24.669,152.133z"/>
	</g>
	<g enable-background="new    ">
		<path fill="#CC3333" d="M13.422,123.717h-0.949v-6.105c0-0.508,0.016-0.988,0.047-1.441c-0.082,0.082-0.174,0.168-0.275,0.258
			s-0.566,0.471-1.395,1.143l-0.516-0.668l2.268-1.752h0.82V123.717z"/>
	</g>
	<g enable-background="new    ">
		<path fill="#CC3333" d="M22.715,121.748h-1.271v1.969h-0.932v-1.969h-4.166v-0.85l4.066-5.795h1.031v5.76h1.271V121.748z
			 M20.512,120.863v-2.848c0-0.559,0.02-1.189,0.059-1.893h-0.047c-0.188,0.375-0.363,0.686-0.527,0.932l-2.678,3.809H20.512z"/>
	</g>
	<g enable-background="new    ">
		<path fill="#CC3333" d="M29.351,119.422c0,1.48-0.233,2.586-0.7,3.316s-1.181,1.096-2.142,1.096c-0.922,0-1.623-0.374-2.104-1.122
			s-0.721-1.845-0.721-3.29c0-1.492,0.232-2.6,0.697-3.322s1.174-1.084,2.127-1.084c0.93,0,1.636,0.377,2.118,1.131
			S29.351,117.992,29.351,119.422z M24.669,119.422c0,1.246,0.146,2.153,0.439,2.722s0.76,0.853,1.4,0.853
			c0.648,0,1.118-0.288,1.409-0.864s0.437-1.479,0.437-2.71s-0.146-2.132-0.437-2.704s-0.761-0.858-1.409-0.858
			c-0.641,0-1.107,0.282-1.4,0.847S24.669,118.176,24.669,119.422z"/>
	</g>
	<g enable-background="new    ">
		<path fill="#CC3333" d="M13.422,91.006h-0.949V84.9c0-0.508,0.016-0.988,0.047-1.441c-0.082,0.082-0.174,0.168-0.275,0.258
			s-0.566,0.471-1.395,1.143l-0.516-0.668l2.268-1.752h0.82V91.006z"/>
	</g>
	<g enable-background="new    ">
		<path fill="#CC3333" d="M16.779,87.344c0-1.684,0.327-2.942,0.981-3.776s1.622-1.251,2.903-1.251c0.441,0,0.789,0.037,1.043,0.111
			v0.838c-0.301-0.098-0.645-0.146-1.031-0.146c-0.918,0-1.619,0.286-2.104,0.858s-0.75,1.472-0.797,2.698h0.07
			c0.43-0.672,1.109-1.008,2.039-1.008c0.77,0,1.376,0.232,1.819,0.697s0.665,1.096,0.665,1.893c0,0.891-0.243,1.591-0.729,2.101
			s-1.144,0.765-1.972,0.765c-0.887,0-1.59-0.333-2.109-0.999S16.779,88.531,16.779,87.344z M19.656,90.297
			c0.555,0,0.985-0.175,1.292-0.524s0.46-0.854,0.46-1.515c0-0.566-0.143-1.012-0.428-1.336s-0.711-0.486-1.277-0.486
			c-0.352,0-0.674,0.072-0.967,0.217s-0.526,0.344-0.7,0.598s-0.261,0.518-0.261,0.791c0,0.402,0.078,0.777,0.234,1.125
			s0.378,0.623,0.665,0.826S19.289,90.297,19.656,90.297z"/>
	</g>
	<g enable-background="new    ">
		<path fill="#CC3333" d="M29.351,86.711c0,1.48-0.233,2.586-0.7,3.316s-1.181,1.096-2.142,1.096c-0.922,0-1.623-0.374-2.104-1.122
			s-0.721-1.845-0.721-3.29c0-1.492,0.232-2.6,0.697-3.322s1.174-1.084,2.127-1.084c0.93,0,1.636,0.377,2.118,1.131
			S29.351,85.281,29.351,86.711z M24.669,86.711c0,1.246,0.146,2.153,0.439,2.722s0.76,0.853,1.4,0.853
			c0.648,0,1.118-0.288,1.409-0.864s0.437-1.479,0.437-2.71s-0.146-2.132-0.437-2.704s-0.761-0.858-1.409-0.858
			c-0.641,0-1.107,0.282-1.4,0.847S24.669,85.465,24.669,86.711z"/>
	</g>
	<g enable-background="new    ">
		<path fill="#CC3333" d="M13.422,58.303h-0.949v-6.105c0-0.508,0.016-0.988,0.047-1.441c-0.082,0.082-0.174,0.168-0.275,0.258
			s-0.566,0.471-1.395,1.143l-0.516-0.668l2.268-1.752h0.82V58.303z"/>
	</g>
	<g enable-background="new    ">
		<path fill="#CC3333" d="M19.516,49.613c0.781,0,1.4,0.182,1.857,0.545s0.686,0.865,0.686,1.506c0,0.422-0.131,0.807-0.393,1.154
			s-0.68,0.664-1.254,0.949c0.695,0.332,1.189,0.681,1.482,1.046s0.439,0.788,0.439,1.269c0,0.711-0.248,1.278-0.744,1.702
			s-1.176,0.636-2.039,0.636c-0.914,0-1.617-0.2-2.109-0.601s-0.738-0.968-0.738-1.702c0-0.98,0.598-1.744,1.793-2.291
			c-0.539-0.305-0.926-0.634-1.16-0.987s-0.352-0.749-0.352-1.187c0-0.621,0.229-1.116,0.688-1.485S18.746,49.613,19.516,49.613z
			 M17.664,56.141c0,0.469,0.163,0.834,0.489,1.096s0.784,0.393,1.374,0.393c0.582,0,1.035-0.137,1.359-0.41
			s0.486-0.648,0.486-1.125c0-0.379-0.152-0.716-0.457-1.011s-0.836-0.581-1.594-0.858c-0.582,0.25-1.004,0.526-1.266,0.829
			S17.664,55.719,17.664,56.141z M19.504,50.404c-0.488,0-0.871,0.117-1.148,0.352s-0.416,0.547-0.416,0.938
			c0,0.359,0.115,0.668,0.346,0.926s0.656,0.516,1.277,0.773c0.559-0.234,0.954-0.486,1.187-0.756s0.349-0.584,0.349-0.943
			c0-0.395-0.142-0.708-0.425-0.94S20,50.404,19.504,50.404z"/>
	</g>
	<g enable-background="new    ">
		<path fill="#CC3333" d="M29.351,54.008c0,1.48-0.233,2.586-0.7,3.316s-1.181,1.096-2.142,1.096c-0.922,0-1.623-0.374-2.104-1.122
			s-0.721-1.845-0.721-3.29c0-1.492,0.232-2.6,0.697-3.322s1.174-1.084,2.127-1.084c0.93,0,1.636,0.377,2.118,1.131
			S29.351,52.578,29.351,54.008z M24.669,54.008c0,1.246,0.146,2.153,0.439,2.722s0.76,0.853,1.4,0.853
			c0.648,0,1.118-0.288,1.409-0.864s0.437-1.479,0.437-2.71s-0.146-2.132-0.437-2.704s-0.761-0.858-1.409-0.858
			c-0.641,0-1.107,0.282-1.4,0.847S24.669,52.762,24.669,54.008z"/>
	</g>
</g>
<g id="date">
	<g enable-background="new    ">
		<path fill="#FFFFFF" d="M25.868,368.284h-0.949v-6.105c0-0.508,0.016-0.988,0.047-1.441c-0.082,0.082-0.174,0.168-0.275,0.258
			s-0.566,0.471-1.395,1.143l-0.516-0.668l2.268-1.752h0.82V368.284z"/>
	</g>
	<g enable-background="new    ">
		<path fill="#FFFFFF" d="M31.587,370.54c-0.367,0-0.656-0.053-0.867-0.158v-0.85c0.277,0.078,0.566,0.117,0.867,0.117
			c0.387,0,0.681-0.117,0.882-0.352s0.302-0.572,0.302-1.014v-8.566h0.996v8.484c0,0.742-0.188,1.317-0.563,1.726
			S32.291,370.54,31.587,370.54z"/>
	</g>
	<g enable-background="new    ">
		<path fill="#FFFFFF" d="M36.748,361.862v4.166c0,0.523,0.119,0.914,0.357,1.172s0.611,0.387,1.119,0.387
			c0.672,0,1.163-0.184,1.474-0.551s0.466-0.967,0.466-1.799v-3.375h0.973v6.422h-0.803l-0.141-0.861h-0.053
			c-0.199,0.316-0.476,0.559-0.829,0.727s-0.757,0.252-1.21,0.252c-0.781,0-1.366-0.186-1.755-0.557s-0.583-0.965-0.583-1.781
			v-4.201H36.748z"/>
	</g>
	<g enable-background="new    ">
		<path fill="#FFFFFF" d="M44.22,368.284h-0.973v-9.117h0.973V368.284z"/>
	</g>
	<g enable-background="new    ">
		<path fill="#FFFFFF" d="M287.349,368.284H286.4v-6.105c0-0.508,0.016-0.988,0.047-1.441c-0.082,0.082-0.174,0.168-0.275,0.258
			s-0.566,0.471-1.395,1.143l-0.516-0.668l2.268-1.752h0.82V368.284z"/>
		<path fill="#FFFFFF" d="M299.701,368.284l-1.066-2.725h-3.434l-1.055,2.725h-1.008l3.387-8.602h0.838l3.369,8.602H299.701z
			 M298.324,364.663l-0.996-2.654c-0.129-0.336-0.262-0.748-0.398-1.236c-0.086,0.375-0.209,0.787-0.369,1.236l-1.008,2.654H298.324
			z"/>
	</g>
	<g enable-background="new    ">
		<path fill="#FFFFFF" d="M302.677,361.862v4.166c0,0.523,0.119,0.914,0.357,1.172s0.611,0.387,1.119,0.387
			c0.672,0,1.163-0.184,1.474-0.551s0.466-0.967,0.466-1.799v-3.375h0.973v6.422h-0.803l-0.141-0.861h-0.053
			c-0.199,0.316-0.476,0.559-0.829,0.727s-0.757,0.252-1.21,0.252c-0.781,0-1.366-0.186-1.755-0.557s-0.583-0.965-0.583-1.781
			v-4.201H302.677z"/>
	</g>
	<g enable-background="new    ">
		<path fill="#FFFFFF" d="M314.432,361.862v0.615l-1.189,0.141c0.109,0.137,0.207,0.315,0.293,0.536s0.129,0.47,0.129,0.747
			c0,0.629-0.215,1.131-0.645,1.506s-1.02,0.563-1.77,0.563c-0.191,0-0.371-0.016-0.539-0.047c-0.414,0.219-0.621,0.494-0.621,0.826
			c0,0.176,0.072,0.306,0.217,0.39s0.393,0.126,0.744,0.126h1.137c0.695,0,1.229,0.146,1.603,0.439s0.56,0.719,0.56,1.277
			c0,0.711-0.285,1.253-0.855,1.626s-1.402,0.56-2.496,0.56c-0.84,0-1.487-0.156-1.942-0.469s-0.683-0.754-0.683-1.324
			c0-0.391,0.125-0.729,0.375-1.014s0.602-0.479,1.055-0.58c-0.164-0.074-0.302-0.189-0.413-0.346s-0.167-0.338-0.167-0.545
			c0-0.234,0.063-0.439,0.188-0.615s0.322-0.346,0.592-0.51c-0.332-0.137-0.603-0.369-0.812-0.697s-0.313-0.703-0.313-1.125
			c0-0.703,0.211-1.245,0.633-1.626s1.02-0.571,1.793-0.571c0.336,0,0.639,0.039,0.908,0.117H314.432z M309.311,369.362
			c0,0.348,0.146,0.611,0.439,0.791s0.713,0.27,1.26,0.27c0.816,0,1.421-0.122,1.813-0.366s0.589-0.575,0.589-0.993
			c0-0.348-0.107-0.589-0.322-0.724s-0.619-0.202-1.213-0.202h-1.166c-0.441,0-0.785,0.105-1.031,0.316
			S309.311,368.968,309.311,369.362z M309.838,363.919c0,0.449,0.127,0.789,0.381,1.02s0.607,0.346,1.061,0.346
			c0.949,0,1.424-0.461,1.424-1.383c0-0.965-0.48-1.447-1.441-1.447c-0.457,0-0.809,0.123-1.055,0.369
			S309.838,363.435,309.838,363.919z"/>
	</g>
	<g enable-background="new    ">
		<path fill="#FFFFFF" d="M552.507,368.284h-0.949v-6.105c0-0.508,0.016-0.988,0.047-1.441c-0.082,0.082-0.174,0.168-0.275,0.258
			s-0.566,0.471-1.395,1.143l-0.516-0.668l2.268-1.752h0.82V368.284z"/>
	</g>
	<g enable-background="new    ">
		<path fill="#FFFFFF" d="M564.309,366.005c0,0.754-0.273,1.342-0.82,1.764s-1.289,0.633-2.227,0.633
			c-1.016,0-1.797-0.131-2.344-0.393v-0.961c0.352,0.148,0.734,0.266,1.148,0.352s0.824,0.129,1.23,0.129
			c0.664,0,1.164-0.126,1.5-0.378s0.504-0.603,0.504-1.052c0-0.297-0.061-0.54-0.18-0.729s-0.318-0.364-0.598-0.524
			s-0.703-0.342-1.273-0.545c-0.797-0.285-1.367-0.623-1.709-1.014s-0.512-0.9-0.512-1.529c0-0.66,0.248-1.186,0.744-1.576
			s1.152-0.586,1.969-0.586c0.852,0,1.635,0.156,2.35,0.469l-0.311,0.867c-0.707-0.297-1.395-0.445-2.063-0.445
			c-0.527,0-0.939,0.113-1.236,0.34s-0.445,0.541-0.445,0.943c0,0.297,0.055,0.54,0.164,0.729s0.293,0.363,0.553,0.521
			s0.658,0.333,1.193,0.524c0.898,0.32,1.516,0.664,1.854,1.031S564.309,365.419,564.309,366.005z"/>
	</g>
	<g enable-background="new    ">
		<path fill="#FFFFFF" d="M568.614,368.401c-0.949,0-1.698-0.289-2.247-0.867s-0.823-1.381-0.823-2.408
			c0-1.035,0.255-1.857,0.765-2.467s1.194-0.914,2.054-0.914c0.805,0,1.441,0.265,1.91,0.794s0.703,1.228,0.703,2.095v0.615h-4.424
			c0.02,0.754,0.21,1.326,0.571,1.717s0.87,0.586,1.526,0.586c0.691,0,1.375-0.145,2.051-0.434v0.867
			c-0.344,0.148-0.669,0.255-0.976,0.319S569.048,368.401,568.614,368.401z M568.351,362.56c-0.516,0-0.927,0.168-1.233,0.504
			s-0.487,0.801-0.542,1.395h3.357c0-0.613-0.137-1.083-0.41-1.409S568.858,362.56,568.351,362.56z"/>
	</g>
	<g enable-background="new    ">
		<path fill="#FFFFFF" d="M575.718,368.401c-0.418,0-0.8-0.077-1.146-0.231s-0.636-0.392-0.87-0.712h-0.07
			c0.047,0.375,0.07,0.73,0.07,1.066v2.643h-0.973v-9.305h0.791l0.135,0.879h0.047c0.25-0.352,0.541-0.605,0.873-0.762
			s0.713-0.234,1.143-0.234c0.852,0,1.509,0.291,1.972,0.873s0.694,1.398,0.694,2.449c0,1.055-0.235,1.874-0.706,2.458
			S576.554,368.401,575.718,368.401z M575.577,362.571c-0.656,0-1.131,0.182-1.424,0.545s-0.443,0.941-0.451,1.734v0.217
			c0,0.902,0.15,1.548,0.451,1.937s0.783,0.583,1.447,0.583c0.555,0,0.989-0.225,1.304-0.674s0.472-1.068,0.472-1.857
			c0-0.801-0.157-1.415-0.472-1.843S576.147,362.571,575.577,362.571z"/>
	</g>
</g>
</svg>
