<?xml version="1.0" encoding="utf-8"?>
<!-- Generator: Adobe Illustrator 16.0.0, SVG Export Plug-In . SVG Version: 6.00 Build 0)  -->
<!DOCTYPE svg PUBLIC "-//W3C//DTD SVG 1.1//EN" "http://www.w3.org/Graphics/SVG/1.1/DTD/svg11.dtd">
<svg version="1.1" id="Layer_1" xmlns="http://www.w3.org/2000/svg" xmlns:xlink="http://www.w3.org/1999/xlink" x="0px" y="0px"
	 width="45px" height="23.836px" viewBox="0 0 45 23.836" enable-background="new 0 0 45 23.836" xml:space="preserve">
<g>
	<g>
		<polygon fill="#ED1C24" points="0,23.836 9.579,21.599 1.58,15.875 13.211,18.723 6.091,9.131 15.562,15.987 12.833,4.623 
			18.556,12.622 20.793,0 23.03,12.622 28.756,4.623 27.142,14.326 34.133,10.509 30.303,17.486 41.832,15.165 32.009,21.599 
			45,23.836 		"/>
		<polygon fill="#FF4F33" points="4.118,23.836 11.804,22.041 5.402,17.459 15.1,19.988 9.003,12.046 16.823,17.872 14.416,8.442 
			18.999,14.848 20.793,4.117 22.588,14.848 27.17,8.442 25.881,16.21 31.219,13.421 28.419,18.75 38.013,16.75 29.785,22.041 
			40.884,23.836 		"/>
		<polygon fill="#FFF88C" points="8.231,23.836 14.03,22.48 9.221,19.041 16.985,21.25 11.915,14.958 18.085,19.761 16.001,12.264 
			19.44,17.07 20.793,8.233 22.145,17.07 25.588,12.264 24.618,18.099 28.308,16.333 26.53,20.011 34.191,18.331 27.56,22.482 
			36.767,23.836 		"/>
	</g>
</g>
</svg>
