<?xml version="1.0" encoding="utf-8"?>
<!-- Generator: Adobe Illustrator 16.0.0, SVG Export Plug-In . SVG Version: 6.00 Build 0)  -->
<!DOCTYPE svg PUBLIC "-//W3C//DTD SVG 1.1//EN" "http://www.w3.org/Graphics/SVG/1.1/DTD/svg11.dtd">
<svg version="1.1" id="graph" xmlns="http://www.w3.org/2000/svg" xmlns:xlink="http://www.w3.org/1999/xlink" x="0px" y="0px"
	 width="880px" height="375px" viewBox="0 0 880 375" enable-background="new 0 0 880 375" xml:space="preserve">
<linearGradient id="SVGID_1_" gradientUnits="userSpaceOnUse" x1="293.6128" y1="202.9824" x2="314.3081" y2="202.9824">
	<stop  offset="0" style="stop-color:#026CB6"/>
	<stop  offset="1" style="stop-color:#026CB6;stop-opacity:0"/>
</linearGradient>
<polyline opacity="0.3" fill="url(#SVGID_1_)" points="314.308,350.14 314.308,55.825 293.613,55.825 293.613,350.14 "/>
<polyline opacity="0.3" fill="#026CB6" points="348.268,350.14 348.268,55.825 327.734,55.825 327.734,350.14 "/>
<polyline opacity="0.3" fill="#026CB6" points="445.408,350.14 445.408,55.825 362.236,55.825 362.236,350.14 "/>
<polyline opacity="0.3" fill="#026CB6" points="668.512,350.14 668.512,55.825 506.296,55.825 506.296,350.14 "/>
<text transform="matrix(0 -1 1 0 305.2261 116.8096)" opacity="0.5" fill="#FFFFFF" font-family="'OpenSans'" font-size="10.7176">CEASEFIRE</text>
<text transform="matrix(0 -1 1 0 344.7002 116.8096)" opacity="0.5" fill="#FFFFFF" font-family="'OpenSans'" font-size="10.7176">CEASEFIRE</text>
<text transform="matrix(0 -1 1 0 404.5537 116.8096)" opacity="0.5" fill="#FFFFFF" font-family="'OpenSans'" font-size="10.7176">CEASEFIRE</text>
<text transform="matrix(0 -1 1 0 521.8789 116.8105)" opacity="0.5"><tspan x="0" y="0" fill="#FFFFFF" font-family="'OpenSans'" font-size="10.7176">CEASEFIRE</tspan><tspan x="-10.324" y="12.861" fill="#FFFFFF" font-family="'OpenSans'" font-size="10.7176">AGREEMENT</tspan></text>
<path id="bar" fill="#FFFFFF" d="M89.231,321.335h3.375v27.78h-3.375V321.335L89.231,321.335z M97.719,296.834h3.376v52.281h-3.376
	V296.834L97.719,296.834z M106.208,327.894h3.472v21.222h-3.472V327.894L106.208,327.894z M114.792,319.695h3.376v29.42h-3.376
	V319.695L114.792,319.695z M123.281,306.673h3.376v42.442h-3.376V306.673L123.281,306.673z M131.77,334.454h3.472v14.661h-3.472
	V334.454L131.77,334.454z M140.354,342.652h3.376v6.463h-3.376V342.652L140.354,342.652z M148.843,342.652h3.375v6.463h-3.375
	V342.652L148.843,342.652z M157.331,316.415h3.473v32.7h-3.473V316.415L157.331,316.415z M165.916,326.255h3.376v22.86h-3.376
	V326.255L165.916,326.255z M174.405,280.438h3.376v68.678h-3.376V280.438L174.405,280.438z M182.894,293.555h3.472v55.561h-3.472
	V293.555L182.894,293.555z M191.478,195.455h3.376v153.66h-3.376V195.455L191.478,195.455z M199.966,198.735h3.376v150.38h-3.376
	V198.735L199.966,198.735z M208.455,269.054h3.472v80.062h-3.472V269.054L208.455,269.054z M217.039,247.736h3.376v101.379h-3.376
	V247.736L217.039,247.736z M225.527,226.516h3.376v122.6h-3.376V226.516L225.527,226.516z M234.016,282.076h3.473v67.039h-3.473
	V282.076L234.016,282.076z M242.601,206.838h3.376v142.277h-3.376V206.838L242.601,206.838z M251.09,322.975h3.375v26.141h-3.375
	V322.975L251.09,322.975z M259.578,260.854h3.473v88.261h-3.473V260.854L259.578,260.854z M268.163,84.239h3.375v264.876h-3.375
	V84.239L268.163,84.239z M276.651,144.719h3.376v204.396h-3.376V144.719L276.651,144.719z M285.139,280.438h3.473v68.678h-3.473
	V280.438L285.139,280.438z M293.724,192.176h3.376v156.939h-3.376V192.176L293.724,192.176z M302.212,260.854h3.376v88.261h-3.376
	V260.854L302.212,260.854z M310.701,236.258h3.473v112.857h-3.473V236.258L310.701,236.258z M319.286,298.473h3.376v50.643h-3.376
	V298.473L319.286,298.473z M327.774,344.194h3.375v4.921h-3.375V344.194L327.774,344.194z M344.847,345.835h3.376v3.28h-3.376
	V345.835L344.847,345.835z M353.336,337.732h3.376v11.383h-3.376V337.732L353.336,337.732z M361.824,339.371h3.473v9.744h-3.473
	V339.371L361.824,339.371z M370.409,339.371h3.376v9.744h-3.376V339.371L370.409,339.371z M378.897,347.476h3.376v1.64h-3.376
	V347.476L378.897,347.476z M395.971,345.835h3.376v3.28h-3.376V345.835L395.971,345.835z M404.459,347.476h3.376v1.64h-3.376
	V347.476L404.459,347.476z M447.094,342.652h3.377v6.463h-3.377V342.652L447.094,342.652z M455.583,336.093h3.376v13.022h-3.376
	V336.093L455.583,336.093z M464.07,313.136h3.376v35.979h-3.376V313.136L464.07,313.136z M472.559,344.194h3.473v4.921h-3.473
	V344.194L472.559,344.194z M481.145,336.093h3.376v13.022h-3.376V336.093L481.145,336.093z M489.633,337.732h3.376v11.383h-3.376
	V337.732L489.633,337.732z M498.122,341.013h3.471v8.103h-3.471V341.013L498.122,341.013z M506.705,341.013h3.377v8.103h-3.377
	V341.013L506.705,341.013z M532.268,347.476h3.376v1.64h-3.376V347.476L532.268,347.476z M557.829,347.476h3.376v1.64h-3.376
	V347.476L557.829,347.476z M574.806,347.476h3.474v1.64h-3.474V347.476L574.806,347.476z M583.391,347.476h3.376v1.64h-3.376
	V347.476L583.391,347.476z M625.93,347.476h3.472v1.64h-3.472V347.476L625.93,347.476z M634.515,345.835h3.376v3.28h-3.376V345.835
	L634.515,345.835z M643.003,347.476h3.376v1.64h-3.376V347.476L643.003,347.476z"/>
</svg>
