<?xml version="1.0" encoding="utf-8"?>
<!-- Generator: Adobe Illustrator 16.0.0, SVG Export Plug-In . SVG Version: 6.00 Build 0)  -->
<!DOCTYPE svg PUBLIC "-//W3C//DTD SVG 1.1//EN" "http://www.w3.org/Graphics/SVG/1.1/DTD/svg11.dtd">
<svg version="1.1" id="gender" xmlns="http://www.w3.org/2000/svg" xmlns:xlink="http://www.w3.org/1999/xlink" x="0px" y="0px"
	 width="230.886px" height="230.599px" viewBox="0 0 230.886 230.599" enable-background="new 0 0 230.886 230.599"
	 xml:space="preserve">
<path fill="#BF3B26" d="M115.556,0.019c-34.636,0-64.282,13.51-87.004,39.65C-0.896,73.543-8.1,119.025,9.438,160.342
	c18.634,43.898,58.429,70.238,106.118,70.238c63.668,0,115.281-51.614,115.281-115.281C230.837,51.632,179.224,0.019,115.556,0.019z
	 M115.419,204.549c-36.897,0-68.56-22.389-82.153-54.32c-4.567-10.729-7.097-22.533-7.097-34.929
	c0-22.437,8.282-42.939,21.952-58.62c16.361-18.768,40.443-30.63,67.298-30.63c0.046,0,0.091,0.001,0.137,0.001
	c49.227,0.074,89.113,40.002,89.113,89.249C204.669,164.591,164.709,204.549,115.419,204.549z"/>
<g>
</g>
<g>
</g>
<g>
</g>
<g>
</g>
<g>
</g>
<g>
</g>
</svg>
