<?xml version="1.0" encoding="utf-8"?>
<!-- Generator: Adobe Illustrator 16.0.0, SVG Export Plug-In . SVG Version: 6.00 Build 0)  -->
<!DOCTYPE svg PUBLIC "-//W3C//DTD SVG 1.1//EN" "http://www.w3.org/Graphics/SVG/1.1/DTD/svg11.dtd">
<svg version="1.1" id="gender" xmlns="http://www.w3.org/2000/svg" xmlns:xlink="http://www.w3.org/1999/xlink" x="0px" y="0px"
	 width="230.886px" height="230.599px" viewBox="0 0 230.886 230.599" enable-background="new 0 0 230.886 230.599"
	 xml:space="preserve">
<g>
	<g>
		<path fill="#FFDCD6" d="M115.105,204.532c-3.104,0-6.172-0.159-9.195-0.469l-2.719,25.869
			c44.576,4.686,86.061-15.549,109.813-53.56l-22.169-13.854C175.067,187.747,147.048,204.532,115.105,204.532z"/>
		<path fill="#FFDCD6" d="M227.098,87.393l-25.371,6.326c1.713,6.906,2.629,14.127,2.629,21.563c0,17.348-4.956,33.538-13.52,47.238
			l22.169,13.854C230.483,148.402,235.076,119.392,227.098,87.393z"/>
		<path fill="#FFDCD6" d="M201.727,93.718l25.371-6.326C214.053,35.068,169.168,0,115.241,0v26.033
			C157.036,26.096,192.091,54.887,201.727,93.718z"/>
		<line fill="none" stroke="#FF4F33" stroke-width="3" stroke-miterlimit="10" x1="201.727" y1="93.718" x2="227.098" y2="87.393"/>
		
			<line fill="none" stroke="#FF4F33" stroke-width="3" stroke-miterlimit="10" x1="190.836" y1="162.519" x2="213.005" y2="176.373"/>
	</g>
</g>
<g>
</g>
<g>
</g>
<g>
</g>
<g>
</g>
<g>
</g>
<g>
</g>
</svg>
