<?xml version="1.0" encoding="utf-8"?>
<!-- Generator: Adobe Illustrator 16.0.0, SVG Export Plug-In . SVG Version: 6.00 Build 0)  -->
<!DOCTYPE svg PUBLIC "-//W3C//DTD SVG 1.1//EN" "http://www.w3.org/Graphics/SVG/1.1/DTD/svg11.dtd">
<svg version="1.1" id="Layer_1" xmlns="http://www.w3.org/2000/svg" xmlns:xlink="http://www.w3.org/1999/xlink" x="0px" y="0px"
	 width="53.799px" height="29.864px" viewBox="0 0 53.799 29.864" enable-background="new 0 0 53.799 29.864" xml:space="preserve">
<g>
	<rect opacity="0.6" fill="#FFFFFF" width="25.834" height="29.864"/>
	<rect x="27.965" opacity="0.6" fill="#FFFFFF" width="25.834" height="29.864"/>
	<path fill="#D0D2D3" d="M20.412,7.434L5.417,7.438l0.002,14.994l14.998-0.004L20.412,7.434z M19.439,21.47h-3.197v-3.215
		l3.195-0.003L19.439,21.47z M6.407,8.377h3.199v3.215H8.008h-1.6L6.407,8.377z M9.687,14.963h1.425l-1.425,2.854V14.963z
		 M9.687,14.884l-0.001-1.606v-1.606l3.196-0.002v0.501c-0.04-0.007-0.079-0.023-0.124-0.021c-0.156,0.014-0.296,0.109-0.367,0.251
		l-1.24,2.483H9.687z M12.962,13.583l0.976,1.301h-0.975L12.962,13.583z M16.161,14.963v0.739l-0.155,0.414l-0.865-1.153H16.161z
		 M16.161,11.669v3.215H15.08l-1.914-2.554c-0.054-0.071-0.125-0.117-0.205-0.146v-0.516h1.6H16.161z M12.877,13.471l0.006,0.006
		l0.001,1.407h-0.712L12.877,13.471z M13.998,14.963l1.777,2.369c0.092,0.12,0.238,0.177,0.388,0.172v0.672l-3.2,0.002v-3.215
		H13.998z M16.24,14.963h0.198L16.24,15.49V14.963z M16.24,14.884v-3.215h1.432l-1.203,3.215H16.24z M16.24,11.59l-0.002-1.612
		V8.375l2.667-0.002l-1.204,3.217H16.24z M16.161,11.59h-1.601h-1.6V8.375h3.197l0.002,1.603L16.161,11.59z M12.882,11.59
		l-3.196,0.002V8.377l3.196-0.002V11.59z M9.606,11.671v1.606l0.001,1.606l-3.199,0.002v-3.215h1.6H9.606z M9.607,14.963v3.011
		l-0.102,0.204H8.008L6.41,18.18l-0.002-3.215L9.607,14.963z M9.467,18.257l-0.357,0.715L6.41,20.773v-2.515L9.467,18.257z
		 M9.608,19.736v0.133l0.003,1.603H7.008L9.608,19.736z M12.133,14.963h0.751v3.215h-2.356L12.133,14.963z M16.242,18.176v-0.682
		c0.147-0.033,0.271-0.133,0.327-0.276l0.845-2.257h2.023v3.213L16.242,18.176z M17.444,14.882l1.203-3.215h0.79v3.215H17.444z
		 M18.678,11.59l0.76-2.03v2.028L18.678,11.59z M9.688,19.869v-0.185l0.029-0.019c0.066-0.044,0.119-0.106,0.154-0.177l0.617-1.232
		h2.396l0.002,1.606l0.001,1.606l-3.197,0.002L9.688,19.869z M12.963,18.257l3.2-0.002v3.215h-3.197l-0.001-1.606L12.963,18.257z"/>
	<path fill="#D0D2D3" d="M45.492,11.185h2.889v11.248h-2.889V11.185z M41.457,22.433h2.885v-15h-2.885V22.433z M37.418,22.433h2.889
		v-7.5h-2.889V22.433z M33.381,22.433h2.887v-3.748h-2.887V22.433z"/>
</g>
</svg>
