<?xml version="1.0" encoding="utf-8"?>
<!-- Generator: Adobe Illustrator 16.0.0, SVG Export Plug-In . SVG Version: 6.00 Build 0)  -->
<!DOCTYPE svg PUBLIC "-//W3C//DTD SVG 1.1//EN" "http://www.w3.org/Graphics/SVG/1.1/DTD/svg11.dtd">
<svg version="1.1" id="Layer_1" xmlns="http://www.w3.org/2000/svg" xmlns:xlink="http://www.w3.org/1999/xlink" x="0px" y="0px"
	 width="43.813px" height="43.813px" viewBox="0 0 43.813 43.813" enable-background="new 0 0 43.813 43.813" xml:space="preserve">
<g>
	<path fill="#407CCA" d="M43.803,25.663h0.007c-0.126,3.234-1.229,6.743-2.918,9.974c0,0-4.036,8.175-16.71,8.175
		S7.398,35.709,7.398,35.709c-1.694-3.252-2.721-6.731-2.85-10.046h0.01c-0.007-0.085-0.01-0.166-0.01-0.257
		c0-1.552,0.961-3.006,2.617-4.264l1.766,1.132c-1.091,0.73-1.724,1.549-1.724,2.419c0,3.063,7.6,5.545,16.974,5.545
		c9.373,0,16.973-2.481,16.973-5.545c0-2.116-3.646-3.959-8.995-4.892l0.023-2.224c6.85,1.34,11.63,4.338,11.63,7.83
		C43.813,25.497,43.81,25.578,43.803,25.663z"/>
	<g>
		<path fill="#965441" d="M11.073,12.484c-0.067,0.52-0.151,1.353,0.486,2.485c0.794,1.372,1.81,1.846,2.142,2.079
			c-0.055-0.354,0.042-1.409-0.703-2.698c-0.642-1.153-1.345-1.666-1.76-2.062c-1.173-1.692-2.498-3.047-3.503-4.117L5.333,5.679
			c-0.004,0,0.861,0.999,2.302,2.573C8.62,9.364,9.926,10.768,11.073,12.484z"/>
		<path fill="#965441" d="M17.082,25.686c0.515,0.485,1.164,1.278,2.607,2.079c1.618,0.904,2.986,0.904,3.447,1.007
			c-0.259-0.422-0.782-1.763-2.57-2.75c-1.466-0.81-2.563-0.653-3.236-0.542c-2.211-1.287-4.107-2.602-5.638-3.543
			c-2.184-1.349-3.604-2.034-3.598-2.037c-0.006,0.006,1.376,0.759,3.513,2.171C13.075,23.044,14.905,24.379,17.082,25.686z"/>
		<path fill="#965441" d="M18.386,18.646c-0.174,0.594-0.425,1.558,0.139,2.979c0.675,1.734,1.799,2.456,2.147,2.784
			c0.002-0.422,0.296-1.626-0.338-3.257c-0.566-1.449-1.299-2.173-1.721-2.704c-1.097-2.168-2.429-3.971-3.456-5.374l-2.45-3.304
			l2.316,3.377C16.021,14.602,17.321,16.455,18.386,18.646z"/>
		<path fill="#965441" d="M14.268,22.168c0.486,0.434,1.11,1.161,2.473,1.88c1.526,0.804,2.801,0.775,3.226,0.858
			c-0.252-0.385-0.77-1.606-2.455-2.49c-1.376-0.722-2.391-0.562-3.016-0.444c-2.084-1.159-3.874-2.354-5.309-3.215
			c-2.058-1.224-3.392-1.846-3.384-1.851c-0.004,0.005,1.292,0.69,3.3,1.979C10.487,19.775,12.217,20.991,14.268,22.168z"/>
		<path fill="#965441" d="M11.328,18.7c0.458,0.397,1.048,1.064,2.32,1.701c1.426,0.722,2.604,0.67,3.002,0.742
			c-0.239-0.352-0.745-1.464-2.314-2.256c-1.287-0.645-2.222-0.479-2.8-0.369c-1.948-1.041-3.62-2.13-4.962-2.909
			c-1.919-1.116-3.162-1.68-3.158-1.686c-0.004,0.012,1.206,0.633,3.085,1.803C7.796,16.529,9.411,17.642,11.328,18.7z"/>
		<path fill="#965441" d="M8.33,13.648c0.86,0.767,1.679,0.813,2.143,0.964c-0.1-0.374-0.014-1.301-0.994-2.174
			c-0.837-0.718-1.683-0.776-2.116-0.81c-3.446-2.95-6.501-4.85-7.207-5.3L0,6.221c-0.025,0.025,3.34,2.245,7.285,5.705
			C7.41,12.354,7.642,13.058,8.33,13.648z"/>
		<path fill="#965441" d="M8.271,15.28c0.426,0.359,0.976,0.969,2.159,1.535c1.316,0.656,2.403,0.587,2.771,0.644
			c-0.228-0.313-0.711-1.312-2.158-2.031C9.848,14.858,8.989,15,8.462,15.109c-1.805-0.936-3.351-1.934-4.598-2.629
			c-1.773-1.022-2.928-1.518-2.927-1.524c-0.001,0.006,1.126,0.557,2.859,1.635C4.998,13.31,6.494,14.324,8.271,15.28z"/>
		<path fill="#965441" d="M14.829,15.469c-0.122,0.559-0.289,1.46,0.321,2.732c0.738,1.558,1.821,2.151,2.161,2.43
			c-0.029-0.388,0.155-1.517-0.534-2.983c-0.619-1.297-1.334-1.917-1.755-2.381c-1.145-1.925-2.475-3.512-3.499-4.744L9.086,7.624
			l2.319,2.979C12.408,11.88,13.712,13.511,14.829,15.469z"/>
		<path fill="#965441" d="M28.377,18.783c-0.389,0.383-0.994,1.016-1.188,2.328c-0.243,1.601,0.287,2.607,0.407,3.001
			c0.184-0.313,0.933-1.112,1.165-2.619c0.2-1.341-0.041-2.19-0.13-2.772c0.11-2.105-0.126-4.033-0.302-5.522
			c-0.263-2.173-0.452-3.525-0.449-3.525l0.313,3.525C28.33,14.718,28.518,16.672,28.377,18.783z"/>
		<path fill="#965441" d="M27.134,15.2c-0.336,0.377-0.856,1.001-0.954,2.231c-0.121,1.494,0.431,2.396,0.568,2.75
			c0.151-0.308,0.79-1.096,0.908-2.499c0.103-1.252-0.171-2.022-0.288-2.556c-0.024-1.952-0.348-3.714-0.593-5.083l-0.602-3.231
			l0.48,3.243C26.858,11.447,27.144,13.238,27.134,15.2z"/>
		<path fill="#965441" d="M25.693,11.689c-0.288,0.368-0.726,0.976-0.737,2.114c-0.017,1.383,0.555,2.179,0.703,2.496
			c0.113-0.297,0.649-1.064,0.667-2.365c0.014-1.158-0.281-1.843-0.422-2.328c-0.142-1.792-0.541-3.394-0.848-4.636l-0.735-2.935
			l0.621,2.955C25.211,8.258,25.576,9.889,25.693,11.689z"/>
		<path fill="#965441" d="M28.233,28.082c0.221-0.325,1.087-1.112,1.449-2.715c0.314-1.426,0.114-2.356,0.059-2.987
			c0.26-2.256,0.124-4.344,0.023-5.958c-0.151-2.356-0.28-3.817-0.28-3.817l0.134,3.813c0.053,1.638,0.137,3.751-0.158,6.004
			c-0.443,0.388-1.132,1.024-1.435,2.417C27.651,26.533,28.133,27.654,28.233,28.082z"/>
		<path fill="#965441" d="M21.028,9.381c0.178,0.405,0.357,1.036,1.012,1.843c0.722,0.916,1.526,1.223,1.773,1.389
			c-0.056-0.305-0.046-1.201-0.841-2.205c-0.66-0.816-1.327-0.992-1.749-1.086c-0.969-1.287-1.731-2.53-2.387-3.455
			C17.92,4.53,17.26,3.785,17.267,3.779C17.26,3.785,17.88,4.561,18.75,5.924C19.362,6.854,20.082,8.095,21.028,9.381z"/>
		<path fill="#965441" d="M21.646,8.207c0.352,0.844,0.925,1.152,1.206,1.411c0.059-0.305,0.447-0.955,0.05-1.919
			c-0.35-0.804-0.943-1.129-1.241-1.294c-1.446-3.303-2.976-5.711-3.326-6.275L18.26,0c-0.026,0.008,1.617,2.752,3.242,6.595
			C21.441,6.949,21.357,7.544,21.646,8.207z"/>
		<path fill="#965441" d="M23.094,14.921c0.776,0.998,1.643,1.352,1.907,1.534c-0.047-0.336-0.018-1.317-0.873-2.421
			c-0.699-0.898-1.434-1.093-1.888-1.195c-1.04-1.413-1.863-2.761-2.555-3.777c-0.988-1.454-1.683-2.276-1.683-2.282
			c0,0.006,0.65,0.862,1.589,2.345c0.648,1.015,1.422,2.367,2.431,3.779C22.215,13.347,22.407,14.025,23.094,14.921z"/>
		<path fill="#965441" d="M24.037,8.258c-0.232,0.359-0.586,0.944-0.528,1.985c0.088,1.27,0.655,1.954,0.81,2.23
			c0.086-0.274,0.528-1.016,0.446-2.208c-0.055-1.059-0.382-1.666-0.54-2.1c-0.249-1.626-0.725-3.058-1.071-4.176l-0.853-2.627
			c-0.002-0.002,0.27,1.024,0.75,2.655C23.368,5.16,23.813,6.62,24.037,8.258z"/>
		<path fill="#965441" d="M22.922,16.418c0.194,0.482,0.386,1.224,1.115,2.196c0.817,1.099,1.746,1.498,2.029,1.701
			c-0.048-0.369,0.007-1.435-0.893-2.639c-0.742-0.987-1.527-1.204-2.021-1.326c-1.097-1.543-1.962-3.009-2.694-4.117
			c-1.05-1.58-1.793-2.476-1.791-2.479c-0.002,0.003,0.689,0.936,1.686,2.547C21.038,13.409,21.854,14.875,22.922,16.418z"/>
		<path fill="#965441" d="M12.291,26.068c-0.004,0.006,1.208,0.69,3.104,2.031c0.134,0.029,0.267,0.058,0.403,0.085
			C13.676,26.77,12.287,26.074,12.291,26.068z"/>
		<path fill="#965441" d="M27.414,28.735c-0.284-0.448-0.582-0.773-0.877-1.024c-0.1-0.274-0.205-0.525-0.312-0.753
			c0.643,0.656,1.245,0.985,1.467,1.164c0-0.029,0-0.068,0-0.108c0.081,0.257,0.153,0.525,0.229,0.787
			c0.122-0.009,0.243-0.017,0.361-0.025c-0.219-0.759-0.465-1.492-0.734-2.193c-0.092-0.371-0.249-0.784-0.496-1.224
			c-0.235-0.551-0.472-1.076-0.708-1.581c0.288,0.197,0.521,0.328,0.639,0.419c-0.039-0.399,0.058-1.552-0.883-2.87
			c-0.551-0.77-1.141-1.112-1.626-1.301l-1.492-2.898c-0.003,0,0.483,1.056,1.323,2.835c-0.125-0.04-0.241-0.074-0.345-0.103
			c-1.145-1.677-2.048-3.269-2.818-4.466c-1.099-1.711-1.883-2.682-1.878-2.685c-0.003,0.006,0.726,1.013,1.767,2.759
			c0.714,1.198,1.566,2.787,2.673,4.461c0.199,0.524,0.391,1.323,1.147,2.39c0.355,0.497,0.73,0.862,1.072,1.141
			c0.131,0.297,0.266,0.599,0.398,0.913c-0.64-0.644-1.286-0.849-1.723-0.981c-0.125-0.194-0.245-0.388-0.366-0.582
			c-0.737-1.581-1.529-2.981-2.193-4.147c-1.461-2.556-2.412-4.122-2.408-4.122l2.238,4.19c0.17,0.319,0.347,0.658,0.532,1.006
			c-0.244-0.419-0.479-0.813-0.699-1.175c-1.139-1.845-1.964-2.889-1.959-2.895c-0.004,0.006,0.759,1.09,1.837,2.973
			c0.634,1.106,1.365,2.521,2.276,4.05c0.4,0.89,0.783,1.837,1.118,2.833c-0.091,0.208-0.195,0.459-0.287,0.755
			c-1.005-1.723-1.824-3.32-2.559-4.547c-0.235-0.411-0.454-0.767-0.66-1.101c-0.923-1.894-1.977-3.525-2.827-4.834
			c-1.484-2.29-2.44-3.705-2.437-3.705l2.289,3.779c0.982,1.626,2.266,3.708,3.257,6.136c-0.231,0.63-0.569,1.646-0.07,3.212
			c0.602,1.912,1.751,2.767,2.102,3.146c0.033-0.428,0.393-1.583-0.031-3.22c0.261,0.496,0.541,1.004,0.839,1.523
			c-0.124,0.591-0.153,1.329,0.073,2.27c0.949-0.005,1.886-0.04,2.802-0.102C27.449,28.8,27.436,28.772,27.414,28.735z"/>
		<path fill="#965441" d="M14.063,25.189c-2.306-1.478-3.811-2.225-3.807-2.231c-0.004,0.006,1.456,0.827,3.708,2.373
			c1.306,0.902,2.9,2.088,4.734,3.309c0.226,0.022,0.458,0.04,0.686,0.065C17.318,27.408,15.527,26.13,14.063,25.189z"/>
		<path fill="#965441" d="M30.671,26.103c0.434-2.396,0.401-4.65,0.4-6.384l-0.083-4.11c-0.003-0.003-0.04,1.568-0.072,4.099
			c-0.049,1.757-0.078,4.027-0.548,6.423c-0.5,0.383-1.267,1.016-1.706,2.476c-0.011,0.052-0.019,0.091-0.03,0.143
			c0.664-0.063,1.306-0.137,1.937-0.229C30.774,27.449,30.683,26.655,30.671,26.103z"/>
	</g>
	<g>
		<path fill="#FBC955" stroke="#965441" stroke-width="0.3" stroke-miterlimit="10" d="M12.999,14.351
			c-0.642-1.153-1.345-1.666-1.76-2.062c-0.039-0.056-0.08-0.104-0.119-0.159c-0.048,0.067-0.116,0.116-0.193,0.151
			c0.048,0.07,0.099,0.132,0.146,0.204c-0.067,0.52-0.151,1.353,0.486,2.485c0.794,1.372,1.81,1.846,2.142,2.079
			C13.646,16.695,13.743,15.64,12.999,14.351z"/>
		<path fill="#FBC955" stroke="#965441" stroke-width="0.3" stroke-miterlimit="10" d="M20.566,26.022
			c-1.444-0.797-2.527-0.658-3.203-0.546c-0.032,0.113-0.101,0.217-0.197,0.292c0.503,0.49,1.155,1.237,2.523,1.997
			c1.618,0.904,2.986,0.904,3.447,1.007C22.876,28.35,22.354,27.009,20.566,26.022z"/>
		<path fill="#FBC955" stroke="#965441" stroke-width="0.3" stroke-miterlimit="10" d="M20.334,21.15
			c-0.566-1.449-1.299-2.173-1.721-2.704c-0.025-0.049-0.053-0.092-0.078-0.141c-0.075,0.063-0.164,0.108-0.262,0.126
			c0.037,0.073,0.077,0.139,0.113,0.213c-0.174,0.594-0.425,1.558,0.139,2.979c0.675,1.734,1.799,2.456,2.147,2.784
			C20.675,23.985,20.969,22.782,20.334,21.15z"/>
		<path fill="#FBC955" stroke="#965441" stroke-width="0.3" stroke-miterlimit="10" d="M17.512,22.417
			c-1.376-0.722-2.391-0.562-3.016-0.444c-0.044-0.024-0.083-0.049-0.127-0.073c-0.039,0.093-0.096,0.172-0.171,0.228
			c0.024,0.014,0.045,0.028,0.069,0.042c0.486,0.434,1.11,1.161,2.473,1.88c1.526,0.804,2.801,0.775,3.226,0.858
			C19.714,24.522,19.197,23.301,17.512,22.417z"/>
		<path fill="#FBC955" stroke="#965441" stroke-width="0.3" stroke-miterlimit="10" d="M14.336,18.886
			c-1.287-0.645-2.222-0.479-2.8-0.369c-0.069-0.037-0.131-0.074-0.199-0.111c-0.03,0.091-0.084,0.16-0.155,0.209
			c0.05,0.028,0.095,0.056,0.146,0.084c0.458,0.397,1.048,1.064,2.32,1.701c1.426,0.722,2.604,0.67,3.002,0.742
			C16.412,20.791,15.906,19.678,14.336,18.886z"/>
		<path fill="#FBC955" stroke="#965441" stroke-width="0.3" stroke-miterlimit="10" d="M9.479,12.439
			c-0.837-0.718-1.683-0.776-2.116-0.81c-0.09-0.077-0.175-0.145-0.265-0.22c-0.047,0.08-0.112,0.146-0.187,0.192
			c0.125,0.108,0.248,0.214,0.374,0.324c0.125,0.428,0.356,1.132,1.045,1.723c0.86,0.767,1.679,0.813,2.143,0.964
			C10.373,14.239,10.458,13.312,9.479,12.439z"/>
		<path fill="#FBC955" stroke="#965441" stroke-width="0.3" stroke-miterlimit="10" d="M11.043,15.428
			c-1.05-0.501-1.839-0.452-2.374-0.359c-0.055,0.079-0.126,0.15-0.235,0.192c0.028,0.002,0.056,0.003,0.084,0.005
			c-0.015,0.067-0.043,0.119-0.074,0.166c0.406,0.365,0.956,0.89,1.985,1.382c1.316,0.656,2.403,0.587,2.771,0.644
			C12.973,17.146,12.49,16.147,11.043,15.428z"/>
		<path fill="#FBC955" stroke="#965441" stroke-width="0.3" stroke-miterlimit="10" d="M16.776,17.647
			c-0.619-1.297-1.334-1.917-1.755-2.381c-0.021-0.036-0.044-0.067-0.065-0.102c-0.077,0.052-0.166,0.081-0.262,0.086
			c0.044,0.075,0.091,0.143,0.135,0.219c-0.122,0.559-0.289,1.46,0.321,2.732c0.738,1.558,1.821,2.151,2.161,2.43
			C17.281,20.243,17.465,19.114,16.776,17.647z"/>
		<path fill="#FBC955" stroke="#965441" stroke-width="0.3" stroke-miterlimit="10" d="M28.788,19.698
			c-0.047-0.39-0.116-0.716-0.156-0.978c0.004-0.087,0-0.169,0.004-0.256c-0.093,0.005-0.179-0.008-0.247-0.052
			c-0.006,0.125-0.004,0.244-0.012,0.371c-0.389,0.383-0.994,1.016-1.188,2.328c-0.243,1.601,0.287,2.607,0.407,3.001
			c0.184-0.313,0.933-1.112,1.165-2.619c0.034-0.227,0.041-0.421,0.052-0.621C28.753,20.5,28.753,20.103,28.788,19.698z"/>
		<path fill="#FBC955" stroke="#965441" stroke-width="0.3" stroke-miterlimit="10" d="M27.354,14.817
			c-0.079,0.003-0.158-0.009-0.231-0.038c0.002,0.142,0.013,0.277,0.012,0.421c-0.336,0.377-0.856,1.001-0.954,2.231
			c-0.121,1.494,0.431,2.396,0.568,2.75c0.151-0.308,0.79-1.096,0.908-2.499c0.103-1.252-0.171-2.022-0.288-2.556
			C27.367,15.021,27.357,14.922,27.354,14.817z"/>
		<path fill="#FBC955" stroke="#965441" stroke-width="0.3" stroke-miterlimit="10" d="M25.902,11.606
			c-0.008-0.104-0.025-0.201-0.035-0.304c-0.071,0.014-0.142,0.013-0.214-0.013c0.012,0.135,0.03,0.263,0.039,0.4
			c-0.288,0.368-0.726,0.976-0.737,2.114c-0.017,1.383,0.555,2.179,0.703,2.496c0.113-0.297,0.649-1.064,0.667-2.365
			C26.339,12.776,26.044,12.091,25.902,11.606z"/>
		<path fill="#FBC955" stroke="#965441" stroke-width="0.3" stroke-miterlimit="10" d="M29.764,22.07
			c-0.086,0.04-0.18,0.043-0.273,0.019c-0.013,0.112-0.017,0.22-0.032,0.333c-0.443,0.388-1.132,1.024-1.435,2.417
			c-0.374,1.694,0.109,2.815,0.208,3.243c0.221-0.325,1.087-1.112,1.449-2.715c0.314-1.426,0.114-2.356,0.059-2.987
			C29.752,22.274,29.753,22.175,29.764,22.07z"/>
		<path fill="#FBC955" stroke="#965441" stroke-width="0.3" stroke-miterlimit="10" d="M22.973,10.408
			c-0.66-0.816-1.327-0.992-1.749-1.086c-0.089-0.118-0.167-0.232-0.253-0.349c-0.053,0.037-0.11,0.064-0.173,0.081
			c0.078,0.11,0.148,0.217,0.23,0.328c0.178,0.405,0.357,1.036,1.012,1.843c0.722,0.916,1.526,1.223,1.773,1.389
			C23.757,12.308,23.768,11.412,22.973,10.408z"/>
		<path fill="#FBC955" stroke="#965441" stroke-width="0.3" stroke-miterlimit="10" d="M22.902,7.698
			c-0.35-0.804-0.943-1.129-1.241-1.294c-0.054-0.124-0.109-0.239-0.164-0.359c-0.042,0.059-0.095,0.112-0.166,0.159
			c0.057,0.131,0.113,0.256,0.17,0.391c-0.06,0.354-0.144,0.95,0.144,1.612c0.352,0.844,0.925,1.152,1.206,1.411
			C22.91,9.313,23.298,8.663,22.902,7.698z"/>
		<path fill="#FBC955" stroke="#965441" stroke-width="0.3" stroke-miterlimit="10" d="M24.128,14.034
			c-0.699-0.898-1.434-1.093-1.888-1.195c-0.065-0.089-0.123-0.175-0.187-0.263c-0.043,0.057-0.095,0.108-0.156,0.145
			c0.043,0.062,0.081,0.121,0.125,0.183c0.192,0.443,0.384,1.122,1.071,2.017c0.776,0.998,1.643,1.352,1.907,1.534
			C24.954,16.119,24.983,15.138,24.128,14.034z"/>
		<path fill="#FBC955" stroke="#965441" stroke-width="0.3" stroke-miterlimit="10" d="M24.226,8.167
			c-0.014-0.093-0.036-0.178-0.051-0.27c-0.056,0.03-0.12,0.045-0.191,0.046C24,8.049,24.022,8.149,24.037,8.258
			c-0.232,0.359-0.586,0.944-0.528,1.985c0.088,1.27,0.655,1.954,0.81,2.23c0.086-0.274,0.528-1.016,0.446-2.208
			C24.71,9.207,24.384,8.6,24.226,8.167z"/>
		<path fill="#FBC955" stroke="#965441" stroke-width="0.3" stroke-miterlimit="10" d="M25.174,17.676
			c-0.742-0.987-1.527-1.204-2.021-1.326c-0.07-0.099-0.131-0.193-0.2-0.291c-0.063,0.042-0.136,0.067-0.217,0.079
			c0.064,0.094,0.12,0.186,0.186,0.28c0.194,0.482,0.386,1.224,1.115,2.196c0.817,1.099,1.746,1.498,2.029,1.701
			C26.018,19.946,26.074,18.88,25.174,17.676z"/>
		<path fill="#FBC955" stroke="#965441" stroke-width="0.3" stroke-miterlimit="10" d="M23.809,26.1
			c0.008-0.157,0.028-0.312,0.048-0.466c-0.028-0.159-0.059-0.32-0.103-0.489c0.04,0.076,0.087,0.156,0.128,0.232
			c0.005-0.053,0.014-0.106,0.016-0.161c0.003-0.086,0.026-0.159,0.06-0.222c-0.684-1.225-1.279-2.347-1.827-3.261
			c-0.03-0.052-0.057-0.097-0.086-0.146c-0.035,0.041-0.064,0.082-0.118,0.122c-0.084,0.063-0.182,0.073-0.28,0.063
			c0.036,0.078,0.073,0.153,0.106,0.235c-0.231,0.63-0.569,1.646-0.07,3.212c0.602,1.912,1.751,2.767,2.102,3.146
			c0.023-0.301,0.203-0.967,0.163-1.902C23.857,26.382,23.801,26.261,23.809,26.1z"/>
		<path fill="#FBC955" stroke="#965441" stroke-width="0.3" stroke-miterlimit="10" d="M27.548,26.582
			c-0.092-0.371-0.249-0.784-0.496-1.224c-0.235-0.551-0.472-1.076-0.708-1.581c0.288,0.197,0.521,0.328,0.639,0.419
			c-0.039-0.399,0.058-1.552-0.883-2.87c-0.551-0.77-1.141-1.112-1.626-1.301l-0.243-0.472c-0.016,0.045-0.044,0.073-0.068,0.107
			c0.047,0.101,0.093,0.196,0.143,0.303c-0.125-0.04-0.241-0.074-0.345-0.103c-0.008-0.012-0.015-0.022-0.022-0.034
			c-0.103,0.027-0.205,0.024-0.308-0.014c0.024,0.039,0.048,0.077,0.074,0.116c0.199,0.524,0.391,1.323,1.147,2.39
			c0.355,0.497,0.73,0.862,1.072,1.141c0.131,0.297,0.266,0.599,0.398,0.913c-0.64-0.644-1.286-0.849-1.723-0.981
			c-0.079-0.123-0.155-0.245-0.231-0.367c-0.072,0.09-0.177,0.151-0.295,0.176c0.227,0.527,0.443,1.075,0.651,1.634
			c0.106,0.08,0.179,0.203,0.172,0.38c-0.001,0.025-0.005,0.049-0.007,0.073c0.028,0.08,0.059,0.155,0.086,0.235
			c-0.045,0.104-0.094,0.219-0.143,0.344c-0.009,0.077-0.02,0.154-0.024,0.232c-0.011,0.218-0.137,0.357-0.293,0.427
			c0.027,0.048,0.05,0.093,0.077,0.141c-0.124,0.591-0.153,1.329,0.073,2.27c0.949-0.005,1.886-0.04,2.802-0.102
			c-0.02-0.035-0.033-0.063-0.054-0.1c-0.284-0.448-0.582-0.773-0.877-1.024c-0.1-0.274-0.205-0.525-0.312-0.753
			c0.643,0.656,1.245,0.985,1.467,1.164v-0.108c0.081,0.257,0.153,0.525,0.229,0.787c0.122-0.009,0.243-0.017,0.361-0.025
			C28.063,28.016,27.818,27.283,27.548,26.582z"/>
		<path fill="#FBC955" stroke="#965441" stroke-width="0.3" stroke-miterlimit="10" d="M30.715,25.787
			c-0.029-0.001-0.054,0.005-0.084-0.001c-0.082-0.018-0.129-0.066-0.193-0.1c-0.026,0.15-0.041,0.294-0.07,0.444
			c-0.5,0.383-1.267,1.016-1.706,2.476c-0.011,0.052-0.019,0.091-0.03,0.143c0.664-0.063,1.306-0.137,1.937-0.229
			c0.206-1.072,0.114-1.866,0.103-2.418C30.691,25.995,30.698,25.894,30.715,25.787z"/>
	</g>
</g>
</svg>
