<?xml version="1.0" encoding="utf-8"?>
<!-- Generator: Adobe Illustrator 16.0.0, SVG Export Plug-In . SVG Version: 6.00 Build 0)  -->
<!DOCTYPE svg PUBLIC "-//W3C//DTD SVG 1.1//EN" "http://www.w3.org/Graphics/SVG/1.1/DTD/svg11.dtd">
<svg version="1.1" id="Layer_1" xmlns="http://www.w3.org/2000/svg" xmlns:xlink="http://www.w3.org/1999/xlink" x="0px" y="0px"
	 width="29.018px" height="24.654px" viewBox="0 0 29.018 24.654" enable-background="new 0 0 29.018 24.654" xml:space="preserve">
<g>
	<path fill="#FFFFFF" d="M24.512,5.311h-4.443V0H8.949v5.311H4.506C2.029,5.311,0,7.34,0,9.816v10.332
		c0,2.477,2.029,4.506,4.506,4.506h20.006c2.479,0,4.506-2.029,4.506-4.506V9.816C29.018,7.34,26.99,5.311,24.512,5.311z
		 M17.996,5.311h-6.975V2.072h6.975V5.311z"/>
	<polygon fill="#EC1C24" points="13.008,16.277 9.67,16.277 9.67,19.61 7.086,19.61 7.086,16.277 3.752,16.277 3.752,13.695 
		7.086,13.695 7.086,10.36 9.67,10.36 9.67,13.695 13.008,13.695 	"/>
</g>
</svg>
