<?xml version="1.0" encoding="utf-8"?>
<!-- Generator: Adobe Illustrator 16.0.0, SVG Export Plug-In . SVG Version: 6.00 Build 0)  -->
<!DOCTYPE svg PUBLIC "-//W3C//DTD SVG 1.1//EN" "http://www.w3.org/Graphics/SVG/1.1/DTD/svg11.dtd">
<svg version="1.1" id="Layer_1" xmlns="http://www.w3.org/2000/svg" xmlns:xlink="http://www.w3.org/1999/xlink" x="0px" y="0px"
	 width="19.167px" height="20.125px" viewBox="0 0 19.167 20.125" enable-background="new 0 0 19.167 20.125" xml:space="preserve">
<path fill="#80D3F2" d="M16.269,12.543c0.376,0.75,2.067,4.696,2.067,5.262c0,3.094-4.134,3.094-4.134,0
	C14.202,17.24,15.894,13.106,16.269,12.543z"/>
<path fill="#404041" d="M18.711,10.444c0-0.427,0-1.138,0-2.387c0-1.512-1.373-2.819-3.193-2.819c0,0-0.011,0-4.252,0l-0.023-1.327
	c0-0.381-0.311-0.692-0.693-0.692H8.887V2.368C9.03,2.283,9.149,2.176,9.251,2.044c0.499,0,1.509,0,3.54,0
	c0.237,0.304,0.587,0.515,1.001,0.515c0.705,0,1.279-0.572,1.279-1.279C15.071,0.573,14.497,0,13.792,0
	c-0.423,0-0.782,0.224-1.014,0.542c-0.56,0-1.606,0-3.511,0C9.032,0.224,8.676,0,8.251,0C7.829,0,7.469,0.224,7.236,0.542
	c-1.086,0-2.374,0-3.875,0C3.129,0.224,2.771,0,2.35,0c-0.708,0-1.28,0.573-1.28,1.281c0,0.707,0.572,1.279,1.28,1.279
	c0.411,0,0.763-0.211,0.994-0.515c0.641,0,1.809,0,3.909,0c0.102,0.134,0.224,0.243,0.37,0.325v0.85H5.858
	c-0.381,0-0.691,0.311-0.691,0.692v1.327c-0.435,0-1.676,0-5.167,0v4.134c0.122,0,0.959,0,5.747,0
	c0.563,1.13,1.314,1.689,2.442,1.689c1.127,0,2.066-0.56,2.63-1.689c0,0,0,0,2.067,0c0.617,0,0.845,0.397,0.91,1.158
	c-0.181,0.123-0.305,0.323-0.305,0.559c0,0.383,0.311,0.693,0.691,0.693h4.29c0.383,0,0.693-0.31,0.693-0.693
	C19.167,10.791,18.977,10.541,18.711,10.444z"/>
</svg>
